<?xml version="1.0" encoding="utf-8" standalone="no"?>
<!DOCTYPE svg PUBLIC "-//W3C//DTD SVG 1.1//EN"
  "http://www.w3.org/Graphics/SVG/1.1/DTD/svg11.dtd">
<svg xmlns:xlink="http://www.w3.org/1999/xlink" width="864pt" height="360pt" viewBox="0 0 864 360" xmlns="http://www.w3.org/2000/svg" version="1.1">
 <metadata>
  <rdf:RDF xmlns:dc="http://purl.org/dc/elements/1.1/" xmlns:cc="http://creativecommons.org/ns#" xmlns:rdf="http://www.w3.org/1999/02/22-rdf-syntax-ns#">
   <cc:Work>
    <dc:type rdf:resource="http://purl.org/dc/dcmitype/StillImage"/>
    <dc:date>2026-01-07T20:08:22.611456</dc:date>
    <dc:format>image/svg+xml</dc:format>
    <dc:creator>
     <cc:Agent>
      <dc:title>Matplotlib v3.10.8, https://matplotlib.org/</dc:title>
     </cc:Agent>
    </dc:creator>
   </cc:Work>
  </rdf:RDF>
 </metadata>
 <defs>
  <style type="text/css">*{stroke-linejoin: round; stroke-linecap: butt}</style>
 </defs>
 <g id="figure_1">
  <g id="patch_1">
   <path d="M 0 360 
L 864 360 
L 864 0 
L 0 0 
L 0 360 
z
" style="fill: none; opacity: 0"/>
  </g>
  <g id="axes_1">
   <g id="patch_2">
    <path d="M 108 320.4 
L 777.6 320.4 
L 777.6 43.2 
L 108 43.2 
L 108 320.4 
z
" style="fill: none; opacity: 0"/>
   </g>
   <g id="matplotlib.axis_1">
    <g id="xtick_1">
     <g id="line2d_1">
      <path d="M 129.836408 320.4 
L 129.836408 43.2 
" clip-path="url(#pc27254e133)" style="fill: none; stroke-dasharray: 5.12,1.28,0.8,1.28; stroke-dashoffset: 0; stroke: #b0b0b0; stroke-width: 0.8"/>
     </g>
     <g id="line2d_2">
      <defs>
       <path id="mb4db6a3292" d="M 0 0 
L 0 3.5 
" style="stroke: #a9a9a9; stroke-width: 0.8"/>
      </defs>
      <g>
       <use xlink:href="#mb4db6a3292" x="129.836408" y="320.4" style="fill: #a9a9a9; stroke: #a9a9a9; stroke-width: 0.8"/>
      </g>
     </g>
     <g id="text_1">
      <!-- 2021-07 -->
      <g style="fill: #a9a9a9" transform="translate(108.945002 334.998438) scale(0.1 -0.1)">
       <defs>
        <path id="DejaVuSans-32" d="M 1228 531 
L 3431 531 
L 3431 0 
L 469 0 
L 469 531 
Q 828 903 1448 1529 
Q 2069 2156 2228 2338 
Q 2531 2678 2651 2914 
Q 2772 3150 2772 3378 
Q 2772 3750 2511 3984 
Q 2250 4219 1831 4219 
Q 1534 4219 1204 4116 
Q 875 4013 500 3803 
L 500 4441 
Q 881 4594 1212 4672 
Q 1544 4750 1819 4750 
Q 2544 4750 2975 4387 
Q 3406 4025 3406 3419 
Q 3406 3131 3298 2873 
Q 3191 2616 2906 2266 
Q 2828 2175 2409 1742 
Q 1991 1309 1228 531 
z
" transform="scale(0.015625)"/>
        <path id="DejaVuSans-30" d="M 2034 4250 
Q 1547 4250 1301 3770 
Q 1056 3291 1056 2328 
Q 1056 1369 1301 889 
Q 1547 409 2034 409 
Q 2525 409 2770 889 
Q 3016 1369 3016 2328 
Q 3016 3291 2770 3770 
Q 2525 4250 2034 4250 
z
M 2034 4750 
Q 2819 4750 3233 4129 
Q 3647 3509 3647 2328 
Q 3647 1150 3233 529 
Q 2819 -91 2034 -91 
Q 1250 -91 836 529 
Q 422 1150 422 2328 
Q 422 3509 836 4129 
Q 1250 4750 2034 4750 
z
" transform="scale(0.015625)"/>
        <path id="DejaVuSans-31" d="M 794 531 
L 1825 531 
L 1825 4091 
L 703 3866 
L 703 4441 
L 1819 4666 
L 2450 4666 
L 2450 531 
L 3481 531 
L 3481 0 
L 794 0 
L 794 531 
z
" transform="scale(0.015625)"/>
        <path id="DejaVuSans-2d" d="M 313 2009 
L 1997 2009 
L 1997 1497 
L 313 1497 
L 313 2009 
z
" transform="scale(0.015625)"/>
        <path id="DejaVuSans-37" d="M 525 4666 
L 3525 4666 
L 3525 4397 
L 1831 0 
L 1172 0 
L 2766 4134 
L 525 4134 
L 525 4666 
z
" transform="scale(0.015625)"/>
       </defs>
       <use xlink:href="#DejaVuSans-32"/>
       <use xlink:href="#DejaVuSans-30" transform="translate(63.623047 0)"/>
       <use xlink:href="#DejaVuSans-32" transform="translate(127.246094 0)"/>
       <use xlink:href="#DejaVuSans-31" transform="translate(190.869141 0)"/>
       <use xlink:href="#DejaVuSans-2d" transform="translate(254.492188 0)"/>
       <use xlink:href="#DejaVuSans-30" transform="translate(290.576172 0)"/>
       <use xlink:href="#DejaVuSans-37" transform="translate(354.199219 0)"/>
      </g>
     </g>
    </g>
    <g id="xtick_2">
     <g id="line2d_3">
      <path d="M 198.636051 320.4 
L 198.636051 43.2 
" clip-path="url(#pc27254e133)" style="fill: none; stroke-dasharray: 5.12,1.28,0.8,1.28; stroke-dashoffset: 0; stroke: #b0b0b0; stroke-width: 0.8"/>
     </g>
     <g id="line2d_4">
      <g>
       <use xlink:href="#mb4db6a3292" x="198.636051" y="320.4" style="fill: #a9a9a9; stroke: #a9a9a9; stroke-width: 0.8"/>
      </g>
     </g>
     <g id="text_2">
      <!-- 2022-01 -->
      <g style="fill: #a9a9a9" transform="translate(177.744645 334.998438) scale(0.1 -0.1)">
       <use xlink:href="#DejaVuSans-32"/>
       <use xlink:href="#DejaVuSans-30" transform="translate(63.623047 0)"/>
       <use xlink:href="#DejaVuSans-32" transform="translate(127.246094 0)"/>
       <use xlink:href="#DejaVuSans-32" transform="translate(190.869141 0)"/>
       <use xlink:href="#DejaVuSans-2d" transform="translate(254.492188 0)"/>
       <use xlink:href="#DejaVuSans-30" transform="translate(290.576172 0)"/>
       <use xlink:href="#DejaVuSans-31" transform="translate(354.199219 0)"/>
      </g>
     </g>
    </g>
    <g id="xtick_3">
     <g id="line2d_5">
      <path d="M 266.31396 320.4 
L 266.31396 43.2 
" clip-path="url(#pc27254e133)" style="fill: none; stroke-dasharray: 5.12,1.28,0.8,1.28; stroke-dashoffset: 0; stroke: #b0b0b0; stroke-width: 0.8"/>
     </g>
     <g id="line2d_6">
      <g>
       <use xlink:href="#mb4db6a3292" x="266.31396" y="320.4" style="fill: #a9a9a9; stroke: #a9a9a9; stroke-width: 0.8"/>
      </g>
     </g>
     <g id="text_3">
      <!-- 2022-07 -->
      <g style="fill: #a9a9a9" transform="translate(245.422554 334.998438) scale(0.1 -0.1)">
       <use xlink:href="#DejaVuSans-32"/>
       <use xlink:href="#DejaVuSans-30" transform="translate(63.623047 0)"/>
       <use xlink:href="#DejaVuSans-32" transform="translate(127.246094 0)"/>
       <use xlink:href="#DejaVuSans-32" transform="translate(190.869141 0)"/>
       <use xlink:href="#DejaVuSans-2d" transform="translate(254.492188 0)"/>
       <use xlink:href="#DejaVuSans-30" transform="translate(290.576172 0)"/>
       <use xlink:href="#DejaVuSans-37" transform="translate(354.199219 0)"/>
      </g>
     </g>
    </g>
    <g id="xtick_4">
     <g id="line2d_7">
      <path d="M 335.113603 320.4 
L 335.113603 43.2 
" clip-path="url(#pc27254e133)" style="fill: none; stroke-dasharray: 5.12,1.28,0.8,1.28; stroke-dashoffset: 0; stroke: #b0b0b0; stroke-width: 0.8"/>
     </g>
     <g id="line2d_8">
      <g>
       <use xlink:href="#mb4db6a3292" x="335.113603" y="320.4" style="fill: #a9a9a9; stroke: #a9a9a9; stroke-width: 0.8"/>
      </g>
     </g>
     <g id="text_4">
      <!-- 2023-01 -->
      <g style="fill: #a9a9a9" transform="translate(314.222197 334.998438) scale(0.1 -0.1)">
       <defs>
        <path id="DejaVuSans-33" d="M 2597 2516 
Q 3050 2419 3304 2112 
Q 3559 1806 3559 1356 
Q 3559 666 3084 287 
Q 2609 -91 1734 -91 
Q 1441 -91 1130 -33 
Q 819 25 488 141 
L 488 750 
Q 750 597 1062 519 
Q 1375 441 1716 441 
Q 2309 441 2620 675 
Q 2931 909 2931 1356 
Q 2931 1769 2642 2001 
Q 2353 2234 1838 2234 
L 1294 2234 
L 1294 2753 
L 1863 2753 
Q 2328 2753 2575 2939 
Q 2822 3125 2822 3475 
Q 2822 3834 2567 4026 
Q 2313 4219 1838 4219 
Q 1578 4219 1281 4162 
Q 984 4106 628 3988 
L 628 4550 
Q 988 4650 1302 4700 
Q 1616 4750 1894 4750 
Q 2613 4750 3031 4423 
Q 3450 4097 3450 3541 
Q 3450 3153 3228 2886 
Q 3006 2619 2597 2516 
z
" transform="scale(0.015625)"/>
       </defs>
       <use xlink:href="#DejaVuSans-32"/>
       <use xlink:href="#DejaVuSans-30" transform="translate(63.623047 0)"/>
       <use xlink:href="#DejaVuSans-32" transform="translate(127.246094 0)"/>
       <use xlink:href="#DejaVuSans-33" transform="translate(190.869141 0)"/>
       <use xlink:href="#DejaVuSans-2d" transform="translate(254.492188 0)"/>
       <use xlink:href="#DejaVuSans-30" transform="translate(290.576172 0)"/>
       <use xlink:href="#DejaVuSans-31" transform="translate(354.199219 0)"/>
      </g>
     </g>
    </g>
    <g id="xtick_5">
     <g id="line2d_9">
      <path d="M 402.791512 320.4 
L 402.791512 43.2 
" clip-path="url(#pc27254e133)" style="fill: none; stroke-dasharray: 5.12,1.28,0.8,1.28; stroke-dashoffset: 0; stroke: #b0b0b0; stroke-width: 0.8"/>
     </g>
     <g id="line2d_10">
      <g>
       <use xlink:href="#mb4db6a3292" x="402.791512" y="320.4" style="fill: #a9a9a9; stroke: #a9a9a9; stroke-width: 0.8"/>
      </g>
     </g>
     <g id="text_5">
      <!-- 2023-07 -->
      <g style="fill: #a9a9a9" transform="translate(381.900106 334.998438) scale(0.1 -0.1)">
       <use xlink:href="#DejaVuSans-32"/>
       <use xlink:href="#DejaVuSans-30" transform="translate(63.623047 0)"/>
       <use xlink:href="#DejaVuSans-32" transform="translate(127.246094 0)"/>
       <use xlink:href="#DejaVuSans-33" transform="translate(190.869141 0)"/>
       <use xlink:href="#DejaVuSans-2d" transform="translate(254.492188 0)"/>
       <use xlink:href="#DejaVuSans-30" transform="translate(290.576172 0)"/>
       <use xlink:href="#DejaVuSans-37" transform="translate(354.199219 0)"/>
      </g>
     </g>
    </g>
    <g id="xtick_6">
     <g id="line2d_11">
      <path d="M 471.591155 320.4 
L 471.591155 43.2 
" clip-path="url(#pc27254e133)" style="fill: none; stroke-dasharray: 5.12,1.28,0.8,1.28; stroke-dashoffset: 0; stroke: #b0b0b0; stroke-width: 0.8"/>
     </g>
     <g id="line2d_12">
      <g>
       <use xlink:href="#mb4db6a3292" x="471.591155" y="320.4" style="fill: #a9a9a9; stroke: #a9a9a9; stroke-width: 0.8"/>
      </g>
     </g>
     <g id="text_6">
      <!-- 2024-01 -->
      <g style="fill: #a9a9a9" transform="translate(450.699749 334.998438) scale(0.1 -0.1)">
       <defs>
        <path id="DejaVuSans-34" d="M 2419 4116 
L 825 1625 
L 2419 1625 
L 2419 4116 
z
M 2253 4666 
L 3047 4666 
L 3047 1625 
L 3713 1625 
L 3713 1100 
L 3047 1100 
L 3047 0 
L 2419 0 
L 2419 1100 
L 313 1100 
L 313 1709 
L 2253 4666 
z
" transform="scale(0.015625)"/>
       </defs>
       <use xlink:href="#DejaVuSans-32"/>
       <use xlink:href="#DejaVuSans-30" transform="translate(63.623047 0)"/>
       <use xlink:href="#DejaVuSans-32" transform="translate(127.246094 0)"/>
       <use xlink:href="#DejaVuSans-34" transform="translate(190.869141 0)"/>
       <use xlink:href="#DejaVuSans-2d" transform="translate(254.492188 0)"/>
       <use xlink:href="#DejaVuSans-30" transform="translate(290.576172 0)"/>
       <use xlink:href="#DejaVuSans-31" transform="translate(354.199219 0)"/>
      </g>
     </g>
    </g>
    <g id="xtick_7">
     <g id="line2d_13">
      <path d="M 539.642975 320.4 
L 539.642975 43.2 
" clip-path="url(#pc27254e133)" style="fill: none; stroke-dasharray: 5.12,1.28,0.8,1.28; stroke-dashoffset: 0; stroke: #b0b0b0; stroke-width: 0.8"/>
     </g>
     <g id="line2d_14">
      <g>
       <use xlink:href="#mb4db6a3292" x="539.642975" y="320.4" style="fill: #a9a9a9; stroke: #a9a9a9; stroke-width: 0.8"/>
      </g>
     </g>
     <g id="text_7">
      <!-- 2024-07 -->
      <g style="fill: #a9a9a9" transform="translate(518.751569 334.998438) scale(0.1 -0.1)">
       <use xlink:href="#DejaVuSans-32"/>
       <use xlink:href="#DejaVuSans-30" transform="translate(63.623047 0)"/>
       <use xlink:href="#DejaVuSans-32" transform="translate(127.246094 0)"/>
       <use xlink:href="#DejaVuSans-34" transform="translate(190.869141 0)"/>
       <use xlink:href="#DejaVuSans-2d" transform="translate(254.492188 0)"/>
       <use xlink:href="#DejaVuSans-30" transform="translate(290.576172 0)"/>
       <use xlink:href="#DejaVuSans-37" transform="translate(354.199219 0)"/>
      </g>
     </g>
    </g>
    <g id="xtick_8">
     <g id="line2d_15">
      <path d="M 608.442618 320.4 
L 608.442618 43.2 
" clip-path="url(#pc27254e133)" style="fill: none; stroke-dasharray: 5.12,1.28,0.8,1.28; stroke-dashoffset: 0; stroke: #b0b0b0; stroke-width: 0.8"/>
     </g>
     <g id="line2d_16">
      <g>
       <use xlink:href="#mb4db6a3292" x="608.442618" y="320.4" style="fill: #a9a9a9; stroke: #a9a9a9; stroke-width: 0.8"/>
      </g>
     </g>
     <g id="text_8">
      <!-- 2025-01 -->
      <g style="fill: #a9a9a9" transform="translate(587.551212 334.998438) scale(0.1 -0.1)">
       <defs>
        <path id="DejaVuSans-35" d="M 691 4666 
L 3169 4666 
L 3169 4134 
L 1269 4134 
L 1269 2991 
Q 1406 3038 1543 3061 
Q 1681 3084 1819 3084 
Q 2600 3084 3056 2656 
Q 3513 2228 3513 1497 
Q 3513 744 3044 326 
Q 2575 -91 1722 -91 
Q 1428 -91 1123 -41 
Q 819 9 494 109 
L 494 744 
Q 775 591 1075 516 
Q 1375 441 1709 441 
Q 2250 441 2565 725 
Q 2881 1009 2881 1497 
Q 2881 1984 2565 2268 
Q 2250 2553 1709 2553 
Q 1456 2553 1204 2497 
Q 953 2441 691 2322 
L 691 4666 
z
" transform="scale(0.015625)"/>
       </defs>
       <use xlink:href="#DejaVuSans-32"/>
       <use xlink:href="#DejaVuSans-30" transform="translate(63.623047 0)"/>
       <use xlink:href="#DejaVuSans-32" transform="translate(127.246094 0)"/>
       <use xlink:href="#DejaVuSans-35" transform="translate(190.869141 0)"/>
       <use xlink:href="#DejaVuSans-2d" transform="translate(254.492188 0)"/>
       <use xlink:href="#DejaVuSans-30" transform="translate(290.576172 0)"/>
       <use xlink:href="#DejaVuSans-31" transform="translate(354.199219 0)"/>
      </g>
     </g>
    </g>
    <g id="xtick_9">
     <g id="line2d_17">
      <path d="M 676.120527 320.4 
L 676.120527 43.2 
" clip-path="url(#pc27254e133)" style="fill: none; stroke-dasharray: 5.12,1.28,0.8,1.28; stroke-dashoffset: 0; stroke: #b0b0b0; stroke-width: 0.8"/>
     </g>
     <g id="line2d_18">
      <g>
       <use xlink:href="#mb4db6a3292" x="676.120527" y="320.4" style="fill: #a9a9a9; stroke: #a9a9a9; stroke-width: 0.8"/>
      </g>
     </g>
     <g id="text_9">
      <!-- 2025-07 -->
      <g style="fill: #a9a9a9" transform="translate(655.229121 334.998438) scale(0.1 -0.1)">
       <use xlink:href="#DejaVuSans-32"/>
       <use xlink:href="#DejaVuSans-30" transform="translate(63.623047 0)"/>
       <use xlink:href="#DejaVuSans-32" transform="translate(127.246094 0)"/>
       <use xlink:href="#DejaVuSans-35" transform="translate(190.869141 0)"/>
       <use xlink:href="#DejaVuSans-2d" transform="translate(254.492188 0)"/>
       <use xlink:href="#DejaVuSans-30" transform="translate(290.576172 0)"/>
       <use xlink:href="#DejaVuSans-37" transform="translate(354.199219 0)"/>
      </g>
     </g>
    </g>
    <g id="xtick_10">
     <g id="line2d_19">
      <path d="M 744.92017 320.4 
L 744.92017 43.2 
" clip-path="url(#pc27254e133)" style="fill: none; stroke-dasharray: 5.12,1.28,0.8,1.28; stroke-dashoffset: 0; stroke: #b0b0b0; stroke-width: 0.8"/>
     </g>
     <g id="line2d_20">
      <g>
       <use xlink:href="#mb4db6a3292" x="744.92017" y="320.4" style="fill: #a9a9a9; stroke: #a9a9a9; stroke-width: 0.8"/>
      </g>
     </g>
     <g id="text_10">
      <!-- 2026-01 -->
      <g style="fill: #a9a9a9" transform="translate(724.028764 334.998438) scale(0.1 -0.1)">
       <defs>
        <path id="DejaVuSans-36" d="M 2113 2584 
Q 1688 2584 1439 2293 
Q 1191 2003 1191 1497 
Q 1191 994 1439 701 
Q 1688 409 2113 409 
Q 2538 409 2786 701 
Q 3034 994 3034 1497 
Q 3034 2003 2786 2293 
Q 2538 2584 2113 2584 
z
M 3366 4563 
L 3366 3988 
Q 3128 4100 2886 4159 
Q 2644 4219 2406 4219 
Q 1781 4219 1451 3797 
Q 1122 3375 1075 2522 
Q 1259 2794 1537 2939 
Q 1816 3084 2150 3084 
Q 2853 3084 3261 2657 
Q 3669 2231 3669 1497 
Q 3669 778 3244 343 
Q 2819 -91 2113 -91 
Q 1303 -91 875 529 
Q 447 1150 447 2328 
Q 447 3434 972 4092 
Q 1497 4750 2381 4750 
Q 2619 4750 2861 4703 
Q 3103 4656 3366 4563 
z
" transform="scale(0.015625)"/>
       </defs>
       <use xlink:href="#DejaVuSans-32"/>
       <use xlink:href="#DejaVuSans-30" transform="translate(63.623047 0)"/>
       <use xlink:href="#DejaVuSans-32" transform="translate(127.246094 0)"/>
       <use xlink:href="#DejaVuSans-36" transform="translate(190.869141 0)"/>
       <use xlink:href="#DejaVuSans-2d" transform="translate(254.492188 0)"/>
       <use xlink:href="#DejaVuSans-30" transform="translate(290.576172 0)"/>
       <use xlink:href="#DejaVuSans-31" transform="translate(354.199219 0)"/>
      </g>
     </g>
    </g>
   </g>
   <g id="matplotlib.axis_2">
    <g id="ytick_1">
     <g id="line2d_21">
      <path d="M 108 307.829525 
L 777.6 307.829525 
" clip-path="url(#pc27254e133)" style="fill: none; stroke-dasharray: 5.12,1.28,0.8,1.28; stroke-dashoffset: 0; stroke: #b0b0b0; stroke-width: 0.8"/>
     </g>
     <g id="line2d_22">
      <defs>
       <path id="m63815272d4" d="M 0 0 
L -3.5 0 
" style="stroke: #a9a9a9; stroke-width: 0.8"/>
      </defs>
      <g>
       <use xlink:href="#m63815272d4" x="108" y="307.829525" style="fill: #a9a9a9; stroke: #a9a9a9; stroke-width: 0.8"/>
      </g>
     </g>
     <g id="text_11">
      <!-- 0 -->
      <g style="fill: #a9a9a9" transform="translate(94.6375 311.628744) scale(0.1 -0.1)">
       <use xlink:href="#DejaVuSans-30"/>
      </g>
     </g>
    </g>
    <g id="ytick_2">
     <g id="line2d_23">
      <path d="M 108 278.304042 
L 777.6 278.304042 
" clip-path="url(#pc27254e133)" style="fill: none; stroke-dasharray: 5.12,1.28,0.8,1.28; stroke-dashoffset: 0; stroke: #b0b0b0; stroke-width: 0.8"/>
     </g>
     <g id="line2d_24">
      <g>
       <use xlink:href="#m63815272d4" x="108" y="278.304042" style="fill: #a9a9a9; stroke: #a9a9a9; stroke-width: 0.8"/>
      </g>
     </g>
     <g id="text_12">
      <!-- 1000 -->
      <g style="fill: #a9a9a9" transform="translate(75.55 282.103261) scale(0.1 -0.1)">
       <use xlink:href="#DejaVuSans-31"/>
       <use xlink:href="#DejaVuSans-30" transform="translate(63.623047 0)"/>
       <use xlink:href="#DejaVuSans-30" transform="translate(127.246094 0)"/>
       <use xlink:href="#DejaVuSans-30" transform="translate(190.869141 0)"/>
      </g>
     </g>
    </g>
    <g id="ytick_3">
     <g id="line2d_25">
      <path d="M 108 248.778559 
L 777.6 248.778559 
" clip-path="url(#pc27254e133)" style="fill: none; stroke-dasharray: 5.12,1.28,0.8,1.28; stroke-dashoffset: 0; stroke: #b0b0b0; stroke-width: 0.8"/>
     </g>
     <g id="line2d_26">
      <g>
       <use xlink:href="#m63815272d4" x="108" y="248.778559" style="fill: #a9a9a9; stroke: #a9a9a9; stroke-width: 0.8"/>
      </g>
     </g>
     <g id="text_13">
      <!-- 2000 -->
      <g style="fill: #a9a9a9" transform="translate(75.55 252.577778) scale(0.1 -0.1)">
       <use xlink:href="#DejaVuSans-32"/>
       <use xlink:href="#DejaVuSans-30" transform="translate(63.623047 0)"/>
       <use xlink:href="#DejaVuSans-30" transform="translate(127.246094 0)"/>
       <use xlink:href="#DejaVuSans-30" transform="translate(190.869141 0)"/>
      </g>
     </g>
    </g>
    <g id="ytick_4">
     <g id="line2d_27">
      <path d="M 108 219.253076 
L 777.6 219.253076 
" clip-path="url(#pc27254e133)" style="fill: none; stroke-dasharray: 5.12,1.28,0.8,1.28; stroke-dashoffset: 0; stroke: #b0b0b0; stroke-width: 0.8"/>
     </g>
     <g id="line2d_28">
      <g>
       <use xlink:href="#m63815272d4" x="108" y="219.253076" style="fill: #a9a9a9; stroke: #a9a9a9; stroke-width: 0.8"/>
      </g>
     </g>
     <g id="text_14">
      <!-- 3000 -->
      <g style="fill: #a9a9a9" transform="translate(75.55 223.052294) scale(0.1 -0.1)">
       <use xlink:href="#DejaVuSans-33"/>
       <use xlink:href="#DejaVuSans-30" transform="translate(63.623047 0)"/>
       <use xlink:href="#DejaVuSans-30" transform="translate(127.246094 0)"/>
       <use xlink:href="#DejaVuSans-30" transform="translate(190.869141 0)"/>
      </g>
     </g>
    </g>
    <g id="ytick_5">
     <g id="line2d_29">
      <path d="M 108 189.727592 
L 777.6 189.727592 
" clip-path="url(#pc27254e133)" style="fill: none; stroke-dasharray: 5.12,1.28,0.8,1.28; stroke-dashoffset: 0; stroke: #b0b0b0; stroke-width: 0.8"/>
     </g>
     <g id="line2d_30">
      <g>
       <use xlink:href="#m63815272d4" x="108" y="189.727592" style="fill: #a9a9a9; stroke: #a9a9a9; stroke-width: 0.8"/>
      </g>
     </g>
     <g id="text_15">
      <!-- 4000 -->
      <g style="fill: #a9a9a9" transform="translate(75.55 193.526811) scale(0.1 -0.1)">
       <use xlink:href="#DejaVuSans-34"/>
       <use xlink:href="#DejaVuSans-30" transform="translate(63.623047 0)"/>
       <use xlink:href="#DejaVuSans-30" transform="translate(127.246094 0)"/>
       <use xlink:href="#DejaVuSans-30" transform="translate(190.869141 0)"/>
      </g>
     </g>
    </g>
    <g id="ytick_6">
     <g id="line2d_31">
      <path d="M 108 160.202109 
L 777.6 160.202109 
" clip-path="url(#pc27254e133)" style="fill: none; stroke-dasharray: 5.12,1.28,0.8,1.28; stroke-dashoffset: 0; stroke: #b0b0b0; stroke-width: 0.8"/>
     </g>
     <g id="line2d_32">
      <g>
       <use xlink:href="#m63815272d4" x="108" y="160.202109" style="fill: #a9a9a9; stroke: #a9a9a9; stroke-width: 0.8"/>
      </g>
     </g>
     <g id="text_16">
      <!-- 5000 -->
      <g style="fill: #a9a9a9" transform="translate(75.55 164.001328) scale(0.1 -0.1)">
       <use xlink:href="#DejaVuSans-35"/>
       <use xlink:href="#DejaVuSans-30" transform="translate(63.623047 0)"/>
       <use xlink:href="#DejaVuSans-30" transform="translate(127.246094 0)"/>
       <use xlink:href="#DejaVuSans-30" transform="translate(190.869141 0)"/>
      </g>
     </g>
    </g>
    <g id="ytick_7">
     <g id="line2d_33">
      <path d="M 108 130.676626 
L 777.6 130.676626 
" clip-path="url(#pc27254e133)" style="fill: none; stroke-dasharray: 5.12,1.28,0.8,1.28; stroke-dashoffset: 0; stroke: #b0b0b0; stroke-width: 0.8"/>
     </g>
     <g id="line2d_34">
      <g>
       <use xlink:href="#m63815272d4" x="108" y="130.676626" style="fill: #a9a9a9; stroke: #a9a9a9; stroke-width: 0.8"/>
      </g>
     </g>
     <g id="text_17">
      <!-- 6000 -->
      <g style="fill: #a9a9a9" transform="translate(75.55 134.475844) scale(0.1 -0.1)">
       <use xlink:href="#DejaVuSans-36"/>
       <use xlink:href="#DejaVuSans-30" transform="translate(63.623047 0)"/>
       <use xlink:href="#DejaVuSans-30" transform="translate(127.246094 0)"/>
       <use xlink:href="#DejaVuSans-30" transform="translate(190.869141 0)"/>
      </g>
     </g>
    </g>
    <g id="ytick_8">
     <g id="line2d_35">
      <path d="M 108 101.151142 
L 777.6 101.151142 
" clip-path="url(#pc27254e133)" style="fill: none; stroke-dasharray: 5.12,1.28,0.8,1.28; stroke-dashoffset: 0; stroke: #b0b0b0; stroke-width: 0.8"/>
     </g>
     <g id="line2d_36">
      <g>
       <use xlink:href="#m63815272d4" x="108" y="101.151142" style="fill: #a9a9a9; stroke: #a9a9a9; stroke-width: 0.8"/>
      </g>
     </g>
     <g id="text_18">
      <!-- 7000 -->
      <g style="fill: #a9a9a9" transform="translate(75.55 104.950361) scale(0.1 -0.1)">
       <use xlink:href="#DejaVuSans-37"/>
       <use xlink:href="#DejaVuSans-30" transform="translate(63.623047 0)"/>
       <use xlink:href="#DejaVuSans-30" transform="translate(127.246094 0)"/>
       <use xlink:href="#DejaVuSans-30" transform="translate(190.869141 0)"/>
      </g>
     </g>
    </g>
    <g id="ytick_9">
     <g id="line2d_37">
      <path d="M 108 71.625659 
L 777.6 71.625659 
" clip-path="url(#pc27254e133)" style="fill: none; stroke-dasharray: 5.12,1.28,0.8,1.28; stroke-dashoffset: 0; stroke: #b0b0b0; stroke-width: 0.8"/>
     </g>
     <g id="line2d_38">
      <g>
       <use xlink:href="#m63815272d4" x="108" y="71.625659" style="fill: #a9a9a9; stroke: #a9a9a9; stroke-width: 0.8"/>
      </g>
     </g>
     <g id="text_19">
      <!-- 8000 -->
      <g style="fill: #a9a9a9" transform="translate(75.55 75.424878) scale(0.1 -0.1)">
       <defs>
        <path id="DejaVuSans-38" d="M 2034 2216 
Q 1584 2216 1326 1975 
Q 1069 1734 1069 1313 
Q 1069 891 1326 650 
Q 1584 409 2034 409 
Q 2484 409 2743 651 
Q 3003 894 3003 1313 
Q 3003 1734 2745 1975 
Q 2488 2216 2034 2216 
z
M 1403 2484 
Q 997 2584 770 2862 
Q 544 3141 544 3541 
Q 544 4100 942 4425 
Q 1341 4750 2034 4750 
Q 2731 4750 3128 4425 
Q 3525 4100 3525 3541 
Q 3525 3141 3298 2862 
Q 3072 2584 2669 2484 
Q 3125 2378 3379 2068 
Q 3634 1759 3634 1313 
Q 3634 634 3220 271 
Q 2806 -91 2034 -91 
Q 1263 -91 848 271 
Q 434 634 434 1313 
Q 434 1759 690 2068 
Q 947 2378 1403 2484 
z
M 1172 3481 
Q 1172 3119 1398 2916 
Q 1625 2713 2034 2713 
Q 2441 2713 2670 2916 
Q 2900 3119 2900 3481 
Q 2900 3844 2670 4047 
Q 2441 4250 2034 4250 
Q 1625 4250 1398 4047 
Q 1172 3844 1172 3481 
z
" transform="scale(0.015625)"/>
       </defs>
       <use xlink:href="#DejaVuSans-38"/>
       <use xlink:href="#DejaVuSans-30" transform="translate(63.623047 0)"/>
       <use xlink:href="#DejaVuSans-30" transform="translate(127.246094 0)"/>
       <use xlink:href="#DejaVuSans-30" transform="translate(190.869141 0)"/>
      </g>
     </g>
    </g>
   </g>
   <g id="line2d_39">
    <path d="M 138.436364 307.740949 
L 140.67983 307.534271 
L 141.053741 307.357118 
L 142.549386 307.150439 
L 144.04503 306.825659 
L 144.792852 306.707557 
L 146.662408 306.530404 
L 147.41023 306.235149 
L 147.784141 305.703691 
L 148.158052 305.437961 
L 148.531963 304.552197 
L 148.905874 304.493146 
L 149.653697 304.020738 
L 150.401519 303.459754 
L 151.897163 302.337786 
L 152.271074 302.190158 
L 153.018897 301.71775 
L 154.14063 301.156766 
L 154.514541 300.507206 
L 155.262363 299.916696 
L 156.010185 299.680492 
L 157.131919 299.503339 
L 159.375385 299.149033 
L 159.749296 298.97188 
L 162.366674 298.735677 
L 163.862319 298.351845 
L 166.853607 297.908963 
L 167.227518 297.702285 
L 167.60143 297.643234 
L 168.349252 297.377504 
L 170.966629 296.905097 
L 171.714452 296.668893 
L 175.079652 296.078383 
L 175.827474 295.90123 
L 177.323118 295.694552 
L 178.07094 295.458348 
L 178.444851 294.897364 
L 179.566585 294.424956 
L 180.688318 294.100176 
L 181.062229 293.893497 
L 181.810051 293.74587 
L 183.305696 293.273462 
L 184.053518 293.214411 
L 184.80134 293.007733 
L 186.296985 292.594376 
L 186.670896 292.564851 
L 187.418718 292.181019 
L 187.792629 292.121968 
L 188.16654 291.91529 
L 192.279562 291.206678 
L 193.775207 290.734271 
L 194.149118 290.468541 
L 196.018673 289.818981 
L 196.766495 289.257996 
L 197.888229 289.021793 
L 202.749073 287.545518 
L 203.122984 287.486467 
L 204.618629 286.866432 
L 204.99254 286.807381 
L 205.740362 286.482601 
L 206.488184 286.453076 
L 207.609917 286.09877 
L 207.983828 286.09877 
L 208.35774 285.921617 
L 209.105562 285.83304 
L 209.479473 285.685413 
L 211.349028 285.596837 
L 211.722939 285.50826 
L 212.470762 285.094903 
L 213.592495 284.681547 
L 214.340317 284.26819 
L 215.46205 283.766257 
L 216.957695 282.998594 
L 217.331606 282.555712 
L 218.079428 281.315641 
L 218.453339 281.19754 
L 218.82725 281.19754 
L 220.322895 280.341301 
L 220.696806 280.252724 
L 221.070717 279.868893 
L 221.818539 279.544112 
L 222.566361 279.189807 
L 224.809828 276.502988 
L 225.183739 276.384886 
L 227.053295 275.085764 
L 227.801117 274.554306 
L 228.175028 273.993322 
L 228.548939 273.078032 
L 228.92285 272.487522 
L 229.296761 272.162742 
L 229.670672 271.985589 
L 234.157606 267.822496 
L 235.65325 266.87768 
L 236.401072 266.464323 
L 237.896717 265.608084 
L 239.766272 263.777504 
L 240.514094 263.452724 
L 241.261916 262.921265 
L 241.635828 262.685062 
L 242.009739 262.626011 
L 243.131472 261.946924 
L 243.505383 261.504042 
L 245.374939 260.411599 
L 245.74885 260.263972 
L 246.870583 259.437258 
L 252.479249 257.311424 
L 253.227072 256.573286 
L 254.348805 255.982777 
L 255.096627 255.480844 
L 255.844449 255.24464 
L 256.218361 254.97891 
L 256.592272 254.860808 
L 257.714005 254.06362 
L 259.58356 253.620738 
L 260.705294 252.912127 
L 261.827027 252.646397 
L 262.200938 252.557821 
L 263.322671 251.731107 
L 264.818316 251.288225 
L 265.192227 250.99297 
L 267.435694 250.166257 
L 268.183516 250.018629 
L 268.931338 249.693849 
L 271.548716 248.689982 
L 272.296538 248.601406 
L 273.418271 248.188049 
L 275.287827 247.213708 
L 277.531293 245.885062 
L 278.279115 245.678383 
L 279.400849 245.087873 
L 280.148671 244.940246 
L 280.896493 244.467838 
L 281.644315 244.26116 
L 282.766049 243.788752 
L 284.261693 243.582074 
L 285.009515 243.168717 
L 285.383426 242.814411 
L 285.757338 242.1058 
L 287.252982 241.662917 
L 288.748626 240.954306 
L 292.113826 239.389455 
L 292.861648 239.212302 
L 293.983382 238.621793 
L 294.357293 238.562742 
L 296.226848 237.588401 
L 296.974671 237.086467 
L 298.096404 236.850264 
L 300.713782 235.964499 
L 306.696359 233.100527 
L 307.07027 232.68717 
L 307.444181 232.450967 
L 307.818092 232.36239 
L 308.565915 231.71283 
L 308.939826 231.653779 
L 309.313737 231.004218 
L 309.687648 230.856591 
L 310.061559 230.53181 
L 310.43547 230.472759 
L 311.183292 229.970826 
L 311.931115 229.705097 
L 312.305026 229.409842 
L 313.052848 228.996485 
L 314.174581 228.287873 
L 315.296314 227.697364 
L 316.044137 227.490685 
L 316.791959 227.047803 
L 317.16587 226.368717 
L 317.913692 225.778207 
L 318.287603 225.689631 
L 320.53107 224.567663 
L 321.278892 224.242882 
L 322.026714 223.681898 
L 322.774537 222.88471 
L 324.644092 221.437961 
L 325.391914 220.817926 
L 325.765825 220.640773 
L 326.513648 219.843585 
L 327.635381 219.282601 
L 328.383203 218.839719 
L 328.757114 218.721617 
L 329.131025 218.426362 
L 329.504936 218.367311 
L 332.870136 216.595782 
L 333.617958 216.389104 
L 335.113603 215.857645 
L 335.487514 215.532865 
L 336.983158 214.91283 
L 337.357069 214.794728 
L 338.104892 214.292794 
L 338.852714 213.968014 
L 339.600536 213.40703 
L 340.348358 211.842179 
L 341.09618 210.956415 
L 342.217914 210.33638 
L 342.965736 210.011599 
L 343.339647 209.952548 
L 344.087469 209.598243 
L 345.583114 209.066784 
L 346.330936 208.623902 
L 347.078758 208.269596 
L 347.452669 208.151494 
L 349.696136 206.734271 
L 350.070047 206.291388 
L 351.19178 205.612302 
L 351.565691 205.464675 
L 352.313514 204.992267 
L 353.809158 204.136028 
L 354.183069 204.047452 
L 354.55698 203.722671 
L 357.174358 202.836907 
L 357.548269 202.571178 
L 358.296091 202.334974 
L 361.28738 200.858699 
L 362.035202 200.445343 
L 362.409113 200.26819 
L 363.156935 199.648155 
L 363.904758 199.441476 
L 364.278669 199.08717 
L 364.65258 199.02812 
L 365.400402 198.43761 
L 367.269958 197.286116 
L 368.01778 197.049912 
L 368.391691 196.813708 
L 368.765602 196.754657 
L 370.261246 196.01652 
L 371.38298 195.632689 
L 372.130802 195.514587 
L 373.626446 194.924077 
L 374.000357 194.894552 
L 375.869913 194.038313 
L 376.617735 193.506854 
L 377.365557 193.093497 
L 378.861202 192.35536 
L 379.982935 191.587698 
L 380.730757 191.410545 
L 381.852491 190.701933 
L 382.974224 190.288576 
L 383.722046 190.022847 
L 385.21769 189.491388 
L 385.965513 189.225659 
L 387.461157 188.900879 
L 388.208979 188.664675 
L 390.078535 188.015114 
L 391.200268 187.660808 
L 391.94809 187.483656 
L 394.191557 187.070299 
L 394.939379 186.922671 
L 396.061112 186.656942 
L 396.435023 186.479789 
L 397.182846 186.332162 
L 397.930668 186.125483 
L 398.67849 185.771178 
L 399.052401 185.62355 
L 399.426312 185.62355 
L 403.539334 184.294903 
L 403.913245 184.088225 
L 404.287157 184.088225 
L 405.034979 183.79297 
L 405.40889 183.379613 
L 407.652356 182.405272 
L 409.148001 181.873814 
L 409.521912 181.63761 
L 410.643645 181.283304 
L 411.391468 181.076626 
L 411.765379 180.810896 
L 412.13929 180.72232 
L 412.513201 180.39754 
L 413.634934 180.161336 
L 414.382756 179.80703 
L 414.756667 179.334622 
L 418.86969 178.389807 
L 419.243601 178.389807 
L 419.991423 178.153603 
L 423.356623 177.297364 
L 424.104445 177.120211 
L 427.843556 176.027768 
L 428.217467 175.939192 
L 428.591378 175.732513 
L 429.3392 175.525835 
L 430.087023 175.201054 
L 430.834845 174.9058 
L 431.208756 174.64007 
L 431.956578 174.403866 
L 434.947867 173.340949 
L 435.695689 173.281898 
L 437.191333 172.839016 
L 437.565245 172.602812 
L 438.313067 172.366608 
L 440.556533 171.421793 
L 445.043467 169.768366 
L 446.913022 169.118805 
L 447.660844 168.882601 
L 448.408667 168.675923 
L 449.904311 167.406327 
L 452.521689 166.254833 
L 455.139066 165.103339 
L 455.886889 164.896661 
L 459.252088 163.213708 
L 459.999911 162.770826 
L 463.365111 161.117399 
L 463.739022 160.822144 
L 468.225955 159.109666 
L 468.973777 158.991564 
L 469.347688 158.725835 
L 470.843333 158.43058 
L 471.591155 158.1058 
L 473.46071 157.19051 
L 478.321555 154.976098 
L 479.443288 154.592267 
L 479.817199 154.326538 
L 480.565021 154.237961 
L 480.938932 153.972232 
L 481.686755 153.85413 
L 486.547599 152.053076 
L 487.669332 151.787346 
L 489.164977 151.137786 
L 489.912799 150.724429 
L 491.408443 149.927241 
L 492.156265 149.750088 
L 492.530176 149.513884 
L 492.904088 149.425308 
L 494.773643 148.480492 
L 499.634487 146.620387 
L 500.008398 146.561336 
L 501.504043 145.823199 
L 502.251865 145.675571 
L 502.999687 145.232689 
L 504.495332 144.494552 
L 511.225732 141.866784 
L 512.721376 140.567663 
L 513.095287 140.449561 
L 513.469198 140.213357 
L 514.590931 139.888576 
L 514.964843 139.593322 
L 515.712665 139.327592 
L 516.834398 138.55993 
L 517.58222 138.353251 
L 518.330042 137.939895 
L 519.451776 137.674165 
L 525.434353 135.194025 
L 527.303909 134.426362 
L 529.173464 133.835852 
L 530.295198 133.097715 
L 530.669109 133.009139 
L 531.416931 132.625308 
L 532.164753 132.389104 
L 532.538664 132.034798 
L 533.660398 131.591916 
L 534.034309 131.532865 
L 535.529953 130.824253 
L 536.651686 130.469947 
L 537.77342 130.056591 
L 538.895153 129.73181 
L 539.269064 129.672759 
L 540.016886 129.259402 
L 540.390797 129.111775 
L 540.764709 128.81652 
L 541.886442 128.521265 
L 542.634264 128.226011 
L 543.382086 127.90123 
L 544.877731 127.281195 
L 547.495108 126.572583 
L 548.242931 126.277329 
L 549.738575 125.982074 
L 550.486397 125.834446 
L 551.60813 125.391564 
L 552.729864 125.15536 
L 554.97333 123.797188 
L 556.095064 123.118102 
L 558.33853 122.40949 
L 558.712441 122.114236 
L 561.70373 121.021793 
L 562.825463 120.667487 
L 563.573286 120.25413 
L 564.321108 120.047452 
L 564.695019 119.840773 
L 565.442841 119.693146 
L 566.938486 119.102636 
L 567.686308 118.600703 
L 568.808041 118.305448 
L 569.929774 117.537786 
L 570.303686 117.478735 
L 571.79933 116.858699 
L 573.294974 116.474868 
L 573.668885 116.415817 
L 574.042797 116.238664 
L 574.790619 116.091037 
L 578.155819 115.057645 
L 578.903641 114.467135 
L 580.399285 113.610896 
L 580.773196 113.52232 
L 581.147107 113.315641 
L 581.521019 113.256591 
L 584.886218 111.573638 
L 585.26013 111.248858 
L 587.129685 110.77645 
L 588.251418 110.274517 
L 588.999241 110.067838 
L 589.373152 109.890685 
L 589.747063 109.565905 
L 591.616618 108.886819 
L 596.477463 107.056239 
L 597.225285 106.908612 
L 599.09484 106.288576 
L 600.216574 105.786643 
L 602.833951 104.989455 
L 603.581774 104.546573 
L 616.294751 100.619684 
L 617.042573 100.413005 
L 618.164306 99.999649 
L 618.538218 99.999649 
L 619.659951 99.733919 
L 620.407773 99.586292 
L 621.155595 99.379613 
L 622.277329 98.759578 
L 623.399062 98.405272 
L 626.01644 97.519508 
L 627.512084 96.751845 
L 628.633817 96.486116 
L 629.381639 96.249912 
L 630.129462 95.866081 
L 630.503373 95.541301 
L 631.251195 95.305097 
L 631.625106 95.068893 
L 632.372928 94.980316 
L 634.990306 94.212654 
L 636.112039 93.97645 
L 637.233773 93.681195 
L 637.981595 93.504042 
L 639.103328 92.913533 
L 643.964172 91.053427 
L 644.711995 90.935325 
L 645.459817 90.787698 
L 645.833728 90.787698 
L 646.955461 90.433392 
L 648.077195 90.079086 
L 651.442394 89.104745 
L 651.816306 89.07522 
L 653.685861 88.455185 
L 654.433683 88.366608 
L 654.807594 88.15993 
L 655.181505 88.130404 
L 656.303239 87.598946 
L 657.424972 87.333216 
L 658.172794 87.008436 
L 660.416261 86.211248 
L 660.790172 86.152197 
L 661.537994 85.886467 
L 666.024927 84.734974 
L 668.268394 83.967311 
L 669.016216 83.90826 
L 671.259683 83.347276 
L 672.007505 83.022496 
L 672.381416 82.963445 
L 672.755327 82.786292 
L 673.503149 82.136731 
L 677.24226 80.749033 
L 679.485727 80.158524 
L 680.233549 79.745167 
L 680.60746 79.656591 
L 681.729194 79.036555 
L 682.103105 78.947979 
L 682.477016 78.652724 
L 683.598749 78.327944 
L 689.581327 75.611599 
L 689.955238 75.552548 
L 692.198704 74.401054 
L 692.572616 74.164851 
L 693.694349 73.84007 
L 695.189993 73.220035 
L 695.563904 73.19051 
L 697.43346 72.481898 
L 698.181282 72.334271 
L 698.929104 71.773286 
L 699.303015 71.773286 
L 700.79866 71.241828 
L 702.294304 70.946573 
L 703.789949 70.297012 
L 704.16386 70.297012 
L 705.285593 69.913181 
L 706.033415 69.795079 
L 707.155149 69.145518 
L 707.902971 68.761687 
L 709.772526 68.141652 
L 710.520348 67.816872 
L 712.389904 67.314938 
L 714.633371 66.694903 
L 719.120304 65.366257 
L 722.111593 64.598594 
L 723.981148 63.77188 
L 727.346348 63.033743 
L 728.09417 62.915641 
L 729.215904 62.472759 
L 730.337637 62.059402 
L 731.085459 61.941301 
L 732.581103 61.439367 
L 732.955015 61.439367 
L 733.328926 61.144112 
L 734.076748 60.907909 
L 734.450659 60.907909 
L 737.815859 59.78594 
L 739.311503 59.13638 
L 739.685414 59.077329 
L 740.433237 58.723023 
L 741.181059 58.398243 
L 741.928881 58.073462 
L 742.676703 57.778207 
L 743.050614 57.542004 
L 743.424525 57.482953 
L 744.172348 57.099121 
L 744.92017 56.862917 
L 746.041903 56.272408 
L 746.789725 56.006678 
L 747.163636 55.8 
L 747.163636 55.8 
" clip-path="url(#pc27254e133)" style="fill: none; stroke: #1f77b4; stroke-width: 1.5; stroke-linecap: square"/>
   </g>
   <g id="line2d_40">
    <path d="M 138.810275 307.8 
L 142.175475 307.711424 
L 145.166763 307.563796 
L 146.662408 307.563796 
L 147.036319 307.445694 
L 148.905874 307.357118 
L 151.149341 307.091388 
L 153.392808 307.002812 
L 154.14063 306.914236 
L 156.758008 306.796134 
L 159.375385 306.707557 
L 161.244941 306.648506 
L 166.105785 306.55993 
L 167.975341 306.500879 
L 171.340541 306.412302 
L 172.836185 306.382777 
L 176.575296 306.2942 
L 178.07094 306.146573 
L 179.566585 306.117047 
L 181.810051 306.028471 
L 183.305696 305.998946 
L 185.175251 305.939895 
L 186.670896 305.792267 
L 190.036096 305.703691 
L 190.783918 305.64464 
L 192.279562 305.556063 
L 194.523029 305.467487 
L 196.018673 305.37891 
L 202.749073 304.936028 
L 205.366451 304.847452 
L 206.488184 304.72935 
L 208.35774 304.640773 
L 212.096851 304.434095 
L 215.835962 304.375044 
L 217.331606 304.197891 
L 219.201161 304.109315 
L 222.940273 303.725483 
L 225.183739 303.430228 
L 226.679384 303.371178 
L 229.670672 302.957821 
L 231.914139 302.89877 
L 233.035872 302.780668 
L 234.157606 302.692091 
L 253.600983 301.245343 
L 256.218361 301.156766 
L 257.714005 300.979613 
L 259.58356 300.891037 
L 261.827027 300.80246 
L 263.696583 300.713884 
L 265.192227 300.684359 
L 267.061782 300.625308 
L 267.809605 300.536731 
L 273.04436 300.448155 
L 273.792182 300.359578 
L 278.279115 300.271002 
L 281.644315 300.093849 
L 284.261693 300.005272 
L 285.757338 299.82812 
L 288.374715 299.739543 
L 289.122537 299.621441 
L 290.992093 299.56239 
L 294.731204 299.503339 
L 296.226848 299.355712 
L 297.722493 299.326186 
L 298.844226 299.23761 
L 300.33987 299.089982 
L 304.078981 298.883304 
L 307.818092 298.794728 
L 311.183292 298.617575 
L 312.305026 298.588049 
L 313.052848 298.469947 
L 314.922403 298.381371 
L 315.670226 298.32232 
L 317.539781 298.233743 
L 319.035426 298.204218 
L 321.652803 298.115641 
L 331.374492 297.436555 
L 333.617958 297.347979 
L 335.487514 297.288928 
L 340.722269 297.200351 
L 341.470092 297.111775 
L 346.704847 297.023199 
L 350.443958 296.81652 
L 351.19178 296.786995 
L 351.939602 296.698418 
L 353.809158 296.609842 
L 355.678713 296.550791 
L 357.548269 296.462214 
L 359.417824 296.403163 
L 362.783024 296.314587 
L 365.026491 296.226011 
L 370.261246 296.137434 
L 374.374268 295.90123 
L 375.869913 295.842179 
L 376.991646 295.753603 
L 382.226402 295.665026 
L 384.469868 295.57645 
L 391.200268 295.487873 
L 392.695912 295.458348 
L 397.182846 295.399297 
L 397.930668 295.340246 
L 403.165423 295.25167 
L 404.661068 295.222144 
L 414.382756 295.133568 
L 416.626223 295.044991 
L 432.330489 294.956415 
L 434.200045 294.897364 
L 443.921733 294.838313 
L 444.669556 294.779262 
L 446.539111 294.720211 
L 447.660844 294.602109 
L 449.904311 294.513533 
L 452.521689 294.395431 
L 455.886889 294.306854 
L 457.756444 294.247803 
L 460.373822 294.159227 
L 463.365111 294.011599 
L 465.234666 293.923023 
L 466.73031 293.893497 
L 473.086799 293.804921 
L 475.330266 293.716344 
L 479.443288 293.627768 
L 482.060666 293.509666 
L 484.678043 293.450615 
L 485.425866 293.391564 
L 494.399732 293.302988 
L 498.138843 293.096309 
L 500.756221 293.007733 
L 504.869243 292.771529 
L 507.486621 292.682953 
L 508.982265 292.653427 
L 511.599643 292.564851 
L 513.469198 292.358172 
L 517.208309 292.269596 
L 517.956131 292.181019 
L 521.695242 292.092443 
L 523.564798 292.033392 
L 527.67782 292.003866 
L 528.425642 291.91529 
L 532.538664 291.826714 
L 533.286486 291.767663 
L 541.512531 291.679086 
L 543.755997 291.59051 
L 549.364664 291.501933 
L 550.860308 291.472408 
L 554.225508 291.413357 
L 554.97333 291.32478 
L 559.834175 291.236204 
L 561.70373 291.177153 
L 568.43413 291.088576 
L 569.555863 291 
L 570.677597 290.911424 
L 571.79933 290.822847 
L 577.407996 290.734271 
L 579.651463 290.645694 
L 590.494885 290.557118 
L 593.860085 290.379965 
L 599.09484 290.291388 
L 600.590485 290.261863 
L 605.077418 290.173286 
L 606.946973 290.114236 
L 614.799107 290.025659 
L 617.416484 289.907557 
L 624.146884 289.818981 
L 625.642528 289.789455 
L 629.381639 289.700879 
L 631.999017 289.582777 
L 636.112039 289.4942 
L 638.729417 289.376098 
L 642.094617 289.317047 
L 642.842439 289.257996 
L 651.068483 289.16942 
L 653.31195 289.080844 
L 655.929328 288.992267 
L 657.798883 288.933216 
L 668.642305 288.84464 
L 670.885772 288.756063 
L 676.868349 288.667487 
L 679.111816 288.57891 
L 683.97266 288.490334 
L 686.216127 288.401757 
L 689.207416 288.313181 
L 691.450882 288.224605 
L 706.407326 288.136028 
L 709.398615 287.988401 
L 717.99857 287.899824 
L 719.494215 287.870299 
L 728.468081 287.781722 
L 730.337637 287.722671 
L 742.302792 287.634095 
L 743.798436 287.604569 
L 747.163636 287.545518 
L 747.163636 287.545518 
" clip-path="url(#pc27254e133)" style="fill: none; stroke: #ff7f0e; stroke-width: 1.5; stroke-linecap: square"/>
   </g>
   <g id="patch_3">
    <path d="M 108 320.4 
L 108 43.2 
" style="fill: none; stroke: #a9a9a9; stroke-width: 0.8; stroke-linejoin: miter; stroke-linecap: square"/>
   </g>
   <g id="patch_4">
    <path d="M 777.6 320.4 
L 777.6 43.2 
" style="fill: none"/>
   </g>
   <g id="patch_5">
    <path d="M 108 320.4 
L 777.6 320.4 
" style="fill: none; stroke: #a9a9a9; stroke-width: 0.8; stroke-linejoin: miter; stroke-linecap: square"/>
   </g>
   <g id="patch_6">
    <path d="M 108 43.2 
L 777.6 43.2 
" style="fill: none"/>
   </g>
   <g id="text_20">
    <!-- get_subscribe history -->
    <g style="fill: #a9a9a9" transform="translate(378.6075 37.2) scale(0.12 -0.12)">
     <defs>
      <path id="DejaVuSans-67" d="M 2906 1791 
Q 2906 2416 2648 2759 
Q 2391 3103 1925 3103 
Q 1463 3103 1205 2759 
Q 947 2416 947 1791 
Q 947 1169 1205 825 
Q 1463 481 1925 481 
Q 2391 481 2648 825 
Q 2906 1169 2906 1791 
z
M 3481 434 
Q 3481 -459 3084 -895 
Q 2688 -1331 1869 -1331 
Q 1566 -1331 1297 -1286 
Q 1028 -1241 775 -1147 
L 775 -588 
Q 1028 -725 1275 -790 
Q 1522 -856 1778 -856 
Q 2344 -856 2625 -561 
Q 2906 -266 2906 331 
L 2906 616 
Q 2728 306 2450 153 
Q 2172 0 1784 0 
Q 1141 0 747 490 
Q 353 981 353 1791 
Q 353 2603 747 3093 
Q 1141 3584 1784 3584 
Q 2172 3584 2450 3431 
Q 2728 3278 2906 2969 
L 2906 3500 
L 3481 3500 
L 3481 434 
z
" transform="scale(0.015625)"/>
      <path id="DejaVuSans-65" d="M 3597 1894 
L 3597 1613 
L 953 1613 
Q 991 1019 1311 708 
Q 1631 397 2203 397 
Q 2534 397 2845 478 
Q 3156 559 3463 722 
L 3463 178 
Q 3153 47 2828 -22 
Q 2503 -91 2169 -91 
Q 1331 -91 842 396 
Q 353 884 353 1716 
Q 353 2575 817 3079 
Q 1281 3584 2069 3584 
Q 2775 3584 3186 3129 
Q 3597 2675 3597 1894 
z
M 3022 2063 
Q 3016 2534 2758 2815 
Q 2500 3097 2075 3097 
Q 1594 3097 1305 2825 
Q 1016 2553 972 2059 
L 3022 2063 
z
" transform="scale(0.015625)"/>
      <path id="DejaVuSans-74" d="M 1172 4494 
L 1172 3500 
L 2356 3500 
L 2356 3053 
L 1172 3053 
L 1172 1153 
Q 1172 725 1289 603 
Q 1406 481 1766 481 
L 2356 481 
L 2356 0 
L 1766 0 
Q 1100 0 847 248 
Q 594 497 594 1153 
L 594 3053 
L 172 3053 
L 172 3500 
L 594 3500 
L 594 4494 
L 1172 4494 
z
" transform="scale(0.015625)"/>
      <path id="DejaVuSans-5f" d="M 3263 -1063 
L 3263 -1509 
L -63 -1509 
L -63 -1063 
L 3263 -1063 
z
" transform="scale(0.015625)"/>
      <path id="DejaVuSans-73" d="M 2834 3397 
L 2834 2853 
Q 2591 2978 2328 3040 
Q 2066 3103 1784 3103 
Q 1356 3103 1142 2972 
Q 928 2841 928 2578 
Q 928 2378 1081 2264 
Q 1234 2150 1697 2047 
L 1894 2003 
Q 2506 1872 2764 1633 
Q 3022 1394 3022 966 
Q 3022 478 2636 193 
Q 2250 -91 1575 -91 
Q 1294 -91 989 -36 
Q 684 19 347 128 
L 347 722 
Q 666 556 975 473 
Q 1284 391 1588 391 
Q 1994 391 2212 530 
Q 2431 669 2431 922 
Q 2431 1156 2273 1281 
Q 2116 1406 1581 1522 
L 1381 1569 
Q 847 1681 609 1914 
Q 372 2147 372 2553 
Q 372 3047 722 3315 
Q 1072 3584 1716 3584 
Q 2034 3584 2315 3537 
Q 2597 3491 2834 3397 
z
" transform="scale(0.015625)"/>
      <path id="DejaVuSans-75" d="M 544 1381 
L 544 3500 
L 1119 3500 
L 1119 1403 
Q 1119 906 1312 657 
Q 1506 409 1894 409 
Q 2359 409 2629 706 
Q 2900 1003 2900 1516 
L 2900 3500 
L 3475 3500 
L 3475 0 
L 2900 0 
L 2900 538 
Q 2691 219 2414 64 
Q 2138 -91 1772 -91 
Q 1169 -91 856 284 
Q 544 659 544 1381 
z
M 1991 3584 
L 1991 3584 
z
" transform="scale(0.015625)"/>
      <path id="DejaVuSans-62" d="M 3116 1747 
Q 3116 2381 2855 2742 
Q 2594 3103 2138 3103 
Q 1681 3103 1420 2742 
Q 1159 2381 1159 1747 
Q 1159 1113 1420 752 
Q 1681 391 2138 391 
Q 2594 391 2855 752 
Q 3116 1113 3116 1747 
z
M 1159 2969 
Q 1341 3281 1617 3432 
Q 1894 3584 2278 3584 
Q 2916 3584 3314 3078 
Q 3713 2572 3713 1747 
Q 3713 922 3314 415 
Q 2916 -91 2278 -91 
Q 1894 -91 1617 61 
Q 1341 213 1159 525 
L 1159 0 
L 581 0 
L 581 4863 
L 1159 4863 
L 1159 2969 
z
" transform="scale(0.015625)"/>
      <path id="DejaVuSans-63" d="M 3122 3366 
L 3122 2828 
Q 2878 2963 2633 3030 
Q 2388 3097 2138 3097 
Q 1578 3097 1268 2742 
Q 959 2388 959 1747 
Q 959 1106 1268 751 
Q 1578 397 2138 397 
Q 2388 397 2633 464 
Q 2878 531 3122 666 
L 3122 134 
Q 2881 22 2623 -34 
Q 2366 -91 2075 -91 
Q 1284 -91 818 406 
Q 353 903 353 1747 
Q 353 2603 823 3093 
Q 1294 3584 2113 3584 
Q 2378 3584 2631 3529 
Q 2884 3475 3122 3366 
z
" transform="scale(0.015625)"/>
      <path id="DejaVuSans-72" d="M 2631 2963 
Q 2534 3019 2420 3045 
Q 2306 3072 2169 3072 
Q 1681 3072 1420 2755 
Q 1159 2438 1159 1844 
L 1159 0 
L 581 0 
L 581 3500 
L 1159 3500 
L 1159 2956 
Q 1341 3275 1631 3429 
Q 1922 3584 2338 3584 
Q 2397 3584 2469 3576 
Q 2541 3569 2628 3553 
L 2631 2963 
z
" transform="scale(0.015625)"/>
      <path id="DejaVuSans-69" d="M 603 3500 
L 1178 3500 
L 1178 0 
L 603 0 
L 603 3500 
z
M 603 4863 
L 1178 4863 
L 1178 4134 
L 603 4134 
L 603 4863 
z
" transform="scale(0.015625)"/>
      <path id="DejaVuSans-20" transform="scale(0.015625)"/>
      <path id="DejaVuSans-68" d="M 3513 2113 
L 3513 0 
L 2938 0 
L 2938 2094 
Q 2938 2591 2744 2837 
Q 2550 3084 2163 3084 
Q 1697 3084 1428 2787 
Q 1159 2491 1159 1978 
L 1159 0 
L 581 0 
L 581 4863 
L 1159 4863 
L 1159 2956 
Q 1366 3272 1645 3428 
Q 1925 3584 2291 3584 
Q 2894 3584 3203 3211 
Q 3513 2838 3513 2113 
z
" transform="scale(0.015625)"/>
      <path id="DejaVuSans-6f" d="M 1959 3097 
Q 1497 3097 1228 2736 
Q 959 2375 959 1747 
Q 959 1119 1226 758 
Q 1494 397 1959 397 
Q 2419 397 2687 759 
Q 2956 1122 2956 1747 
Q 2956 2369 2687 2733 
Q 2419 3097 1959 3097 
z
M 1959 3584 
Q 2709 3584 3137 3096 
Q 3566 2609 3566 1747 
Q 3566 888 3137 398 
Q 2709 -91 1959 -91 
Q 1206 -91 779 398 
Q 353 888 353 1747 
Q 353 2609 779 3096 
Q 1206 3584 1959 3584 
z
" transform="scale(0.015625)"/>
      <path id="DejaVuSans-79" d="M 2059 -325 
Q 1816 -950 1584 -1140 
Q 1353 -1331 966 -1331 
L 506 -1331 
L 506 -850 
L 844 -850 
Q 1081 -850 1212 -737 
Q 1344 -625 1503 -206 
L 1606 56 
L 191 3500 
L 800 3500 
L 1894 763 
L 2988 3500 
L 3597 3500 
L 2059 -325 
z
" transform="scale(0.015625)"/>
     </defs>
     <use xlink:href="#DejaVuSans-67"/>
     <use xlink:href="#DejaVuSans-65" transform="translate(63.476562 0)"/>
     <use xlink:href="#DejaVuSans-74" transform="translate(125 0)"/>
     <use xlink:href="#DejaVuSans-5f" transform="translate(164.208984 0)"/>
     <use xlink:href="#DejaVuSans-73" transform="translate(214.208984 0)"/>
     <use xlink:href="#DejaVuSans-75" transform="translate(266.308594 0)"/>
     <use xlink:href="#DejaVuSans-62" transform="translate(329.6875 0)"/>
     <use xlink:href="#DejaVuSans-73" transform="translate(393.164062 0)"/>
     <use xlink:href="#DejaVuSans-63" transform="translate(445.263672 0)"/>
     <use xlink:href="#DejaVuSans-72" transform="translate(500.244141 0)"/>
     <use xlink:href="#DejaVuSans-69" transform="translate(541.357422 0)"/>
     <use xlink:href="#DejaVuSans-62" transform="translate(569.140625 0)"/>
     <use xlink:href="#DejaVuSans-65" transform="translate(632.617188 0)"/>
     <use xlink:href="#DejaVuSans-20" transform="translate(694.140625 0)"/>
     <use xlink:href="#DejaVuSans-68" transform="translate(725.927734 0)"/>
     <use xlink:href="#DejaVuSans-69" transform="translate(789.306641 0)"/>
     <use xlink:href="#DejaVuSans-73" transform="translate(817.089844 0)"/>
     <use xlink:href="#DejaVuSans-74" transform="translate(869.189453 0)"/>
     <use xlink:href="#DejaVuSans-6f" transform="translate(908.398438 0)"/>
     <use xlink:href="#DejaVuSans-72" transform="translate(969.580078 0)"/>
     <use xlink:href="#DejaVuSans-79" transform="translate(1010.693359 0)"/>
    </g>
   </g>
   <g id="legend_1">
    <g id="line2d_41">
     <path d="M 815.08 328.498438 
L 825.08 328.498438 
L 835.08 328.498438 
" style="fill: none; stroke: #1f77b4; stroke-width: 1.5; stroke-linecap: square"/>
    </g>
    <g id="text_21">
     <!-- star -->
     <g style="fill: #a9a9a9" transform="translate(843.08 331.998438) scale(0.1 -0.1)">
      <defs>
       <path id="DejaVuSans-61" d="M 2194 1759 
Q 1497 1759 1228 1600 
Q 959 1441 959 1056 
Q 959 750 1161 570 
Q 1363 391 1709 391 
Q 2188 391 2477 730 
Q 2766 1069 2766 1631 
L 2766 1759 
L 2194 1759 
z
M 3341 1997 
L 3341 0 
L 2766 0 
L 2766 531 
Q 2569 213 2275 61 
Q 1981 -91 1556 -91 
Q 1019 -91 701 211 
Q 384 513 384 1019 
Q 384 1609 779 1909 
Q 1175 2209 1959 2209 
L 2766 2209 
L 2766 2266 
Q 2766 2663 2505 2880 
Q 2244 3097 1772 3097 
Q 1472 3097 1187 3025 
Q 903 2953 641 2809 
L 641 3341 
Q 956 3463 1253 3523 
Q 1550 3584 1831 3584 
Q 2591 3584 2966 3190 
Q 3341 2797 3341 1997 
z
" transform="scale(0.015625)"/>
      </defs>
      <use xlink:href="#DejaVuSans-73"/>
      <use xlink:href="#DejaVuSans-74" transform="translate(52.099609 0)"/>
      <use xlink:href="#DejaVuSans-61" transform="translate(91.308594 0)"/>
      <use xlink:href="#DejaVuSans-72" transform="translate(152.587891 0)"/>
     </g>
    </g>
    <g id="line2d_42">
     <path d="M 815.08 343.176562 
L 825.08 343.176562 
L 835.08 343.176562 
" style="fill: none; stroke: #ff7f0e; stroke-width: 1.5; stroke-linecap: square"/>
    </g>
    <g id="text_22">
     <!-- fork -->
     <g style="fill: #a9a9a9" transform="translate(843.08 346.676562) scale(0.1 -0.1)">
      <defs>
       <path id="DejaVuSans-66" d="M 2375 4863 
L 2375 4384 
L 1825 4384 
Q 1516 4384 1395 4259 
Q 1275 4134 1275 3809 
L 1275 3500 
L 2222 3500 
L 2222 3053 
L 1275 3053 
L 1275 0 
L 697 0 
L 697 3053 
L 147 3053 
L 147 3500 
L 697 3500 
L 697 3744 
Q 697 4328 969 4595 
Q 1241 4863 1831 4863 
L 2375 4863 
z
" transform="scale(0.015625)"/>
       <path id="DejaVuSans-6b" d="M 581 4863 
L 1159 4863 
L 1159 1991 
L 2875 3500 
L 3609 3500 
L 1753 1863 
L 3688 0 
L 2938 0 
L 1159 1709 
L 1159 0 
L 581 0 
L 581 4863 
z
" transform="scale(0.015625)"/>
      </defs>
      <use xlink:href="#DejaVuSans-66"/>
      <use xlink:href="#DejaVuSans-6f" transform="translate(35.205078 0)"/>
      <use xlink:href="#DejaVuSans-72" transform="translate(96.386719 0)"/>
      <use xlink:href="#DejaVuSans-6b" transform="translate(137.5 0)"/>
     </g>
    </g>
   </g>
  </g>
 </g>
 <defs>
  <clipPath id="pc27254e133">
   <rect x="108" y="43.2" width="669.6" height="277.2"/>
  </clipPath>
 </defs>
</svg>
