<?xml version="1.0" encoding="utf-8" standalone="no"?>
<!DOCTYPE svg PUBLIC "-//W3C//DTD SVG 1.1//EN"
  "http://www.w3.org/Graphics/SVG/1.1/DTD/svg11.dtd">
<svg xmlns:xlink="http://www.w3.org/1999/xlink" width="864pt" height="360pt" viewBox="0 0 864 360" xmlns="http://www.w3.org/2000/svg" version="1.1">
 <metadata>
  <rdf:RDF xmlns:dc="http://purl.org/dc/elements/1.1/" xmlns:cc="http://creativecommons.org/ns#" xmlns:rdf="http://www.w3.org/1999/02/22-rdf-syntax-ns#">
   <cc:Work>
    <dc:type rdf:resource="http://purl.org/dc/dcmitype/StillImage"/>
    <dc:date>2026-01-10T08:17:12.990975</dc:date>
    <dc:format>image/svg+xml</dc:format>
    <dc:creator>
     <cc:Agent>
      <dc:title>Matplotlib v3.10.8, https://matplotlib.org/</dc:title>
     </cc:Agent>
    </dc:creator>
   </cc:Work>
  </rdf:RDF>
 </metadata>
 <defs>
  <style type="text/css">*{stroke-linejoin: round; stroke-linecap: butt}</style>
 </defs>
 <g id="figure_1">
  <g id="patch_1">
   <path d="M 0 360 
L 864 360 
L 864 0 
L 0 0 
L 0 360 
z
" style="fill: none; opacity: 0"/>
  </g>
  <g id="axes_1">
   <g id="patch_2">
    <path d="M 108 320.4 
L 777.6 320.4 
L 777.6 43.2 
L 108 43.2 
L 108 320.4 
z
" style="fill: none; opacity: 0"/>
   </g>
   <g id="matplotlib.axis_1">
    <g id="xtick_1">
     <g id="line2d_1">
      <path d="M 129.852227 320.4 
L 129.852227 43.2 
" clip-path="url(#pd8c6b7f823)" style="fill: none; stroke-dasharray: 5.12,1.28,0.8,1.28; stroke-dashoffset: 0; stroke: #b0b0b0; stroke-width: 0.8"/>
     </g>
     <g id="line2d_2">
      <defs>
       <path id="m4311a2645c" d="M 0 0 
L 0 3.5 
" style="stroke: #a9a9a9; stroke-width: 0.8"/>
      </defs>
      <g>
       <use xlink:href="#m4311a2645c" x="129.852227" y="320.4" style="fill: #a9a9a9; stroke: #a9a9a9; stroke-width: 0.8"/>
      </g>
     </g>
     <g id="text_1">
      <!-- 2021-07 -->
      <g style="fill: #a9a9a9" transform="translate(108.96082 334.998438) scale(0.1 -0.1)">
       <defs>
        <path id="DejaVuSans-32" d="M 1228 531 
L 3431 531 
L 3431 0 
L 469 0 
L 469 531 
Q 828 903 1448 1529 
Q 2069 2156 2228 2338 
Q 2531 2678 2651 2914 
Q 2772 3150 2772 3378 
Q 2772 3750 2511 3984 
Q 2250 4219 1831 4219 
Q 1534 4219 1204 4116 
Q 875 4013 500 3803 
L 500 4441 
Q 881 4594 1212 4672 
Q 1544 4750 1819 4750 
Q 2544 4750 2975 4387 
Q 3406 4025 3406 3419 
Q 3406 3131 3298 2873 
Q 3191 2616 2906 2266 
Q 2828 2175 2409 1742 
Q 1991 1309 1228 531 
z
" transform="scale(0.015625)"/>
        <path id="DejaVuSans-30" d="M 2034 4250 
Q 1547 4250 1301 3770 
Q 1056 3291 1056 2328 
Q 1056 1369 1301 889 
Q 1547 409 2034 409 
Q 2525 409 2770 889 
Q 3016 1369 3016 2328 
Q 3016 3291 2770 3770 
Q 2525 4250 2034 4250 
z
M 2034 4750 
Q 2819 4750 3233 4129 
Q 3647 3509 3647 2328 
Q 3647 1150 3233 529 
Q 2819 -91 2034 -91 
Q 1250 -91 836 529 
Q 422 1150 422 2328 
Q 422 3509 836 4129 
Q 1250 4750 2034 4750 
z
" transform="scale(0.015625)"/>
        <path id="DejaVuSans-31" d="M 794 531 
L 1825 531 
L 1825 4091 
L 703 3866 
L 703 4441 
L 1819 4666 
L 2450 4666 
L 2450 531 
L 3481 531 
L 3481 0 
L 794 0 
L 794 531 
z
" transform="scale(0.015625)"/>
        <path id="DejaVuSans-2d" d="M 313 2009 
L 1997 2009 
L 1997 1497 
L 313 1497 
L 313 2009 
z
" transform="scale(0.015625)"/>
        <path id="DejaVuSans-37" d="M 525 4666 
L 3525 4666 
L 3525 4397 
L 1831 0 
L 1172 0 
L 2766 4134 
L 525 4134 
L 525 4666 
z
" transform="scale(0.015625)"/>
       </defs>
       <use xlink:href="#DejaVuSans-32"/>
       <use xlink:href="#DejaVuSans-30" transform="translate(63.623047 0)"/>
       <use xlink:href="#DejaVuSans-32" transform="translate(127.246094 0)"/>
       <use xlink:href="#DejaVuSans-31" transform="translate(190.869141 0)"/>
       <use xlink:href="#DejaVuSans-2d" transform="translate(254.492188 0)"/>
       <use xlink:href="#DejaVuSans-30" transform="translate(290.576172 0)"/>
       <use xlink:href="#DejaVuSans-37" transform="translate(354.199219 0)"/>
      </g>
     </g>
    </g>
    <g id="xtick_2">
     <g id="line2d_3">
      <path d="M 198.525322 320.4 
L 198.525322 43.2 
" clip-path="url(#pd8c6b7f823)" style="fill: none; stroke-dasharray: 5.12,1.28,0.8,1.28; stroke-dashoffset: 0; stroke: #b0b0b0; stroke-width: 0.8"/>
     </g>
     <g id="line2d_4">
      <g>
       <use xlink:href="#m4311a2645c" x="198.525322" y="320.4" style="fill: #a9a9a9; stroke: #a9a9a9; stroke-width: 0.8"/>
      </g>
     </g>
     <g id="text_2">
      <!-- 2022-01 -->
      <g style="fill: #a9a9a9" transform="translate(177.633916 334.998438) scale(0.1 -0.1)">
       <use xlink:href="#DejaVuSans-32"/>
       <use xlink:href="#DejaVuSans-30" transform="translate(63.623047 0)"/>
       <use xlink:href="#DejaVuSans-32" transform="translate(127.246094 0)"/>
       <use xlink:href="#DejaVuSans-32" transform="translate(190.869141 0)"/>
       <use xlink:href="#DejaVuSans-2d" transform="translate(254.492188 0)"/>
       <use xlink:href="#DejaVuSans-30" transform="translate(290.576172 0)"/>
       <use xlink:href="#DejaVuSans-31" transform="translate(354.199219 0)"/>
      </g>
     </g>
    </g>
    <g id="xtick_3">
     <g id="line2d_5">
      <path d="M 266.078747 320.4 
L 266.078747 43.2 
" clip-path="url(#pd8c6b7f823)" style="fill: none; stroke-dasharray: 5.12,1.28,0.8,1.28; stroke-dashoffset: 0; stroke: #b0b0b0; stroke-width: 0.8"/>
     </g>
     <g id="line2d_6">
      <g>
       <use xlink:href="#m4311a2645c" x="266.078747" y="320.4" style="fill: #a9a9a9; stroke: #a9a9a9; stroke-width: 0.8"/>
      </g>
     </g>
     <g id="text_3">
      <!-- 2022-07 -->
      <g style="fill: #a9a9a9" transform="translate(245.187341 334.998438) scale(0.1 -0.1)">
       <use xlink:href="#DejaVuSans-32"/>
       <use xlink:href="#DejaVuSans-30" transform="translate(63.623047 0)"/>
       <use xlink:href="#DejaVuSans-32" transform="translate(127.246094 0)"/>
       <use xlink:href="#DejaVuSans-32" transform="translate(190.869141 0)"/>
       <use xlink:href="#DejaVuSans-2d" transform="translate(254.492188 0)"/>
       <use xlink:href="#DejaVuSans-30" transform="translate(290.576172 0)"/>
       <use xlink:href="#DejaVuSans-37" transform="translate(354.199219 0)"/>
      </g>
     </g>
    </g>
    <g id="xtick_4">
     <g id="line2d_7">
      <path d="M 334.751842 320.4 
L 334.751842 43.2 
" clip-path="url(#pd8c6b7f823)" style="fill: none; stroke-dasharray: 5.12,1.28,0.8,1.28; stroke-dashoffset: 0; stroke: #b0b0b0; stroke-width: 0.8"/>
     </g>
     <g id="line2d_8">
      <g>
       <use xlink:href="#m4311a2645c" x="334.751842" y="320.4" style="fill: #a9a9a9; stroke: #a9a9a9; stroke-width: 0.8"/>
      </g>
     </g>
     <g id="text_4">
      <!-- 2023-01 -->
      <g style="fill: #a9a9a9" transform="translate(313.860436 334.998438) scale(0.1 -0.1)">
       <defs>
        <path id="DejaVuSans-33" d="M 2597 2516 
Q 3050 2419 3304 2112 
Q 3559 1806 3559 1356 
Q 3559 666 3084 287 
Q 2609 -91 1734 -91 
Q 1441 -91 1130 -33 
Q 819 25 488 141 
L 488 750 
Q 750 597 1062 519 
Q 1375 441 1716 441 
Q 2309 441 2620 675 
Q 2931 909 2931 1356 
Q 2931 1769 2642 2001 
Q 2353 2234 1838 2234 
L 1294 2234 
L 1294 2753 
L 1863 2753 
Q 2328 2753 2575 2939 
Q 2822 3125 2822 3475 
Q 2822 3834 2567 4026 
Q 2313 4219 1838 4219 
Q 1578 4219 1281 4162 
Q 984 4106 628 3988 
L 628 4550 
Q 988 4650 1302 4700 
Q 1616 4750 1894 4750 
Q 2613 4750 3031 4423 
Q 3450 4097 3450 3541 
Q 3450 3153 3228 2886 
Q 3006 2619 2597 2516 
z
" transform="scale(0.015625)"/>
       </defs>
       <use xlink:href="#DejaVuSans-32"/>
       <use xlink:href="#DejaVuSans-30" transform="translate(63.623047 0)"/>
       <use xlink:href="#DejaVuSans-32" transform="translate(127.246094 0)"/>
       <use xlink:href="#DejaVuSans-33" transform="translate(190.869141 0)"/>
       <use xlink:href="#DejaVuSans-2d" transform="translate(254.492188 0)"/>
       <use xlink:href="#DejaVuSans-30" transform="translate(290.576172 0)"/>
       <use xlink:href="#DejaVuSans-31" transform="translate(354.199219 0)"/>
      </g>
     </g>
    </g>
    <g id="xtick_5">
     <g id="line2d_9">
      <path d="M 402.305267 320.4 
L 402.305267 43.2 
" clip-path="url(#pd8c6b7f823)" style="fill: none; stroke-dasharray: 5.12,1.28,0.8,1.28; stroke-dashoffset: 0; stroke: #b0b0b0; stroke-width: 0.8"/>
     </g>
     <g id="line2d_10">
      <g>
       <use xlink:href="#m4311a2645c" x="402.305267" y="320.4" style="fill: #a9a9a9; stroke: #a9a9a9; stroke-width: 0.8"/>
      </g>
     </g>
     <g id="text_5">
      <!-- 2023-07 -->
      <g style="fill: #a9a9a9" transform="translate(381.413861 334.998438) scale(0.1 -0.1)">
       <use xlink:href="#DejaVuSans-32"/>
       <use xlink:href="#DejaVuSans-30" transform="translate(63.623047 0)"/>
       <use xlink:href="#DejaVuSans-32" transform="translate(127.246094 0)"/>
       <use xlink:href="#DejaVuSans-33" transform="translate(190.869141 0)"/>
       <use xlink:href="#DejaVuSans-2d" transform="translate(254.492188 0)"/>
       <use xlink:href="#DejaVuSans-30" transform="translate(290.576172 0)"/>
       <use xlink:href="#DejaVuSans-37" transform="translate(354.199219 0)"/>
      </g>
     </g>
    </g>
    <g id="xtick_6">
     <g id="line2d_11">
      <path d="M 470.978362 320.4 
L 470.978362 43.2 
" clip-path="url(#pd8c6b7f823)" style="fill: none; stroke-dasharray: 5.12,1.28,0.8,1.28; stroke-dashoffset: 0; stroke: #b0b0b0; stroke-width: 0.8"/>
     </g>
     <g id="line2d_12">
      <g>
       <use xlink:href="#m4311a2645c" x="470.978362" y="320.4" style="fill: #a9a9a9; stroke: #a9a9a9; stroke-width: 0.8"/>
      </g>
     </g>
     <g id="text_6">
      <!-- 2024-01 -->
      <g style="fill: #a9a9a9" transform="translate(450.086956 334.998438) scale(0.1 -0.1)">
       <defs>
        <path id="DejaVuSans-34" d="M 2419 4116 
L 825 1625 
L 2419 1625 
L 2419 4116 
z
M 2253 4666 
L 3047 4666 
L 3047 1625 
L 3713 1625 
L 3713 1100 
L 3047 1100 
L 3047 0 
L 2419 0 
L 2419 1100 
L 313 1100 
L 313 1709 
L 2253 4666 
z
" transform="scale(0.015625)"/>
       </defs>
       <use xlink:href="#DejaVuSans-32"/>
       <use xlink:href="#DejaVuSans-30" transform="translate(63.623047 0)"/>
       <use xlink:href="#DejaVuSans-32" transform="translate(127.246094 0)"/>
       <use xlink:href="#DejaVuSans-34" transform="translate(190.869141 0)"/>
       <use xlink:href="#DejaVuSans-2d" transform="translate(254.492188 0)"/>
       <use xlink:href="#DejaVuSans-30" transform="translate(290.576172 0)"/>
       <use xlink:href="#DejaVuSans-31" transform="translate(354.199219 0)"/>
      </g>
     </g>
    </g>
    <g id="xtick_7">
     <g id="line2d_13">
      <path d="M 538.905011 320.4 
L 538.905011 43.2 
" clip-path="url(#pd8c6b7f823)" style="fill: none; stroke-dasharray: 5.12,1.28,0.8,1.28; stroke-dashoffset: 0; stroke: #b0b0b0; stroke-width: 0.8"/>
     </g>
     <g id="line2d_14">
      <g>
       <use xlink:href="#m4311a2645c" x="538.905011" y="320.4" style="fill: #a9a9a9; stroke: #a9a9a9; stroke-width: 0.8"/>
      </g>
     </g>
     <g id="text_7">
      <!-- 2024-07 -->
      <g style="fill: #a9a9a9" transform="translate(518.013605 334.998438) scale(0.1 -0.1)">
       <use xlink:href="#DejaVuSans-32"/>
       <use xlink:href="#DejaVuSans-30" transform="translate(63.623047 0)"/>
       <use xlink:href="#DejaVuSans-32" transform="translate(127.246094 0)"/>
       <use xlink:href="#DejaVuSans-34" transform="translate(190.869141 0)"/>
       <use xlink:href="#DejaVuSans-2d" transform="translate(254.492188 0)"/>
       <use xlink:href="#DejaVuSans-30" transform="translate(290.576172 0)"/>
       <use xlink:href="#DejaVuSans-37" transform="translate(354.199219 0)"/>
      </g>
     </g>
    </g>
    <g id="xtick_8">
     <g id="line2d_15">
      <path d="M 607.578106 320.4 
L 607.578106 43.2 
" clip-path="url(#pd8c6b7f823)" style="fill: none; stroke-dasharray: 5.12,1.28,0.8,1.28; stroke-dashoffset: 0; stroke: #b0b0b0; stroke-width: 0.8"/>
     </g>
     <g id="line2d_16">
      <g>
       <use xlink:href="#m4311a2645c" x="607.578106" y="320.4" style="fill: #a9a9a9; stroke: #a9a9a9; stroke-width: 0.8"/>
      </g>
     </g>
     <g id="text_8">
      <!-- 2025-01 -->
      <g style="fill: #a9a9a9" transform="translate(586.6867 334.998438) scale(0.1 -0.1)">
       <defs>
        <path id="DejaVuSans-35" d="M 691 4666 
L 3169 4666 
L 3169 4134 
L 1269 4134 
L 1269 2991 
Q 1406 3038 1543 3061 
Q 1681 3084 1819 3084 
Q 2600 3084 3056 2656 
Q 3513 2228 3513 1497 
Q 3513 744 3044 326 
Q 2575 -91 1722 -91 
Q 1428 -91 1123 -41 
Q 819 9 494 109 
L 494 744 
Q 775 591 1075 516 
Q 1375 441 1709 441 
Q 2250 441 2565 725 
Q 2881 1009 2881 1497 
Q 2881 1984 2565 2268 
Q 2250 2553 1709 2553 
Q 1456 2553 1204 2497 
Q 953 2441 691 2322 
L 691 4666 
z
" transform="scale(0.015625)"/>
       </defs>
       <use xlink:href="#DejaVuSans-32"/>
       <use xlink:href="#DejaVuSans-30" transform="translate(63.623047 0)"/>
       <use xlink:href="#DejaVuSans-32" transform="translate(127.246094 0)"/>
       <use xlink:href="#DejaVuSans-35" transform="translate(190.869141 0)"/>
       <use xlink:href="#DejaVuSans-2d" transform="translate(254.492188 0)"/>
       <use xlink:href="#DejaVuSans-30" transform="translate(290.576172 0)"/>
       <use xlink:href="#DejaVuSans-31" transform="translate(354.199219 0)"/>
      </g>
     </g>
    </g>
    <g id="xtick_9">
     <g id="line2d_17">
      <path d="M 675.131531 320.4 
L 675.131531 43.2 
" clip-path="url(#pd8c6b7f823)" style="fill: none; stroke-dasharray: 5.12,1.28,0.8,1.28; stroke-dashoffset: 0; stroke: #b0b0b0; stroke-width: 0.8"/>
     </g>
     <g id="line2d_18">
      <g>
       <use xlink:href="#m4311a2645c" x="675.131531" y="320.4" style="fill: #a9a9a9; stroke: #a9a9a9; stroke-width: 0.8"/>
      </g>
     </g>
     <g id="text_9">
      <!-- 2025-07 -->
      <g style="fill: #a9a9a9" transform="translate(654.240125 334.998438) scale(0.1 -0.1)">
       <use xlink:href="#DejaVuSans-32"/>
       <use xlink:href="#DejaVuSans-30" transform="translate(63.623047 0)"/>
       <use xlink:href="#DejaVuSans-32" transform="translate(127.246094 0)"/>
       <use xlink:href="#DejaVuSans-35" transform="translate(190.869141 0)"/>
       <use xlink:href="#DejaVuSans-2d" transform="translate(254.492188 0)"/>
       <use xlink:href="#DejaVuSans-30" transform="translate(290.576172 0)"/>
       <use xlink:href="#DejaVuSans-37" transform="translate(354.199219 0)"/>
      </g>
     </g>
    </g>
    <g id="xtick_10">
     <g id="line2d_19">
      <path d="M 743.804626 320.4 
L 743.804626 43.2 
" clip-path="url(#pd8c6b7f823)" style="fill: none; stroke-dasharray: 5.12,1.28,0.8,1.28; stroke-dashoffset: 0; stroke: #b0b0b0; stroke-width: 0.8"/>
     </g>
     <g id="line2d_20">
      <g>
       <use xlink:href="#m4311a2645c" x="743.804626" y="320.4" style="fill: #a9a9a9; stroke: #a9a9a9; stroke-width: 0.8"/>
      </g>
     </g>
     <g id="text_10">
      <!-- 2026-01 -->
      <g style="fill: #a9a9a9" transform="translate(722.91322 334.998438) scale(0.1 -0.1)">
       <defs>
        <path id="DejaVuSans-36" d="M 2113 2584 
Q 1688 2584 1439 2293 
Q 1191 2003 1191 1497 
Q 1191 994 1439 701 
Q 1688 409 2113 409 
Q 2538 409 2786 701 
Q 3034 994 3034 1497 
Q 3034 2003 2786 2293 
Q 2538 2584 2113 2584 
z
M 3366 4563 
L 3366 3988 
Q 3128 4100 2886 4159 
Q 2644 4219 2406 4219 
Q 1781 4219 1451 3797 
Q 1122 3375 1075 2522 
Q 1259 2794 1537 2939 
Q 1816 3084 2150 3084 
Q 2853 3084 3261 2657 
Q 3669 2231 3669 1497 
Q 3669 778 3244 343 
Q 2819 -91 2113 -91 
Q 1303 -91 875 529 
Q 447 1150 447 2328 
Q 447 3434 972 4092 
Q 1497 4750 2381 4750 
Q 2619 4750 2861 4703 
Q 3103 4656 3366 4563 
z
" transform="scale(0.015625)"/>
       </defs>
       <use xlink:href="#DejaVuSans-32"/>
       <use xlink:href="#DejaVuSans-30" transform="translate(63.623047 0)"/>
       <use xlink:href="#DejaVuSans-32" transform="translate(127.246094 0)"/>
       <use xlink:href="#DejaVuSans-36" transform="translate(190.869141 0)"/>
       <use xlink:href="#DejaVuSans-2d" transform="translate(254.492188 0)"/>
       <use xlink:href="#DejaVuSans-30" transform="translate(290.576172 0)"/>
       <use xlink:href="#DejaVuSans-31" transform="translate(354.199219 0)"/>
      </g>
     </g>
    </g>
   </g>
   <g id="matplotlib.axis_2">
    <g id="ytick_1">
     <g id="line2d_21">
      <path d="M 108 307.829505 
L 777.6 307.829505 
" clip-path="url(#pd8c6b7f823)" style="fill: none; stroke-dasharray: 5.12,1.28,0.8,1.28; stroke-dashoffset: 0; stroke: #b0b0b0; stroke-width: 0.8"/>
     </g>
     <g id="line2d_22">
      <defs>
       <path id="m56b1eb2b4b" d="M 0 0 
L -3.5 0 
" style="stroke: #a9a9a9; stroke-width: 0.8"/>
      </defs>
      <g>
       <use xlink:href="#m56b1eb2b4b" x="108" y="307.829505" style="fill: #a9a9a9; stroke: #a9a9a9; stroke-width: 0.8"/>
      </g>
     </g>
     <g id="text_11">
      <!-- 0 -->
      <g style="fill: #a9a9a9" transform="translate(94.6375 311.628723) scale(0.1 -0.1)">
       <use xlink:href="#DejaVuSans-30"/>
      </g>
     </g>
    </g>
    <g id="ytick_2">
     <g id="line2d_23">
      <path d="M 108 278.324763 
L 777.6 278.324763 
" clip-path="url(#pd8c6b7f823)" style="fill: none; stroke-dasharray: 5.12,1.28,0.8,1.28; stroke-dashoffset: 0; stroke: #b0b0b0; stroke-width: 0.8"/>
     </g>
     <g id="line2d_24">
      <g>
       <use xlink:href="#m56b1eb2b4b" x="108" y="278.324763" style="fill: #a9a9a9; stroke: #a9a9a9; stroke-width: 0.8"/>
      </g>
     </g>
     <g id="text_12">
      <!-- 1000 -->
      <g style="fill: #a9a9a9" transform="translate(75.55 282.123982) scale(0.1 -0.1)">
       <use xlink:href="#DejaVuSans-31"/>
       <use xlink:href="#DejaVuSans-30" transform="translate(63.623047 0)"/>
       <use xlink:href="#DejaVuSans-30" transform="translate(127.246094 0)"/>
       <use xlink:href="#DejaVuSans-30" transform="translate(190.869141 0)"/>
      </g>
     </g>
    </g>
    <g id="ytick_3">
     <g id="line2d_25">
      <path d="M 108 248.820021 
L 777.6 248.820021 
" clip-path="url(#pd8c6b7f823)" style="fill: none; stroke-dasharray: 5.12,1.28,0.8,1.28; stroke-dashoffset: 0; stroke: #b0b0b0; stroke-width: 0.8"/>
     </g>
     <g id="line2d_26">
      <g>
       <use xlink:href="#m56b1eb2b4b" x="108" y="248.820021" style="fill: #a9a9a9; stroke: #a9a9a9; stroke-width: 0.8"/>
      </g>
     </g>
     <g id="text_13">
      <!-- 2000 -->
      <g style="fill: #a9a9a9" transform="translate(75.55 252.61924) scale(0.1 -0.1)">
       <use xlink:href="#DejaVuSans-32"/>
       <use xlink:href="#DejaVuSans-30" transform="translate(63.623047 0)"/>
       <use xlink:href="#DejaVuSans-30" transform="translate(127.246094 0)"/>
       <use xlink:href="#DejaVuSans-30" transform="translate(190.869141 0)"/>
      </g>
     </g>
    </g>
    <g id="ytick_4">
     <g id="line2d_27">
      <path d="M 108 219.315279 
L 777.6 219.315279 
" clip-path="url(#pd8c6b7f823)" style="fill: none; stroke-dasharray: 5.12,1.28,0.8,1.28; stroke-dashoffset: 0; stroke: #b0b0b0; stroke-width: 0.8"/>
     </g>
     <g id="line2d_28">
      <g>
       <use xlink:href="#m56b1eb2b4b" x="108" y="219.315279" style="fill: #a9a9a9; stroke: #a9a9a9; stroke-width: 0.8"/>
      </g>
     </g>
     <g id="text_14">
      <!-- 3000 -->
      <g style="fill: #a9a9a9" transform="translate(75.55 223.114498) scale(0.1 -0.1)">
       <use xlink:href="#DejaVuSans-33"/>
       <use xlink:href="#DejaVuSans-30" transform="translate(63.623047 0)"/>
       <use xlink:href="#DejaVuSans-30" transform="translate(127.246094 0)"/>
       <use xlink:href="#DejaVuSans-30" transform="translate(190.869141 0)"/>
      </g>
     </g>
    </g>
    <g id="ytick_5">
     <g id="line2d_29">
      <path d="M 108 189.810537 
L 777.6 189.810537 
" clip-path="url(#pd8c6b7f823)" style="fill: none; stroke-dasharray: 5.12,1.28,0.8,1.28; stroke-dashoffset: 0; stroke: #b0b0b0; stroke-width: 0.8"/>
     </g>
     <g id="line2d_30">
      <g>
       <use xlink:href="#m56b1eb2b4b" x="108" y="189.810537" style="fill: #a9a9a9; stroke: #a9a9a9; stroke-width: 0.8"/>
      </g>
     </g>
     <g id="text_15">
      <!-- 4000 -->
      <g style="fill: #a9a9a9" transform="translate(75.55 193.609756) scale(0.1 -0.1)">
       <use xlink:href="#DejaVuSans-34"/>
       <use xlink:href="#DejaVuSans-30" transform="translate(63.623047 0)"/>
       <use xlink:href="#DejaVuSans-30" transform="translate(127.246094 0)"/>
       <use xlink:href="#DejaVuSans-30" transform="translate(190.869141 0)"/>
      </g>
     </g>
    </g>
    <g id="ytick_6">
     <g id="line2d_31">
      <path d="M 108 160.305796 
L 777.6 160.305796 
" clip-path="url(#pd8c6b7f823)" style="fill: none; stroke-dasharray: 5.12,1.28,0.8,1.28; stroke-dashoffset: 0; stroke: #b0b0b0; stroke-width: 0.8"/>
     </g>
     <g id="line2d_32">
      <g>
       <use xlink:href="#m56b1eb2b4b" x="108" y="160.305796" style="fill: #a9a9a9; stroke: #a9a9a9; stroke-width: 0.8"/>
      </g>
     </g>
     <g id="text_16">
      <!-- 5000 -->
      <g style="fill: #a9a9a9" transform="translate(75.55 164.105014) scale(0.1 -0.1)">
       <use xlink:href="#DejaVuSans-35"/>
       <use xlink:href="#DejaVuSans-30" transform="translate(63.623047 0)"/>
       <use xlink:href="#DejaVuSans-30" transform="translate(127.246094 0)"/>
       <use xlink:href="#DejaVuSans-30" transform="translate(190.869141 0)"/>
      </g>
     </g>
    </g>
    <g id="ytick_7">
     <g id="line2d_33">
      <path d="M 108 130.801054 
L 777.6 130.801054 
" clip-path="url(#pd8c6b7f823)" style="fill: none; stroke-dasharray: 5.12,1.28,0.8,1.28; stroke-dashoffset: 0; stroke: #b0b0b0; stroke-width: 0.8"/>
     </g>
     <g id="line2d_34">
      <g>
       <use xlink:href="#m56b1eb2b4b" x="108" y="130.801054" style="fill: #a9a9a9; stroke: #a9a9a9; stroke-width: 0.8"/>
      </g>
     </g>
     <g id="text_17">
      <!-- 6000 -->
      <g style="fill: #a9a9a9" transform="translate(75.55 134.600272) scale(0.1 -0.1)">
       <use xlink:href="#DejaVuSans-36"/>
       <use xlink:href="#DejaVuSans-30" transform="translate(63.623047 0)"/>
       <use xlink:href="#DejaVuSans-30" transform="translate(127.246094 0)"/>
       <use xlink:href="#DejaVuSans-30" transform="translate(190.869141 0)"/>
      </g>
     </g>
    </g>
    <g id="ytick_8">
     <g id="line2d_35">
      <path d="M 108 101.296312 
L 777.6 101.296312 
" clip-path="url(#pd8c6b7f823)" style="fill: none; stroke-dasharray: 5.12,1.28,0.8,1.28; stroke-dashoffset: 0; stroke: #b0b0b0; stroke-width: 0.8"/>
     </g>
     <g id="line2d_36">
      <g>
       <use xlink:href="#m56b1eb2b4b" x="108" y="101.296312" style="fill: #a9a9a9; stroke: #a9a9a9; stroke-width: 0.8"/>
      </g>
     </g>
     <g id="text_18">
      <!-- 7000 -->
      <g style="fill: #a9a9a9" transform="translate(75.55 105.095531) scale(0.1 -0.1)">
       <use xlink:href="#DejaVuSans-37"/>
       <use xlink:href="#DejaVuSans-30" transform="translate(63.623047 0)"/>
       <use xlink:href="#DejaVuSans-30" transform="translate(127.246094 0)"/>
       <use xlink:href="#DejaVuSans-30" transform="translate(190.869141 0)"/>
      </g>
     </g>
    </g>
    <g id="ytick_9">
     <g id="line2d_37">
      <path d="M 108 71.79157 
L 777.6 71.79157 
" clip-path="url(#pd8c6b7f823)" style="fill: none; stroke-dasharray: 5.12,1.28,0.8,1.28; stroke-dashoffset: 0; stroke: #b0b0b0; stroke-width: 0.8"/>
     </g>
     <g id="line2d_38">
      <g>
       <use xlink:href="#m56b1eb2b4b" x="108" y="71.79157" style="fill: #a9a9a9; stroke: #a9a9a9; stroke-width: 0.8"/>
      </g>
     </g>
     <g id="text_19">
      <!-- 8000 -->
      <g style="fill: #a9a9a9" transform="translate(75.55 75.590789) scale(0.1 -0.1)">
       <defs>
        <path id="DejaVuSans-38" d="M 2034 2216 
Q 1584 2216 1326 1975 
Q 1069 1734 1069 1313 
Q 1069 891 1326 650 
Q 1584 409 2034 409 
Q 2484 409 2743 651 
Q 3003 894 3003 1313 
Q 3003 1734 2745 1975 
Q 2488 2216 2034 2216 
z
M 1403 2484 
Q 997 2584 770 2862 
Q 544 3141 544 3541 
Q 544 4100 942 4425 
Q 1341 4750 2034 4750 
Q 2731 4750 3128 4425 
Q 3525 4100 3525 3541 
Q 3525 3141 3298 2862 
Q 3072 2584 2669 2484 
Q 3125 2378 3379 2068 
Q 3634 1759 3634 1313 
Q 3634 634 3220 271 
Q 2806 -91 2034 -91 
Q 1263 -91 848 271 
Q 434 634 434 1313 
Q 434 1759 690 2068 
Q 947 2378 1403 2484 
z
M 1172 3481 
Q 1172 3119 1398 2916 
Q 1625 2713 2034 2713 
Q 2441 2713 2670 2916 
Q 2900 3119 2900 3481 
Q 2900 3844 2670 4047 
Q 2441 4250 2034 4250 
Q 1625 4250 1398 4047 
Q 1172 3844 1172 3481 
z
" transform="scale(0.015625)"/>
       </defs>
       <use xlink:href="#DejaVuSans-38"/>
       <use xlink:href="#DejaVuSans-30" transform="translate(63.623047 0)"/>
       <use xlink:href="#DejaVuSans-30" transform="translate(127.246094 0)"/>
       <use xlink:href="#DejaVuSans-30" transform="translate(190.869141 0)"/>
      </g>
     </g>
    </g>
   </g>
   <g id="line2d_39">
    <path d="M 138.436364 307.740991 
L 140.675704 307.534457 
L 141.048927 307.357429 
L 142.54182 307.150896 
L 144.034714 306.826344 
L 144.78116 306.708325 
L 146.647277 306.531296 
L 147.393724 306.236249 
L 147.766947 305.705163 
L 148.140171 305.439621 
L 148.513394 304.554478 
L 148.886617 304.495469 
L 149.633064 304.023393 
L 150.379511 303.462803 
L 151.872404 302.341623 
L 152.245627 302.194099 
L 152.992074 301.722023 
L 154.111744 301.161433 
L 154.484967 300.512329 
L 155.231414 299.922234 
L 155.977861 299.686196 
L 157.097531 299.509168 
L 159.336871 299.155111 
L 159.710094 298.978082 
L 162.322658 298.742044 
L 163.815551 298.358483 
L 166.801338 297.915911 
L 167.174561 297.709378 
L 167.547784 297.650369 
L 168.294231 297.384826 
L 170.906794 296.91275 
L 171.653241 296.676712 
L 175.012251 296.086617 
L 175.758698 295.909589 
L 177.251591 295.703056 
L 177.998038 295.467018 
L 178.371261 294.906428 
L 179.490931 294.434352 
L 180.610601 294.1098 
L 180.983825 293.903267 
L 181.730271 293.755743 
L 183.223165 293.283667 
L 183.969612 293.224658 
L 184.716058 293.018124 
L 186.208952 292.605058 
L 186.582175 292.575553 
L 187.328622 292.191992 
L 187.701845 292.132982 
L 188.075068 291.926449 
L 192.180525 291.218335 
L 193.673418 290.746259 
L 194.046642 290.480717 
L 195.912758 289.831612 
L 196.659205 289.271022 
L 197.778875 289.034984 
L 202.630779 287.559747 
L 203.004002 287.500738 
L 204.496895 286.881138 
L 204.870119 286.822129 
L 205.616565 286.497576 
L 206.363012 286.468072 
L 207.482682 286.114015 
L 207.855905 286.114015 
L 208.229129 285.936986 
L 208.975575 285.848472 
L 209.348799 285.700948 
L 211.214916 285.612434 
L 211.588139 285.52392 
L 212.334586 285.110854 
L 213.454256 284.697787 
L 214.200702 284.284721 
L 215.320372 283.78314 
L 216.813266 283.016017 
L 217.186489 282.573446 
L 217.932936 281.334247 
L 218.306159 281.216228 
L 218.679382 281.216228 
L 220.172276 280.36059 
L 220.545499 280.272076 
L 220.918722 279.888514 
L 221.665169 279.563962 
L 222.411616 279.209905 
L 224.650956 276.524974 
L 225.024179 276.406955 
L 226.890296 275.108746 
L 227.636743 274.577661 
L 228.009966 274.017071 
L 228.383189 273.102424 
L 228.756413 272.512329 
L 229.129636 272.187777 
L 229.502859 272.010748 
L 233.981539 267.85058 
L 235.474433 266.906428 
L 236.22088 266.493361 
L 237.713773 265.637724 
L 239.57989 263.80843 
L 240.326336 263.483878 
L 241.072783 262.952792 
L 241.446006 262.716754 
L 241.81923 262.657745 
L 242.9389 261.979136 
L 243.312123 261.536565 
L 245.17824 260.444889 
L 245.551463 260.297366 
L 246.671133 259.471233 
L 252.269483 257.346891 
L 253.01593 256.609273 
L 254.1356 256.019178 
L 254.882047 255.517597 
L 255.628493 255.28156 
L 256.001717 255.016017 
L 256.37494 254.897998 
L 257.49461 254.10137 
L 259.360727 253.658799 
L 260.480397 252.950685 
L 261.600067 252.685142 
L 261.97329 252.596628 
L 263.09296 251.770495 
L 264.585854 251.327924 
L 264.959077 251.032877 
L 267.198417 250.206744 
L 267.944864 250.05922 
L 268.69131 249.734668 
L 271.303874 248.731507 
L 272.05032 248.642993 
L 273.169991 248.229926 
L 275.036107 247.25627 
L 276.529001 246.400632 
L 279.514787 245.072919 
L 279.888011 245.013909 
L 280.634457 244.541834 
L 281.380904 244.3353 
L 282.500574 243.863224 
L 283.993467 243.656691 
L 284.739914 243.243625 
L 285.113138 242.889568 
L 285.486361 242.181454 
L 286.979254 241.738883 
L 288.472148 241.030769 
L 291.831158 239.467018 
L 292.577604 239.289989 
L 293.697274 238.699895 
L 294.070498 238.640885 
L 295.936614 237.667229 
L 296.683061 237.165648 
L 297.802731 236.92961 
L 300.415295 236.044468 
L 306.386868 233.182508 
L 306.760091 232.769442 
L 307.133315 232.533404 
L 307.506538 232.444889 
L 308.252985 231.795785 
L 308.626208 231.736776 
L 308.999431 231.087671 
L 309.372655 230.940148 
L 309.745878 230.615595 
L 310.119101 230.556586 
L 310.865548 230.055005 
L 311.611995 229.789463 
L 311.985218 229.494415 
L 312.731665 229.081349 
L 313.851335 228.373235 
L 314.971005 227.78314 
L 315.717452 227.576607 
L 316.463898 227.134036 
L 316.837122 226.455427 
L 317.583568 225.865332 
L 317.956792 225.776818 
L 320.196132 224.655638 
L 320.942578 224.331085 
L 321.689025 223.770495 
L 322.435472 222.973867 
L 324.301589 221.528135 
L 325.048035 220.908535 
L 325.421259 220.731507 
L 326.167705 219.934879 
L 327.287375 219.374289 
L 328.033822 218.931718 
L 328.407045 218.813699 
L 328.780269 218.518651 
L 329.153492 218.459642 
L 332.512502 216.689357 
L 333.258949 216.482824 
L 334.751842 215.951739 
L 335.125065 215.627187 
L 336.617959 215.007587 
L 336.991182 214.889568 
L 337.737629 214.387987 
L 338.484076 214.063435 
L 339.230522 213.502845 
L 339.976969 211.939094 
L 340.723416 211.053952 
L 341.843086 210.434352 
L 342.589532 210.1098 
L 342.962756 210.05079 
L 343.709202 209.696733 
L 345.202096 209.165648 
L 345.948542 208.723077 
L 346.694989 208.36902 
L 347.068212 208.251001 
L 349.307553 206.834773 
L 349.680776 206.392202 
L 350.800446 205.713593 
L 351.173669 205.56607 
L 351.920116 205.093994 
L 353.413009 204.238356 
L 353.786233 204.149842 
L 354.159456 203.82529 
L 356.772019 202.940148 
L 357.145243 202.674605 
L 357.891689 202.438567 
L 360.877476 200.96333 
L 361.623923 200.550263 
L 361.997146 200.373235 
L 362.743593 199.753635 
L 363.49004 199.547102 
L 363.863263 199.193045 
L 364.236486 199.134036 
L 364.982933 198.543941 
L 366.84905 197.393256 
L 367.595496 197.157218 
L 367.96872 196.92118 
L 368.341943 196.862171 
L 369.834836 196.124552 
L 370.954506 195.740991 
L 371.700953 195.622972 
L 373.193846 195.032877 
L 373.56707 195.003372 
L 375.433187 194.147734 
L 376.179633 193.616649 
L 376.92608 193.203583 
L 378.418973 192.465964 
L 379.538643 191.698841 
L 380.28509 191.521812 
L 381.40476 190.813699 
L 382.52443 190.400632 
L 383.270877 190.13509 
L 384.76377 189.604004 
L 385.510217 189.338462 
L 387.00311 189.013909 
L 387.749557 188.777871 
L 389.615674 188.128767 
L 390.735344 187.77471 
L 391.48179 187.597682 
L 393.72113 187.184615 
L 394.467577 187.037092 
L 395.587247 186.771549 
L 395.96047 186.594521 
L 396.706917 186.446997 
L 397.453364 186.240464 
L 398.19981 185.886407 
L 398.573034 185.738883 
L 398.946257 185.738883 
L 403.051714 184.41117 
L 403.424937 184.204636 
L 403.798161 184.204636 
L 404.544607 183.909589 
L 404.917831 183.496523 
L 407.157171 182.522866 
L 408.650064 181.991781 
L 409.023287 181.755743 
L 410.142957 181.401686 
L 410.889404 181.195153 
L 411.262628 180.92961 
L 411.635851 180.841096 
L 412.009074 180.516544 
L 413.128744 180.280506 
L 413.875191 179.926449 
L 414.248414 179.454373 
L 418.353871 178.510221 
L 418.727094 178.510221 
L 419.473541 178.274183 
L 422.832551 177.418546 
L 423.578998 177.241517 
L 427.311231 176.149842 
L 427.684455 176.061328 
L 428.057678 175.854795 
L 428.804125 175.648261 
L 429.550571 175.323709 
L 430.297018 175.028662 
L 430.670241 174.763119 
L 431.416688 174.527081 
L 434.402475 173.46491 
L 435.148921 173.405901 
L 436.641815 172.96333 
L 437.015038 172.727292 
L 437.761485 172.491254 
L 438.507932 172.196207 
L 438.881155 171.901159 
L 439.254378 171.812645 
L 439.627602 171.606112 
L 440.374048 171.458588 
L 441.866942 170.809484 
L 442.613388 170.60295 
L 443.733058 170.130875 
L 445.972398 169.511275 
L 446.718845 169.127713 
L 447.838515 168.862171 
L 449.331409 167.593467 
L 451.943972 166.442782 
L 454.556535 165.292097 
L 455.302982 165.085564 
L 458.661992 163.403793 
L 459.408439 162.961222 
L 462.767449 161.308957 
L 463.140672 161.013909 
L 467.619352 159.302634 
L 468.365799 159.184615 
L 468.739022 158.919073 
L 470.231916 158.624025 
L 470.978362 158.299473 
L 472.844479 157.384826 
L 477.696383 155.17197 
L 478.816053 154.788409 
L 479.189276 154.522866 
L 479.935723 154.434352 
L 480.308946 154.168809 
L 481.055393 154.05079 
L 485.907296 152.251001 
L 487.026966 151.985458 
L 488.51986 151.336354 
L 489.266306 150.923288 
L 490.7592 150.12666 
L 491.505646 149.949631 
L 491.87887 149.713593 
L 492.252093 149.625079 
L 494.11821 148.680927 
L 498.970113 146.822129 
L 499.343336 146.763119 
L 500.83623 146.025501 
L 501.582677 145.877977 
L 502.329123 145.435406 
L 503.822017 144.697787 
L 510.540037 142.071865 
L 512.03293 140.773656 
L 512.406154 140.655638 
L 512.779377 140.4196 
L 513.899047 140.095047 
L 514.27227 139.8 
L 515.018717 139.534457 
L 516.138387 138.767334 
L 516.884834 138.560801 
L 517.63128 138.147734 
L 518.75095 137.882192 
L 524.722524 135.403793 
L 526.588641 134.63667 
L 528.454757 134.046575 
L 529.574427 133.308957 
L 529.947651 133.220443 
L 530.694097 132.836881 
L 531.440544 132.600843 
L 531.813767 132.246786 
L 532.933437 131.804215 
L 533.306661 131.745205 
L 534.799554 131.037092 
L 535.919224 130.683035 
L 537.038894 130.269968 
L 538.158564 129.945416 
L 538.531788 129.886407 
L 539.278234 129.47334 
L 539.651458 129.325817 
L 540.024681 129.030769 
L 541.144351 128.735722 
L 541.890798 128.440674 
L 542.637244 128.116122 
L 544.130138 127.496523 
L 546.742701 126.788409 
L 547.489148 126.493361 
L 548.982041 126.198314 
L 549.728488 126.05079 
L 550.848158 125.608219 
L 551.967828 125.372181 
L 554.207168 124.014963 
L 555.326838 123.336354 
L 557.566178 122.62824 
L 557.939401 122.333193 
L 560.925188 121.241517 
L 562.044858 120.88746 
L 562.791305 120.474394 
L 563.537752 120.267861 
L 563.910975 120.061328 
L 564.657422 119.913804 
L 566.150315 119.323709 
L 566.896762 118.822129 
L 568.016432 118.527081 
L 569.136102 117.759958 
L 569.509325 117.700948 
L 571.002218 117.081349 
L 572.495112 116.697787 
L 572.868335 116.638778 
L 573.241558 116.461749 
L 573.988005 116.314226 
L 577.347015 115.28156 
L 578.093462 114.691465 
L 579.586355 113.835827 
L 579.959579 113.747313 
L 580.332802 113.54078 
L 580.706025 113.48177 
L 584.065035 111.8 
L 584.438259 111.475448 
L 586.304375 111.003372 
L 587.424045 110.501791 
L 588.170492 110.295258 
L 588.543716 110.11823 
L 588.916939 109.793678 
L 590.783056 109.115068 
L 595.634959 107.285774 
L 596.381406 107.138251 
L 598.247522 106.518651 
L 599.367192 106.017071 
L 601.979756 105.220443 
L 602.726203 104.777871 
L 615.415796 100.853741 
L 616.162243 100.647208 
L 617.281913 100.234141 
L 617.655136 100.234141 
L 618.774806 99.968599 
L 619.521253 99.821075 
L 620.2677 99.614542 
L 621.38737 98.994942 
L 622.50704 98.640885 
L 625.119603 97.755743 
L 626.612497 96.98862 
L 627.732167 96.723077 
L 628.478613 96.487039 
L 629.22506 96.103477 
L 629.598283 95.778925 
L 630.34473 95.542887 
L 630.717953 95.306849 
L 631.4644 95.218335 
L 634.076963 94.451212 
L 635.196633 94.215174 
L 636.316303 93.920126 
L 637.06275 93.743098 
L 638.18242 93.153003 
L 643.034324 91.294204 
L 643.78077 91.176185 
L 644.527217 91.028662 
L 644.90044 91.028662 
L 646.02011 90.674605 
L 647.13978 90.320548 
L 650.125567 89.435406 
L 651.618461 89.110854 
L 651.991684 88.874816 
L 652.738131 88.727292 
L 653.484577 88.638778 
L 653.857801 88.432244 
L 654.231024 88.40274 
L 655.350694 87.871654 
L 656.470364 87.606112 
L 657.216811 87.28156 
L 659.456151 86.484932 
L 659.829374 86.425922 
L 660.575821 86.160379 
L 665.054501 85.009694 
L 667.293841 84.242571 
L 668.040288 84.183562 
L 670.279628 83.622972 
L 671.026074 83.298419 
L 671.399298 83.23941 
L 671.772521 83.062381 
L 672.518968 82.413277 
L 676.251201 81.026554 
L 678.490541 80.436459 
L 679.236988 80.023393 
L 679.610211 79.934879 
L 680.729881 79.315279 
L 681.103105 79.226765 
L 681.476328 78.931718 
L 682.595998 78.607165 
L 688.567571 75.892729 
L 688.940795 75.83372 
L 693.046252 73.974921 
L 693.792698 73.709378 
L 694.165922 73.53235 
L 694.539145 73.502845 
L 696.405262 72.794731 
L 697.151708 72.647208 
L 697.898155 72.086617 
L 698.271378 72.086617 
L 699.764272 71.555532 
L 701.257165 71.260485 
L 702.750059 70.61138 
L 703.123282 70.61138 
L 704.242952 70.227819 
L 704.989399 70.1098 
L 706.109069 69.460695 
L 706.855515 69.077134 
L 708.721632 68.457534 
L 709.468079 68.132982 
L 711.334195 67.631401 
L 713.946759 66.923288 
L 716.186099 66.156164 
L 717.678992 65.831612 
L 720.291556 65.093994 
L 721.038002 64.94647 
L 722.904119 64.120337 
L 726.263129 63.382719 
L 727.009576 63.2647 
L 728.129246 62.822129 
L 729.248916 62.409062 
L 729.995363 62.291043 
L 731.488256 61.789463 
L 731.861479 61.789463 
L 732.234703 61.494415 
L 732.981149 61.258377 
L 733.354373 61.258377 
L 736.713383 60.137197 
L 738.206276 59.488093 
L 738.579499 59.429083 
L 739.325946 59.075026 
L 740.072393 58.750474 
L 740.81884 58.425922 
L 741.565286 58.130875 
L 741.93851 57.894837 
L 742.311733 57.835827 
L 743.05818 57.452266 
L 743.804626 57.216228 
L 744.551073 56.832666 
L 746.790413 55.8 
L 747.163636 55.8 
L 747.163636 55.8 
" clip-path="url(#pd8c6b7f823)" style="fill: none; stroke: #1f77b4; stroke-width: 1.5; stroke-linecap: square"/>
   </g>
   <g id="line2d_40">
    <path d="M 138.809587 307.8 
L 142.168597 307.711486 
L 145.154384 307.563962 
L 146.647277 307.563962 
L 147.020501 307.445943 
L 148.886617 307.357429 
L 151.125957 307.091886 
L 153.365297 307.003372 
L 154.111744 306.914858 
L 156.724307 306.796839 
L 159.336871 306.708325 
L 161.202988 306.649315 
L 166.054891 306.560801 
L 167.921008 306.501791 
L 171.280018 306.413277 
L 172.772911 306.383772 
L 176.505145 306.295258 
L 177.998038 306.147734 
L 179.490931 306.11823 
L 181.730271 306.029715 
L 183.223165 306.000211 
L 185.089282 305.941201 
L 186.582175 305.793678 
L 189.941185 305.705163 
L 190.687632 305.646154 
L 192.180525 305.55764 
L 194.419865 305.469125 
L 195.912758 305.380611 
L 202.630779 304.93804 
L 205.243342 304.849526 
L 206.363012 304.731507 
L 208.229129 304.642993 
L 211.961362 304.436459 
L 215.693596 304.37745 
L 217.186489 304.200421 
L 219.052606 304.111907 
L 222.784839 303.728346 
L 225.024179 303.433298 
L 226.517073 303.374289 
L 229.502859 302.961222 
L 231.742199 302.902213 
L 232.861869 302.784194 
L 233.981539 302.69568 
L 253.389153 301.249947 
L 256.001717 301.161433 
L 257.49461 300.984405 
L 259.360727 300.89589 
L 261.600067 300.807376 
L 263.466184 300.718862 
L 264.959077 300.689357 
L 266.825194 300.630348 
L 267.57164 300.541834 
L 272.796767 300.453319 
L 273.543214 300.364805 
L 278.021894 300.276291 
L 281.380904 300.099262 
L 283.993467 300.010748 
L 285.486361 299.83372 
L 288.098924 299.745205 
L 288.845371 299.627187 
L 290.711488 299.568177 
L 294.443721 299.509168 
L 295.936614 299.361644 
L 297.429508 299.332139 
L 298.549178 299.243625 
L 300.042071 299.096101 
L 303.774305 298.889568 
L 307.506538 298.801054 
L 310.865548 298.624025 
L 311.985218 298.594521 
L 312.731665 298.476502 
L 314.597782 298.387987 
L 315.344228 298.328978 
L 317.210345 298.240464 
L 318.703238 298.210959 
L 321.315802 298.122445 
L 331.019609 297.443836 
L 333.258949 297.355321 
L 335.125065 297.296312 
L 340.350192 297.207798 
L 341.096639 297.119283 
L 346.321766 297.030769 
L 350.053999 296.824236 
L 350.800446 296.794731 
L 351.546893 296.706217 
L 353.413009 296.617703 
L 355.279126 296.558693 
L 357.145243 296.470179 
L 359.011359 296.41117 
L 362.37037 296.322655 
L 364.60971 296.234141 
L 369.834836 296.145627 
L 373.940293 295.909589 
L 375.433187 295.85058 
L 376.552857 295.762065 
L 381.777983 295.673551 
L 384.017323 295.585037 
L 390.735344 295.496523 
L 392.228237 295.467018 
L 396.706917 295.408008 
L 397.453364 295.348999 
L 402.678491 295.260485 
L 404.171384 295.23098 
L 413.875191 295.142466 
L 416.114531 295.053952 
L 431.789911 294.965437 
L 433.656028 294.906428 
L 443.359835 294.847418 
L 444.106282 294.788409 
L 445.972398 294.729399 
L 447.092068 294.61138 
L 449.331409 294.522866 
L 451.943972 294.404847 
L 455.302982 294.316333 
L 457.169099 294.257323 
L 459.781662 294.168809 
L 462.767449 294.021286 
L 464.633566 293.932771 
L 466.126459 293.903267 
L 472.471256 293.814752 
L 474.710596 293.726238 
L 478.816053 293.637724 
L 481.428616 293.519705 
L 484.041179 293.460695 
L 484.787626 293.401686 
L 493.744986 293.313172 
L 497.47722 293.106639 
L 500.089783 293.018124 
L 504.19524 292.782086 
L 506.807803 292.693572 
L 508.300697 292.664067 
L 510.91326 292.575553 
L 512.779377 292.36902 
L 516.51161 292.280506 
L 517.258057 292.191992 
L 520.99029 292.103477 
L 522.856407 292.044468 
L 526.961864 292.014963 
L 527.708311 291.926449 
L 531.813767 291.837935 
L 532.560214 291.778925 
L 540.771128 291.690411 
L 543.010468 291.601897 
L 548.608818 291.513383 
L 550.101711 291.483878 
L 553.460721 291.424868 
L 554.207168 291.336354 
L 559.059071 291.24784 
L 560.925188 291.18883 
L 567.643208 291.100316 
L 568.762878 291.011802 
L 569.882548 290.923288 
L 571.002218 290.834773 
L 576.600569 290.746259 
L 578.839909 290.657745 
L 589.663386 290.569231 
L 593.022396 290.392202 
L 598.247522 290.303688 
L 599.740416 290.274183 
L 604.219096 290.185669 
L 606.085213 290.12666 
L 613.922903 290.038145 
L 616.535466 289.920126 
L 623.253486 289.831612 
L 624.74638 289.802107 
L 628.478613 289.713593 
L 631.091177 289.595574 
L 635.196633 289.50706 
L 637.809197 289.389041 
L 641.168207 289.330032 
L 641.914654 289.271022 
L 650.125567 289.182508 
L 652.364907 289.093994 
L 654.977471 289.005479 
L 656.843587 288.94647 
L 667.667064 288.857956 
L 669.906404 288.769442 
L 675.877978 288.680927 
L 678.117318 288.592413 
L 682.969221 288.503899 
L 685.208561 288.415385 
L 688.194348 288.32687 
L 690.433688 288.238356 
L 705.362622 288.149842 
L 708.348409 288.002318 
L 716.932546 287.913804 
L 718.425439 287.884299 
L 727.382799 287.795785 
L 729.248916 287.736776 
L 741.192063 287.648261 
L 742.684956 287.618757 
L 747.163636 287.559747 
L 747.163636 287.559747 
" clip-path="url(#pd8c6b7f823)" style="fill: none; stroke: #ff7f0e; stroke-width: 1.5; stroke-linecap: square"/>
   </g>
   <g id="patch_3">
    <path d="M 108 320.4 
L 108 43.2 
" style="fill: none; stroke: #a9a9a9; stroke-width: 0.8; stroke-linejoin: miter; stroke-linecap: square"/>
   </g>
   <g id="patch_4">
    <path d="M 777.6 320.4 
L 777.6 43.2 
" style="fill: none"/>
   </g>
   <g id="patch_5">
    <path d="M 108 320.4 
L 777.6 320.4 
" style="fill: none; stroke: #a9a9a9; stroke-width: 0.8; stroke-linejoin: miter; stroke-linecap: square"/>
   </g>
   <g id="patch_6">
    <path d="M 108 43.2 
L 777.6 43.2 
" style="fill: none"/>
   </g>
   <g id="text_20">
    <!-- get_subscribe history -->
    <g style="fill: #a9a9a9" transform="translate(378.6075 37.2) scale(0.12 -0.12)">
     <defs>
      <path id="DejaVuSans-67" d="M 2906 1791 
Q 2906 2416 2648 2759 
Q 2391 3103 1925 3103 
Q 1463 3103 1205 2759 
Q 947 2416 947 1791 
Q 947 1169 1205 825 
Q 1463 481 1925 481 
Q 2391 481 2648 825 
Q 2906 1169 2906 1791 
z
M 3481 434 
Q 3481 -459 3084 -895 
Q 2688 -1331 1869 -1331 
Q 1566 -1331 1297 -1286 
Q 1028 -1241 775 -1147 
L 775 -588 
Q 1028 -725 1275 -790 
Q 1522 -856 1778 -856 
Q 2344 -856 2625 -561 
Q 2906 -266 2906 331 
L 2906 616 
Q 2728 306 2450 153 
Q 2172 0 1784 0 
Q 1141 0 747 490 
Q 353 981 353 1791 
Q 353 2603 747 3093 
Q 1141 3584 1784 3584 
Q 2172 3584 2450 3431 
Q 2728 3278 2906 2969 
L 2906 3500 
L 3481 3500 
L 3481 434 
z
" transform="scale(0.015625)"/>
      <path id="DejaVuSans-65" d="M 3597 1894 
L 3597 1613 
L 953 1613 
Q 991 1019 1311 708 
Q 1631 397 2203 397 
Q 2534 397 2845 478 
Q 3156 559 3463 722 
L 3463 178 
Q 3153 47 2828 -22 
Q 2503 -91 2169 -91 
Q 1331 -91 842 396 
Q 353 884 353 1716 
Q 353 2575 817 3079 
Q 1281 3584 2069 3584 
Q 2775 3584 3186 3129 
Q 3597 2675 3597 1894 
z
M 3022 2063 
Q 3016 2534 2758 2815 
Q 2500 3097 2075 3097 
Q 1594 3097 1305 2825 
Q 1016 2553 972 2059 
L 3022 2063 
z
" transform="scale(0.015625)"/>
      <path id="DejaVuSans-74" d="M 1172 4494 
L 1172 3500 
L 2356 3500 
L 2356 3053 
L 1172 3053 
L 1172 1153 
Q 1172 725 1289 603 
Q 1406 481 1766 481 
L 2356 481 
L 2356 0 
L 1766 0 
Q 1100 0 847 248 
Q 594 497 594 1153 
L 594 3053 
L 172 3053 
L 172 3500 
L 594 3500 
L 594 4494 
L 1172 4494 
z
" transform="scale(0.015625)"/>
      <path id="DejaVuSans-5f" d="M 3263 -1063 
L 3263 -1509 
L -63 -1509 
L -63 -1063 
L 3263 -1063 
z
" transform="scale(0.015625)"/>
      <path id="DejaVuSans-73" d="M 2834 3397 
L 2834 2853 
Q 2591 2978 2328 3040 
Q 2066 3103 1784 3103 
Q 1356 3103 1142 2972 
Q 928 2841 928 2578 
Q 928 2378 1081 2264 
Q 1234 2150 1697 2047 
L 1894 2003 
Q 2506 1872 2764 1633 
Q 3022 1394 3022 966 
Q 3022 478 2636 193 
Q 2250 -91 1575 -91 
Q 1294 -91 989 -36 
Q 684 19 347 128 
L 347 722 
Q 666 556 975 473 
Q 1284 391 1588 391 
Q 1994 391 2212 530 
Q 2431 669 2431 922 
Q 2431 1156 2273 1281 
Q 2116 1406 1581 1522 
L 1381 1569 
Q 847 1681 609 1914 
Q 372 2147 372 2553 
Q 372 3047 722 3315 
Q 1072 3584 1716 3584 
Q 2034 3584 2315 3537 
Q 2597 3491 2834 3397 
z
" transform="scale(0.015625)"/>
      <path id="DejaVuSans-75" d="M 544 1381 
L 544 3500 
L 1119 3500 
L 1119 1403 
Q 1119 906 1312 657 
Q 1506 409 1894 409 
Q 2359 409 2629 706 
Q 2900 1003 2900 1516 
L 2900 3500 
L 3475 3500 
L 3475 0 
L 2900 0 
L 2900 538 
Q 2691 219 2414 64 
Q 2138 -91 1772 -91 
Q 1169 -91 856 284 
Q 544 659 544 1381 
z
M 1991 3584 
L 1991 3584 
z
" transform="scale(0.015625)"/>
      <path id="DejaVuSans-62" d="M 3116 1747 
Q 3116 2381 2855 2742 
Q 2594 3103 2138 3103 
Q 1681 3103 1420 2742 
Q 1159 2381 1159 1747 
Q 1159 1113 1420 752 
Q 1681 391 2138 391 
Q 2594 391 2855 752 
Q 3116 1113 3116 1747 
z
M 1159 2969 
Q 1341 3281 1617 3432 
Q 1894 3584 2278 3584 
Q 2916 3584 3314 3078 
Q 3713 2572 3713 1747 
Q 3713 922 3314 415 
Q 2916 -91 2278 -91 
Q 1894 -91 1617 61 
Q 1341 213 1159 525 
L 1159 0 
L 581 0 
L 581 4863 
L 1159 4863 
L 1159 2969 
z
" transform="scale(0.015625)"/>
      <path id="DejaVuSans-63" d="M 3122 3366 
L 3122 2828 
Q 2878 2963 2633 3030 
Q 2388 3097 2138 3097 
Q 1578 3097 1268 2742 
Q 959 2388 959 1747 
Q 959 1106 1268 751 
Q 1578 397 2138 397 
Q 2388 397 2633 464 
Q 2878 531 3122 666 
L 3122 134 
Q 2881 22 2623 -34 
Q 2366 -91 2075 -91 
Q 1284 -91 818 406 
Q 353 903 353 1747 
Q 353 2603 823 3093 
Q 1294 3584 2113 3584 
Q 2378 3584 2631 3529 
Q 2884 3475 3122 3366 
z
" transform="scale(0.015625)"/>
      <path id="DejaVuSans-72" d="M 2631 2963 
Q 2534 3019 2420 3045 
Q 2306 3072 2169 3072 
Q 1681 3072 1420 2755 
Q 1159 2438 1159 1844 
L 1159 0 
L 581 0 
L 581 3500 
L 1159 3500 
L 1159 2956 
Q 1341 3275 1631 3429 
Q 1922 3584 2338 3584 
Q 2397 3584 2469 3576 
Q 2541 3569 2628 3553 
L 2631 2963 
z
" transform="scale(0.015625)"/>
      <path id="DejaVuSans-69" d="M 603 3500 
L 1178 3500 
L 1178 0 
L 603 0 
L 603 3500 
z
M 603 4863 
L 1178 4863 
L 1178 4134 
L 603 4134 
L 603 4863 
z
" transform="scale(0.015625)"/>
      <path id="DejaVuSans-20" transform="scale(0.015625)"/>
      <path id="DejaVuSans-68" d="M 3513 2113 
L 3513 0 
L 2938 0 
L 2938 2094 
Q 2938 2591 2744 2837 
Q 2550 3084 2163 3084 
Q 1697 3084 1428 2787 
Q 1159 2491 1159 1978 
L 1159 0 
L 581 0 
L 581 4863 
L 1159 4863 
L 1159 2956 
Q 1366 3272 1645 3428 
Q 1925 3584 2291 3584 
Q 2894 3584 3203 3211 
Q 3513 2838 3513 2113 
z
" transform="scale(0.015625)"/>
      <path id="DejaVuSans-6f" d="M 1959 3097 
Q 1497 3097 1228 2736 
Q 959 2375 959 1747 
Q 959 1119 1226 758 
Q 1494 397 1959 397 
Q 2419 397 2687 759 
Q 2956 1122 2956 1747 
Q 2956 2369 2687 2733 
Q 2419 3097 1959 3097 
z
M 1959 3584 
Q 2709 3584 3137 3096 
Q 3566 2609 3566 1747 
Q 3566 888 3137 398 
Q 2709 -91 1959 -91 
Q 1206 -91 779 398 
Q 353 888 353 1747 
Q 353 2609 779 3096 
Q 1206 3584 1959 3584 
z
" transform="scale(0.015625)"/>
      <path id="DejaVuSans-79" d="M 2059 -325 
Q 1816 -950 1584 -1140 
Q 1353 -1331 966 -1331 
L 506 -1331 
L 506 -850 
L 844 -850 
Q 1081 -850 1212 -737 
Q 1344 -625 1503 -206 
L 1606 56 
L 191 3500 
L 800 3500 
L 1894 763 
L 2988 3500 
L 3597 3500 
L 2059 -325 
z
" transform="scale(0.015625)"/>
     </defs>
     <use xlink:href="#DejaVuSans-67"/>
     <use xlink:href="#DejaVuSans-65" transform="translate(63.476562 0)"/>
     <use xlink:href="#DejaVuSans-74" transform="translate(125 0)"/>
     <use xlink:href="#DejaVuSans-5f" transform="translate(164.208984 0)"/>
     <use xlink:href="#DejaVuSans-73" transform="translate(214.208984 0)"/>
     <use xlink:href="#DejaVuSans-75" transform="translate(266.308594 0)"/>
     <use xlink:href="#DejaVuSans-62" transform="translate(329.6875 0)"/>
     <use xlink:href="#DejaVuSans-73" transform="translate(393.164062 0)"/>
     <use xlink:href="#DejaVuSans-63" transform="translate(445.263672 0)"/>
     <use xlink:href="#DejaVuSans-72" transform="translate(500.244141 0)"/>
     <use xlink:href="#DejaVuSans-69" transform="translate(541.357422 0)"/>
     <use xlink:href="#DejaVuSans-62" transform="translate(569.140625 0)"/>
     <use xlink:href="#DejaVuSans-65" transform="translate(632.617188 0)"/>
     <use xlink:href="#DejaVuSans-20" transform="translate(694.140625 0)"/>
     <use xlink:href="#DejaVuSans-68" transform="translate(725.927734 0)"/>
     <use xlink:href="#DejaVuSans-69" transform="translate(789.306641 0)"/>
     <use xlink:href="#DejaVuSans-73" transform="translate(817.089844 0)"/>
     <use xlink:href="#DejaVuSans-74" transform="translate(869.189453 0)"/>
     <use xlink:href="#DejaVuSans-6f" transform="translate(908.398438 0)"/>
     <use xlink:href="#DejaVuSans-72" transform="translate(969.580078 0)"/>
     <use xlink:href="#DejaVuSans-79" transform="translate(1010.693359 0)"/>
    </g>
   </g>
   <g id="legend_1">
    <g id="line2d_41">
     <path d="M 815.08 328.498438 
L 825.08 328.498438 
L 835.08 328.498438 
" style="fill: none; stroke: #1f77b4; stroke-width: 1.5; stroke-linecap: square"/>
    </g>
    <g id="text_21">
     <!-- star -->
     <g style="fill: #a9a9a9" transform="translate(843.08 331.998438) scale(0.1 -0.1)">
      <defs>
       <path id="DejaVuSans-61" d="M 2194 1759 
Q 1497 1759 1228 1600 
Q 959 1441 959 1056 
Q 959 750 1161 570 
Q 1363 391 1709 391 
Q 2188 391 2477 730 
Q 2766 1069 2766 1631 
L 2766 1759 
L 2194 1759 
z
M 3341 1997 
L 3341 0 
L 2766 0 
L 2766 531 
Q 2569 213 2275 61 
Q 1981 -91 1556 -91 
Q 1019 -91 701 211 
Q 384 513 384 1019 
Q 384 1609 779 1909 
Q 1175 2209 1959 2209 
L 2766 2209 
L 2766 2266 
Q 2766 2663 2505 2880 
Q 2244 3097 1772 3097 
Q 1472 3097 1187 3025 
Q 903 2953 641 2809 
L 641 3341 
Q 956 3463 1253 3523 
Q 1550 3584 1831 3584 
Q 2591 3584 2966 3190 
Q 3341 2797 3341 1997 
z
" transform="scale(0.015625)"/>
      </defs>
      <use xlink:href="#DejaVuSans-73"/>
      <use xlink:href="#DejaVuSans-74" transform="translate(52.099609 0)"/>
      <use xlink:href="#DejaVuSans-61" transform="translate(91.308594 0)"/>
      <use xlink:href="#DejaVuSans-72" transform="translate(152.587891 0)"/>
     </g>
    </g>
    <g id="line2d_42">
     <path d="M 815.08 343.176562 
L 825.08 343.176562 
L 835.08 343.176562 
" style="fill: none; stroke: #ff7f0e; stroke-width: 1.5; stroke-linecap: square"/>
    </g>
    <g id="text_22">
     <!-- fork -->
     <g style="fill: #a9a9a9" transform="translate(843.08 346.676562) scale(0.1 -0.1)">
      <defs>
       <path id="DejaVuSans-66" d="M 2375 4863 
L 2375 4384 
L 1825 4384 
Q 1516 4384 1395 4259 
Q 1275 4134 1275 3809 
L 1275 3500 
L 2222 3500 
L 2222 3053 
L 1275 3053 
L 1275 0 
L 697 0 
L 697 3053 
L 147 3053 
L 147 3500 
L 697 3500 
L 697 3744 
Q 697 4328 969 4595 
Q 1241 4863 1831 4863 
L 2375 4863 
z
" transform="scale(0.015625)"/>
       <path id="DejaVuSans-6b" d="M 581 4863 
L 1159 4863 
L 1159 1991 
L 2875 3500 
L 3609 3500 
L 1753 1863 
L 3688 0 
L 2938 0 
L 1159 1709 
L 1159 0 
L 581 0 
L 581 4863 
z
" transform="scale(0.015625)"/>
      </defs>
      <use xlink:href="#DejaVuSans-66"/>
      <use xlink:href="#DejaVuSans-6f" transform="translate(35.205078 0)"/>
      <use xlink:href="#DejaVuSans-72" transform="translate(96.386719 0)"/>
      <use xlink:href="#DejaVuSans-6b" transform="translate(137.5 0)"/>
     </g>
    </g>
   </g>
  </g>
 </g>
 <defs>
  <clipPath id="pd8c6b7f823">
   <rect x="108" y="43.2" width="669.6" height="277.2"/>
  </clipPath>
 </defs>
</svg>
