<?xml version="1.0" encoding="utf-8" standalone="no"?>
<!DOCTYPE svg PUBLIC "-//W3C//DTD SVG 1.1//EN"
  "http://www.w3.org/Graphics/SVG/1.1/DTD/svg11.dtd">
<svg xmlns:xlink="http://www.w3.org/1999/xlink" width="864pt" height="360pt" viewBox="0 0 864 360" xmlns="http://www.w3.org/2000/svg" version="1.1">
 <metadata>
  <rdf:RDF xmlns:dc="http://purl.org/dc/elements/1.1/" xmlns:cc="http://creativecommons.org/ns#" xmlns:rdf="http://www.w3.org/1999/02/22-rdf-syntax-ns#">
   <cc:Work>
    <dc:type rdf:resource="http://purl.org/dc/dcmitype/StillImage"/>
    <dc:date>2026-01-07T08:17:00.693476</dc:date>
    <dc:format>image/svg+xml</dc:format>
    <dc:creator>
     <cc:Agent>
      <dc:title>Matplotlib v3.10.8, https://matplotlib.org/</dc:title>
     </cc:Agent>
    </dc:creator>
   </cc:Work>
  </rdf:RDF>
 </metadata>
 <defs>
  <style type="text/css">*{stroke-linejoin: round; stroke-linecap: butt}</style>
 </defs>
 <g id="figure_1">
  <g id="patch_1">
   <path d="M 0 360 
L 864 360 
L 864 0 
L 0 0 
L 0 360 
z
" style="fill: none; opacity: 0"/>
  </g>
  <g id="axes_1">
   <g id="patch_2">
    <path d="M 108 320.4 
L 777.6 320.4 
L 777.6 43.2 
L 108 43.2 
L 108 320.4 
z
" style="fill: none; opacity: 0"/>
   </g>
   <g id="matplotlib.axis_1">
    <g id="xtick_1">
     <g id="line2d_1">
      <path d="M 129.836408 320.4 
L 129.836408 43.2 
" clip-path="url(#p7d3fc5188a)" style="fill: none; stroke-dasharray: 5.12,1.28,0.8,1.28; stroke-dashoffset: 0; stroke: #b0b0b0; stroke-width: 0.8"/>
     </g>
     <g id="line2d_2">
      <defs>
       <path id="m0cc84fb015" d="M 0 0 
L 0 3.5 
" style="stroke: #a9a9a9; stroke-width: 0.8"/>
      </defs>
      <g>
       <use xlink:href="#m0cc84fb015" x="129.836408" y="320.4" style="fill: #a9a9a9; stroke: #a9a9a9; stroke-width: 0.8"/>
      </g>
     </g>
     <g id="text_1">
      <!-- 2021-07 -->
      <g style="fill: #a9a9a9" transform="translate(108.945002 334.998438) scale(0.1 -0.1)">
       <defs>
        <path id="DejaVuSans-32" d="M 1228 531 
L 3431 531 
L 3431 0 
L 469 0 
L 469 531 
Q 828 903 1448 1529 
Q 2069 2156 2228 2338 
Q 2531 2678 2651 2914 
Q 2772 3150 2772 3378 
Q 2772 3750 2511 3984 
Q 2250 4219 1831 4219 
Q 1534 4219 1204 4116 
Q 875 4013 500 3803 
L 500 4441 
Q 881 4594 1212 4672 
Q 1544 4750 1819 4750 
Q 2544 4750 2975 4387 
Q 3406 4025 3406 3419 
Q 3406 3131 3298 2873 
Q 3191 2616 2906 2266 
Q 2828 2175 2409 1742 
Q 1991 1309 1228 531 
z
" transform="scale(0.015625)"/>
        <path id="DejaVuSans-30" d="M 2034 4250 
Q 1547 4250 1301 3770 
Q 1056 3291 1056 2328 
Q 1056 1369 1301 889 
Q 1547 409 2034 409 
Q 2525 409 2770 889 
Q 3016 1369 3016 2328 
Q 3016 3291 2770 3770 
Q 2525 4250 2034 4250 
z
M 2034 4750 
Q 2819 4750 3233 4129 
Q 3647 3509 3647 2328 
Q 3647 1150 3233 529 
Q 2819 -91 2034 -91 
Q 1250 -91 836 529 
Q 422 1150 422 2328 
Q 422 3509 836 4129 
Q 1250 4750 2034 4750 
z
" transform="scale(0.015625)"/>
        <path id="DejaVuSans-31" d="M 794 531 
L 1825 531 
L 1825 4091 
L 703 3866 
L 703 4441 
L 1819 4666 
L 2450 4666 
L 2450 531 
L 3481 531 
L 3481 0 
L 794 0 
L 794 531 
z
" transform="scale(0.015625)"/>
        <path id="DejaVuSans-2d" d="M 313 2009 
L 1997 2009 
L 1997 1497 
L 313 1497 
L 313 2009 
z
" transform="scale(0.015625)"/>
        <path id="DejaVuSans-37" d="M 525 4666 
L 3525 4666 
L 3525 4397 
L 1831 0 
L 1172 0 
L 2766 4134 
L 525 4134 
L 525 4666 
z
" transform="scale(0.015625)"/>
       </defs>
       <use xlink:href="#DejaVuSans-32"/>
       <use xlink:href="#DejaVuSans-30" transform="translate(63.623047 0)"/>
       <use xlink:href="#DejaVuSans-32" transform="translate(127.246094 0)"/>
       <use xlink:href="#DejaVuSans-31" transform="translate(190.869141 0)"/>
       <use xlink:href="#DejaVuSans-2d" transform="translate(254.492188 0)"/>
       <use xlink:href="#DejaVuSans-30" transform="translate(290.576172 0)"/>
       <use xlink:href="#DejaVuSans-37" transform="translate(354.199219 0)"/>
      </g>
     </g>
    </g>
    <g id="xtick_2">
     <g id="line2d_3">
      <path d="M 198.636051 320.4 
L 198.636051 43.2 
" clip-path="url(#p7d3fc5188a)" style="fill: none; stroke-dasharray: 5.12,1.28,0.8,1.28; stroke-dashoffset: 0; stroke: #b0b0b0; stroke-width: 0.8"/>
     </g>
     <g id="line2d_4">
      <g>
       <use xlink:href="#m0cc84fb015" x="198.636051" y="320.4" style="fill: #a9a9a9; stroke: #a9a9a9; stroke-width: 0.8"/>
      </g>
     </g>
     <g id="text_2">
      <!-- 2022-01 -->
      <g style="fill: #a9a9a9" transform="translate(177.744645 334.998438) scale(0.1 -0.1)">
       <use xlink:href="#DejaVuSans-32"/>
       <use xlink:href="#DejaVuSans-30" transform="translate(63.623047 0)"/>
       <use xlink:href="#DejaVuSans-32" transform="translate(127.246094 0)"/>
       <use xlink:href="#DejaVuSans-32" transform="translate(190.869141 0)"/>
       <use xlink:href="#DejaVuSans-2d" transform="translate(254.492188 0)"/>
       <use xlink:href="#DejaVuSans-30" transform="translate(290.576172 0)"/>
       <use xlink:href="#DejaVuSans-31" transform="translate(354.199219 0)"/>
      </g>
     </g>
    </g>
    <g id="xtick_3">
     <g id="line2d_5">
      <path d="M 266.31396 320.4 
L 266.31396 43.2 
" clip-path="url(#p7d3fc5188a)" style="fill: none; stroke-dasharray: 5.12,1.28,0.8,1.28; stroke-dashoffset: 0; stroke: #b0b0b0; stroke-width: 0.8"/>
     </g>
     <g id="line2d_6">
      <g>
       <use xlink:href="#m0cc84fb015" x="266.31396" y="320.4" style="fill: #a9a9a9; stroke: #a9a9a9; stroke-width: 0.8"/>
      </g>
     </g>
     <g id="text_3">
      <!-- 2022-07 -->
      <g style="fill: #a9a9a9" transform="translate(245.422554 334.998438) scale(0.1 -0.1)">
       <use xlink:href="#DejaVuSans-32"/>
       <use xlink:href="#DejaVuSans-30" transform="translate(63.623047 0)"/>
       <use xlink:href="#DejaVuSans-32" transform="translate(127.246094 0)"/>
       <use xlink:href="#DejaVuSans-32" transform="translate(190.869141 0)"/>
       <use xlink:href="#DejaVuSans-2d" transform="translate(254.492188 0)"/>
       <use xlink:href="#DejaVuSans-30" transform="translate(290.576172 0)"/>
       <use xlink:href="#DejaVuSans-37" transform="translate(354.199219 0)"/>
      </g>
     </g>
    </g>
    <g id="xtick_4">
     <g id="line2d_7">
      <path d="M 335.113603 320.4 
L 335.113603 43.2 
" clip-path="url(#p7d3fc5188a)" style="fill: none; stroke-dasharray: 5.12,1.28,0.8,1.28; stroke-dashoffset: 0; stroke: #b0b0b0; stroke-width: 0.8"/>
     </g>
     <g id="line2d_8">
      <g>
       <use xlink:href="#m0cc84fb015" x="335.113603" y="320.4" style="fill: #a9a9a9; stroke: #a9a9a9; stroke-width: 0.8"/>
      </g>
     </g>
     <g id="text_4">
      <!-- 2023-01 -->
      <g style="fill: #a9a9a9" transform="translate(314.222197 334.998438) scale(0.1 -0.1)">
       <defs>
        <path id="DejaVuSans-33" d="M 2597 2516 
Q 3050 2419 3304 2112 
Q 3559 1806 3559 1356 
Q 3559 666 3084 287 
Q 2609 -91 1734 -91 
Q 1441 -91 1130 -33 
Q 819 25 488 141 
L 488 750 
Q 750 597 1062 519 
Q 1375 441 1716 441 
Q 2309 441 2620 675 
Q 2931 909 2931 1356 
Q 2931 1769 2642 2001 
Q 2353 2234 1838 2234 
L 1294 2234 
L 1294 2753 
L 1863 2753 
Q 2328 2753 2575 2939 
Q 2822 3125 2822 3475 
Q 2822 3834 2567 4026 
Q 2313 4219 1838 4219 
Q 1578 4219 1281 4162 
Q 984 4106 628 3988 
L 628 4550 
Q 988 4650 1302 4700 
Q 1616 4750 1894 4750 
Q 2613 4750 3031 4423 
Q 3450 4097 3450 3541 
Q 3450 3153 3228 2886 
Q 3006 2619 2597 2516 
z
" transform="scale(0.015625)"/>
       </defs>
       <use xlink:href="#DejaVuSans-32"/>
       <use xlink:href="#DejaVuSans-30" transform="translate(63.623047 0)"/>
       <use xlink:href="#DejaVuSans-32" transform="translate(127.246094 0)"/>
       <use xlink:href="#DejaVuSans-33" transform="translate(190.869141 0)"/>
       <use xlink:href="#DejaVuSans-2d" transform="translate(254.492188 0)"/>
       <use xlink:href="#DejaVuSans-30" transform="translate(290.576172 0)"/>
       <use xlink:href="#DejaVuSans-31" transform="translate(354.199219 0)"/>
      </g>
     </g>
    </g>
    <g id="xtick_5">
     <g id="line2d_9">
      <path d="M 402.791512 320.4 
L 402.791512 43.2 
" clip-path="url(#p7d3fc5188a)" style="fill: none; stroke-dasharray: 5.12,1.28,0.8,1.28; stroke-dashoffset: 0; stroke: #b0b0b0; stroke-width: 0.8"/>
     </g>
     <g id="line2d_10">
      <g>
       <use xlink:href="#m0cc84fb015" x="402.791512" y="320.4" style="fill: #a9a9a9; stroke: #a9a9a9; stroke-width: 0.8"/>
      </g>
     </g>
     <g id="text_5">
      <!-- 2023-07 -->
      <g style="fill: #a9a9a9" transform="translate(381.900106 334.998438) scale(0.1 -0.1)">
       <use xlink:href="#DejaVuSans-32"/>
       <use xlink:href="#DejaVuSans-30" transform="translate(63.623047 0)"/>
       <use xlink:href="#DejaVuSans-32" transform="translate(127.246094 0)"/>
       <use xlink:href="#DejaVuSans-33" transform="translate(190.869141 0)"/>
       <use xlink:href="#DejaVuSans-2d" transform="translate(254.492188 0)"/>
       <use xlink:href="#DejaVuSans-30" transform="translate(290.576172 0)"/>
       <use xlink:href="#DejaVuSans-37" transform="translate(354.199219 0)"/>
      </g>
     </g>
    </g>
    <g id="xtick_6">
     <g id="line2d_11">
      <path d="M 471.591155 320.4 
L 471.591155 43.2 
" clip-path="url(#p7d3fc5188a)" style="fill: none; stroke-dasharray: 5.12,1.28,0.8,1.28; stroke-dashoffset: 0; stroke: #b0b0b0; stroke-width: 0.8"/>
     </g>
     <g id="line2d_12">
      <g>
       <use xlink:href="#m0cc84fb015" x="471.591155" y="320.4" style="fill: #a9a9a9; stroke: #a9a9a9; stroke-width: 0.8"/>
      </g>
     </g>
     <g id="text_6">
      <!-- 2024-01 -->
      <g style="fill: #a9a9a9" transform="translate(450.699749 334.998438) scale(0.1 -0.1)">
       <defs>
        <path id="DejaVuSans-34" d="M 2419 4116 
L 825 1625 
L 2419 1625 
L 2419 4116 
z
M 2253 4666 
L 3047 4666 
L 3047 1625 
L 3713 1625 
L 3713 1100 
L 3047 1100 
L 3047 0 
L 2419 0 
L 2419 1100 
L 313 1100 
L 313 1709 
L 2253 4666 
z
" transform="scale(0.015625)"/>
       </defs>
       <use xlink:href="#DejaVuSans-32"/>
       <use xlink:href="#DejaVuSans-30" transform="translate(63.623047 0)"/>
       <use xlink:href="#DejaVuSans-32" transform="translate(127.246094 0)"/>
       <use xlink:href="#DejaVuSans-34" transform="translate(190.869141 0)"/>
       <use xlink:href="#DejaVuSans-2d" transform="translate(254.492188 0)"/>
       <use xlink:href="#DejaVuSans-30" transform="translate(290.576172 0)"/>
       <use xlink:href="#DejaVuSans-31" transform="translate(354.199219 0)"/>
      </g>
     </g>
    </g>
    <g id="xtick_7">
     <g id="line2d_13">
      <path d="M 539.642975 320.4 
L 539.642975 43.2 
" clip-path="url(#p7d3fc5188a)" style="fill: none; stroke-dasharray: 5.12,1.28,0.8,1.28; stroke-dashoffset: 0; stroke: #b0b0b0; stroke-width: 0.8"/>
     </g>
     <g id="line2d_14">
      <g>
       <use xlink:href="#m0cc84fb015" x="539.642975" y="320.4" style="fill: #a9a9a9; stroke: #a9a9a9; stroke-width: 0.8"/>
      </g>
     </g>
     <g id="text_7">
      <!-- 2024-07 -->
      <g style="fill: #a9a9a9" transform="translate(518.751569 334.998438) scale(0.1 -0.1)">
       <use xlink:href="#DejaVuSans-32"/>
       <use xlink:href="#DejaVuSans-30" transform="translate(63.623047 0)"/>
       <use xlink:href="#DejaVuSans-32" transform="translate(127.246094 0)"/>
       <use xlink:href="#DejaVuSans-34" transform="translate(190.869141 0)"/>
       <use xlink:href="#DejaVuSans-2d" transform="translate(254.492188 0)"/>
       <use xlink:href="#DejaVuSans-30" transform="translate(290.576172 0)"/>
       <use xlink:href="#DejaVuSans-37" transform="translate(354.199219 0)"/>
      </g>
     </g>
    </g>
    <g id="xtick_8">
     <g id="line2d_15">
      <path d="M 608.442618 320.4 
L 608.442618 43.2 
" clip-path="url(#p7d3fc5188a)" style="fill: none; stroke-dasharray: 5.12,1.28,0.8,1.28; stroke-dashoffset: 0; stroke: #b0b0b0; stroke-width: 0.8"/>
     </g>
     <g id="line2d_16">
      <g>
       <use xlink:href="#m0cc84fb015" x="608.442618" y="320.4" style="fill: #a9a9a9; stroke: #a9a9a9; stroke-width: 0.8"/>
      </g>
     </g>
     <g id="text_8">
      <!-- 2025-01 -->
      <g style="fill: #a9a9a9" transform="translate(587.551212 334.998438) scale(0.1 -0.1)">
       <defs>
        <path id="DejaVuSans-35" d="M 691 4666 
L 3169 4666 
L 3169 4134 
L 1269 4134 
L 1269 2991 
Q 1406 3038 1543 3061 
Q 1681 3084 1819 3084 
Q 2600 3084 3056 2656 
Q 3513 2228 3513 1497 
Q 3513 744 3044 326 
Q 2575 -91 1722 -91 
Q 1428 -91 1123 -41 
Q 819 9 494 109 
L 494 744 
Q 775 591 1075 516 
Q 1375 441 1709 441 
Q 2250 441 2565 725 
Q 2881 1009 2881 1497 
Q 2881 1984 2565 2268 
Q 2250 2553 1709 2553 
Q 1456 2553 1204 2497 
Q 953 2441 691 2322 
L 691 4666 
z
" transform="scale(0.015625)"/>
       </defs>
       <use xlink:href="#DejaVuSans-32"/>
       <use xlink:href="#DejaVuSans-30" transform="translate(63.623047 0)"/>
       <use xlink:href="#DejaVuSans-32" transform="translate(127.246094 0)"/>
       <use xlink:href="#DejaVuSans-35" transform="translate(190.869141 0)"/>
       <use xlink:href="#DejaVuSans-2d" transform="translate(254.492188 0)"/>
       <use xlink:href="#DejaVuSans-30" transform="translate(290.576172 0)"/>
       <use xlink:href="#DejaVuSans-31" transform="translate(354.199219 0)"/>
      </g>
     </g>
    </g>
    <g id="xtick_9">
     <g id="line2d_17">
      <path d="M 676.120527 320.4 
L 676.120527 43.2 
" clip-path="url(#p7d3fc5188a)" style="fill: none; stroke-dasharray: 5.12,1.28,0.8,1.28; stroke-dashoffset: 0; stroke: #b0b0b0; stroke-width: 0.8"/>
     </g>
     <g id="line2d_18">
      <g>
       <use xlink:href="#m0cc84fb015" x="676.120527" y="320.4" style="fill: #a9a9a9; stroke: #a9a9a9; stroke-width: 0.8"/>
      </g>
     </g>
     <g id="text_9">
      <!-- 2025-07 -->
      <g style="fill: #a9a9a9" transform="translate(655.229121 334.998438) scale(0.1 -0.1)">
       <use xlink:href="#DejaVuSans-32"/>
       <use xlink:href="#DejaVuSans-30" transform="translate(63.623047 0)"/>
       <use xlink:href="#DejaVuSans-32" transform="translate(127.246094 0)"/>
       <use xlink:href="#DejaVuSans-35" transform="translate(190.869141 0)"/>
       <use xlink:href="#DejaVuSans-2d" transform="translate(254.492188 0)"/>
       <use xlink:href="#DejaVuSans-30" transform="translate(290.576172 0)"/>
       <use xlink:href="#DejaVuSans-37" transform="translate(354.199219 0)"/>
      </g>
     </g>
    </g>
    <g id="xtick_10">
     <g id="line2d_19">
      <path d="M 744.92017 320.4 
L 744.92017 43.2 
" clip-path="url(#p7d3fc5188a)" style="fill: none; stroke-dasharray: 5.12,1.28,0.8,1.28; stroke-dashoffset: 0; stroke: #b0b0b0; stroke-width: 0.8"/>
     </g>
     <g id="line2d_20">
      <g>
       <use xlink:href="#m0cc84fb015" x="744.92017" y="320.4" style="fill: #a9a9a9; stroke: #a9a9a9; stroke-width: 0.8"/>
      </g>
     </g>
     <g id="text_10">
      <!-- 2026-01 -->
      <g style="fill: #a9a9a9" transform="translate(724.028764 334.998438) scale(0.1 -0.1)">
       <defs>
        <path id="DejaVuSans-36" d="M 2113 2584 
Q 1688 2584 1439 2293 
Q 1191 2003 1191 1497 
Q 1191 994 1439 701 
Q 1688 409 2113 409 
Q 2538 409 2786 701 
Q 3034 994 3034 1497 
Q 3034 2003 2786 2293 
Q 2538 2584 2113 2584 
z
M 3366 4563 
L 3366 3988 
Q 3128 4100 2886 4159 
Q 2644 4219 2406 4219 
Q 1781 4219 1451 3797 
Q 1122 3375 1075 2522 
Q 1259 2794 1537 2939 
Q 1816 3084 2150 3084 
Q 2853 3084 3261 2657 
Q 3669 2231 3669 1497 
Q 3669 778 3244 343 
Q 2819 -91 2113 -91 
Q 1303 -91 875 529 
Q 447 1150 447 2328 
Q 447 3434 972 4092 
Q 1497 4750 2381 4750 
Q 2619 4750 2861 4703 
Q 3103 4656 3366 4563 
z
" transform="scale(0.015625)"/>
       </defs>
       <use xlink:href="#DejaVuSans-32"/>
       <use xlink:href="#DejaVuSans-30" transform="translate(63.623047 0)"/>
       <use xlink:href="#DejaVuSans-32" transform="translate(127.246094 0)"/>
       <use xlink:href="#DejaVuSans-36" transform="translate(190.869141 0)"/>
       <use xlink:href="#DejaVuSans-2d" transform="translate(254.492188 0)"/>
       <use xlink:href="#DejaVuSans-30" transform="translate(290.576172 0)"/>
       <use xlink:href="#DejaVuSans-31" transform="translate(354.199219 0)"/>
      </g>
     </g>
    </g>
   </g>
   <g id="matplotlib.axis_2">
    <g id="ytick_1">
     <g id="line2d_21">
      <path d="M 108 307.829546 
L 777.6 307.829546 
" clip-path="url(#p7d3fc5188a)" style="fill: none; stroke-dasharray: 5.12,1.28,0.8,1.28; stroke-dashoffset: 0; stroke: #b0b0b0; stroke-width: 0.8"/>
     </g>
     <g id="line2d_22">
      <defs>
       <path id="m211a21aaf3" d="M 0 0 
L -3.5 0 
" style="stroke: #a9a9a9; stroke-width: 0.8"/>
      </defs>
      <g>
       <use xlink:href="#m211a21aaf3" x="108" y="307.829546" style="fill: #a9a9a9; stroke: #a9a9a9; stroke-width: 0.8"/>
      </g>
     </g>
     <g id="text_11">
      <!-- 0 -->
      <g style="fill: #a9a9a9" transform="translate(94.6375 311.628765) scale(0.1 -0.1)">
       <use xlink:href="#DejaVuSans-30"/>
      </g>
     </g>
    </g>
    <g id="ytick_2">
     <g id="line2d_23">
      <path d="M 108 278.283292 
L 777.6 278.283292 
" clip-path="url(#p7d3fc5188a)" style="fill: none; stroke-dasharray: 5.12,1.28,0.8,1.28; stroke-dashoffset: 0; stroke: #b0b0b0; stroke-width: 0.8"/>
     </g>
     <g id="line2d_24">
      <g>
       <use xlink:href="#m211a21aaf3" x="108" y="278.283292" style="fill: #a9a9a9; stroke: #a9a9a9; stroke-width: 0.8"/>
      </g>
     </g>
     <g id="text_12">
      <!-- 1000 -->
      <g style="fill: #a9a9a9" transform="translate(75.55 282.082511) scale(0.1 -0.1)">
       <use xlink:href="#DejaVuSans-31"/>
       <use xlink:href="#DejaVuSans-30" transform="translate(63.623047 0)"/>
       <use xlink:href="#DejaVuSans-30" transform="translate(127.246094 0)"/>
       <use xlink:href="#DejaVuSans-30" transform="translate(190.869141 0)"/>
      </g>
     </g>
    </g>
    <g id="ytick_3">
     <g id="line2d_25">
      <path d="M 108 248.737038 
L 777.6 248.737038 
" clip-path="url(#p7d3fc5188a)" style="fill: none; stroke-dasharray: 5.12,1.28,0.8,1.28; stroke-dashoffset: 0; stroke: #b0b0b0; stroke-width: 0.8"/>
     </g>
     <g id="line2d_26">
      <g>
       <use xlink:href="#m211a21aaf3" x="108" y="248.737038" style="fill: #a9a9a9; stroke: #a9a9a9; stroke-width: 0.8"/>
      </g>
     </g>
     <g id="text_13">
      <!-- 2000 -->
      <g style="fill: #a9a9a9" transform="translate(75.55 252.536257) scale(0.1 -0.1)">
       <use xlink:href="#DejaVuSans-32"/>
       <use xlink:href="#DejaVuSans-30" transform="translate(63.623047 0)"/>
       <use xlink:href="#DejaVuSans-30" transform="translate(127.246094 0)"/>
       <use xlink:href="#DejaVuSans-30" transform="translate(190.869141 0)"/>
      </g>
     </g>
    </g>
    <g id="ytick_4">
     <g id="line2d_27">
      <path d="M 108 219.190784 
L 777.6 219.190784 
" clip-path="url(#p7d3fc5188a)" style="fill: none; stroke-dasharray: 5.12,1.28,0.8,1.28; stroke-dashoffset: 0; stroke: #b0b0b0; stroke-width: 0.8"/>
     </g>
     <g id="line2d_28">
      <g>
       <use xlink:href="#m211a21aaf3" x="108" y="219.190784" style="fill: #a9a9a9; stroke: #a9a9a9; stroke-width: 0.8"/>
      </g>
     </g>
     <g id="text_14">
      <!-- 3000 -->
      <g style="fill: #a9a9a9" transform="translate(75.55 222.990003) scale(0.1 -0.1)">
       <use xlink:href="#DejaVuSans-33"/>
       <use xlink:href="#DejaVuSans-30" transform="translate(63.623047 0)"/>
       <use xlink:href="#DejaVuSans-30" transform="translate(127.246094 0)"/>
       <use xlink:href="#DejaVuSans-30" transform="translate(190.869141 0)"/>
      </g>
     </g>
    </g>
    <g id="ytick_5">
     <g id="line2d_29">
      <path d="M 108 189.64453 
L 777.6 189.64453 
" clip-path="url(#p7d3fc5188a)" style="fill: none; stroke-dasharray: 5.12,1.28,0.8,1.28; stroke-dashoffset: 0; stroke: #b0b0b0; stroke-width: 0.8"/>
     </g>
     <g id="line2d_30">
      <g>
       <use xlink:href="#m211a21aaf3" x="108" y="189.64453" style="fill: #a9a9a9; stroke: #a9a9a9; stroke-width: 0.8"/>
      </g>
     </g>
     <g id="text_15">
      <!-- 4000 -->
      <g style="fill: #a9a9a9" transform="translate(75.55 193.443749) scale(0.1 -0.1)">
       <use xlink:href="#DejaVuSans-34"/>
       <use xlink:href="#DejaVuSans-30" transform="translate(63.623047 0)"/>
       <use xlink:href="#DejaVuSans-30" transform="translate(127.246094 0)"/>
       <use xlink:href="#DejaVuSans-30" transform="translate(190.869141 0)"/>
      </g>
     </g>
    </g>
    <g id="ytick_6">
     <g id="line2d_31">
      <path d="M 108 160.098276 
L 777.6 160.098276 
" clip-path="url(#p7d3fc5188a)" style="fill: none; stroke-dasharray: 5.12,1.28,0.8,1.28; stroke-dashoffset: 0; stroke: #b0b0b0; stroke-width: 0.8"/>
     </g>
     <g id="line2d_32">
      <g>
       <use xlink:href="#m211a21aaf3" x="108" y="160.098276" style="fill: #a9a9a9; stroke: #a9a9a9; stroke-width: 0.8"/>
      </g>
     </g>
     <g id="text_16">
      <!-- 5000 -->
      <g style="fill: #a9a9a9" transform="translate(75.55 163.897495) scale(0.1 -0.1)">
       <use xlink:href="#DejaVuSans-35"/>
       <use xlink:href="#DejaVuSans-30" transform="translate(63.623047 0)"/>
       <use xlink:href="#DejaVuSans-30" transform="translate(127.246094 0)"/>
       <use xlink:href="#DejaVuSans-30" transform="translate(190.869141 0)"/>
      </g>
     </g>
    </g>
    <g id="ytick_7">
     <g id="line2d_33">
      <path d="M 108 130.552023 
L 777.6 130.552023 
" clip-path="url(#p7d3fc5188a)" style="fill: none; stroke-dasharray: 5.12,1.28,0.8,1.28; stroke-dashoffset: 0; stroke: #b0b0b0; stroke-width: 0.8"/>
     </g>
     <g id="line2d_34">
      <g>
       <use xlink:href="#m211a21aaf3" x="108" y="130.552023" style="fill: #a9a9a9; stroke: #a9a9a9; stroke-width: 0.8"/>
      </g>
     </g>
     <g id="text_17">
      <!-- 6000 -->
      <g style="fill: #a9a9a9" transform="translate(75.55 134.351241) scale(0.1 -0.1)">
       <use xlink:href="#DejaVuSans-36"/>
       <use xlink:href="#DejaVuSans-30" transform="translate(63.623047 0)"/>
       <use xlink:href="#DejaVuSans-30" transform="translate(127.246094 0)"/>
       <use xlink:href="#DejaVuSans-30" transform="translate(190.869141 0)"/>
      </g>
     </g>
    </g>
    <g id="ytick_8">
     <g id="line2d_35">
      <path d="M 108 101.005769 
L 777.6 101.005769 
" clip-path="url(#p7d3fc5188a)" style="fill: none; stroke-dasharray: 5.12,1.28,0.8,1.28; stroke-dashoffset: 0; stroke: #b0b0b0; stroke-width: 0.8"/>
     </g>
     <g id="line2d_36">
      <g>
       <use xlink:href="#m211a21aaf3" x="108" y="101.005769" style="fill: #a9a9a9; stroke: #a9a9a9; stroke-width: 0.8"/>
      </g>
     </g>
     <g id="text_18">
      <!-- 7000 -->
      <g style="fill: #a9a9a9" transform="translate(75.55 104.804987) scale(0.1 -0.1)">
       <use xlink:href="#DejaVuSans-37"/>
       <use xlink:href="#DejaVuSans-30" transform="translate(63.623047 0)"/>
       <use xlink:href="#DejaVuSans-30" transform="translate(127.246094 0)"/>
       <use xlink:href="#DejaVuSans-30" transform="translate(190.869141 0)"/>
      </g>
     </g>
    </g>
    <g id="ytick_9">
     <g id="line2d_37">
      <path d="M 108 71.459515 
L 777.6 71.459515 
" clip-path="url(#p7d3fc5188a)" style="fill: none; stroke-dasharray: 5.12,1.28,0.8,1.28; stroke-dashoffset: 0; stroke: #b0b0b0; stroke-width: 0.8"/>
     </g>
     <g id="line2d_38">
      <g>
       <use xlink:href="#m211a21aaf3" x="108" y="71.459515" style="fill: #a9a9a9; stroke: #a9a9a9; stroke-width: 0.8"/>
      </g>
     </g>
     <g id="text_19">
      <!-- 8000 -->
      <g style="fill: #a9a9a9" transform="translate(75.55 75.258733) scale(0.1 -0.1)">
       <defs>
        <path id="DejaVuSans-38" d="M 2034 2216 
Q 1584 2216 1326 1975 
Q 1069 1734 1069 1313 
Q 1069 891 1326 650 
Q 1584 409 2034 409 
Q 2484 409 2743 651 
Q 3003 894 3003 1313 
Q 3003 1734 2745 1975 
Q 2488 2216 2034 2216 
z
M 1403 2484 
Q 997 2584 770 2862 
Q 544 3141 544 3541 
Q 544 4100 942 4425 
Q 1341 4750 2034 4750 
Q 2731 4750 3128 4425 
Q 3525 4100 3525 3541 
Q 3525 3141 3298 2862 
Q 3072 2584 2669 2484 
Q 3125 2378 3379 2068 
Q 3634 1759 3634 1313 
Q 3634 634 3220 271 
Q 2806 -91 2034 -91 
Q 1263 -91 848 271 
Q 434 634 434 1313 
Q 434 1759 690 2068 
Q 947 2378 1403 2484 
z
M 1172 3481 
Q 1172 3119 1398 2916 
Q 1625 2713 2034 2713 
Q 2441 2713 2670 2916 
Q 2900 3119 2900 3481 
Q 2900 3844 2670 4047 
Q 2441 4250 2034 4250 
Q 1625 4250 1398 4047 
Q 1172 3844 1172 3481 
z
" transform="scale(0.015625)"/>
       </defs>
       <use xlink:href="#DejaVuSans-38"/>
       <use xlink:href="#DejaVuSans-30" transform="translate(63.623047 0)"/>
       <use xlink:href="#DejaVuSans-30" transform="translate(127.246094 0)"/>
       <use xlink:href="#DejaVuSans-30" transform="translate(190.869141 0)"/>
      </g>
     </g>
    </g>
   </g>
   <g id="line2d_39">
    <path d="M 138.436364 307.740907 
L 140.67983 307.534084 
L 141.053741 307.356806 
L 142.549386 307.149982 
L 144.04503 306.824974 
L 144.792852 306.706789 
L 146.662408 306.529511 
L 147.41023 306.234049 
L 147.784141 305.702216 
L 148.158052 305.4363 
L 148.531963 304.549912 
L 148.905874 304.49082 
L 149.653697 304.018079 
L 150.401519 303.456701 
L 151.897163 302.333943 
L 152.271074 302.186212 
L 153.018897 301.713472 
L 154.14063 301.152093 
L 154.514541 300.502075 
L 155.262363 299.91115 
L 156.010185 299.67478 
L 157.131919 299.497503 
L 159.375385 299.142948 
L 159.749296 298.96567 
L 162.366674 298.7293 
L 163.862319 298.345199 
L 166.853607 297.902005 
L 167.227518 297.695181 
L 167.60143 297.636089 
L 168.349252 297.370172 
L 170.966629 296.897432 
L 171.714452 296.661062 
L 175.079652 296.070137 
L 175.827474 295.89286 
L 177.323118 295.686036 
L 178.07094 295.449666 
L 178.444851 294.888287 
L 179.566585 294.415547 
L 180.688318 294.090538 
L 181.062229 293.883714 
L 181.810051 293.735983 
L 183.305696 293.263243 
L 184.053518 293.204151 
L 184.80134 292.997327 
L 186.296985 292.583679 
L 186.670896 292.554133 
L 187.418718 292.170032 
L 187.792629 292.110939 
L 188.16654 291.904115 
L 192.279562 291.195005 
L 193.775207 290.722265 
L 194.149118 290.456349 
L 196.018673 289.806331 
L 196.766495 289.244953 
L 197.888229 289.008582 
L 202.749073 287.53127 
L 203.122984 287.472177 
L 204.618629 286.851706 
L 204.99254 286.792613 
L 205.740362 286.467605 
L 206.488184 286.438058 
L 207.609917 286.083503 
L 207.983828 286.083503 
L 208.35774 285.906226 
L 209.105562 285.817587 
L 209.479473 285.669856 
L 211.349028 285.581217 
L 211.722939 285.492578 
L 212.470762 285.078931 
L 213.592495 284.665283 
L 214.340317 284.251636 
L 215.46205 283.749349 
L 216.957695 282.981147 
L 217.331606 282.537953 
L 218.079428 281.29701 
L 218.453339 281.178825 
L 218.82725 281.178825 
L 220.322895 280.321984 
L 220.696806 280.233345 
L 221.070717 279.849244 
L 221.818539 279.524235 
L 222.566361 279.16968 
L 224.809828 276.480971 
L 225.183739 276.362786 
L 227.053295 275.062751 
L 227.801117 274.530918 
L 228.175028 273.969539 
L 228.548939 273.053605 
L 228.92285 272.46268 
L 229.296761 272.137671 
L 229.670672 271.960394 
L 234.157606 267.794372 
L 235.65325 266.848892 
L 236.401072 266.435244 
L 237.896717 265.578403 
L 239.766272 263.746535 
L 240.514094 263.421527 
L 241.261916 262.889694 
L 241.635828 262.653324 
L 242.009739 262.594231 
L 243.131472 261.914668 
L 243.505383 261.471474 
L 245.374939 260.378262 
L 245.74885 260.230531 
L 246.870583 259.403236 
L 252.479249 257.275906 
L 253.227072 256.537249 
L 254.348805 255.946324 
L 255.096627 255.444038 
L 255.844449 255.207668 
L 256.218361 254.941752 
L 256.592272 254.823567 
L 257.714005 254.025818 
L 259.58356 253.582624 
L 260.705294 252.873514 
L 261.827027 252.607598 
L 262.200938 252.518959 
L 263.322671 251.691664 
L 264.818316 251.24847 
L 265.192227 250.953007 
L 267.435694 250.125712 
L 268.183516 249.977981 
L 268.931338 249.652972 
L 271.548716 248.6484 
L 272.296538 248.559761 
L 273.418271 248.146113 
L 275.287827 247.171087 
L 277.531293 245.841505 
L 278.279115 245.634682 
L 279.400849 245.043757 
L 280.148671 244.896025 
L 280.896493 244.423285 
L 281.644315 244.216461 
L 282.766049 243.743721 
L 284.261693 243.536898 
L 285.009515 243.12325 
L 285.383426 242.768695 
L 285.757338 242.059585 
L 287.252982 241.616391 
L 288.748626 240.907281 
L 292.113826 239.34133 
L 292.861648 239.164052 
L 293.983382 238.573127 
L 294.357293 238.514034 
L 296.226848 237.539008 
L 296.974671 237.036722 
L 298.096404 236.800352 
L 300.713782 235.913964 
L 306.696359 233.047977 
L 307.07027 232.63433 
L 307.444181 232.39796 
L 307.818092 232.309321 
L 308.565915 231.659304 
L 308.939826 231.600211 
L 309.313737 230.950193 
L 309.687648 230.802462 
L 310.061559 230.477453 
L 310.43547 230.418361 
L 311.183292 229.916075 
L 311.931115 229.650158 
L 312.305026 229.354696 
L 313.052848 228.941048 
L 314.174581 228.231938 
L 315.296314 227.641013 
L 316.044137 227.434189 
L 316.791959 226.990995 
L 317.16587 226.311432 
L 317.913692 225.720507 
L 318.287603 225.631868 
L 320.53107 224.50911 
L 321.278892 224.184101 
L 322.026714 223.622722 
L 322.774537 222.824974 
L 324.644092 221.377207 
L 325.391914 220.756736 
L 325.765825 220.579458 
L 326.513648 219.781709 
L 327.635381 219.220331 
L 328.383203 218.777137 
L 328.757114 218.658952 
L 329.131025 218.363489 
L 329.504936 218.304397 
L 332.870136 216.531622 
L 333.617958 216.324798 
L 335.113603 215.792965 
L 335.487514 215.467956 
L 336.983158 214.847485 
L 337.357069 214.7293 
L 338.104892 214.227014 
L 338.852714 213.902005 
L 339.600536 213.340626 
L 340.348358 211.774675 
L 341.09618 210.888287 
L 342.217914 210.267816 
L 342.965736 209.942807 
L 343.339647 209.883714 
L 344.087469 209.529159 
L 345.583114 208.997327 
L 346.330936 208.554133 
L 347.078758 208.199578 
L 347.452669 208.081393 
L 349.696136 206.663173 
L 350.070047 206.219979 
L 351.19178 205.540415 
L 351.565691 205.392684 
L 352.313514 204.919944 
L 353.809158 204.063102 
L 354.183069 203.974464 
L 354.55698 203.649455 
L 357.174358 202.763067 
L 357.548269 202.497151 
L 358.296091 202.260781 
L 361.28738 200.783468 
L 362.035202 200.369821 
L 362.409113 200.192543 
L 363.156935 199.572072 
L 363.904758 199.365248 
L 364.278669 199.010693 
L 364.65258 198.9516 
L 365.400402 198.360675 
L 367.269958 197.208371 
L 368.01778 196.972001 
L 368.391691 196.735631 
L 368.765602 196.676539 
L 370.261246 195.937883 
L 371.38298 195.553781 
L 372.130802 195.435596 
L 373.626446 194.844671 
L 374.000357 194.815125 
L 375.869913 193.958284 
L 376.617735 193.426451 
L 377.365557 193.012803 
L 378.861202 192.274147 
L 379.982935 191.505944 
L 380.730757 191.328667 
L 381.852491 190.619557 
L 382.974224 190.205909 
L 383.722046 189.939993 
L 385.21769 189.40816 
L 385.965513 189.142244 
L 387.461157 188.817235 
L 388.208979 188.580865 
L 390.078535 187.930848 
L 391.200268 187.576293 
L 391.94809 187.399015 
L 394.191557 186.985368 
L 394.939379 186.837636 
L 396.061112 186.57172 
L 396.435023 186.394442 
L 397.182846 186.246711 
L 397.930668 186.039887 
L 398.67849 185.685332 
L 399.052401 185.537601 
L 399.426312 185.537601 
L 403.539334 184.20802 
L 403.913245 184.001196 
L 404.287157 184.001196 
L 405.034979 183.705733 
L 405.40889 183.292086 
L 407.652356 182.317059 
L 409.148001 181.785227 
L 409.521912 181.548857 
L 410.643645 181.194302 
L 411.391468 180.987478 
L 411.765379 180.721562 
L 412.13929 180.632923 
L 412.513201 180.307914 
L 413.634934 180.071544 
L 414.382756 179.716989 
L 414.756667 179.244249 
L 418.86969 178.298769 
L 419.243601 178.298769 
L 419.991423 178.062399 
L 423.356623 177.205558 
L 424.104445 177.02828 
L 427.843556 175.935069 
L 428.217467 175.84643 
L 428.591378 175.639606 
L 429.3392 175.432782 
L 430.087023 175.107773 
L 430.834845 174.812311 
L 431.208756 174.546395 
L 431.956578 174.310025 
L 434.947867 173.246359 
L 435.695689 173.187267 
L 437.191333 172.744073 
L 437.565245 172.507703 
L 438.313067 172.271333 
L 440.556533 171.325853 
L 445.043467 169.671263 
L 446.913022 169.021245 
L 447.660844 168.784875 
L 448.408667 168.578051 
L 449.904311 167.307562 
L 452.521689 166.155259 
L 455.139066 165.002955 
L 455.886889 164.796131 
L 459.252088 163.111994 
L 459.999911 162.668801 
L 463.365111 161.01421 
L 463.739022 160.718748 
L 468.225955 159.005065 
L 468.973777 158.88688 
L 469.347688 158.620964 
L 470.843333 158.325501 
L 471.591155 158.000492 
L 473.46071 157.084559 
L 478.321555 154.86859 
L 479.443288 154.484488 
L 479.817199 154.218572 
L 480.565021 154.129933 
L 480.938932 153.864017 
L 481.686755 153.745832 
L 486.547599 151.94351 
L 487.669332 151.677594 
L 489.164977 151.027577 
L 489.912799 150.613929 
L 491.408443 149.81618 
L 492.156265 149.638903 
L 492.530176 149.402533 
L 492.904088 149.313894 
L 494.773643 148.368414 
L 499.634487 146.507 
L 500.008398 146.447907 
L 501.504043 145.709251 
L 502.251865 145.56152 
L 502.999687 145.118326 
L 504.495332 144.379669 
L 511.225732 141.750053 
L 512.721376 140.450018 
L 513.095287 140.331833 
L 513.469198 140.095463 
L 514.590931 139.770454 
L 514.964843 139.474991 
L 515.712665 139.209075 
L 516.834398 138.440872 
L 517.58222 138.234049 
L 518.330042 137.820401 
L 519.451776 137.554485 
L 525.434353 135.072599 
L 527.303909 134.304397 
L 529.173464 133.713472 
L 530.295198 132.974815 
L 530.669109 132.886177 
L 531.416931 132.502075 
L 532.164753 132.265705 
L 532.538664 131.91115 
L 533.660398 131.467956 
L 534.034309 131.408864 
L 535.529953 130.699754 
L 536.651686 130.345199 
L 537.77342 129.931551 
L 538.895153 129.606542 
L 539.269064 129.54745 
L 540.016886 129.133802 
L 540.390797 128.986071 
L 540.764709 128.690609 
L 541.886442 128.395146 
L 542.634264 128.099683 
L 543.382086 127.774675 
L 544.877731 127.154203 
L 547.495108 126.445093 
L 548.242931 126.149631 
L 549.738575 125.854168 
L 550.486397 125.706437 
L 551.60813 125.263243 
L 552.729864 125.026873 
L 554.97333 123.667745 
L 556.095064 122.988181 
L 558.33853 122.279071 
L 558.712441 121.983609 
L 561.70373 120.890397 
L 562.825463 120.535842 
L 563.573286 120.122195 
L 564.321108 119.915371 
L 564.695019 119.708547 
L 565.442841 119.560816 
L 566.938486 118.969891 
L 567.686308 118.467605 
L 568.808041 118.172142 
L 569.929774 117.40394 
L 570.303686 117.344847 
L 571.79933 116.724376 
L 573.294974 116.340274 
L 573.668885 116.281182 
L 574.042797 116.103904 
L 574.790619 115.956173 
L 578.155819 114.922054 
L 578.903641 114.331129 
L 580.399285 113.474288 
L 580.773196 113.385649 
L 581.147107 113.178825 
L 581.521019 113.119733 
L 584.886218 111.435596 
L 585.26013 111.110587 
L 587.129685 110.637847 
L 588.251418 110.135561 
L 588.999241 109.928737 
L 589.373152 109.75146 
L 589.747063 109.426451 
L 591.616618 108.746887 
L 596.477463 106.915019 
L 597.225285 106.767288 
L 599.09484 106.146817 
L 600.216574 105.64453 
L 602.833951 104.846782 
L 603.581774 104.403588 
L 616.294751 100.473936 
L 617.042573 100.267112 
L 618.164306 99.853465 
L 618.538218 99.853465 
L 619.659951 99.587548 
L 620.407773 99.439817 
L 621.155595 99.232993 
L 622.277329 98.612522 
L 623.399062 98.257967 
L 626.01644 97.371579 
L 627.512084 96.603377 
L 628.633817 96.33746 
L 629.381639 96.10109 
L 630.129462 95.716989 
L 630.503373 95.39198 
L 631.251195 95.15561 
L 631.625106 94.91924 
L 632.372928 94.830601 
L 634.990306 94.062399 
L 636.112039 93.826029 
L 637.233773 93.530566 
L 637.981595 93.353289 
L 639.103328 92.762364 
L 643.964172 90.90095 
L 644.711995 90.782765 
L 645.459817 90.635033 
L 645.833728 90.635033 
L 646.955461 90.280478 
L 648.077195 89.925923 
L 651.442394 88.950897 
L 651.816306 88.921351 
L 653.685861 88.300879 
L 654.433683 88.212241 
L 654.807594 88.005417 
L 655.181505 87.975871 
L 656.303239 87.444038 
L 657.424972 87.178122 
L 658.172794 86.853113 
L 660.416261 86.055364 
L 660.790172 85.996272 
L 661.537994 85.730355 
L 666.024927 84.578051 
L 668.268394 83.809849 
L 669.016216 83.750756 
L 671.259683 83.189377 
L 672.007505 82.864369 
L 672.381416 82.805276 
L 672.755327 82.627999 
L 673.503149 81.977981 
L 677.24226 80.589307 
L 679.485727 79.998382 
L 680.233549 79.584734 
L 680.60746 79.496096 
L 681.729194 78.875624 
L 682.103105 78.786986 
L 682.477016 78.491523 
L 683.598749 78.166514 
L 689.581327 75.448259 
L 689.955238 75.389166 
L 692.198704 74.236862 
L 692.572616 74.000492 
L 693.694349 73.675484 
L 695.189993 73.055012 
L 695.563904 73.025466 
L 697.43346 72.316356 
L 698.181282 72.168625 
L 698.929104 71.607246 
L 699.303015 71.607246 
L 700.79866 71.075413 
L 702.294304 70.779951 
L 703.789949 70.129933 
L 704.16386 70.129933 
L 705.285593 69.745832 
L 706.033415 69.627647 
L 707.155149 68.977629 
L 707.902971 68.593528 
L 709.772526 67.973057 
L 710.520348 67.648048 
L 712.389904 67.145762 
L 714.633371 66.52529 
L 719.120304 65.195709 
L 722.111593 64.427506 
L 723.981148 63.600211 
L 727.346348 62.861555 
L 728.09417 62.74337 
L 729.215904 62.300176 
L 730.337637 61.886528 
L 731.085459 61.768343 
L 732.581103 61.266057 
L 732.955015 61.266057 
L 733.328926 60.970594 
L 734.076748 60.734224 
L 734.450659 60.734224 
L 737.815859 59.611467 
L 739.311503 58.961449 
L 739.685414 58.902357 
L 740.433237 58.547802 
L 741.181059 58.222793 
L 741.928881 57.897784 
L 742.676703 57.602321 
L 743.050614 57.365951 
L 743.424525 57.306859 
L 744.172348 56.922758 
L 744.92017 56.686388 
L 745.667992 56.27274 
L 746.415814 55.977278 
L 746.789725 55.8 
L 747.163636 55.8 
L 747.163636 55.8 
" clip-path="url(#p7d3fc5188a)" style="fill: none; stroke: #1f77b4; stroke-width: 1.5; stroke-linecap: square"/>
   </g>
   <g id="line2d_40">
    <path d="M 138.810275 307.8 
L 142.175475 307.711361 
L 145.166763 307.56363 
L 146.662408 307.56363 
L 147.036319 307.445445 
L 148.905874 307.356806 
L 151.149341 307.09089 
L 153.392808 307.002251 
L 154.14063 306.913612 
L 156.758008 306.795427 
L 159.375385 306.706789 
L 161.244941 306.647696 
L 166.105785 306.559057 
L 167.975341 306.499965 
L 171.340541 306.411326 
L 172.836185 306.38178 
L 176.575296 306.293141 
L 178.07094 306.14541 
L 179.566585 306.115864 
L 181.810051 306.027225 
L 183.305696 305.997679 
L 185.175251 305.938586 
L 186.670896 305.790855 
L 190.036096 305.702216 
L 190.783918 305.643123 
L 192.279562 305.554485 
L 194.523029 305.465846 
L 196.018673 305.377207 
L 202.749073 304.934013 
L 205.366451 304.845375 
L 206.488184 304.72719 
L 208.35774 304.638551 
L 212.096851 304.431727 
L 215.835962 304.372635 
L 217.331606 304.195357 
L 219.201161 304.106718 
L 222.940273 303.722617 
L 225.183739 303.427154 
L 226.679384 303.368062 
L 229.670672 302.954414 
L 231.914139 302.895322 
L 233.035872 302.777137 
L 234.157606 302.688498 
L 253.600983 301.240732 
L 256.218361 301.152093 
L 257.714005 300.974815 
L 259.58356 300.886177 
L 261.827027 300.797538 
L 263.696583 300.708899 
L 265.192227 300.679353 
L 267.061782 300.62026 
L 267.809605 300.531622 
L 273.04436 300.442983 
L 273.792182 300.354344 
L 278.279115 300.265705 
L 281.644315 300.088428 
L 284.261693 299.999789 
L 285.757338 299.822511 
L 288.374715 299.733873 
L 289.122537 299.615688 
L 290.992093 299.556595 
L 294.731204 299.497503 
L 296.226848 299.349771 
L 297.722493 299.320225 
L 298.844226 299.231586 
L 300.33987 299.083855 
L 304.078981 298.877031 
L 307.818092 298.788393 
L 311.183292 298.611115 
L 312.305026 298.581569 
L 313.052848 298.463384 
L 314.922403 298.374745 
L 315.670226 298.315652 
L 317.539781 298.227014 
L 319.035426 298.197467 
L 321.652803 298.108829 
L 331.374492 297.429265 
L 333.617958 297.340626 
L 335.487514 297.281534 
L 340.722269 297.192895 
L 341.470092 297.104256 
L 346.704847 297.015617 
L 350.443958 296.808794 
L 351.19178 296.779247 
L 351.939602 296.690609 
L 353.809158 296.60197 
L 355.678713 296.542877 
L 357.548269 296.454238 
L 359.417824 296.395146 
L 362.783024 296.306507 
L 365.026491 296.217868 
L 370.261246 296.12923 
L 374.374268 295.89286 
L 375.869913 295.833767 
L 376.991646 295.745128 
L 382.226402 295.65649 
L 384.469868 295.567851 
L 391.200268 295.479212 
L 392.695912 295.449666 
L 397.182846 295.390573 
L 397.930668 295.331481 
L 403.165423 295.242842 
L 404.661068 295.213296 
L 414.382756 295.124657 
L 416.626223 295.036018 
L 432.330489 294.94738 
L 434.200045 294.888287 
L 443.921733 294.829195 
L 444.669556 294.770102 
L 446.539111 294.711009 
L 447.660844 294.592824 
L 449.904311 294.504186 
L 452.521689 294.386001 
L 455.886889 294.297362 
L 457.756444 294.238269 
L 460.373822 294.149631 
L 463.365111 294.001899 
L 465.234666 293.913261 
L 466.73031 293.883714 
L 473.086799 293.795076 
L 475.330266 293.706437 
L 479.443288 293.617798 
L 482.060666 293.499613 
L 484.678043 293.440521 
L 485.425866 293.381428 
L 494.399732 293.292789 
L 498.138843 293.085966 
L 500.756221 292.997327 
L 504.869243 292.760957 
L 507.486621 292.672318 
L 508.982265 292.642772 
L 511.599643 292.554133 
L 513.469198 292.347309 
L 517.208309 292.25867 
L 517.956131 292.170032 
L 521.695242 292.081393 
L 523.564798 292.0223 
L 527.67782 291.992754 
L 528.425642 291.904115 
L 532.538664 291.815477 
L 533.286486 291.756384 
L 541.512531 291.667745 
L 543.755997 291.579107 
L 549.364664 291.490468 
L 550.860308 291.460922 
L 554.225508 291.401829 
L 554.97333 291.31319 
L 559.834175 291.224552 
L 561.70373 291.165459 
L 568.43413 291.07682 
L 569.555863 290.988181 
L 570.677597 290.899543 
L 571.79933 290.810904 
L 577.407996 290.722265 
L 579.651463 290.633626 
L 590.494885 290.544988 
L 593.860085 290.36771 
L 599.09484 290.279071 
L 600.590485 290.249525 
L 605.077418 290.160886 
L 606.946973 290.101794 
L 614.799107 290.013155 
L 617.416484 289.89497 
L 624.146884 289.806331 
L 625.642528 289.776785 
L 629.381639 289.688146 
L 631.999017 289.569961 
L 636.112039 289.481323 
L 638.729417 289.363138 
L 642.094617 289.304045 
L 642.842439 289.244953 
L 651.068483 289.156314 
L 653.31195 289.067675 
L 655.929328 288.979036 
L 657.798883 288.919944 
L 668.642305 288.831305 
L 670.885772 288.742666 
L 676.868349 288.654027 
L 679.111816 288.565389 
L 683.97266 288.47675 
L 686.216127 288.388111 
L 689.207416 288.299472 
L 691.450882 288.210834 
L 706.407326 288.122195 
L 709.398615 287.974464 
L 717.99857 287.885825 
L 719.494215 287.856279 
L 728.468081 287.76764 
L 730.337637 287.708547 
L 742.302792 287.619909 
L 743.798436 287.590362 
L 747.163636 287.53127 
L 747.163636 287.53127 
" clip-path="url(#p7d3fc5188a)" style="fill: none; stroke: #ff7f0e; stroke-width: 1.5; stroke-linecap: square"/>
   </g>
   <g id="patch_3">
    <path d="M 108 320.4 
L 108 43.2 
" style="fill: none; stroke: #a9a9a9; stroke-width: 0.8; stroke-linejoin: miter; stroke-linecap: square"/>
   </g>
   <g id="patch_4">
    <path d="M 777.6 320.4 
L 777.6 43.2 
" style="fill: none"/>
   </g>
   <g id="patch_5">
    <path d="M 108 320.4 
L 777.6 320.4 
" style="fill: none; stroke: #a9a9a9; stroke-width: 0.8; stroke-linejoin: miter; stroke-linecap: square"/>
   </g>
   <g id="patch_6">
    <path d="M 108 43.2 
L 777.6 43.2 
" style="fill: none"/>
   </g>
   <g id="text_20">
    <!-- get_subscribe history -->
    <g style="fill: #a9a9a9" transform="translate(378.6075 37.2) scale(0.12 -0.12)">
     <defs>
      <path id="DejaVuSans-67" d="M 2906 1791 
Q 2906 2416 2648 2759 
Q 2391 3103 1925 3103 
Q 1463 3103 1205 2759 
Q 947 2416 947 1791 
Q 947 1169 1205 825 
Q 1463 481 1925 481 
Q 2391 481 2648 825 
Q 2906 1169 2906 1791 
z
M 3481 434 
Q 3481 -459 3084 -895 
Q 2688 -1331 1869 -1331 
Q 1566 -1331 1297 -1286 
Q 1028 -1241 775 -1147 
L 775 -588 
Q 1028 -725 1275 -790 
Q 1522 -856 1778 -856 
Q 2344 -856 2625 -561 
Q 2906 -266 2906 331 
L 2906 616 
Q 2728 306 2450 153 
Q 2172 0 1784 0 
Q 1141 0 747 490 
Q 353 981 353 1791 
Q 353 2603 747 3093 
Q 1141 3584 1784 3584 
Q 2172 3584 2450 3431 
Q 2728 3278 2906 2969 
L 2906 3500 
L 3481 3500 
L 3481 434 
z
" transform="scale(0.015625)"/>
      <path id="DejaVuSans-65" d="M 3597 1894 
L 3597 1613 
L 953 1613 
Q 991 1019 1311 708 
Q 1631 397 2203 397 
Q 2534 397 2845 478 
Q 3156 559 3463 722 
L 3463 178 
Q 3153 47 2828 -22 
Q 2503 -91 2169 -91 
Q 1331 -91 842 396 
Q 353 884 353 1716 
Q 353 2575 817 3079 
Q 1281 3584 2069 3584 
Q 2775 3584 3186 3129 
Q 3597 2675 3597 1894 
z
M 3022 2063 
Q 3016 2534 2758 2815 
Q 2500 3097 2075 3097 
Q 1594 3097 1305 2825 
Q 1016 2553 972 2059 
L 3022 2063 
z
" transform="scale(0.015625)"/>
      <path id="DejaVuSans-74" d="M 1172 4494 
L 1172 3500 
L 2356 3500 
L 2356 3053 
L 1172 3053 
L 1172 1153 
Q 1172 725 1289 603 
Q 1406 481 1766 481 
L 2356 481 
L 2356 0 
L 1766 0 
Q 1100 0 847 248 
Q 594 497 594 1153 
L 594 3053 
L 172 3053 
L 172 3500 
L 594 3500 
L 594 4494 
L 1172 4494 
z
" transform="scale(0.015625)"/>
      <path id="DejaVuSans-5f" d="M 3263 -1063 
L 3263 -1509 
L -63 -1509 
L -63 -1063 
L 3263 -1063 
z
" transform="scale(0.015625)"/>
      <path id="DejaVuSans-73" d="M 2834 3397 
L 2834 2853 
Q 2591 2978 2328 3040 
Q 2066 3103 1784 3103 
Q 1356 3103 1142 2972 
Q 928 2841 928 2578 
Q 928 2378 1081 2264 
Q 1234 2150 1697 2047 
L 1894 2003 
Q 2506 1872 2764 1633 
Q 3022 1394 3022 966 
Q 3022 478 2636 193 
Q 2250 -91 1575 -91 
Q 1294 -91 989 -36 
Q 684 19 347 128 
L 347 722 
Q 666 556 975 473 
Q 1284 391 1588 391 
Q 1994 391 2212 530 
Q 2431 669 2431 922 
Q 2431 1156 2273 1281 
Q 2116 1406 1581 1522 
L 1381 1569 
Q 847 1681 609 1914 
Q 372 2147 372 2553 
Q 372 3047 722 3315 
Q 1072 3584 1716 3584 
Q 2034 3584 2315 3537 
Q 2597 3491 2834 3397 
z
" transform="scale(0.015625)"/>
      <path id="DejaVuSans-75" d="M 544 1381 
L 544 3500 
L 1119 3500 
L 1119 1403 
Q 1119 906 1312 657 
Q 1506 409 1894 409 
Q 2359 409 2629 706 
Q 2900 1003 2900 1516 
L 2900 3500 
L 3475 3500 
L 3475 0 
L 2900 0 
L 2900 538 
Q 2691 219 2414 64 
Q 2138 -91 1772 -91 
Q 1169 -91 856 284 
Q 544 659 544 1381 
z
M 1991 3584 
L 1991 3584 
z
" transform="scale(0.015625)"/>
      <path id="DejaVuSans-62" d="M 3116 1747 
Q 3116 2381 2855 2742 
Q 2594 3103 2138 3103 
Q 1681 3103 1420 2742 
Q 1159 2381 1159 1747 
Q 1159 1113 1420 752 
Q 1681 391 2138 391 
Q 2594 391 2855 752 
Q 3116 1113 3116 1747 
z
M 1159 2969 
Q 1341 3281 1617 3432 
Q 1894 3584 2278 3584 
Q 2916 3584 3314 3078 
Q 3713 2572 3713 1747 
Q 3713 922 3314 415 
Q 2916 -91 2278 -91 
Q 1894 -91 1617 61 
Q 1341 213 1159 525 
L 1159 0 
L 581 0 
L 581 4863 
L 1159 4863 
L 1159 2969 
z
" transform="scale(0.015625)"/>
      <path id="DejaVuSans-63" d="M 3122 3366 
L 3122 2828 
Q 2878 2963 2633 3030 
Q 2388 3097 2138 3097 
Q 1578 3097 1268 2742 
Q 959 2388 959 1747 
Q 959 1106 1268 751 
Q 1578 397 2138 397 
Q 2388 397 2633 464 
Q 2878 531 3122 666 
L 3122 134 
Q 2881 22 2623 -34 
Q 2366 -91 2075 -91 
Q 1284 -91 818 406 
Q 353 903 353 1747 
Q 353 2603 823 3093 
Q 1294 3584 2113 3584 
Q 2378 3584 2631 3529 
Q 2884 3475 3122 3366 
z
" transform="scale(0.015625)"/>
      <path id="DejaVuSans-72" d="M 2631 2963 
Q 2534 3019 2420 3045 
Q 2306 3072 2169 3072 
Q 1681 3072 1420 2755 
Q 1159 2438 1159 1844 
L 1159 0 
L 581 0 
L 581 3500 
L 1159 3500 
L 1159 2956 
Q 1341 3275 1631 3429 
Q 1922 3584 2338 3584 
Q 2397 3584 2469 3576 
Q 2541 3569 2628 3553 
L 2631 2963 
z
" transform="scale(0.015625)"/>
      <path id="DejaVuSans-69" d="M 603 3500 
L 1178 3500 
L 1178 0 
L 603 0 
L 603 3500 
z
M 603 4863 
L 1178 4863 
L 1178 4134 
L 603 4134 
L 603 4863 
z
" transform="scale(0.015625)"/>
      <path id="DejaVuSans-20" transform="scale(0.015625)"/>
      <path id="DejaVuSans-68" d="M 3513 2113 
L 3513 0 
L 2938 0 
L 2938 2094 
Q 2938 2591 2744 2837 
Q 2550 3084 2163 3084 
Q 1697 3084 1428 2787 
Q 1159 2491 1159 1978 
L 1159 0 
L 581 0 
L 581 4863 
L 1159 4863 
L 1159 2956 
Q 1366 3272 1645 3428 
Q 1925 3584 2291 3584 
Q 2894 3584 3203 3211 
Q 3513 2838 3513 2113 
z
" transform="scale(0.015625)"/>
      <path id="DejaVuSans-6f" d="M 1959 3097 
Q 1497 3097 1228 2736 
Q 959 2375 959 1747 
Q 959 1119 1226 758 
Q 1494 397 1959 397 
Q 2419 397 2687 759 
Q 2956 1122 2956 1747 
Q 2956 2369 2687 2733 
Q 2419 3097 1959 3097 
z
M 1959 3584 
Q 2709 3584 3137 3096 
Q 3566 2609 3566 1747 
Q 3566 888 3137 398 
Q 2709 -91 1959 -91 
Q 1206 -91 779 398 
Q 353 888 353 1747 
Q 353 2609 779 3096 
Q 1206 3584 1959 3584 
z
" transform="scale(0.015625)"/>
      <path id="DejaVuSans-79" d="M 2059 -325 
Q 1816 -950 1584 -1140 
Q 1353 -1331 966 -1331 
L 506 -1331 
L 506 -850 
L 844 -850 
Q 1081 -850 1212 -737 
Q 1344 -625 1503 -206 
L 1606 56 
L 191 3500 
L 800 3500 
L 1894 763 
L 2988 3500 
L 3597 3500 
L 2059 -325 
z
" transform="scale(0.015625)"/>
     </defs>
     <use xlink:href="#DejaVuSans-67"/>
     <use xlink:href="#DejaVuSans-65" transform="translate(63.476562 0)"/>
     <use xlink:href="#DejaVuSans-74" transform="translate(125 0)"/>
     <use xlink:href="#DejaVuSans-5f" transform="translate(164.208984 0)"/>
     <use xlink:href="#DejaVuSans-73" transform="translate(214.208984 0)"/>
     <use xlink:href="#DejaVuSans-75" transform="translate(266.308594 0)"/>
     <use xlink:href="#DejaVuSans-62" transform="translate(329.6875 0)"/>
     <use xlink:href="#DejaVuSans-73" transform="translate(393.164062 0)"/>
     <use xlink:href="#DejaVuSans-63" transform="translate(445.263672 0)"/>
     <use xlink:href="#DejaVuSans-72" transform="translate(500.244141 0)"/>
     <use xlink:href="#DejaVuSans-69" transform="translate(541.357422 0)"/>
     <use xlink:href="#DejaVuSans-62" transform="translate(569.140625 0)"/>
     <use xlink:href="#DejaVuSans-65" transform="translate(632.617188 0)"/>
     <use xlink:href="#DejaVuSans-20" transform="translate(694.140625 0)"/>
     <use xlink:href="#DejaVuSans-68" transform="translate(725.927734 0)"/>
     <use xlink:href="#DejaVuSans-69" transform="translate(789.306641 0)"/>
     <use xlink:href="#DejaVuSans-73" transform="translate(817.089844 0)"/>
     <use xlink:href="#DejaVuSans-74" transform="translate(869.189453 0)"/>
     <use xlink:href="#DejaVuSans-6f" transform="translate(908.398438 0)"/>
     <use xlink:href="#DejaVuSans-72" transform="translate(969.580078 0)"/>
     <use xlink:href="#DejaVuSans-79" transform="translate(1010.693359 0)"/>
    </g>
   </g>
   <g id="legend_1">
    <g id="line2d_41">
     <path d="M 815.08 328.498438 
L 825.08 328.498438 
L 835.08 328.498438 
" style="fill: none; stroke: #1f77b4; stroke-width: 1.5; stroke-linecap: square"/>
    </g>
    <g id="text_21">
     <!-- star -->
     <g style="fill: #a9a9a9" transform="translate(843.08 331.998438) scale(0.1 -0.1)">
      <defs>
       <path id="DejaVuSans-61" d="M 2194 1759 
Q 1497 1759 1228 1600 
Q 959 1441 959 1056 
Q 959 750 1161 570 
Q 1363 391 1709 391 
Q 2188 391 2477 730 
Q 2766 1069 2766 1631 
L 2766 1759 
L 2194 1759 
z
M 3341 1997 
L 3341 0 
L 2766 0 
L 2766 531 
Q 2569 213 2275 61 
Q 1981 -91 1556 -91 
Q 1019 -91 701 211 
Q 384 513 384 1019 
Q 384 1609 779 1909 
Q 1175 2209 1959 2209 
L 2766 2209 
L 2766 2266 
Q 2766 2663 2505 2880 
Q 2244 3097 1772 3097 
Q 1472 3097 1187 3025 
Q 903 2953 641 2809 
L 641 3341 
Q 956 3463 1253 3523 
Q 1550 3584 1831 3584 
Q 2591 3584 2966 3190 
Q 3341 2797 3341 1997 
z
" transform="scale(0.015625)"/>
      </defs>
      <use xlink:href="#DejaVuSans-73"/>
      <use xlink:href="#DejaVuSans-74" transform="translate(52.099609 0)"/>
      <use xlink:href="#DejaVuSans-61" transform="translate(91.308594 0)"/>
      <use xlink:href="#DejaVuSans-72" transform="translate(152.587891 0)"/>
     </g>
    </g>
    <g id="line2d_42">
     <path d="M 815.08 343.176562 
L 825.08 343.176562 
L 835.08 343.176562 
" style="fill: none; stroke: #ff7f0e; stroke-width: 1.5; stroke-linecap: square"/>
    </g>
    <g id="text_22">
     <!-- fork -->
     <g style="fill: #a9a9a9" transform="translate(843.08 346.676562) scale(0.1 -0.1)">
      <defs>
       <path id="DejaVuSans-66" d="M 2375 4863 
L 2375 4384 
L 1825 4384 
Q 1516 4384 1395 4259 
Q 1275 4134 1275 3809 
L 1275 3500 
L 2222 3500 
L 2222 3053 
L 1275 3053 
L 1275 0 
L 697 0 
L 697 3053 
L 147 3053 
L 147 3500 
L 697 3500 
L 697 3744 
Q 697 4328 969 4595 
Q 1241 4863 1831 4863 
L 2375 4863 
z
" transform="scale(0.015625)"/>
       <path id="DejaVuSans-6b" d="M 581 4863 
L 1159 4863 
L 1159 1991 
L 2875 3500 
L 3609 3500 
L 1753 1863 
L 3688 0 
L 2938 0 
L 1159 1709 
L 1159 0 
L 581 0 
L 581 4863 
z
" transform="scale(0.015625)"/>
      </defs>
      <use xlink:href="#DejaVuSans-66"/>
      <use xlink:href="#DejaVuSans-6f" transform="translate(35.205078 0)"/>
      <use xlink:href="#DejaVuSans-72" transform="translate(96.386719 0)"/>
      <use xlink:href="#DejaVuSans-6b" transform="translate(137.5 0)"/>
     </g>
    </g>
   </g>
  </g>
 </g>
 <defs>
  <clipPath id="p7d3fc5188a">
   <rect x="108" y="43.2" width="669.6" height="277.2"/>
  </clipPath>
 </defs>
</svg>
