<?xml version="1.0" encoding="utf-8" standalone="no"?>
<!DOCTYPE svg PUBLIC "-//W3C//DTD SVG 1.1//EN"
  "http://www.w3.org/Graphics/SVG/1.1/DTD/svg11.dtd">
<svg xmlns:xlink="http://www.w3.org/1999/xlink" width="864pt" height="360pt" viewBox="0 0 864 360" xmlns="http://www.w3.org/2000/svg" version="1.1">
 <metadata>
  <rdf:RDF xmlns:dc="http://purl.org/dc/elements/1.1/" xmlns:cc="http://creativecommons.org/ns#" xmlns:rdf="http://www.w3.org/1999/02/22-rdf-syntax-ns#">
   <cc:Work>
    <dc:type rdf:resource="http://purl.org/dc/dcmitype/StillImage"/>
    <dc:date>2026-01-08T20:08:09.714316</dc:date>
    <dc:format>image/svg+xml</dc:format>
    <dc:creator>
     <cc:Agent>
      <dc:title>Matplotlib v3.10.8, https://matplotlib.org/</dc:title>
     </cc:Agent>
    </dc:creator>
   </cc:Work>
  </rdf:RDF>
 </metadata>
 <defs>
  <style type="text/css">*{stroke-linejoin: round; stroke-linecap: butt}</style>
 </defs>
 <g id="figure_1">
  <g id="patch_1">
   <path d="M 0 360 
L 864 360 
L 864 0 
L 0 0 
L 0 360 
z
" style="fill: none; opacity: 0"/>
  </g>
  <g id="axes_1">
   <g id="patch_2">
    <path d="M 108 320.4 
L 777.6 320.4 
L 777.6 43.2 
L 108 43.2 
L 108 320.4 
z
" style="fill: none; opacity: 0"/>
   </g>
   <g id="matplotlib.axis_1">
    <g id="xtick_1">
     <g id="line2d_1">
      <path d="M 129.841688 320.4 
L 129.841688 43.2 
" clip-path="url(#p042e253f9d)" style="fill: none; stroke-dasharray: 5.12,1.28,0.8,1.28; stroke-dashoffset: 0; stroke: #b0b0b0; stroke-width: 0.8"/>
     </g>
     <g id="line2d_2">
      <defs>
       <path id="mf07c1c3ee1" d="M 0 0 
L 0 3.5 
" style="stroke: #a9a9a9; stroke-width: 0.8"/>
      </defs>
      <g>
       <use xlink:href="#mf07c1c3ee1" x="129.841688" y="320.4" style="fill: #a9a9a9; stroke: #a9a9a9; stroke-width: 0.8"/>
      </g>
     </g>
     <g id="text_1">
      <!-- 2021-07 -->
      <g style="fill: #a9a9a9" transform="translate(108.950281 334.998438) scale(0.1 -0.1)">
       <defs>
        <path id="DejaVuSans-32" d="M 1228 531 
L 3431 531 
L 3431 0 
L 469 0 
L 469 531 
Q 828 903 1448 1529 
Q 2069 2156 2228 2338 
Q 2531 2678 2651 2914 
Q 2772 3150 2772 3378 
Q 2772 3750 2511 3984 
Q 2250 4219 1831 4219 
Q 1534 4219 1204 4116 
Q 875 4013 500 3803 
L 500 4441 
Q 881 4594 1212 4672 
Q 1544 4750 1819 4750 
Q 2544 4750 2975 4387 
Q 3406 4025 3406 3419 
Q 3406 3131 3298 2873 
Q 3191 2616 2906 2266 
Q 2828 2175 2409 1742 
Q 1991 1309 1228 531 
z
" transform="scale(0.015625)"/>
        <path id="DejaVuSans-30" d="M 2034 4250 
Q 1547 4250 1301 3770 
Q 1056 3291 1056 2328 
Q 1056 1369 1301 889 
Q 1547 409 2034 409 
Q 2525 409 2770 889 
Q 3016 1369 3016 2328 
Q 3016 3291 2770 3770 
Q 2525 4250 2034 4250 
z
M 2034 4750 
Q 2819 4750 3233 4129 
Q 3647 3509 3647 2328 
Q 3647 1150 3233 529 
Q 2819 -91 2034 -91 
Q 1250 -91 836 529 
Q 422 1150 422 2328 
Q 422 3509 836 4129 
Q 1250 4750 2034 4750 
z
" transform="scale(0.015625)"/>
        <path id="DejaVuSans-31" d="M 794 531 
L 1825 531 
L 1825 4091 
L 703 3866 
L 703 4441 
L 1819 4666 
L 2450 4666 
L 2450 531 
L 3481 531 
L 3481 0 
L 794 0 
L 794 531 
z
" transform="scale(0.015625)"/>
        <path id="DejaVuSans-2d" d="M 313 2009 
L 1997 2009 
L 1997 1497 
L 313 1497 
L 313 2009 
z
" transform="scale(0.015625)"/>
        <path id="DejaVuSans-37" d="M 525 4666 
L 3525 4666 
L 3525 4397 
L 1831 0 
L 1172 0 
L 2766 4134 
L 525 4134 
L 525 4666 
z
" transform="scale(0.015625)"/>
       </defs>
       <use xlink:href="#DejaVuSans-32"/>
       <use xlink:href="#DejaVuSans-30" transform="translate(63.623047 0)"/>
       <use xlink:href="#DejaVuSans-32" transform="translate(127.246094 0)"/>
       <use xlink:href="#DejaVuSans-31" transform="translate(190.869141 0)"/>
       <use xlink:href="#DejaVuSans-2d" transform="translate(254.492188 0)"/>
       <use xlink:href="#DejaVuSans-30" transform="translate(290.576172 0)"/>
       <use xlink:href="#DejaVuSans-37" transform="translate(354.199219 0)"/>
      </g>
     </g>
    </g>
    <g id="xtick_2">
     <g id="line2d_3">
      <path d="M 198.599096 320.4 
L 198.599096 43.2 
" clip-path="url(#p042e253f9d)" style="fill: none; stroke-dasharray: 5.12,1.28,0.8,1.28; stroke-dashoffset: 0; stroke: #b0b0b0; stroke-width: 0.8"/>
     </g>
     <g id="line2d_4">
      <g>
       <use xlink:href="#mf07c1c3ee1" x="198.599096" y="320.4" style="fill: #a9a9a9; stroke: #a9a9a9; stroke-width: 0.8"/>
      </g>
     </g>
     <g id="text_2">
      <!-- 2022-01 -->
      <g style="fill: #a9a9a9" transform="translate(177.70769 334.998438) scale(0.1 -0.1)">
       <use xlink:href="#DejaVuSans-32"/>
       <use xlink:href="#DejaVuSans-30" transform="translate(63.623047 0)"/>
       <use xlink:href="#DejaVuSans-32" transform="translate(127.246094 0)"/>
       <use xlink:href="#DejaVuSans-32" transform="translate(190.869141 0)"/>
       <use xlink:href="#DejaVuSans-2d" transform="translate(254.492188 0)"/>
       <use xlink:href="#DejaVuSans-30" transform="translate(290.576172 0)"/>
       <use xlink:href="#DejaVuSans-31" transform="translate(354.199219 0)"/>
      </g>
     </g>
    </g>
    <g id="xtick_3">
     <g id="line2d_5">
      <path d="M 266.23546 320.4 
L 266.23546 43.2 
" clip-path="url(#p042e253f9d)" style="fill: none; stroke-dasharray: 5.12,1.28,0.8,1.28; stroke-dashoffset: 0; stroke: #b0b0b0; stroke-width: 0.8"/>
     </g>
     <g id="line2d_6">
      <g>
       <use xlink:href="#mf07c1c3ee1" x="266.23546" y="320.4" style="fill: #a9a9a9; stroke: #a9a9a9; stroke-width: 0.8"/>
      </g>
     </g>
     <g id="text_3">
      <!-- 2022-07 -->
      <g style="fill: #a9a9a9" transform="translate(245.344053 334.998438) scale(0.1 -0.1)">
       <use xlink:href="#DejaVuSans-32"/>
       <use xlink:href="#DejaVuSans-30" transform="translate(63.623047 0)"/>
       <use xlink:href="#DejaVuSans-32" transform="translate(127.246094 0)"/>
       <use xlink:href="#DejaVuSans-32" transform="translate(190.869141 0)"/>
       <use xlink:href="#DejaVuSans-2d" transform="translate(254.492188 0)"/>
       <use xlink:href="#DejaVuSans-30" transform="translate(290.576172 0)"/>
       <use xlink:href="#DejaVuSans-37" transform="translate(354.199219 0)"/>
      </g>
     </g>
    </g>
    <g id="xtick_4">
     <g id="line2d_7">
      <path d="M 334.992868 320.4 
L 334.992868 43.2 
" clip-path="url(#p042e253f9d)" style="fill: none; stroke-dasharray: 5.12,1.28,0.8,1.28; stroke-dashoffset: 0; stroke: #b0b0b0; stroke-width: 0.8"/>
     </g>
     <g id="line2d_8">
      <g>
       <use xlink:href="#mf07c1c3ee1" x="334.992868" y="320.4" style="fill: #a9a9a9; stroke: #a9a9a9; stroke-width: 0.8"/>
      </g>
     </g>
     <g id="text_4">
      <!-- 2023-01 -->
      <g style="fill: #a9a9a9" transform="translate(314.101462 334.998438) scale(0.1 -0.1)">
       <defs>
        <path id="DejaVuSans-33" d="M 2597 2516 
Q 3050 2419 3304 2112 
Q 3559 1806 3559 1356 
Q 3559 666 3084 287 
Q 2609 -91 1734 -91 
Q 1441 -91 1130 -33 
Q 819 25 488 141 
L 488 750 
Q 750 597 1062 519 
Q 1375 441 1716 441 
Q 2309 441 2620 675 
Q 2931 909 2931 1356 
Q 2931 1769 2642 2001 
Q 2353 2234 1838 2234 
L 1294 2234 
L 1294 2753 
L 1863 2753 
Q 2328 2753 2575 2939 
Q 2822 3125 2822 3475 
Q 2822 3834 2567 4026 
Q 2313 4219 1838 4219 
Q 1578 4219 1281 4162 
Q 984 4106 628 3988 
L 628 4550 
Q 988 4650 1302 4700 
Q 1616 4750 1894 4750 
Q 2613 4750 3031 4423 
Q 3450 4097 3450 3541 
Q 3450 3153 3228 2886 
Q 3006 2619 2597 2516 
z
" transform="scale(0.015625)"/>
       </defs>
       <use xlink:href="#DejaVuSans-32"/>
       <use xlink:href="#DejaVuSans-30" transform="translate(63.623047 0)"/>
       <use xlink:href="#DejaVuSans-32" transform="translate(127.246094 0)"/>
       <use xlink:href="#DejaVuSans-33" transform="translate(190.869141 0)"/>
       <use xlink:href="#DejaVuSans-2d" transform="translate(254.492188 0)"/>
       <use xlink:href="#DejaVuSans-30" transform="translate(290.576172 0)"/>
       <use xlink:href="#DejaVuSans-31" transform="translate(354.199219 0)"/>
      </g>
     </g>
    </g>
    <g id="xtick_5">
     <g id="line2d_9">
      <path d="M 402.629232 320.4 
L 402.629232 43.2 
" clip-path="url(#p042e253f9d)" style="fill: none; stroke-dasharray: 5.12,1.28,0.8,1.28; stroke-dashoffset: 0; stroke: #b0b0b0; stroke-width: 0.8"/>
     </g>
     <g id="line2d_10">
      <g>
       <use xlink:href="#mf07c1c3ee1" x="402.629232" y="320.4" style="fill: #a9a9a9; stroke: #a9a9a9; stroke-width: 0.8"/>
      </g>
     </g>
     <g id="text_5">
      <!-- 2023-07 -->
      <g style="fill: #a9a9a9" transform="translate(381.737825 334.998438) scale(0.1 -0.1)">
       <use xlink:href="#DejaVuSans-32"/>
       <use xlink:href="#DejaVuSans-30" transform="translate(63.623047 0)"/>
       <use xlink:href="#DejaVuSans-32" transform="translate(127.246094 0)"/>
       <use xlink:href="#DejaVuSans-33" transform="translate(190.869141 0)"/>
       <use xlink:href="#DejaVuSans-2d" transform="translate(254.492188 0)"/>
       <use xlink:href="#DejaVuSans-30" transform="translate(290.576172 0)"/>
       <use xlink:href="#DejaVuSans-37" transform="translate(354.199219 0)"/>
      </g>
     </g>
    </g>
    <g id="xtick_6">
     <g id="line2d_11">
      <path d="M 471.38664 320.4 
L 471.38664 43.2 
" clip-path="url(#p042e253f9d)" style="fill: none; stroke-dasharray: 5.12,1.28,0.8,1.28; stroke-dashoffset: 0; stroke: #b0b0b0; stroke-width: 0.8"/>
     </g>
     <g id="line2d_12">
      <g>
       <use xlink:href="#mf07c1c3ee1" x="471.38664" y="320.4" style="fill: #a9a9a9; stroke: #a9a9a9; stroke-width: 0.8"/>
      </g>
     </g>
     <g id="text_6">
      <!-- 2024-01 -->
      <g style="fill: #a9a9a9" transform="translate(450.495234 334.998438) scale(0.1 -0.1)">
       <defs>
        <path id="DejaVuSans-34" d="M 2419 4116 
L 825 1625 
L 2419 1625 
L 2419 4116 
z
M 2253 4666 
L 3047 4666 
L 3047 1625 
L 3713 1625 
L 3713 1100 
L 3047 1100 
L 3047 0 
L 2419 0 
L 2419 1100 
L 313 1100 
L 313 1709 
L 2253 4666 
z
" transform="scale(0.015625)"/>
       </defs>
       <use xlink:href="#DejaVuSans-32"/>
       <use xlink:href="#DejaVuSans-30" transform="translate(63.623047 0)"/>
       <use xlink:href="#DejaVuSans-32" transform="translate(127.246094 0)"/>
       <use xlink:href="#DejaVuSans-34" transform="translate(190.869141 0)"/>
       <use xlink:href="#DejaVuSans-2d" transform="translate(254.492188 0)"/>
       <use xlink:href="#DejaVuSans-30" transform="translate(290.576172 0)"/>
       <use xlink:href="#DejaVuSans-31" transform="translate(354.199219 0)"/>
      </g>
     </g>
    </g>
    <g id="xtick_7">
     <g id="line2d_13">
      <path d="M 539.396685 320.4 
L 539.396685 43.2 
" clip-path="url(#p042e253f9d)" style="fill: none; stroke-dasharray: 5.12,1.28,0.8,1.28; stroke-dashoffset: 0; stroke: #b0b0b0; stroke-width: 0.8"/>
     </g>
     <g id="line2d_14">
      <g>
       <use xlink:href="#mf07c1c3ee1" x="539.396685" y="320.4" style="fill: #a9a9a9; stroke: #a9a9a9; stroke-width: 0.8"/>
      </g>
     </g>
     <g id="text_7">
      <!-- 2024-07 -->
      <g style="fill: #a9a9a9" transform="translate(518.505279 334.998438) scale(0.1 -0.1)">
       <use xlink:href="#DejaVuSans-32"/>
       <use xlink:href="#DejaVuSans-30" transform="translate(63.623047 0)"/>
       <use xlink:href="#DejaVuSans-32" transform="translate(127.246094 0)"/>
       <use xlink:href="#DejaVuSans-34" transform="translate(190.869141 0)"/>
       <use xlink:href="#DejaVuSans-2d" transform="translate(254.492188 0)"/>
       <use xlink:href="#DejaVuSans-30" transform="translate(290.576172 0)"/>
       <use xlink:href="#DejaVuSans-37" transform="translate(354.199219 0)"/>
      </g>
     </g>
    </g>
    <g id="xtick_8">
     <g id="line2d_15">
      <path d="M 608.154093 320.4 
L 608.154093 43.2 
" clip-path="url(#p042e253f9d)" style="fill: none; stroke-dasharray: 5.12,1.28,0.8,1.28; stroke-dashoffset: 0; stroke: #b0b0b0; stroke-width: 0.8"/>
     </g>
     <g id="line2d_16">
      <g>
       <use xlink:href="#mf07c1c3ee1" x="608.154093" y="320.4" style="fill: #a9a9a9; stroke: #a9a9a9; stroke-width: 0.8"/>
      </g>
     </g>
     <g id="text_8">
      <!-- 2025-01 -->
      <g style="fill: #a9a9a9" transform="translate(587.262687 334.998438) scale(0.1 -0.1)">
       <defs>
        <path id="DejaVuSans-35" d="M 691 4666 
L 3169 4666 
L 3169 4134 
L 1269 4134 
L 1269 2991 
Q 1406 3038 1543 3061 
Q 1681 3084 1819 3084 
Q 2600 3084 3056 2656 
Q 3513 2228 3513 1497 
Q 3513 744 3044 326 
Q 2575 -91 1722 -91 
Q 1428 -91 1123 -41 
Q 819 9 494 109 
L 494 744 
Q 775 591 1075 516 
Q 1375 441 1709 441 
Q 2250 441 2565 725 
Q 2881 1009 2881 1497 
Q 2881 1984 2565 2268 
Q 2250 2553 1709 2553 
Q 1456 2553 1204 2497 
Q 953 2441 691 2322 
L 691 4666 
z
" transform="scale(0.015625)"/>
       </defs>
       <use xlink:href="#DejaVuSans-32"/>
       <use xlink:href="#DejaVuSans-30" transform="translate(63.623047 0)"/>
       <use xlink:href="#DejaVuSans-32" transform="translate(127.246094 0)"/>
       <use xlink:href="#DejaVuSans-35" transform="translate(190.869141 0)"/>
       <use xlink:href="#DejaVuSans-2d" transform="translate(254.492188 0)"/>
       <use xlink:href="#DejaVuSans-30" transform="translate(290.576172 0)"/>
       <use xlink:href="#DejaVuSans-31" transform="translate(354.199219 0)"/>
      </g>
     </g>
    </g>
    <g id="xtick_9">
     <g id="line2d_17">
      <path d="M 675.790457 320.4 
L 675.790457 43.2 
" clip-path="url(#p042e253f9d)" style="fill: none; stroke-dasharray: 5.12,1.28,0.8,1.28; stroke-dashoffset: 0; stroke: #b0b0b0; stroke-width: 0.8"/>
     </g>
     <g id="line2d_18">
      <g>
       <use xlink:href="#mf07c1c3ee1" x="675.790457" y="320.4" style="fill: #a9a9a9; stroke: #a9a9a9; stroke-width: 0.8"/>
      </g>
     </g>
     <g id="text_9">
      <!-- 2025-07 -->
      <g style="fill: #a9a9a9" transform="translate(654.899051 334.998438) scale(0.1 -0.1)">
       <use xlink:href="#DejaVuSans-32"/>
       <use xlink:href="#DejaVuSans-30" transform="translate(63.623047 0)"/>
       <use xlink:href="#DejaVuSans-32" transform="translate(127.246094 0)"/>
       <use xlink:href="#DejaVuSans-35" transform="translate(190.869141 0)"/>
       <use xlink:href="#DejaVuSans-2d" transform="translate(254.492188 0)"/>
       <use xlink:href="#DejaVuSans-30" transform="translate(290.576172 0)"/>
       <use xlink:href="#DejaVuSans-37" transform="translate(354.199219 0)"/>
      </g>
     </g>
    </g>
    <g id="xtick_10">
     <g id="line2d_19">
      <path d="M 744.547865 320.4 
L 744.547865 43.2 
" clip-path="url(#p042e253f9d)" style="fill: none; stroke-dasharray: 5.12,1.28,0.8,1.28; stroke-dashoffset: 0; stroke: #b0b0b0; stroke-width: 0.8"/>
     </g>
     <g id="line2d_20">
      <g>
       <use xlink:href="#mf07c1c3ee1" x="744.547865" y="320.4" style="fill: #a9a9a9; stroke: #a9a9a9; stroke-width: 0.8"/>
      </g>
     </g>
     <g id="text_10">
      <!-- 2026-01 -->
      <g style="fill: #a9a9a9" transform="translate(723.656459 334.998438) scale(0.1 -0.1)">
       <defs>
        <path id="DejaVuSans-36" d="M 2113 2584 
Q 1688 2584 1439 2293 
Q 1191 2003 1191 1497 
Q 1191 994 1439 701 
Q 1688 409 2113 409 
Q 2538 409 2786 701 
Q 3034 994 3034 1497 
Q 3034 2003 2786 2293 
Q 2538 2584 2113 2584 
z
M 3366 4563 
L 3366 3988 
Q 3128 4100 2886 4159 
Q 2644 4219 2406 4219 
Q 1781 4219 1451 3797 
Q 1122 3375 1075 2522 
Q 1259 2794 1537 2939 
Q 1816 3084 2150 3084 
Q 2853 3084 3261 2657 
Q 3669 2231 3669 1497 
Q 3669 778 3244 343 
Q 2819 -91 2113 -91 
Q 1303 -91 875 529 
Q 447 1150 447 2328 
Q 447 3434 972 4092 
Q 1497 4750 2381 4750 
Q 2619 4750 2861 4703 
Q 3103 4656 3366 4563 
z
" transform="scale(0.015625)"/>
       </defs>
       <use xlink:href="#DejaVuSans-32"/>
       <use xlink:href="#DejaVuSans-30" transform="translate(63.623047 0)"/>
       <use xlink:href="#DejaVuSans-32" transform="translate(127.246094 0)"/>
       <use xlink:href="#DejaVuSans-36" transform="translate(190.869141 0)"/>
       <use xlink:href="#DejaVuSans-2d" transform="translate(254.492188 0)"/>
       <use xlink:href="#DejaVuSans-30" transform="translate(290.576172 0)"/>
       <use xlink:href="#DejaVuSans-31" transform="translate(354.199219 0)"/>
      </g>
     </g>
    </g>
   </g>
   <g id="matplotlib.axis_2">
    <g id="ytick_1">
     <g id="line2d_21">
      <path d="M 108 307.829505 
L 777.6 307.829505 
" clip-path="url(#p042e253f9d)" style="fill: none; stroke-dasharray: 5.12,1.28,0.8,1.28; stroke-dashoffset: 0; stroke: #b0b0b0; stroke-width: 0.8"/>
     </g>
     <g id="line2d_22">
      <defs>
       <path id="mc94f54ff47" d="M 0 0 
L -3.5 0 
" style="stroke: #a9a9a9; stroke-width: 0.8"/>
      </defs>
      <g>
       <use xlink:href="#mc94f54ff47" x="108" y="307.829505" style="fill: #a9a9a9; stroke: #a9a9a9; stroke-width: 0.8"/>
      </g>
     </g>
     <g id="text_11">
      <!-- 0 -->
      <g style="fill: #a9a9a9" transform="translate(94.6375 311.628723) scale(0.1 -0.1)">
       <use xlink:href="#DejaVuSans-30"/>
      </g>
     </g>
    </g>
    <g id="ytick_2">
     <g id="line2d_23">
      <path d="M 108 278.324763 
L 777.6 278.324763 
" clip-path="url(#p042e253f9d)" style="fill: none; stroke-dasharray: 5.12,1.28,0.8,1.28; stroke-dashoffset: 0; stroke: #b0b0b0; stroke-width: 0.8"/>
     </g>
     <g id="line2d_24">
      <g>
       <use xlink:href="#mc94f54ff47" x="108" y="278.324763" style="fill: #a9a9a9; stroke: #a9a9a9; stroke-width: 0.8"/>
      </g>
     </g>
     <g id="text_12">
      <!-- 1000 -->
      <g style="fill: #a9a9a9" transform="translate(75.55 282.123982) scale(0.1 -0.1)">
       <use xlink:href="#DejaVuSans-31"/>
       <use xlink:href="#DejaVuSans-30" transform="translate(63.623047 0)"/>
       <use xlink:href="#DejaVuSans-30" transform="translate(127.246094 0)"/>
       <use xlink:href="#DejaVuSans-30" transform="translate(190.869141 0)"/>
      </g>
     </g>
    </g>
    <g id="ytick_3">
     <g id="line2d_25">
      <path d="M 108 248.820021 
L 777.6 248.820021 
" clip-path="url(#p042e253f9d)" style="fill: none; stroke-dasharray: 5.12,1.28,0.8,1.28; stroke-dashoffset: 0; stroke: #b0b0b0; stroke-width: 0.8"/>
     </g>
     <g id="line2d_26">
      <g>
       <use xlink:href="#mc94f54ff47" x="108" y="248.820021" style="fill: #a9a9a9; stroke: #a9a9a9; stroke-width: 0.8"/>
      </g>
     </g>
     <g id="text_13">
      <!-- 2000 -->
      <g style="fill: #a9a9a9" transform="translate(75.55 252.61924) scale(0.1 -0.1)">
       <use xlink:href="#DejaVuSans-32"/>
       <use xlink:href="#DejaVuSans-30" transform="translate(63.623047 0)"/>
       <use xlink:href="#DejaVuSans-30" transform="translate(127.246094 0)"/>
       <use xlink:href="#DejaVuSans-30" transform="translate(190.869141 0)"/>
      </g>
     </g>
    </g>
    <g id="ytick_4">
     <g id="line2d_27">
      <path d="M 108 219.315279 
L 777.6 219.315279 
" clip-path="url(#p042e253f9d)" style="fill: none; stroke-dasharray: 5.12,1.28,0.8,1.28; stroke-dashoffset: 0; stroke: #b0b0b0; stroke-width: 0.8"/>
     </g>
     <g id="line2d_28">
      <g>
       <use xlink:href="#mc94f54ff47" x="108" y="219.315279" style="fill: #a9a9a9; stroke: #a9a9a9; stroke-width: 0.8"/>
      </g>
     </g>
     <g id="text_14">
      <!-- 3000 -->
      <g style="fill: #a9a9a9" transform="translate(75.55 223.114498) scale(0.1 -0.1)">
       <use xlink:href="#DejaVuSans-33"/>
       <use xlink:href="#DejaVuSans-30" transform="translate(63.623047 0)"/>
       <use xlink:href="#DejaVuSans-30" transform="translate(127.246094 0)"/>
       <use xlink:href="#DejaVuSans-30" transform="translate(190.869141 0)"/>
      </g>
     </g>
    </g>
    <g id="ytick_5">
     <g id="line2d_29">
      <path d="M 108 189.810537 
L 777.6 189.810537 
" clip-path="url(#p042e253f9d)" style="fill: none; stroke-dasharray: 5.12,1.28,0.8,1.28; stroke-dashoffset: 0; stroke: #b0b0b0; stroke-width: 0.8"/>
     </g>
     <g id="line2d_30">
      <g>
       <use xlink:href="#mc94f54ff47" x="108" y="189.810537" style="fill: #a9a9a9; stroke: #a9a9a9; stroke-width: 0.8"/>
      </g>
     </g>
     <g id="text_15">
      <!-- 4000 -->
      <g style="fill: #a9a9a9" transform="translate(75.55 193.609756) scale(0.1 -0.1)">
       <use xlink:href="#DejaVuSans-34"/>
       <use xlink:href="#DejaVuSans-30" transform="translate(63.623047 0)"/>
       <use xlink:href="#DejaVuSans-30" transform="translate(127.246094 0)"/>
       <use xlink:href="#DejaVuSans-30" transform="translate(190.869141 0)"/>
      </g>
     </g>
    </g>
    <g id="ytick_6">
     <g id="line2d_31">
      <path d="M 108 160.305796 
L 777.6 160.305796 
" clip-path="url(#p042e253f9d)" style="fill: none; stroke-dasharray: 5.12,1.28,0.8,1.28; stroke-dashoffset: 0; stroke: #b0b0b0; stroke-width: 0.8"/>
     </g>
     <g id="line2d_32">
      <g>
       <use xlink:href="#mc94f54ff47" x="108" y="160.305796" style="fill: #a9a9a9; stroke: #a9a9a9; stroke-width: 0.8"/>
      </g>
     </g>
     <g id="text_16">
      <!-- 5000 -->
      <g style="fill: #a9a9a9" transform="translate(75.55 164.105014) scale(0.1 -0.1)">
       <use xlink:href="#DejaVuSans-35"/>
       <use xlink:href="#DejaVuSans-30" transform="translate(63.623047 0)"/>
       <use xlink:href="#DejaVuSans-30" transform="translate(127.246094 0)"/>
       <use xlink:href="#DejaVuSans-30" transform="translate(190.869141 0)"/>
      </g>
     </g>
    </g>
    <g id="ytick_7">
     <g id="line2d_33">
      <path d="M 108 130.801054 
L 777.6 130.801054 
" clip-path="url(#p042e253f9d)" style="fill: none; stroke-dasharray: 5.12,1.28,0.8,1.28; stroke-dashoffset: 0; stroke: #b0b0b0; stroke-width: 0.8"/>
     </g>
     <g id="line2d_34">
      <g>
       <use xlink:href="#mc94f54ff47" x="108" y="130.801054" style="fill: #a9a9a9; stroke: #a9a9a9; stroke-width: 0.8"/>
      </g>
     </g>
     <g id="text_17">
      <!-- 6000 -->
      <g style="fill: #a9a9a9" transform="translate(75.55 134.600272) scale(0.1 -0.1)">
       <use xlink:href="#DejaVuSans-36"/>
       <use xlink:href="#DejaVuSans-30" transform="translate(63.623047 0)"/>
       <use xlink:href="#DejaVuSans-30" transform="translate(127.246094 0)"/>
       <use xlink:href="#DejaVuSans-30" transform="translate(190.869141 0)"/>
      </g>
     </g>
    </g>
    <g id="ytick_8">
     <g id="line2d_35">
      <path d="M 108 101.296312 
L 777.6 101.296312 
" clip-path="url(#p042e253f9d)" style="fill: none; stroke-dasharray: 5.12,1.28,0.8,1.28; stroke-dashoffset: 0; stroke: #b0b0b0; stroke-width: 0.8"/>
     </g>
     <g id="line2d_36">
      <g>
       <use xlink:href="#mc94f54ff47" x="108" y="101.296312" style="fill: #a9a9a9; stroke: #a9a9a9; stroke-width: 0.8"/>
      </g>
     </g>
     <g id="text_18">
      <!-- 7000 -->
      <g style="fill: #a9a9a9" transform="translate(75.55 105.095531) scale(0.1 -0.1)">
       <use xlink:href="#DejaVuSans-37"/>
       <use xlink:href="#DejaVuSans-30" transform="translate(63.623047 0)"/>
       <use xlink:href="#DejaVuSans-30" transform="translate(127.246094 0)"/>
       <use xlink:href="#DejaVuSans-30" transform="translate(190.869141 0)"/>
      </g>
     </g>
    </g>
    <g id="ytick_9">
     <g id="line2d_37">
      <path d="M 108 71.79157 
L 777.6 71.79157 
" clip-path="url(#p042e253f9d)" style="fill: none; stroke-dasharray: 5.12,1.28,0.8,1.28; stroke-dashoffset: 0; stroke: #b0b0b0; stroke-width: 0.8"/>
     </g>
     <g id="line2d_38">
      <g>
       <use xlink:href="#mc94f54ff47" x="108" y="71.79157" style="fill: #a9a9a9; stroke: #a9a9a9; stroke-width: 0.8"/>
      </g>
     </g>
     <g id="text_19">
      <!-- 8000 -->
      <g style="fill: #a9a9a9" transform="translate(75.55 75.590789) scale(0.1 -0.1)">
       <defs>
        <path id="DejaVuSans-38" d="M 2034 2216 
Q 1584 2216 1326 1975 
Q 1069 1734 1069 1313 
Q 1069 891 1326 650 
Q 1584 409 2034 409 
Q 2484 409 2743 651 
Q 3003 894 3003 1313 
Q 3003 1734 2745 1975 
Q 2488 2216 2034 2216 
z
M 1403 2484 
Q 997 2584 770 2862 
Q 544 3141 544 3541 
Q 544 4100 942 4425 
Q 1341 4750 2034 4750 
Q 2731 4750 3128 4425 
Q 3525 4100 3525 3541 
Q 3525 3141 3298 2862 
Q 3072 2584 2669 2484 
Q 3125 2378 3379 2068 
Q 3634 1759 3634 1313 
Q 3634 634 3220 271 
Q 2806 -91 2034 -91 
Q 1263 -91 848 271 
Q 434 634 434 1313 
Q 434 1759 690 2068 
Q 947 2378 1403 2484 
z
M 1172 3481 
Q 1172 3119 1398 2916 
Q 1625 2713 2034 2713 
Q 2441 2713 2670 2916 
Q 2900 3119 2900 3481 
Q 2900 3844 2670 4047 
Q 2441 4250 2034 4250 
Q 1625 4250 1398 4047 
Q 1172 3844 1172 3481 
z
" transform="scale(0.015625)"/>
       </defs>
       <use xlink:href="#DejaVuSans-38"/>
       <use xlink:href="#DejaVuSans-30" transform="translate(63.623047 0)"/>
       <use xlink:href="#DejaVuSans-30" transform="translate(127.246094 0)"/>
       <use xlink:href="#DejaVuSans-30" transform="translate(190.869141 0)"/>
      </g>
     </g>
    </g>
   </g>
   <g id="line2d_39">
    <path d="M 138.436364 307.740991 
L 140.678453 307.534457 
L 141.052135 307.357429 
L 142.546861 307.150896 
L 144.041587 306.826344 
L 144.78895 306.708325 
L 146.657358 306.531296 
L 147.404721 306.236249 
L 147.778403 305.705163 
L 148.152084 305.439621 
L 148.525766 304.554478 
L 148.899448 304.495469 
L 149.646811 304.023393 
L 150.394174 303.462803 
L 151.8889 302.341623 
L 152.262582 302.194099 
L 153.009945 301.722023 
L 154.130989 301.161433 
L 154.504671 300.512329 
L 155.252034 299.922234 
L 155.999397 299.686196 
L 157.120442 299.509168 
L 159.362531 299.155111 
L 159.736213 298.978082 
L 162.351984 298.742044 
L 163.84671 298.358483 
L 166.836163 297.915911 
L 167.209844 297.709378 
L 167.583526 297.650369 
L 168.330889 297.384826 
L 170.94666 296.91275 
L 171.694023 296.676712 
L 175.057157 296.086617 
L 175.80452 295.909589 
L 177.299247 295.703056 
L 178.04661 295.467018 
L 178.420291 294.906428 
L 179.541336 294.434352 
L 180.662381 294.1098 
L 181.036062 293.903267 
L 181.783425 293.755743 
L 183.278152 293.283667 
L 184.025515 293.224658 
L 184.772878 293.018124 
L 186.267604 292.605058 
L 186.641286 292.575553 
L 187.388649 292.191992 
L 187.76233 292.132982 
L 188.136012 291.926449 
L 192.246509 291.218335 
L 193.741236 290.746259 
L 194.114917 290.480717 
L 195.983325 289.831612 
L 196.730688 289.271022 
L 197.851733 289.034984 
L 202.709593 287.559747 
L 203.083275 287.500738 
L 204.578001 286.881138 
L 204.951683 286.822129 
L 205.699046 286.497576 
L 206.446409 286.468072 
L 207.567454 286.114015 
L 207.941135 286.114015 
L 208.314817 285.936986 
L 209.06218 285.848472 
L 209.435861 285.700948 
L 211.304269 285.612434 
L 211.677951 285.52392 
L 212.425314 285.110854 
L 213.546359 284.697787 
L 214.293722 284.284721 
L 215.414766 283.78314 
L 216.909493 283.016017 
L 217.283174 282.573446 
L 218.030537 281.334247 
L 218.404219 281.216228 
L 218.777901 281.216228 
L 220.272627 280.36059 
L 220.646308 280.272076 
L 221.01999 279.888514 
L 221.767353 279.563962 
L 222.514716 279.209905 
L 224.756806 276.524974 
L 225.130487 276.406955 
L 226.998895 275.108746 
L 227.746258 274.577661 
L 228.11994 274.017071 
L 228.493621 273.102424 
L 228.867303 272.512329 
L 229.240984 272.187777 
L 229.614666 272.010748 
L 234.098845 267.85058 
L 235.593571 266.906428 
L 236.340934 266.493361 
L 237.83566 265.637724 
L 239.704068 263.80843 
L 240.451431 263.483878 
L 241.198795 262.952792 
L 241.572476 262.716754 
L 241.946158 262.657745 
L 243.067202 261.979136 
L 243.440884 261.536565 
L 245.309292 260.444889 
L 245.682973 260.297366 
L 246.804018 259.471233 
L 252.409242 257.346891 
L 253.156605 256.609273 
L 254.277649 256.019178 
L 255.025013 255.517597 
L 255.772376 255.28156 
L 256.146057 255.016017 
L 256.519739 254.897998 
L 257.640784 254.10137 
L 259.509191 253.658799 
L 260.630236 252.950685 
L 261.751281 252.685142 
L 262.124962 252.596628 
L 263.246007 251.770495 
L 264.740733 251.327924 
L 265.114415 251.032877 
L 267.356504 250.206744 
L 268.103867 250.05922 
L 268.851231 249.734668 
L 271.467002 248.731507 
L 272.214365 248.642993 
L 273.335409 248.229926 
L 275.203817 247.25627 
L 277.445907 245.928556 
L 278.19327 245.722023 
L 279.314314 245.131928 
L 280.061678 244.984405 
L 280.809041 244.512329 
L 281.556404 244.305796 
L 282.677449 243.83372 
L 284.172175 243.627187 
L 284.919538 243.21412 
L 285.293219 242.860063 
L 285.666901 242.151949 
L 287.161627 241.709378 
L 288.656354 241.001264 
L 292.019488 239.437513 
L 292.766851 239.260485 
L 293.887896 238.67039 
L 294.261577 238.61138 
L 296.129985 237.637724 
L 296.877348 237.136143 
L 297.998393 236.900105 
L 300.614164 236.014963 
L 306.593069 233.153003 
L 306.96675 232.739937 
L 307.340432 232.503899 
L 307.714114 232.415385 
L 308.461477 231.76628 
L 308.835158 231.707271 
L 309.20884 231.058166 
L 309.582521 230.910643 
L 309.956203 230.586091 
L 310.329884 230.527081 
L 311.077248 230.025501 
L 311.824611 229.759958 
L 312.198292 229.46491 
L 312.945655 229.051844 
L 314.0667 228.34373 
L 315.187745 227.753635 
L 315.935108 227.547102 
L 316.682471 227.104531 
L 317.056153 226.425922 
L 317.803516 225.835827 
L 318.177197 225.747313 
L 320.419287 224.626133 
L 321.16665 224.301581 
L 321.914013 223.740991 
L 322.661376 222.944362 
L 324.529784 221.49863 
L 325.277147 220.879031 
L 325.650829 220.702002 
L 326.398192 219.905374 
L 327.519237 219.344784 
L 328.2666 218.902213 
L 328.640281 218.784194 
L 329.013963 218.489146 
L 329.387644 218.430137 
L 332.750779 216.659852 
L 333.498142 216.453319 
L 334.992868 215.922234 
L 335.366549 215.597682 
L 336.861276 214.978082 
L 337.234957 214.860063 
L 337.98232 214.358483 
L 338.729684 214.03393 
L 339.477047 213.47334 
L 340.22441 211.909589 
L 340.971773 211.024447 
L 342.092818 210.404847 
L 342.840181 210.080295 
L 343.213862 210.021286 
L 343.961226 209.667229 
L 345.455952 209.136143 
L 346.203315 208.693572 
L 346.950678 208.339515 
L 347.32436 208.221496 
L 349.566449 206.805269 
L 349.940131 206.362698 
L 351.061175 205.684089 
L 351.434857 205.536565 
L 352.18222 205.064489 
L 353.676946 204.208851 
L 354.050628 204.120337 
L 354.424309 203.795785 
L 357.04008 202.910643 
L 357.413762 202.6451 
L 358.161125 202.409062 
L 361.150578 200.933825 
L 361.897941 200.520759 
L 362.271622 200.34373 
L 363.018985 199.724131 
L 363.766349 199.517597 
L 364.14003 199.163541 
L 364.513712 199.104531 
L 365.261075 198.514436 
L 367.129483 197.363751 
L 367.876846 197.127713 
L 368.250527 196.891675 
L 368.624209 196.832666 
L 370.118935 196.095047 
L 371.23998 195.711486 
L 371.987343 195.593467 
L 373.482069 195.003372 
L 373.855751 194.973867 
L 375.724159 194.11823 
L 376.471522 193.587144 
L 377.218885 193.174078 
L 378.713611 192.436459 
L 379.834656 191.669336 
L 380.582019 191.492308 
L 381.703064 190.784194 
L 382.824108 190.371128 
L 383.571472 190.105585 
L 385.066198 189.574499 
L 385.813561 189.308957 
L 387.308287 188.984405 
L 388.05565 188.748367 
L 389.924058 188.099262 
L 391.045103 187.745205 
L 391.792466 187.568177 
L 394.034555 187.155111 
L 394.781919 187.007587 
L 395.902963 186.742044 
L 396.276645 186.565016 
L 397.024008 186.417492 
L 397.771371 186.210959 
L 398.518734 185.856902 
L 398.892416 185.709378 
L 399.266097 185.709378 
L 403.376595 184.381665 
L 403.750276 184.175132 
L 404.123958 184.175132 
L 404.871321 183.880084 
L 405.245003 183.467018 
L 407.487092 182.493361 
L 408.981818 181.962276 
L 409.3555 181.726238 
L 410.476544 181.372181 
L 411.223908 181.165648 
L 411.597589 180.900105 
L 411.971271 180.811591 
L 412.344952 180.487039 
L 413.465997 180.251001 
L 414.21336 179.896944 
L 414.587042 179.424868 
L 418.697539 178.480717 
L 419.07122 178.480717 
L 419.818584 178.244679 
L 423.181718 177.389041 
L 423.929081 177.212013 
L 427.665897 176.120337 
L 428.039578 176.031823 
L 428.41326 175.82529 
L 429.160623 175.618757 
L 429.907986 175.294204 
L 430.655349 174.999157 
L 431.029031 174.733614 
L 431.776394 174.497576 
L 434.765846 173.435406 
L 435.513209 173.376396 
L 437.007936 172.933825 
L 437.381617 172.697787 
L 438.12898 172.461749 
L 440.37107 171.517597 
L 444.855249 169.865332 
L 446.723656 169.216228 
L 447.47102 168.98019 
L 448.218383 168.773656 
L 449.713109 167.504953 
L 452.32888 166.354268 
L 454.944651 165.203583 
L 455.692014 164.99705 
L 459.055148 163.315279 
L 459.802511 162.872708 
L 463.165645 161.220443 
L 463.539327 160.925395 
L 468.023506 159.21412 
L 468.770869 159.096101 
L 469.14455 158.830558 
L 470.639277 158.535511 
L 471.38664 158.210959 
L 473.255048 157.296312 
L 478.112908 155.083456 
L 479.233953 154.699895 
L 479.607634 154.434352 
L 480.354997 154.345838 
L 480.728679 154.080295 
L 481.476042 153.962276 
L 486.333903 152.162487 
L 487.454947 151.896944 
L 488.949674 151.24784 
L 489.697037 150.834773 
L 491.191763 150.038145 
L 491.939126 149.861117 
L 492.312808 149.625079 
L 492.686489 149.536565 
L 494.554897 148.592413 
L 499.412757 146.733614 
L 499.786439 146.674605 
L 501.281165 145.936986 
L 502.028528 145.789463 
L 502.775892 145.346891 
L 504.270618 144.609273 
L 510.996886 141.983351 
L 512.491612 140.685142 
L 512.865294 140.567123 
L 513.238975 140.331085 
L 514.36002 140.006533 
L 514.733702 139.711486 
L 515.481065 139.445943 
L 516.602109 138.67882 
L 517.349473 138.472287 
L 518.096836 138.05922 
L 519.21788 137.793678 
L 525.196786 135.315279 
L 527.065193 134.548156 
L 528.933601 133.958061 
L 530.054646 133.220443 
L 530.428327 133.131928 
L 531.175691 132.748367 
L 531.923054 132.512329 
L 532.296735 132.158272 
L 533.41778 131.715701 
L 533.791462 131.656691 
L 535.286188 130.948577 
L 536.407233 130.594521 
L 537.528277 130.181454 
L 538.649322 129.856902 
L 539.023004 129.797893 
L 539.770367 129.384826 
L 540.144048 129.237302 
L 540.51773 128.942255 
L 541.638774 128.647208 
L 542.386138 128.35216 
L 543.133501 128.027608 
L 544.628227 127.408008 
L 547.243998 126.699895 
L 547.991361 126.404847 
L 549.486087 126.1098 
L 550.233451 125.962276 
L 551.354495 125.519705 
L 552.47554 125.283667 
L 554.717629 123.926449 
L 555.838674 123.24784 
L 558.080763 122.539726 
L 558.454445 122.244679 
L 561.443898 121.153003 
L 562.564942 120.798946 
L 563.312305 120.38588 
L 564.059669 120.179347 
L 564.43335 119.972813 
L 565.180713 119.82529 
L 566.675439 119.235195 
L 567.422803 118.733614 
L 568.543847 118.438567 
L 569.664892 117.671444 
L 570.038574 117.612434 
L 571.5333 116.992835 
L 573.028026 116.609273 
L 573.401708 116.550263 
L 573.775389 116.373235 
L 574.522752 116.225711 
L 577.885886 115.193045 
L 578.63325 114.60295 
L 580.127976 113.747313 
L 580.501657 113.658799 
L 580.875339 113.452266 
L 581.249021 113.393256 
L 584.612155 111.711486 
L 584.985836 111.386934 
L 586.854244 110.914858 
L 587.975289 110.413277 
L 588.722652 110.206744 
L 589.096334 110.029715 
L 589.470015 109.705163 
L 591.338423 109.026554 
L 596.196283 107.19726 
L 596.943646 107.049737 
L 598.812054 106.430137 
L 599.933099 105.928556 
L 602.54887 105.131928 
L 603.296233 104.689357 
L 616.001406 100.765227 
L 616.748769 100.558693 
L 617.869814 100.145627 
L 618.243496 100.145627 
L 619.36454 99.880084 
L 620.111904 99.732561 
L 620.859267 99.526027 
L 621.980311 98.906428 
L 623.101356 98.552371 
L 625.717127 97.667229 
L 627.211853 96.900105 
L 628.332898 96.634563 
L 629.080261 96.398525 
L 629.827624 96.014963 
L 630.201306 95.690411 
L 630.948669 95.454373 
L 631.322351 95.218335 
L 632.069714 95.129821 
L 634.685485 94.362698 
L 635.806529 94.12666 
L 636.927574 93.831612 
L 637.674937 93.654584 
L 638.795982 93.064489 
L 643.653842 91.20569 
L 644.401205 91.087671 
L 645.148569 90.940148 
L 645.52225 90.940148 
L 646.643295 90.586091 
L 647.76434 90.232034 
L 651.127474 89.258377 
L 651.501155 89.228872 
L 653.369563 88.609273 
L 654.116926 88.520759 
L 654.490608 88.314226 
L 654.864289 88.284721 
L 655.985334 87.753635 
L 657.106379 87.488093 
L 657.853742 87.163541 
L 660.095831 86.366913 
L 660.469513 86.307903 
L 661.216876 86.04236 
L 665.701055 84.891675 
L 667.943144 84.124552 
L 668.690507 84.065543 
L 670.932597 83.504953 
L 671.67996 83.1804 
L 672.053641 83.121391 
L 672.427323 82.944362 
L 673.174686 82.295258 
L 676.911502 80.908535 
L 679.153591 80.31844 
L 679.900954 79.905374 
L 680.274636 79.81686 
L 681.395681 79.19726 
L 681.769362 79.108746 
L 682.143044 78.813699 
L 683.264088 78.489146 
L 689.242993 75.77471 
L 689.616675 75.715701 
L 691.858764 74.565016 
L 692.232446 74.328978 
L 693.353491 74.004426 
L 694.848217 73.384826 
L 695.221899 73.355321 
L 697.090306 72.647208 
L 697.83767 72.499684 
L 698.585033 71.939094 
L 698.958714 71.939094 
L 700.45344 71.408008 
L 701.948167 71.112961 
L 703.442893 70.463857 
L 703.816575 70.463857 
L 704.937619 70.080295 
L 705.684982 69.962276 
L 706.806027 69.313172 
L 707.55339 68.92961 
L 709.421798 68.310011 
L 710.169161 67.985458 
L 712.037569 67.483878 
L 714.279658 66.864278 
L 718.763837 65.536565 
L 721.75329 64.769442 
L 723.621698 63.943309 
L 726.984832 63.20569 
L 727.732195 63.087671 
L 728.85324 62.6451 
L 729.974284 62.232034 
L 730.721647 62.114015 
L 732.216374 61.612434 
L 732.590055 61.612434 
L 732.963737 61.317387 
L 733.7111 61.081349 
L 734.084782 61.081349 
L 737.447916 59.960169 
L 738.942642 59.311064 
L 739.316323 59.252055 
L 740.063687 58.897998 
L 740.81105 58.573446 
L 741.558413 58.248894 
L 742.305776 57.953846 
L 742.679458 57.717808 
L 743.053139 57.658799 
L 743.800502 57.275237 
L 744.547865 57.039199 
L 745.66891 56.449104 
L 746.416273 56.183562 
L 746.789955 55.918019 
L 747.163636 55.8 
L 747.163636 55.8 
" clip-path="url(#p042e253f9d)" style="fill: none; stroke: #1f77b4; stroke-width: 1.5; stroke-linecap: square"/>
   </g>
   <g id="line2d_40">
    <path d="M 138.810045 307.8 
L 142.173179 307.711486 
L 145.162632 307.563962 
L 146.657358 307.563962 
L 147.03104 307.445943 
L 148.899448 307.357429 
L 151.141537 307.091886 
L 153.383626 307.003372 
L 154.130989 306.914858 
L 156.74676 306.796839 
L 159.362531 306.708325 
L 161.230939 306.649315 
L 166.0888 306.560801 
L 167.957207 306.501791 
L 171.320342 306.413277 
L 172.815068 306.383772 
L 176.551883 306.295258 
L 178.04661 306.147734 
L 179.541336 306.11823 
L 181.783425 306.029715 
L 183.278152 306.000211 
L 185.14656 305.941201 
L 186.641286 305.793678 
L 190.00442 305.705163 
L 190.751783 305.646154 
L 192.246509 305.55764 
L 194.488599 305.469125 
L 195.983325 305.380611 
L 202.709593 304.93804 
L 205.325364 304.849526 
L 206.446409 304.731507 
L 208.314817 304.642993 
L 212.051632 304.436459 
L 215.788448 304.37745 
L 217.283174 304.200421 
L 219.151582 304.111907 
L 222.888398 303.728346 
L 225.130487 303.433298 
L 226.625213 303.374289 
L 229.614666 302.961222 
L 231.856755 302.902213 
L 232.9778 302.784194 
L 234.098845 302.69568 
L 253.530286 301.249947 
L 256.146057 301.161433 
L 257.640784 300.984405 
L 259.509191 300.89589 
L 261.751281 300.807376 
L 263.619689 300.718862 
L 265.114415 300.689357 
L 266.982823 300.630348 
L 267.730186 300.541834 
L 272.961728 300.453319 
L 273.709091 300.364805 
L 278.19327 300.276291 
L 281.556404 300.099262 
L 284.172175 300.010748 
L 285.666901 299.83372 
L 288.282672 299.745205 
L 289.030035 299.627187 
L 290.898443 299.568177 
L 294.635259 299.509168 
L 296.129985 299.361644 
L 297.624711 299.332139 
L 298.745756 299.243625 
L 300.240482 299.096101 
L 303.977298 298.889568 
L 307.714114 298.801054 
L 311.077248 298.624025 
L 312.198292 298.594521 
L 312.945655 298.476502 
L 314.814063 298.387987 
L 315.561426 298.328978 
L 317.429834 298.240464 
L 318.924561 298.210959 
L 321.540331 298.122445 
L 331.256052 297.443836 
L 333.498142 297.355321 
L 335.366549 297.296312 
L 340.598091 297.207798 
L 341.345455 297.119283 
L 346.576996 297.030769 
L 350.313812 296.824236 
L 351.061175 296.794731 
L 351.808538 296.706217 
L 353.676946 296.617703 
L 355.545354 296.558693 
L 357.413762 296.470179 
L 359.28217 296.41117 
L 362.645304 296.322655 
L 364.887393 296.234141 
L 370.118935 296.145627 
L 374.229432 295.909589 
L 375.724159 295.85058 
L 376.845203 295.762065 
L 382.076745 295.673551 
L 384.318835 295.585037 
L 391.045103 295.496523 
L 392.539829 295.467018 
L 397.024008 295.408008 
L 397.771371 295.348999 
L 403.002913 295.260485 
L 404.497639 295.23098 
L 414.21336 295.142466 
L 416.45545 295.053952 
L 432.150075 294.965437 
L 434.018483 294.906428 
L 443.734204 294.847418 
L 444.481567 294.788409 
L 446.349975 294.729399 
L 447.47102 294.61138 
L 449.713109 294.522866 
L 452.32888 294.404847 
L 455.692014 294.316333 
L 457.560422 294.257323 
L 460.176193 294.168809 
L 463.165645 294.021286 
L 465.034053 293.932771 
L 466.52878 293.903267 
L 472.881366 293.814752 
L 475.123456 293.726238 
L 479.233953 293.637724 
L 481.849724 293.519705 
L 484.465495 293.460695 
L 485.212858 293.401686 
L 494.181215 293.313172 
L 497.918031 293.106639 
L 500.533802 293.018124 
L 504.644299 292.782086 
L 507.26007 292.693572 
L 508.754797 292.664067 
L 511.370568 292.575553 
L 513.238975 292.36902 
L 516.975791 292.280506 
L 517.723154 292.191992 
L 521.45997 292.103477 
L 523.328378 292.044468 
L 527.438875 292.014963 
L 528.186238 291.926449 
L 532.296735 291.837935 
L 533.044098 291.778925 
L 541.265093 291.690411 
L 543.507182 291.601897 
L 549.112406 291.513383 
L 550.607132 291.483878 
L 553.970266 291.424868 
L 554.717629 291.336354 
L 559.57549 291.24784 
L 561.443898 291.18883 
L 568.170166 291.100316 
L 569.29121 291.011802 
L 570.412255 290.923288 
L 571.5333 290.834773 
L 577.138523 290.746259 
L 579.380613 290.657745 
L 590.217378 290.569231 
L 593.580512 290.392202 
L 598.812054 290.303688 
L 600.306781 290.274183 
L 604.790959 290.185669 
L 606.659367 290.12666 
L 614.50668 290.038145 
L 617.122451 289.920126 
L 623.848719 289.831612 
L 625.343446 289.802107 
L 629.080261 289.713593 
L 631.696032 289.595574 
L 635.806529 289.50706 
L 638.4223 289.389041 
L 641.785434 289.330032 
L 642.532798 289.271022 
L 650.753792 289.182508 
L 652.995881 289.093994 
L 655.611652 289.005479 
L 657.48006 288.94647 
L 668.316826 288.857956 
L 670.558915 288.769442 
L 676.53782 288.680927 
L 678.77991 288.592413 
L 683.63777 288.503899 
L 685.879859 288.415385 
L 688.869312 288.32687 
L 691.111401 288.238356 
L 706.058664 288.149842 
L 709.048117 288.002318 
L 717.642793 287.913804 
L 719.137519 287.884299 
L 728.105876 287.795785 
L 729.974284 287.736776 
L 741.932094 287.648261 
L 743.426821 287.618757 
L 747.163636 287.559747 
L 747.163636 287.559747 
" clip-path="url(#p042e253f9d)" style="fill: none; stroke: #ff7f0e; stroke-width: 1.5; stroke-linecap: square"/>
   </g>
   <g id="patch_3">
    <path d="M 108 320.4 
L 108 43.2 
" style="fill: none; stroke: #a9a9a9; stroke-width: 0.8; stroke-linejoin: miter; stroke-linecap: square"/>
   </g>
   <g id="patch_4">
    <path d="M 777.6 320.4 
L 777.6 43.2 
" style="fill: none"/>
   </g>
   <g id="patch_5">
    <path d="M 108 320.4 
L 777.6 320.4 
" style="fill: none; stroke: #a9a9a9; stroke-width: 0.8; stroke-linejoin: miter; stroke-linecap: square"/>
   </g>
   <g id="patch_6">
    <path d="M 108 43.2 
L 777.6 43.2 
" style="fill: none"/>
   </g>
   <g id="text_20">
    <!-- get_subscribe history -->
    <g style="fill: #a9a9a9" transform="translate(378.6075 37.2) scale(0.12 -0.12)">
     <defs>
      <path id="DejaVuSans-67" d="M 2906 1791 
Q 2906 2416 2648 2759 
Q 2391 3103 1925 3103 
Q 1463 3103 1205 2759 
Q 947 2416 947 1791 
Q 947 1169 1205 825 
Q 1463 481 1925 481 
Q 2391 481 2648 825 
Q 2906 1169 2906 1791 
z
M 3481 434 
Q 3481 -459 3084 -895 
Q 2688 -1331 1869 -1331 
Q 1566 -1331 1297 -1286 
Q 1028 -1241 775 -1147 
L 775 -588 
Q 1028 -725 1275 -790 
Q 1522 -856 1778 -856 
Q 2344 -856 2625 -561 
Q 2906 -266 2906 331 
L 2906 616 
Q 2728 306 2450 153 
Q 2172 0 1784 0 
Q 1141 0 747 490 
Q 353 981 353 1791 
Q 353 2603 747 3093 
Q 1141 3584 1784 3584 
Q 2172 3584 2450 3431 
Q 2728 3278 2906 2969 
L 2906 3500 
L 3481 3500 
L 3481 434 
z
" transform="scale(0.015625)"/>
      <path id="DejaVuSans-65" d="M 3597 1894 
L 3597 1613 
L 953 1613 
Q 991 1019 1311 708 
Q 1631 397 2203 397 
Q 2534 397 2845 478 
Q 3156 559 3463 722 
L 3463 178 
Q 3153 47 2828 -22 
Q 2503 -91 2169 -91 
Q 1331 -91 842 396 
Q 353 884 353 1716 
Q 353 2575 817 3079 
Q 1281 3584 2069 3584 
Q 2775 3584 3186 3129 
Q 3597 2675 3597 1894 
z
M 3022 2063 
Q 3016 2534 2758 2815 
Q 2500 3097 2075 3097 
Q 1594 3097 1305 2825 
Q 1016 2553 972 2059 
L 3022 2063 
z
" transform="scale(0.015625)"/>
      <path id="DejaVuSans-74" d="M 1172 4494 
L 1172 3500 
L 2356 3500 
L 2356 3053 
L 1172 3053 
L 1172 1153 
Q 1172 725 1289 603 
Q 1406 481 1766 481 
L 2356 481 
L 2356 0 
L 1766 0 
Q 1100 0 847 248 
Q 594 497 594 1153 
L 594 3053 
L 172 3053 
L 172 3500 
L 594 3500 
L 594 4494 
L 1172 4494 
z
" transform="scale(0.015625)"/>
      <path id="DejaVuSans-5f" d="M 3263 -1063 
L 3263 -1509 
L -63 -1509 
L -63 -1063 
L 3263 -1063 
z
" transform="scale(0.015625)"/>
      <path id="DejaVuSans-73" d="M 2834 3397 
L 2834 2853 
Q 2591 2978 2328 3040 
Q 2066 3103 1784 3103 
Q 1356 3103 1142 2972 
Q 928 2841 928 2578 
Q 928 2378 1081 2264 
Q 1234 2150 1697 2047 
L 1894 2003 
Q 2506 1872 2764 1633 
Q 3022 1394 3022 966 
Q 3022 478 2636 193 
Q 2250 -91 1575 -91 
Q 1294 -91 989 -36 
Q 684 19 347 128 
L 347 722 
Q 666 556 975 473 
Q 1284 391 1588 391 
Q 1994 391 2212 530 
Q 2431 669 2431 922 
Q 2431 1156 2273 1281 
Q 2116 1406 1581 1522 
L 1381 1569 
Q 847 1681 609 1914 
Q 372 2147 372 2553 
Q 372 3047 722 3315 
Q 1072 3584 1716 3584 
Q 2034 3584 2315 3537 
Q 2597 3491 2834 3397 
z
" transform="scale(0.015625)"/>
      <path id="DejaVuSans-75" d="M 544 1381 
L 544 3500 
L 1119 3500 
L 1119 1403 
Q 1119 906 1312 657 
Q 1506 409 1894 409 
Q 2359 409 2629 706 
Q 2900 1003 2900 1516 
L 2900 3500 
L 3475 3500 
L 3475 0 
L 2900 0 
L 2900 538 
Q 2691 219 2414 64 
Q 2138 -91 1772 -91 
Q 1169 -91 856 284 
Q 544 659 544 1381 
z
M 1991 3584 
L 1991 3584 
z
" transform="scale(0.015625)"/>
      <path id="DejaVuSans-62" d="M 3116 1747 
Q 3116 2381 2855 2742 
Q 2594 3103 2138 3103 
Q 1681 3103 1420 2742 
Q 1159 2381 1159 1747 
Q 1159 1113 1420 752 
Q 1681 391 2138 391 
Q 2594 391 2855 752 
Q 3116 1113 3116 1747 
z
M 1159 2969 
Q 1341 3281 1617 3432 
Q 1894 3584 2278 3584 
Q 2916 3584 3314 3078 
Q 3713 2572 3713 1747 
Q 3713 922 3314 415 
Q 2916 -91 2278 -91 
Q 1894 -91 1617 61 
Q 1341 213 1159 525 
L 1159 0 
L 581 0 
L 581 4863 
L 1159 4863 
L 1159 2969 
z
" transform="scale(0.015625)"/>
      <path id="DejaVuSans-63" d="M 3122 3366 
L 3122 2828 
Q 2878 2963 2633 3030 
Q 2388 3097 2138 3097 
Q 1578 3097 1268 2742 
Q 959 2388 959 1747 
Q 959 1106 1268 751 
Q 1578 397 2138 397 
Q 2388 397 2633 464 
Q 2878 531 3122 666 
L 3122 134 
Q 2881 22 2623 -34 
Q 2366 -91 2075 -91 
Q 1284 -91 818 406 
Q 353 903 353 1747 
Q 353 2603 823 3093 
Q 1294 3584 2113 3584 
Q 2378 3584 2631 3529 
Q 2884 3475 3122 3366 
z
" transform="scale(0.015625)"/>
      <path id="DejaVuSans-72" d="M 2631 2963 
Q 2534 3019 2420 3045 
Q 2306 3072 2169 3072 
Q 1681 3072 1420 2755 
Q 1159 2438 1159 1844 
L 1159 0 
L 581 0 
L 581 3500 
L 1159 3500 
L 1159 2956 
Q 1341 3275 1631 3429 
Q 1922 3584 2338 3584 
Q 2397 3584 2469 3576 
Q 2541 3569 2628 3553 
L 2631 2963 
z
" transform="scale(0.015625)"/>
      <path id="DejaVuSans-69" d="M 603 3500 
L 1178 3500 
L 1178 0 
L 603 0 
L 603 3500 
z
M 603 4863 
L 1178 4863 
L 1178 4134 
L 603 4134 
L 603 4863 
z
" transform="scale(0.015625)"/>
      <path id="DejaVuSans-20" transform="scale(0.015625)"/>
      <path id="DejaVuSans-68" d="M 3513 2113 
L 3513 0 
L 2938 0 
L 2938 2094 
Q 2938 2591 2744 2837 
Q 2550 3084 2163 3084 
Q 1697 3084 1428 2787 
Q 1159 2491 1159 1978 
L 1159 0 
L 581 0 
L 581 4863 
L 1159 4863 
L 1159 2956 
Q 1366 3272 1645 3428 
Q 1925 3584 2291 3584 
Q 2894 3584 3203 3211 
Q 3513 2838 3513 2113 
z
" transform="scale(0.015625)"/>
      <path id="DejaVuSans-6f" d="M 1959 3097 
Q 1497 3097 1228 2736 
Q 959 2375 959 1747 
Q 959 1119 1226 758 
Q 1494 397 1959 397 
Q 2419 397 2687 759 
Q 2956 1122 2956 1747 
Q 2956 2369 2687 2733 
Q 2419 3097 1959 3097 
z
M 1959 3584 
Q 2709 3584 3137 3096 
Q 3566 2609 3566 1747 
Q 3566 888 3137 398 
Q 2709 -91 1959 -91 
Q 1206 -91 779 398 
Q 353 888 353 1747 
Q 353 2609 779 3096 
Q 1206 3584 1959 3584 
z
" transform="scale(0.015625)"/>
      <path id="DejaVuSans-79" d="M 2059 -325 
Q 1816 -950 1584 -1140 
Q 1353 -1331 966 -1331 
L 506 -1331 
L 506 -850 
L 844 -850 
Q 1081 -850 1212 -737 
Q 1344 -625 1503 -206 
L 1606 56 
L 191 3500 
L 800 3500 
L 1894 763 
L 2988 3500 
L 3597 3500 
L 2059 -325 
z
" transform="scale(0.015625)"/>
     </defs>
     <use xlink:href="#DejaVuSans-67"/>
     <use xlink:href="#DejaVuSans-65" transform="translate(63.476562 0)"/>
     <use xlink:href="#DejaVuSans-74" transform="translate(125 0)"/>
     <use xlink:href="#DejaVuSans-5f" transform="translate(164.208984 0)"/>
     <use xlink:href="#DejaVuSans-73" transform="translate(214.208984 0)"/>
     <use xlink:href="#DejaVuSans-75" transform="translate(266.308594 0)"/>
     <use xlink:href="#DejaVuSans-62" transform="translate(329.6875 0)"/>
     <use xlink:href="#DejaVuSans-73" transform="translate(393.164062 0)"/>
     <use xlink:href="#DejaVuSans-63" transform="translate(445.263672 0)"/>
     <use xlink:href="#DejaVuSans-72" transform="translate(500.244141 0)"/>
     <use xlink:href="#DejaVuSans-69" transform="translate(541.357422 0)"/>
     <use xlink:href="#DejaVuSans-62" transform="translate(569.140625 0)"/>
     <use xlink:href="#DejaVuSans-65" transform="translate(632.617188 0)"/>
     <use xlink:href="#DejaVuSans-20" transform="translate(694.140625 0)"/>
     <use xlink:href="#DejaVuSans-68" transform="translate(725.927734 0)"/>
     <use xlink:href="#DejaVuSans-69" transform="translate(789.306641 0)"/>
     <use xlink:href="#DejaVuSans-73" transform="translate(817.089844 0)"/>
     <use xlink:href="#DejaVuSans-74" transform="translate(869.189453 0)"/>
     <use xlink:href="#DejaVuSans-6f" transform="translate(908.398438 0)"/>
     <use xlink:href="#DejaVuSans-72" transform="translate(969.580078 0)"/>
     <use xlink:href="#DejaVuSans-79" transform="translate(1010.693359 0)"/>
    </g>
   </g>
   <g id="legend_1">
    <g id="line2d_41">
     <path d="M 815.08 328.498438 
L 825.08 328.498438 
L 835.08 328.498438 
" style="fill: none; stroke: #1f77b4; stroke-width: 1.5; stroke-linecap: square"/>
    </g>
    <g id="text_21">
     <!-- star -->
     <g style="fill: #a9a9a9" transform="translate(843.08 331.998438) scale(0.1 -0.1)">
      <defs>
       <path id="DejaVuSans-61" d="M 2194 1759 
Q 1497 1759 1228 1600 
Q 959 1441 959 1056 
Q 959 750 1161 570 
Q 1363 391 1709 391 
Q 2188 391 2477 730 
Q 2766 1069 2766 1631 
L 2766 1759 
L 2194 1759 
z
M 3341 1997 
L 3341 0 
L 2766 0 
L 2766 531 
Q 2569 213 2275 61 
Q 1981 -91 1556 -91 
Q 1019 -91 701 211 
Q 384 513 384 1019 
Q 384 1609 779 1909 
Q 1175 2209 1959 2209 
L 2766 2209 
L 2766 2266 
Q 2766 2663 2505 2880 
Q 2244 3097 1772 3097 
Q 1472 3097 1187 3025 
Q 903 2953 641 2809 
L 641 3341 
Q 956 3463 1253 3523 
Q 1550 3584 1831 3584 
Q 2591 3584 2966 3190 
Q 3341 2797 3341 1997 
z
" transform="scale(0.015625)"/>
      </defs>
      <use xlink:href="#DejaVuSans-73"/>
      <use xlink:href="#DejaVuSans-74" transform="translate(52.099609 0)"/>
      <use xlink:href="#DejaVuSans-61" transform="translate(91.308594 0)"/>
      <use xlink:href="#DejaVuSans-72" transform="translate(152.587891 0)"/>
     </g>
    </g>
    <g id="line2d_42">
     <path d="M 815.08 343.176562 
L 825.08 343.176562 
L 835.08 343.176562 
" style="fill: none; stroke: #ff7f0e; stroke-width: 1.5; stroke-linecap: square"/>
    </g>
    <g id="text_22">
     <!-- fork -->
     <g style="fill: #a9a9a9" transform="translate(843.08 346.676562) scale(0.1 -0.1)">
      <defs>
       <path id="DejaVuSans-66" d="M 2375 4863 
L 2375 4384 
L 1825 4384 
Q 1516 4384 1395 4259 
Q 1275 4134 1275 3809 
L 1275 3500 
L 2222 3500 
L 2222 3053 
L 1275 3053 
L 1275 0 
L 697 0 
L 697 3053 
L 147 3053 
L 147 3500 
L 697 3500 
L 697 3744 
Q 697 4328 969 4595 
Q 1241 4863 1831 4863 
L 2375 4863 
z
" transform="scale(0.015625)"/>
       <path id="DejaVuSans-6b" d="M 581 4863 
L 1159 4863 
L 1159 1991 
L 2875 3500 
L 3609 3500 
L 1753 1863 
L 3688 0 
L 2938 0 
L 1159 1709 
L 1159 0 
L 581 0 
L 581 4863 
z
" transform="scale(0.015625)"/>
      </defs>
      <use xlink:href="#DejaVuSans-66"/>
      <use xlink:href="#DejaVuSans-6f" transform="translate(35.205078 0)"/>
      <use xlink:href="#DejaVuSans-72" transform="translate(96.386719 0)"/>
      <use xlink:href="#DejaVuSans-6b" transform="translate(137.5 0)"/>
     </g>
    </g>
   </g>
  </g>
 </g>
 <defs>
  <clipPath id="p042e253f9d">
   <rect x="108" y="43.2" width="669.6" height="277.2"/>
  </clipPath>
 </defs>
</svg>
