<?xml version="1.0" encoding="utf-8" standalone="no"?>
<!DOCTYPE svg PUBLIC "-//W3C//DTD SVG 1.1//EN"
  "http://www.w3.org/Graphics/SVG/1.1/DTD/svg11.dtd">
<svg xmlns:xlink="http://www.w3.org/1999/xlink" width="864pt" height="360pt" viewBox="0 0 864 360" xmlns="http://www.w3.org/2000/svg" version="1.1">
 <metadata>
  <rdf:RDF xmlns:dc="http://purl.org/dc/elements/1.1/" xmlns:cc="http://creativecommons.org/ns#" xmlns:rdf="http://www.w3.org/1999/02/22-rdf-syntax-ns#">
   <cc:Work>
    <dc:type rdf:resource="http://purl.org/dc/dcmitype/StillImage"/>
    <dc:date>2026-01-08T08:18:09.563753</dc:date>
    <dc:format>image/svg+xml</dc:format>
    <dc:creator>
     <cc:Agent>
      <dc:title>Matplotlib v3.10.8, https://matplotlib.org/</dc:title>
     </cc:Agent>
    </dc:creator>
   </cc:Work>
  </rdf:RDF>
 </metadata>
 <defs>
  <style type="text/css">*{stroke-linejoin: round; stroke-linecap: butt}</style>
 </defs>
 <g id="figure_1">
  <g id="patch_1">
   <path d="M 0 360 
L 864 360 
L 864 0 
L 0 0 
L 0 360 
z
" style="fill: none; opacity: 0"/>
  </g>
  <g id="axes_1">
   <g id="patch_2">
    <path d="M 108 320.4 
L 777.6 320.4 
L 777.6 43.2 
L 108 43.2 
L 108 320.4 
z
" style="fill: none; opacity: 0"/>
   </g>
   <g id="matplotlib.axis_1">
    <g id="xtick_1">
     <g id="line2d_1">
      <path d="M 129.841688 320.4 
L 129.841688 43.2 
" clip-path="url(#pcf5123ac3a)" style="fill: none; stroke-dasharray: 5.12,1.28,0.8,1.28; stroke-dashoffset: 0; stroke: #b0b0b0; stroke-width: 0.8"/>
     </g>
     <g id="line2d_2">
      <defs>
       <path id="m0e01c3bc6f" d="M 0 0 
L 0 3.5 
" style="stroke: #a9a9a9; stroke-width: 0.8"/>
      </defs>
      <g>
       <use xlink:href="#m0e01c3bc6f" x="129.841688" y="320.4" style="fill: #a9a9a9; stroke: #a9a9a9; stroke-width: 0.8"/>
      </g>
     </g>
     <g id="text_1">
      <!-- 2021-07 -->
      <g style="fill: #a9a9a9" transform="translate(108.950281 334.998438) scale(0.1 -0.1)">
       <defs>
        <path id="DejaVuSans-32" d="M 1228 531 
L 3431 531 
L 3431 0 
L 469 0 
L 469 531 
Q 828 903 1448 1529 
Q 2069 2156 2228 2338 
Q 2531 2678 2651 2914 
Q 2772 3150 2772 3378 
Q 2772 3750 2511 3984 
Q 2250 4219 1831 4219 
Q 1534 4219 1204 4116 
Q 875 4013 500 3803 
L 500 4441 
Q 881 4594 1212 4672 
Q 1544 4750 1819 4750 
Q 2544 4750 2975 4387 
Q 3406 4025 3406 3419 
Q 3406 3131 3298 2873 
Q 3191 2616 2906 2266 
Q 2828 2175 2409 1742 
Q 1991 1309 1228 531 
z
" transform="scale(0.015625)"/>
        <path id="DejaVuSans-30" d="M 2034 4250 
Q 1547 4250 1301 3770 
Q 1056 3291 1056 2328 
Q 1056 1369 1301 889 
Q 1547 409 2034 409 
Q 2525 409 2770 889 
Q 3016 1369 3016 2328 
Q 3016 3291 2770 3770 
Q 2525 4250 2034 4250 
z
M 2034 4750 
Q 2819 4750 3233 4129 
Q 3647 3509 3647 2328 
Q 3647 1150 3233 529 
Q 2819 -91 2034 -91 
Q 1250 -91 836 529 
Q 422 1150 422 2328 
Q 422 3509 836 4129 
Q 1250 4750 2034 4750 
z
" transform="scale(0.015625)"/>
        <path id="DejaVuSans-31" d="M 794 531 
L 1825 531 
L 1825 4091 
L 703 3866 
L 703 4441 
L 1819 4666 
L 2450 4666 
L 2450 531 
L 3481 531 
L 3481 0 
L 794 0 
L 794 531 
z
" transform="scale(0.015625)"/>
        <path id="DejaVuSans-2d" d="M 313 2009 
L 1997 2009 
L 1997 1497 
L 313 1497 
L 313 2009 
z
" transform="scale(0.015625)"/>
        <path id="DejaVuSans-37" d="M 525 4666 
L 3525 4666 
L 3525 4397 
L 1831 0 
L 1172 0 
L 2766 4134 
L 525 4134 
L 525 4666 
z
" transform="scale(0.015625)"/>
       </defs>
       <use xlink:href="#DejaVuSans-32"/>
       <use xlink:href="#DejaVuSans-30" transform="translate(63.623047 0)"/>
       <use xlink:href="#DejaVuSans-32" transform="translate(127.246094 0)"/>
       <use xlink:href="#DejaVuSans-31" transform="translate(190.869141 0)"/>
       <use xlink:href="#DejaVuSans-2d" transform="translate(254.492188 0)"/>
       <use xlink:href="#DejaVuSans-30" transform="translate(290.576172 0)"/>
       <use xlink:href="#DejaVuSans-37" transform="translate(354.199219 0)"/>
      </g>
     </g>
    </g>
    <g id="xtick_2">
     <g id="line2d_3">
      <path d="M 198.599096 320.4 
L 198.599096 43.2 
" clip-path="url(#pcf5123ac3a)" style="fill: none; stroke-dasharray: 5.12,1.28,0.8,1.28; stroke-dashoffset: 0; stroke: #b0b0b0; stroke-width: 0.8"/>
     </g>
     <g id="line2d_4">
      <g>
       <use xlink:href="#m0e01c3bc6f" x="198.599096" y="320.4" style="fill: #a9a9a9; stroke: #a9a9a9; stroke-width: 0.8"/>
      </g>
     </g>
     <g id="text_2">
      <!-- 2022-01 -->
      <g style="fill: #a9a9a9" transform="translate(177.70769 334.998438) scale(0.1 -0.1)">
       <use xlink:href="#DejaVuSans-32"/>
       <use xlink:href="#DejaVuSans-30" transform="translate(63.623047 0)"/>
       <use xlink:href="#DejaVuSans-32" transform="translate(127.246094 0)"/>
       <use xlink:href="#DejaVuSans-32" transform="translate(190.869141 0)"/>
       <use xlink:href="#DejaVuSans-2d" transform="translate(254.492188 0)"/>
       <use xlink:href="#DejaVuSans-30" transform="translate(290.576172 0)"/>
       <use xlink:href="#DejaVuSans-31" transform="translate(354.199219 0)"/>
      </g>
     </g>
    </g>
    <g id="xtick_3">
     <g id="line2d_5">
      <path d="M 266.23546 320.4 
L 266.23546 43.2 
" clip-path="url(#pcf5123ac3a)" style="fill: none; stroke-dasharray: 5.12,1.28,0.8,1.28; stroke-dashoffset: 0; stroke: #b0b0b0; stroke-width: 0.8"/>
     </g>
     <g id="line2d_6">
      <g>
       <use xlink:href="#m0e01c3bc6f" x="266.23546" y="320.4" style="fill: #a9a9a9; stroke: #a9a9a9; stroke-width: 0.8"/>
      </g>
     </g>
     <g id="text_3">
      <!-- 2022-07 -->
      <g style="fill: #a9a9a9" transform="translate(245.344053 334.998438) scale(0.1 -0.1)">
       <use xlink:href="#DejaVuSans-32"/>
       <use xlink:href="#DejaVuSans-30" transform="translate(63.623047 0)"/>
       <use xlink:href="#DejaVuSans-32" transform="translate(127.246094 0)"/>
       <use xlink:href="#DejaVuSans-32" transform="translate(190.869141 0)"/>
       <use xlink:href="#DejaVuSans-2d" transform="translate(254.492188 0)"/>
       <use xlink:href="#DejaVuSans-30" transform="translate(290.576172 0)"/>
       <use xlink:href="#DejaVuSans-37" transform="translate(354.199219 0)"/>
      </g>
     </g>
    </g>
    <g id="xtick_4">
     <g id="line2d_7">
      <path d="M 334.992868 320.4 
L 334.992868 43.2 
" clip-path="url(#pcf5123ac3a)" style="fill: none; stroke-dasharray: 5.12,1.28,0.8,1.28; stroke-dashoffset: 0; stroke: #b0b0b0; stroke-width: 0.8"/>
     </g>
     <g id="line2d_8">
      <g>
       <use xlink:href="#m0e01c3bc6f" x="334.992868" y="320.4" style="fill: #a9a9a9; stroke: #a9a9a9; stroke-width: 0.8"/>
      </g>
     </g>
     <g id="text_4">
      <!-- 2023-01 -->
      <g style="fill: #a9a9a9" transform="translate(314.101462 334.998438) scale(0.1 -0.1)">
       <defs>
        <path id="DejaVuSans-33" d="M 2597 2516 
Q 3050 2419 3304 2112 
Q 3559 1806 3559 1356 
Q 3559 666 3084 287 
Q 2609 -91 1734 -91 
Q 1441 -91 1130 -33 
Q 819 25 488 141 
L 488 750 
Q 750 597 1062 519 
Q 1375 441 1716 441 
Q 2309 441 2620 675 
Q 2931 909 2931 1356 
Q 2931 1769 2642 2001 
Q 2353 2234 1838 2234 
L 1294 2234 
L 1294 2753 
L 1863 2753 
Q 2328 2753 2575 2939 
Q 2822 3125 2822 3475 
Q 2822 3834 2567 4026 
Q 2313 4219 1838 4219 
Q 1578 4219 1281 4162 
Q 984 4106 628 3988 
L 628 4550 
Q 988 4650 1302 4700 
Q 1616 4750 1894 4750 
Q 2613 4750 3031 4423 
Q 3450 4097 3450 3541 
Q 3450 3153 3228 2886 
Q 3006 2619 2597 2516 
z
" transform="scale(0.015625)"/>
       </defs>
       <use xlink:href="#DejaVuSans-32"/>
       <use xlink:href="#DejaVuSans-30" transform="translate(63.623047 0)"/>
       <use xlink:href="#DejaVuSans-32" transform="translate(127.246094 0)"/>
       <use xlink:href="#DejaVuSans-33" transform="translate(190.869141 0)"/>
       <use xlink:href="#DejaVuSans-2d" transform="translate(254.492188 0)"/>
       <use xlink:href="#DejaVuSans-30" transform="translate(290.576172 0)"/>
       <use xlink:href="#DejaVuSans-31" transform="translate(354.199219 0)"/>
      </g>
     </g>
    </g>
    <g id="xtick_5">
     <g id="line2d_9">
      <path d="M 402.629232 320.4 
L 402.629232 43.2 
" clip-path="url(#pcf5123ac3a)" style="fill: none; stroke-dasharray: 5.12,1.28,0.8,1.28; stroke-dashoffset: 0; stroke: #b0b0b0; stroke-width: 0.8"/>
     </g>
     <g id="line2d_10">
      <g>
       <use xlink:href="#m0e01c3bc6f" x="402.629232" y="320.4" style="fill: #a9a9a9; stroke: #a9a9a9; stroke-width: 0.8"/>
      </g>
     </g>
     <g id="text_5">
      <!-- 2023-07 -->
      <g style="fill: #a9a9a9" transform="translate(381.737825 334.998438) scale(0.1 -0.1)">
       <use xlink:href="#DejaVuSans-32"/>
       <use xlink:href="#DejaVuSans-30" transform="translate(63.623047 0)"/>
       <use xlink:href="#DejaVuSans-32" transform="translate(127.246094 0)"/>
       <use xlink:href="#DejaVuSans-33" transform="translate(190.869141 0)"/>
       <use xlink:href="#DejaVuSans-2d" transform="translate(254.492188 0)"/>
       <use xlink:href="#DejaVuSans-30" transform="translate(290.576172 0)"/>
       <use xlink:href="#DejaVuSans-37" transform="translate(354.199219 0)"/>
      </g>
     </g>
    </g>
    <g id="xtick_6">
     <g id="line2d_11">
      <path d="M 471.38664 320.4 
L 471.38664 43.2 
" clip-path="url(#pcf5123ac3a)" style="fill: none; stroke-dasharray: 5.12,1.28,0.8,1.28; stroke-dashoffset: 0; stroke: #b0b0b0; stroke-width: 0.8"/>
     </g>
     <g id="line2d_12">
      <g>
       <use xlink:href="#m0e01c3bc6f" x="471.38664" y="320.4" style="fill: #a9a9a9; stroke: #a9a9a9; stroke-width: 0.8"/>
      </g>
     </g>
     <g id="text_6">
      <!-- 2024-01 -->
      <g style="fill: #a9a9a9" transform="translate(450.495234 334.998438) scale(0.1 -0.1)">
       <defs>
        <path id="DejaVuSans-34" d="M 2419 4116 
L 825 1625 
L 2419 1625 
L 2419 4116 
z
M 2253 4666 
L 3047 4666 
L 3047 1625 
L 3713 1625 
L 3713 1100 
L 3047 1100 
L 3047 0 
L 2419 0 
L 2419 1100 
L 313 1100 
L 313 1709 
L 2253 4666 
z
" transform="scale(0.015625)"/>
       </defs>
       <use xlink:href="#DejaVuSans-32"/>
       <use xlink:href="#DejaVuSans-30" transform="translate(63.623047 0)"/>
       <use xlink:href="#DejaVuSans-32" transform="translate(127.246094 0)"/>
       <use xlink:href="#DejaVuSans-34" transform="translate(190.869141 0)"/>
       <use xlink:href="#DejaVuSans-2d" transform="translate(254.492188 0)"/>
       <use xlink:href="#DejaVuSans-30" transform="translate(290.576172 0)"/>
       <use xlink:href="#DejaVuSans-31" transform="translate(354.199219 0)"/>
      </g>
     </g>
    </g>
    <g id="xtick_7">
     <g id="line2d_13">
      <path d="M 539.396685 320.4 
L 539.396685 43.2 
" clip-path="url(#pcf5123ac3a)" style="fill: none; stroke-dasharray: 5.12,1.28,0.8,1.28; stroke-dashoffset: 0; stroke: #b0b0b0; stroke-width: 0.8"/>
     </g>
     <g id="line2d_14">
      <g>
       <use xlink:href="#m0e01c3bc6f" x="539.396685" y="320.4" style="fill: #a9a9a9; stroke: #a9a9a9; stroke-width: 0.8"/>
      </g>
     </g>
     <g id="text_7">
      <!-- 2024-07 -->
      <g style="fill: #a9a9a9" transform="translate(518.505279 334.998438) scale(0.1 -0.1)">
       <use xlink:href="#DejaVuSans-32"/>
       <use xlink:href="#DejaVuSans-30" transform="translate(63.623047 0)"/>
       <use xlink:href="#DejaVuSans-32" transform="translate(127.246094 0)"/>
       <use xlink:href="#DejaVuSans-34" transform="translate(190.869141 0)"/>
       <use xlink:href="#DejaVuSans-2d" transform="translate(254.492188 0)"/>
       <use xlink:href="#DejaVuSans-30" transform="translate(290.576172 0)"/>
       <use xlink:href="#DejaVuSans-37" transform="translate(354.199219 0)"/>
      </g>
     </g>
    </g>
    <g id="xtick_8">
     <g id="line2d_15">
      <path d="M 608.154093 320.4 
L 608.154093 43.2 
" clip-path="url(#pcf5123ac3a)" style="fill: none; stroke-dasharray: 5.12,1.28,0.8,1.28; stroke-dashoffset: 0; stroke: #b0b0b0; stroke-width: 0.8"/>
     </g>
     <g id="line2d_16">
      <g>
       <use xlink:href="#m0e01c3bc6f" x="608.154093" y="320.4" style="fill: #a9a9a9; stroke: #a9a9a9; stroke-width: 0.8"/>
      </g>
     </g>
     <g id="text_8">
      <!-- 2025-01 -->
      <g style="fill: #a9a9a9" transform="translate(587.262687 334.998438) scale(0.1 -0.1)">
       <defs>
        <path id="DejaVuSans-35" d="M 691 4666 
L 3169 4666 
L 3169 4134 
L 1269 4134 
L 1269 2991 
Q 1406 3038 1543 3061 
Q 1681 3084 1819 3084 
Q 2600 3084 3056 2656 
Q 3513 2228 3513 1497 
Q 3513 744 3044 326 
Q 2575 -91 1722 -91 
Q 1428 -91 1123 -41 
Q 819 9 494 109 
L 494 744 
Q 775 591 1075 516 
Q 1375 441 1709 441 
Q 2250 441 2565 725 
Q 2881 1009 2881 1497 
Q 2881 1984 2565 2268 
Q 2250 2553 1709 2553 
Q 1456 2553 1204 2497 
Q 953 2441 691 2322 
L 691 4666 
z
" transform="scale(0.015625)"/>
       </defs>
       <use xlink:href="#DejaVuSans-32"/>
       <use xlink:href="#DejaVuSans-30" transform="translate(63.623047 0)"/>
       <use xlink:href="#DejaVuSans-32" transform="translate(127.246094 0)"/>
       <use xlink:href="#DejaVuSans-35" transform="translate(190.869141 0)"/>
       <use xlink:href="#DejaVuSans-2d" transform="translate(254.492188 0)"/>
       <use xlink:href="#DejaVuSans-30" transform="translate(290.576172 0)"/>
       <use xlink:href="#DejaVuSans-31" transform="translate(354.199219 0)"/>
      </g>
     </g>
    </g>
    <g id="xtick_9">
     <g id="line2d_17">
      <path d="M 675.790457 320.4 
L 675.790457 43.2 
" clip-path="url(#pcf5123ac3a)" style="fill: none; stroke-dasharray: 5.12,1.28,0.8,1.28; stroke-dashoffset: 0; stroke: #b0b0b0; stroke-width: 0.8"/>
     </g>
     <g id="line2d_18">
      <g>
       <use xlink:href="#m0e01c3bc6f" x="675.790457" y="320.4" style="fill: #a9a9a9; stroke: #a9a9a9; stroke-width: 0.8"/>
      </g>
     </g>
     <g id="text_9">
      <!-- 2025-07 -->
      <g style="fill: #a9a9a9" transform="translate(654.899051 334.998438) scale(0.1 -0.1)">
       <use xlink:href="#DejaVuSans-32"/>
       <use xlink:href="#DejaVuSans-30" transform="translate(63.623047 0)"/>
       <use xlink:href="#DejaVuSans-32" transform="translate(127.246094 0)"/>
       <use xlink:href="#DejaVuSans-35" transform="translate(190.869141 0)"/>
       <use xlink:href="#DejaVuSans-2d" transform="translate(254.492188 0)"/>
       <use xlink:href="#DejaVuSans-30" transform="translate(290.576172 0)"/>
       <use xlink:href="#DejaVuSans-37" transform="translate(354.199219 0)"/>
      </g>
     </g>
    </g>
    <g id="xtick_10">
     <g id="line2d_19">
      <path d="M 744.547865 320.4 
L 744.547865 43.2 
" clip-path="url(#pcf5123ac3a)" style="fill: none; stroke-dasharray: 5.12,1.28,0.8,1.28; stroke-dashoffset: 0; stroke: #b0b0b0; stroke-width: 0.8"/>
     </g>
     <g id="line2d_20">
      <g>
       <use xlink:href="#m0e01c3bc6f" x="744.547865" y="320.4" style="fill: #a9a9a9; stroke: #a9a9a9; stroke-width: 0.8"/>
      </g>
     </g>
     <g id="text_10">
      <!-- 2026-01 -->
      <g style="fill: #a9a9a9" transform="translate(723.656459 334.998438) scale(0.1 -0.1)">
       <defs>
        <path id="DejaVuSans-36" d="M 2113 2584 
Q 1688 2584 1439 2293 
Q 1191 2003 1191 1497 
Q 1191 994 1439 701 
Q 1688 409 2113 409 
Q 2538 409 2786 701 
Q 3034 994 3034 1497 
Q 3034 2003 2786 2293 
Q 2538 2584 2113 2584 
z
M 3366 4563 
L 3366 3988 
Q 3128 4100 2886 4159 
Q 2644 4219 2406 4219 
Q 1781 4219 1451 3797 
Q 1122 3375 1075 2522 
Q 1259 2794 1537 2939 
Q 1816 3084 2150 3084 
Q 2853 3084 3261 2657 
Q 3669 2231 3669 1497 
Q 3669 778 3244 343 
Q 2819 -91 2113 -91 
Q 1303 -91 875 529 
Q 447 1150 447 2328 
Q 447 3434 972 4092 
Q 1497 4750 2381 4750 
Q 2619 4750 2861 4703 
Q 3103 4656 3366 4563 
z
" transform="scale(0.015625)"/>
       </defs>
       <use xlink:href="#DejaVuSans-32"/>
       <use xlink:href="#DejaVuSans-30" transform="translate(63.623047 0)"/>
       <use xlink:href="#DejaVuSans-32" transform="translate(127.246094 0)"/>
       <use xlink:href="#DejaVuSans-36" transform="translate(190.869141 0)"/>
       <use xlink:href="#DejaVuSans-2d" transform="translate(254.492188 0)"/>
       <use xlink:href="#DejaVuSans-30" transform="translate(290.576172 0)"/>
       <use xlink:href="#DejaVuSans-31" transform="translate(354.199219 0)"/>
      </g>
     </g>
    </g>
   </g>
   <g id="matplotlib.axis_2">
    <g id="ytick_1">
     <g id="line2d_21">
      <path d="M 108 307.829519 
L 777.6 307.829519 
" clip-path="url(#pcf5123ac3a)" style="fill: none; stroke-dasharray: 5.12,1.28,0.8,1.28; stroke-dashoffset: 0; stroke: #b0b0b0; stroke-width: 0.8"/>
     </g>
     <g id="line2d_22">
      <defs>
       <path id="m4f7f58e4f5" d="M 0 0 
L -3.5 0 
" style="stroke: #a9a9a9; stroke-width: 0.8"/>
      </defs>
      <g>
       <use xlink:href="#m4f7f58e4f5" x="108" y="307.829519" style="fill: #a9a9a9; stroke: #a9a9a9; stroke-width: 0.8"/>
      </g>
     </g>
     <g id="text_11">
      <!-- 0 -->
      <g style="fill: #a9a9a9" transform="translate(94.6375 311.628737) scale(0.1 -0.1)">
       <use xlink:href="#DejaVuSans-30"/>
      </g>
     </g>
    </g>
    <g id="ytick_2">
     <g id="line2d_23">
      <path d="M 108 278.310952 
L 777.6 278.310952 
" clip-path="url(#pcf5123ac3a)" style="fill: none; stroke-dasharray: 5.12,1.28,0.8,1.28; stroke-dashoffset: 0; stroke: #b0b0b0; stroke-width: 0.8"/>
     </g>
     <g id="line2d_24">
      <g>
       <use xlink:href="#m4f7f58e4f5" x="108" y="278.310952" style="fill: #a9a9a9; stroke: #a9a9a9; stroke-width: 0.8"/>
      </g>
     </g>
     <g id="text_12">
      <!-- 1000 -->
      <g style="fill: #a9a9a9" transform="translate(75.55 282.110171) scale(0.1 -0.1)">
       <use xlink:href="#DejaVuSans-31"/>
       <use xlink:href="#DejaVuSans-30" transform="translate(63.623047 0)"/>
       <use xlink:href="#DejaVuSans-30" transform="translate(127.246094 0)"/>
       <use xlink:href="#DejaVuSans-30" transform="translate(190.869141 0)"/>
      </g>
     </g>
    </g>
    <g id="ytick_3">
     <g id="line2d_25">
      <path d="M 108 248.792386 
L 777.6 248.792386 
" clip-path="url(#pcf5123ac3a)" style="fill: none; stroke-dasharray: 5.12,1.28,0.8,1.28; stroke-dashoffset: 0; stroke: #b0b0b0; stroke-width: 0.8"/>
     </g>
     <g id="line2d_26">
      <g>
       <use xlink:href="#m4f7f58e4f5" x="108" y="248.792386" style="fill: #a9a9a9; stroke: #a9a9a9; stroke-width: 0.8"/>
      </g>
     </g>
     <g id="text_13">
      <!-- 2000 -->
      <g style="fill: #a9a9a9" transform="translate(75.55 252.591605) scale(0.1 -0.1)">
       <use xlink:href="#DejaVuSans-32"/>
       <use xlink:href="#DejaVuSans-30" transform="translate(63.623047 0)"/>
       <use xlink:href="#DejaVuSans-30" transform="translate(127.246094 0)"/>
       <use xlink:href="#DejaVuSans-30" transform="translate(190.869141 0)"/>
      </g>
     </g>
    </g>
    <g id="ytick_4">
     <g id="line2d_27">
      <path d="M 108 219.27382 
L 777.6 219.27382 
" clip-path="url(#pcf5123ac3a)" style="fill: none; stroke-dasharray: 5.12,1.28,0.8,1.28; stroke-dashoffset: 0; stroke: #b0b0b0; stroke-width: 0.8"/>
     </g>
     <g id="line2d_28">
      <g>
       <use xlink:href="#m4f7f58e4f5" x="108" y="219.27382" style="fill: #a9a9a9; stroke: #a9a9a9; stroke-width: 0.8"/>
      </g>
     </g>
     <g id="text_14">
      <!-- 3000 -->
      <g style="fill: #a9a9a9" transform="translate(75.55 223.073039) scale(0.1 -0.1)">
       <use xlink:href="#DejaVuSans-33"/>
       <use xlink:href="#DejaVuSans-30" transform="translate(63.623047 0)"/>
       <use xlink:href="#DejaVuSans-30" transform="translate(127.246094 0)"/>
       <use xlink:href="#DejaVuSans-30" transform="translate(190.869141 0)"/>
      </g>
     </g>
    </g>
    <g id="ytick_5">
     <g id="line2d_29">
      <path d="M 108 189.755254 
L 777.6 189.755254 
" clip-path="url(#pcf5123ac3a)" style="fill: none; stroke-dasharray: 5.12,1.28,0.8,1.28; stroke-dashoffset: 0; stroke: #b0b0b0; stroke-width: 0.8"/>
     </g>
     <g id="line2d_30">
      <g>
       <use xlink:href="#m4f7f58e4f5" x="108" y="189.755254" style="fill: #a9a9a9; stroke: #a9a9a9; stroke-width: 0.8"/>
      </g>
     </g>
     <g id="text_15">
      <!-- 4000 -->
      <g style="fill: #a9a9a9" transform="translate(75.55 193.554472) scale(0.1 -0.1)">
       <use xlink:href="#DejaVuSans-34"/>
       <use xlink:href="#DejaVuSans-30" transform="translate(63.623047 0)"/>
       <use xlink:href="#DejaVuSans-30" transform="translate(127.246094 0)"/>
       <use xlink:href="#DejaVuSans-30" transform="translate(190.869141 0)"/>
      </g>
     </g>
    </g>
    <g id="ytick_6">
     <g id="line2d_31">
      <path d="M 108 160.236687 
L 777.6 160.236687 
" clip-path="url(#pcf5123ac3a)" style="fill: none; stroke-dasharray: 5.12,1.28,0.8,1.28; stroke-dashoffset: 0; stroke: #b0b0b0; stroke-width: 0.8"/>
     </g>
     <g id="line2d_32">
      <g>
       <use xlink:href="#m4f7f58e4f5" x="108" y="160.236687" style="fill: #a9a9a9; stroke: #a9a9a9; stroke-width: 0.8"/>
      </g>
     </g>
     <g id="text_16">
      <!-- 5000 -->
      <g style="fill: #a9a9a9" transform="translate(75.55 164.035906) scale(0.1 -0.1)">
       <use xlink:href="#DejaVuSans-35"/>
       <use xlink:href="#DejaVuSans-30" transform="translate(63.623047 0)"/>
       <use xlink:href="#DejaVuSans-30" transform="translate(127.246094 0)"/>
       <use xlink:href="#DejaVuSans-30" transform="translate(190.869141 0)"/>
      </g>
     </g>
    </g>
    <g id="ytick_7">
     <g id="line2d_33">
      <path d="M 108 130.718121 
L 777.6 130.718121 
" clip-path="url(#pcf5123ac3a)" style="fill: none; stroke-dasharray: 5.12,1.28,0.8,1.28; stroke-dashoffset: 0; stroke: #b0b0b0; stroke-width: 0.8"/>
     </g>
     <g id="line2d_34">
      <g>
       <use xlink:href="#m4f7f58e4f5" x="108" y="130.718121" style="fill: #a9a9a9; stroke: #a9a9a9; stroke-width: 0.8"/>
      </g>
     </g>
     <g id="text_17">
      <!-- 6000 -->
      <g style="fill: #a9a9a9" transform="translate(75.55 134.51734) scale(0.1 -0.1)">
       <use xlink:href="#DejaVuSans-36"/>
       <use xlink:href="#DejaVuSans-30" transform="translate(63.623047 0)"/>
       <use xlink:href="#DejaVuSans-30" transform="translate(127.246094 0)"/>
       <use xlink:href="#DejaVuSans-30" transform="translate(190.869141 0)"/>
      </g>
     </g>
    </g>
    <g id="ytick_8">
     <g id="line2d_35">
      <path d="M 108 101.199555 
L 777.6 101.199555 
" clip-path="url(#pcf5123ac3a)" style="fill: none; stroke-dasharray: 5.12,1.28,0.8,1.28; stroke-dashoffset: 0; stroke: #b0b0b0; stroke-width: 0.8"/>
     </g>
     <g id="line2d_36">
      <g>
       <use xlink:href="#m4f7f58e4f5" x="108" y="101.199555" style="fill: #a9a9a9; stroke: #a9a9a9; stroke-width: 0.8"/>
      </g>
     </g>
     <g id="text_18">
      <!-- 7000 -->
      <g style="fill: #a9a9a9" transform="translate(75.55 104.998774) scale(0.1 -0.1)">
       <use xlink:href="#DejaVuSans-37"/>
       <use xlink:href="#DejaVuSans-30" transform="translate(63.623047 0)"/>
       <use xlink:href="#DejaVuSans-30" transform="translate(127.246094 0)"/>
       <use xlink:href="#DejaVuSans-30" transform="translate(190.869141 0)"/>
      </g>
     </g>
    </g>
    <g id="ytick_9">
     <g id="line2d_37">
      <path d="M 108 71.680989 
L 777.6 71.680989 
" clip-path="url(#pcf5123ac3a)" style="fill: none; stroke-dasharray: 5.12,1.28,0.8,1.28; stroke-dashoffset: 0; stroke: #b0b0b0; stroke-width: 0.8"/>
     </g>
     <g id="line2d_38">
      <g>
       <use xlink:href="#m4f7f58e4f5" x="108" y="71.680989" style="fill: #a9a9a9; stroke: #a9a9a9; stroke-width: 0.8"/>
      </g>
     </g>
     <g id="text_19">
      <!-- 8000 -->
      <g style="fill: #a9a9a9" transform="translate(75.55 75.480207) scale(0.1 -0.1)">
       <defs>
        <path id="DejaVuSans-38" d="M 2034 2216 
Q 1584 2216 1326 1975 
Q 1069 1734 1069 1313 
Q 1069 891 1326 650 
Q 1584 409 2034 409 
Q 2484 409 2743 651 
Q 3003 894 3003 1313 
Q 3003 1734 2745 1975 
Q 2488 2216 2034 2216 
z
M 1403 2484 
Q 997 2584 770 2862 
Q 544 3141 544 3541 
Q 544 4100 942 4425 
Q 1341 4750 2034 4750 
Q 2731 4750 3128 4425 
Q 3525 4100 3525 3541 
Q 3525 3141 3298 2862 
Q 3072 2584 2669 2484 
Q 3125 2378 3379 2068 
Q 3634 1759 3634 1313 
Q 3634 634 3220 271 
Q 2806 -91 2034 -91 
Q 1263 -91 848 271 
Q 434 634 434 1313 
Q 434 1759 690 2068 
Q 947 2378 1403 2484 
z
M 1172 3481 
Q 1172 3119 1398 2916 
Q 1625 2713 2034 2713 
Q 2441 2713 2670 2916 
Q 2900 3119 2900 3481 
Q 2900 3844 2670 4047 
Q 2441 4250 2034 4250 
Q 1625 4250 1398 4047 
Q 1172 3844 1172 3481 
z
" transform="scale(0.015625)"/>
       </defs>
       <use xlink:href="#DejaVuSans-38"/>
       <use xlink:href="#DejaVuSans-30" transform="translate(63.623047 0)"/>
       <use xlink:href="#DejaVuSans-30" transform="translate(127.246094 0)"/>
       <use xlink:href="#DejaVuSans-30" transform="translate(190.869141 0)"/>
      </g>
     </g>
    </g>
   </g>
   <g id="line2d_39">
    <path d="M 138.436364 307.740963 
L 140.678453 307.534333 
L 141.052135 307.357222 
L 142.546861 307.150592 
L 144.041587 306.825887 
L 144.78895 306.707813 
L 146.657358 306.530702 
L 147.404721 306.235516 
L 147.778403 305.704182 
L 148.152084 305.438515 
L 148.525766 304.552958 
L 148.899448 304.493921 
L 149.646811 304.021624 
L 150.394174 303.460771 
L 151.8889 302.339065 
L 152.262582 302.191472 
L 153.009945 301.719175 
L 154.130989 301.158323 
L 154.504671 300.508914 
L 155.252034 299.918543 
L 155.999397 299.682394 
L 157.120442 299.505283 
L 159.362531 299.15106 
L 159.736213 298.973949 
L 162.351984 298.7378 
L 163.84671 298.354059 
L 166.836163 297.91128 
L 167.209844 297.70465 
L 167.583526 297.645613 
L 168.330889 297.379946 
L 170.94666 296.907649 
L 171.694023 296.671501 
L 175.057157 296.081129 
L 175.80452 295.904018 
L 177.299247 295.697388 
L 178.04661 295.461239 
L 178.420291 294.900387 
L 179.541336 294.428089 
L 180.662381 294.103385 
L 181.036062 293.896755 
L 181.783425 293.749162 
L 183.278152 293.276865 
L 184.025515 293.217828 
L 184.772878 293.011198 
L 186.267604 292.597938 
L 186.641286 292.56842 
L 187.388649 292.184678 
L 187.76233 292.125641 
L 188.136012 291.919011 
L 192.246509 291.210566 
L 193.741236 290.738269 
L 194.114917 290.472602 
L 195.983325 289.823193 
L 196.730688 289.26234 
L 197.851733 289.026192 
L 202.709593 287.550264 
L 203.083275 287.491226 
L 204.578001 286.871337 
L 204.951683 286.812299 
L 205.699046 286.487595 
L 206.446409 286.458077 
L 207.567454 286.103854 
L 207.941135 286.103854 
L 208.314817 285.926742 
L 209.06218 285.838187 
L 209.435861 285.690594 
L 211.304269 285.602038 
L 211.677951 285.513482 
L 212.425314 285.100223 
L 213.546359 284.686963 
L 214.293722 284.273703 
L 215.414766 283.771887 
L 216.909493 283.004404 
L 217.283174 282.561626 
L 218.030537 281.321846 
L 218.404219 281.203772 
L 218.777901 281.203772 
L 220.272627 280.347733 
L 220.646308 280.259178 
L 221.01999 279.875436 
L 221.767353 279.550732 
L 222.514716 279.196509 
L 224.756806 276.51032 
L 225.130487 276.392246 
L 226.998895 275.093429 
L 227.746258 274.562094 
L 228.11994 274.001242 
L 228.493621 273.086166 
L 228.867303 272.495795 
L 229.240984 272.171091 
L 229.614666 271.993979 
L 234.098845 267.831861 
L 235.593571 266.887267 
L 236.340934 266.474007 
L 237.83566 265.617969 
L 239.704068 263.787818 
L 240.451431 263.463114 
L 241.198795 262.931779 
L 241.572476 262.695631 
L 241.946158 262.636594 
L 243.067202 261.957667 
L 243.440884 261.514888 
L 245.309292 260.422701 
L 245.682973 260.275108 
L 246.804018 259.448588 
L 252.409242 257.323252 
L 253.156605 256.585288 
L 254.277649 255.994916 
L 255.025013 255.493101 
L 255.772376 255.256952 
L 256.146057 254.991285 
L 256.519739 254.873211 
L 257.640784 254.076209 
L 259.509191 253.633431 
L 260.630236 252.924985 
L 261.751281 252.659318 
L 262.124962 252.570763 
L 263.246007 251.744243 
L 264.740733 251.301464 
L 265.114415 251.006279 
L 267.356504 250.179759 
L 268.103867 250.032166 
L 268.851231 249.707462 
L 271.467002 248.70383 
L 272.214365 248.615275 
L 273.335409 248.202015 
L 275.203817 247.227902 
L 277.445907 245.899567 
L 278.19327 245.692937 
L 279.314314 245.102565 
L 280.061678 244.954972 
L 280.809041 244.482675 
L 281.556404 244.276045 
L 282.677449 243.803748 
L 284.172175 243.597118 
L 284.919538 243.183858 
L 285.293219 242.829636 
L 285.666901 242.12119 
L 287.161627 241.678412 
L 288.656354 240.969966 
L 292.019488 239.405482 
L 292.766851 239.228371 
L 293.887896 238.637999 
L 294.261577 238.578962 
L 296.129985 237.604849 
L 296.877348 237.103034 
L 297.998393 236.866885 
L 300.614164 235.981328 
L 306.593069 233.118027 
L 306.96675 232.704767 
L 307.340432 232.468619 
L 307.714114 232.380063 
L 308.461477 231.730655 
L 308.835158 231.671618 
L 309.20884 231.022209 
L 309.582521 230.874616 
L 309.956203 230.549912 
L 310.329884 230.490875 
L 311.077248 229.989059 
L 311.824611 229.723392 
L 312.198292 229.428207 
L 312.945655 229.014947 
L 314.0667 228.306501 
L 315.187745 227.71613 
L 315.935108 227.5095 
L 316.682471 227.066721 
L 317.056153 226.387794 
L 317.803516 225.797423 
L 318.177197 225.708867 
L 320.419287 224.587162 
L 321.16665 224.262458 
L 321.914013 223.701605 
L 322.661376 222.904603 
L 324.529784 221.458194 
L 325.277147 220.838304 
L 325.650829 220.661192 
L 326.398192 219.864191 
L 327.519237 219.303338 
L 328.2666 218.86056 
L 328.640281 218.742486 
L 329.013963 218.4473 
L 329.387644 218.388263 
L 332.750779 216.617149 
L 333.498142 216.410519 
L 334.992868 215.879185 
L 335.366549 215.55448 
L 336.861276 214.934591 
L 337.234957 214.816516 
L 337.98232 214.314701 
L 338.729684 213.989996 
L 339.477047 213.429144 
L 340.22441 211.86466 
L 340.971773 210.979103 
L 342.092818 210.359213 
L 342.840181 210.034509 
L 343.213862 209.975471 
L 343.961226 209.621249 
L 345.455952 209.089914 
L 346.203315 208.647136 
L 346.950678 208.292913 
L 347.32436 208.174839 
L 349.566449 206.757948 
L 349.940131 206.315169 
L 351.061175 205.636242 
L 351.434857 205.488649 
L 352.18222 205.016352 
L 353.676946 204.160314 
L 354.050628 204.071758 
L 354.424309 203.747054 
L 357.04008 202.861497 
L 357.413762 202.59583 
L 358.161125 202.359681 
L 361.150578 200.883753 
L 361.897941 200.470493 
L 362.271622 200.293382 
L 363.018985 199.673492 
L 363.766349 199.466862 
L 364.14003 199.112639 
L 364.513712 199.053602 
L 365.261075 198.463231 
L 367.129483 197.312007 
L 367.876846 197.075858 
L 368.250527 196.839709 
L 368.624209 196.780672 
L 370.118935 196.042708 
L 371.23998 195.658967 
L 371.987343 195.540893 
L 373.482069 194.950521 
L 373.855751 194.921003 
L 375.724159 194.064964 
L 376.471522 193.53363 
L 377.218885 193.12037 
L 378.713611 192.382406 
L 379.834656 191.614923 
L 380.582019 191.437812 
L 381.703064 190.729366 
L 382.824108 190.316106 
L 383.571472 190.050439 
L 385.066198 189.519105 
L 385.813561 189.253438 
L 387.308287 188.928734 
L 388.05565 188.692585 
L 389.924058 188.043177 
L 391.045103 187.688954 
L 391.792466 187.511843 
L 394.034555 187.098583 
L 394.781919 186.95099 
L 395.902963 186.685323 
L 396.276645 186.508211 
L 397.024008 186.360618 
L 397.771371 186.153989 
L 398.518734 185.799766 
L 398.892416 185.652173 
L 399.266097 185.652173 
L 403.376595 184.323837 
L 403.750276 184.117207 
L 404.123958 184.117207 
L 404.871321 183.822022 
L 405.245003 183.408762 
L 407.487092 182.434649 
L 408.981818 181.903315 
L 409.3555 181.667166 
L 410.476544 181.312944 
L 411.223908 181.106314 
L 411.597589 180.840647 
L 411.971271 180.752091 
L 412.344952 180.427387 
L 413.465997 180.191238 
L 414.21336 179.837015 
L 414.587042 179.364718 
L 418.697539 178.420124 
L 419.07122 178.420124 
L 419.818584 178.183976 
L 423.181718 177.327937 
L 423.929081 177.150826 
L 427.665897 176.058639 
L 428.039578 175.970083 
L 428.41326 175.763453 
L 429.160623 175.556823 
L 429.907986 175.232119 
L 430.655349 174.936933 
L 431.029031 174.671266 
L 431.776394 174.435118 
L 434.765846 173.372449 
L 435.513209 173.313412 
L 437.007936 172.870634 
L 437.381617 172.634485 
L 438.12898 172.398337 
L 440.37107 171.453743 
L 444.855249 169.800703 
L 446.723656 169.151294 
L 447.47102 168.915146 
L 448.218383 168.708516 
L 449.713109 167.439218 
L 452.32888 166.287993 
L 454.944651 165.136769 
L 455.692014 164.930139 
L 459.055148 163.247581 
L 459.802511 162.804803 
L 463.165645 161.151763 
L 463.539327 160.856577 
L 468.023506 159.1445 
L 468.770869 159.026426 
L 469.14455 158.760759 
L 470.639277 158.465573 
L 471.38664 158.140869 
L 473.255048 157.225794 
L 478.112908 155.011901 
L 479.233953 154.62816 
L 479.607634 154.362493 
L 480.354997 154.273937 
L 480.728679 154.00827 
L 481.476042 153.890196 
L 486.333903 152.089563 
L 487.454947 151.823896 
L 488.949674 151.174488 
L 489.697037 150.761228 
L 491.191763 149.964226 
L 491.939126 149.787115 
L 492.312808 149.550966 
L 492.686489 149.462411 
L 494.554897 148.517817 
L 499.412757 146.658147 
L 499.786439 146.59911 
L 501.281165 145.861146 
L 502.028528 145.713553 
L 502.775892 145.270774 
L 504.270618 144.53281 
L 510.996886 141.905658 
L 512.491612 140.606841 
L 512.865294 140.488767 
L 513.238975 140.252618 
L 514.36002 139.927914 
L 514.733702 139.632728 
L 515.481065 139.367061 
L 516.602109 138.599578 
L 517.349473 138.392948 
L 518.096836 137.979688 
L 519.21788 137.714021 
L 525.196786 135.234462 
L 527.065193 134.466979 
L 528.933601 133.876608 
L 530.054646 133.138644 
L 530.428327 133.050088 
L 531.175691 132.666346 
L 531.923054 132.430198 
L 532.296735 132.075975 
L 533.41778 131.633197 
L 533.791462 131.57416 
L 535.286188 130.865714 
L 536.407233 130.511491 
L 537.528277 130.098231 
L 538.649322 129.773527 
L 539.023004 129.71449 
L 539.770367 129.30123 
L 540.144048 129.153637 
L 540.51773 128.858451 
L 541.638774 128.563266 
L 542.386138 128.26808 
L 543.133501 127.943376 
L 544.628227 127.323486 
L 547.243998 126.61504 
L 547.991361 126.319855 
L 549.486087 126.024669 
L 550.233451 125.877076 
L 551.354495 125.434298 
L 552.47554 125.198149 
L 554.717629 123.840295 
L 555.838674 123.161368 
L 558.080763 122.452923 
L 558.454445 122.157737 
L 561.443898 121.06555 
L 562.564942 120.711327 
L 563.312305 120.298067 
L 564.059669 120.091437 
L 564.43335 119.884807 
L 565.180713 119.737214 
L 566.675439 119.146843 
L 567.422803 118.645028 
L 568.543847 118.349842 
L 569.664892 117.582359 
L 570.038574 117.523322 
L 571.5333 116.903432 
L 573.028026 116.519691 
L 573.401708 116.460654 
L 573.775389 116.283542 
L 574.522752 116.135949 
L 577.885886 115.1028 
L 578.63325 114.512428 
L 580.127976 113.65639 
L 580.501657 113.567834 
L 580.875339 113.361204 
L 581.249021 113.302167 
L 584.612155 111.619609 
L 584.985836 111.294905 
L 586.854244 110.822607 
L 587.975289 110.320792 
L 588.722652 110.114162 
L 589.096334 109.93705 
L 589.470015 109.612346 
L 591.338423 108.933419 
L 596.196283 107.103268 
L 596.943646 106.955675 
L 598.812054 106.335785 
L 599.933099 105.83397 
L 602.54887 105.036968 
L 603.296233 104.59419 
L 616.001406 100.668221 
L 616.748769 100.461591 
L 617.869814 100.048331 
L 618.243496 100.048331 
L 619.36454 99.782664 
L 620.111904 99.635071 
L 620.859267 99.428441 
L 621.980311 98.808551 
L 623.101356 98.454328 
L 625.717127 97.568771 
L 627.211853 96.801289 
L 628.332898 96.535621 
L 629.080261 96.299473 
L 629.827624 95.915732 
L 630.201306 95.591027 
L 630.948669 95.354879 
L 631.322351 95.11873 
L 632.069714 95.030175 
L 634.685485 94.262692 
L 635.806529 94.026543 
L 636.927574 93.731358 
L 637.674937 93.554246 
L 638.795982 92.963875 
L 643.653842 91.104205 
L 644.401205 90.986131 
L 645.148569 90.838538 
L 645.52225 90.838538 
L 646.643295 90.484315 
L 647.76434 90.130093 
L 651.127474 89.15598 
L 651.501155 89.126461 
L 653.369563 88.506571 
L 654.116926 88.418016 
L 654.490608 88.211386 
L 654.864289 88.181867 
L 655.985334 87.650533 
L 657.106379 87.384866 
L 657.853742 87.060162 
L 660.095831 86.26316 
L 660.469513 86.204123 
L 661.216876 85.938456 
L 665.701055 84.787232 
L 667.943144 84.019749 
L 668.690507 83.960712 
L 670.932597 83.399859 
L 671.67996 83.075155 
L 672.053641 83.016118 
L 672.427323 82.839007 
L 673.174686 82.189598 
L 676.911502 80.802226 
L 679.153591 80.211854 
L 679.900954 79.798594 
L 680.274636 79.710039 
L 681.395681 79.090149 
L 681.769362 79.001593 
L 682.143044 78.706407 
L 683.264088 78.381703 
L 689.242993 75.665995 
L 689.616675 75.606958 
L 691.858764 74.455734 
L 692.232446 74.219585 
L 693.353491 73.894881 
L 694.848217 73.274991 
L 695.221899 73.245473 
L 697.090306 72.537027 
L 697.83767 72.389434 
L 698.585033 71.828581 
L 698.958714 71.828581 
L 700.45344 71.297247 
L 701.948167 71.002062 
L 703.442893 70.352653 
L 703.816575 70.352653 
L 704.937619 69.968912 
L 705.684982 69.850838 
L 706.806027 69.201429 
L 707.55339 68.817688 
L 709.421798 68.197798 
L 710.169161 67.873094 
L 712.037569 67.371278 
L 714.279658 66.751388 
L 718.763837 65.423053 
L 721.75329 64.65557 
L 723.621698 63.82905 
L 726.984832 63.091086 
L 727.732195 62.973012 
L 728.85324 62.530233 
L 729.974284 62.116973 
L 730.721647 61.998899 
L 732.216374 61.497083 
L 732.590055 61.497083 
L 732.963737 61.201898 
L 733.7111 60.965749 
L 734.084782 60.965749 
L 737.447916 59.844044 
L 738.942642 59.194635 
L 739.316323 59.135598 
L 740.063687 58.781375 
L 740.81105 58.456671 
L 741.558413 58.131967 
L 742.305776 57.836781 
L 742.679458 57.600633 
L 743.053139 57.541595 
L 743.800502 57.157854 
L 744.547865 56.921706 
L 745.66891 56.331334 
L 746.416273 56.065667 
L 746.789955 55.8 
L 747.163636 55.8 
L 747.163636 55.8 
" clip-path="url(#pcf5123ac3a)" style="fill: none; stroke: #1f77b4; stroke-width: 1.5; stroke-linecap: square"/>
   </g>
   <g id="line2d_40">
    <path d="M 138.810045 307.8 
L 142.173179 307.711444 
L 145.162632 307.563851 
L 146.657358 307.563851 
L 147.03104 307.445777 
L 148.899448 307.357222 
L 151.141537 307.091554 
L 153.383626 307.002999 
L 154.130989 306.914443 
L 156.74676 306.796369 
L 159.362531 306.707813 
L 161.230939 306.648776 
L 166.0888 306.56022 
L 167.957207 306.501183 
L 171.320342 306.412627 
L 172.815068 306.383109 
L 176.551883 306.294553 
L 178.04661 306.14696 
L 179.541336 306.117442 
L 181.783425 306.028886 
L 183.278152 305.999367 
L 185.14656 305.94033 
L 186.641286 305.792737 
L 190.00442 305.704182 
L 190.751783 305.645145 
L 192.246509 305.556589 
L 194.488599 305.468033 
L 195.983325 305.379478 
L 202.709593 304.936699 
L 205.325364 304.848143 
L 206.446409 304.730069 
L 208.314817 304.641513 
L 212.051632 304.434883 
L 215.788448 304.375846 
L 217.283174 304.198735 
L 219.151582 304.110179 
L 222.888398 303.726438 
L 225.130487 303.431252 
L 226.625213 303.372215 
L 229.614666 302.958955 
L 231.856755 302.899918 
L 232.9778 302.781844 
L 234.098845 302.693288 
L 253.530286 301.246878 
L 256.146057 301.158323 
L 257.640784 300.981211 
L 259.509191 300.892655 
L 261.751281 300.8041 
L 263.619689 300.715544 
L 265.114415 300.686026 
L 266.982823 300.626988 
L 267.730186 300.538433 
L 272.961728 300.449877 
L 273.709091 300.361321 
L 278.19327 300.272766 
L 281.556404 300.095654 
L 284.172175 300.007099 
L 285.666901 299.829987 
L 288.282672 299.741431 
L 289.030035 299.623357 
L 290.898443 299.56432 
L 294.635259 299.505283 
L 296.129985 299.35769 
L 297.624711 299.328171 
L 298.745756 299.239616 
L 300.240482 299.092023 
L 303.977298 298.885393 
L 307.714114 298.796837 
L 311.077248 298.619726 
L 312.198292 298.590207 
L 312.945655 298.472133 
L 314.814063 298.383577 
L 315.561426 298.32454 
L 317.429834 298.235985 
L 318.924561 298.206466 
L 321.540331 298.11791 
L 331.256052 297.438983 
L 333.498142 297.350428 
L 335.366549 297.29139 
L 340.598091 297.202835 
L 341.345455 297.114279 
L 346.576996 297.025723 
L 350.313812 296.819093 
L 351.061175 296.789575 
L 351.808538 296.701019 
L 353.676946 296.612463 
L 355.545354 296.553426 
L 357.413762 296.464871 
L 359.28217 296.405833 
L 362.645304 296.317278 
L 364.887393 296.228722 
L 370.118935 296.140166 
L 374.229432 295.904018 
L 375.724159 295.844981 
L 376.845203 295.756425 
L 382.076745 295.667869 
L 384.318835 295.579314 
L 391.045103 295.490758 
L 392.539829 295.461239 
L 397.024008 295.402202 
L 397.771371 295.343165 
L 403.002913 295.254609 
L 404.497639 295.225091 
L 414.21336 295.136535 
L 416.45545 295.047979 
L 432.150075 294.959424 
L 434.018483 294.900387 
L 443.734204 294.841349 
L 444.481567 294.782312 
L 446.349975 294.723275 
L 447.47102 294.605201 
L 449.713109 294.516645 
L 452.32888 294.398571 
L 455.692014 294.310015 
L 457.560422 294.250978 
L 460.176193 294.162422 
L 463.165645 294.01483 
L 465.034053 293.926274 
L 466.52878 293.896755 
L 472.881366 293.8082 
L 475.123456 293.719644 
L 479.233953 293.631088 
L 481.849724 293.513014 
L 484.465495 293.453977 
L 485.212858 293.39494 
L 494.181215 293.306384 
L 497.918031 293.099754 
L 500.533802 293.011198 
L 504.644299 292.77505 
L 507.26007 292.686494 
L 508.754797 292.656976 
L 511.370568 292.56842 
L 513.238975 292.36179 
L 516.975791 292.273234 
L 517.723154 292.184678 
L 521.45997 292.096123 
L 523.328378 292.037086 
L 527.438875 292.007567 
L 528.186238 291.919011 
L 532.296735 291.830456 
L 533.044098 291.771419 
L 541.265093 291.682863 
L 543.507182 291.594307 
L 549.112406 291.505751 
L 550.607132 291.476233 
L 553.970266 291.417196 
L 554.717629 291.32864 
L 559.57549 291.240084 
L 561.443898 291.181047 
L 568.170166 291.092492 
L 569.29121 291.003936 
L 570.412255 290.91538 
L 571.5333 290.826824 
L 577.138523 290.738269 
L 579.380613 290.649713 
L 590.217378 290.561157 
L 593.580512 290.384046 
L 598.812054 290.29549 
L 600.306781 290.265972 
L 604.790959 290.177416 
L 606.659367 290.118379 
L 614.50668 290.029823 
L 617.122451 289.911749 
L 623.848719 289.823193 
L 625.343446 289.793675 
L 629.080261 289.705119 
L 631.696032 289.587045 
L 635.806529 289.498489 
L 638.4223 289.380415 
L 641.785434 289.321378 
L 642.532798 289.26234 
L 650.753792 289.173785 
L 652.995881 289.085229 
L 655.611652 288.996673 
L 657.48006 288.937636 
L 668.316826 288.84908 
L 670.558915 288.760525 
L 676.53782 288.671969 
L 678.77991 288.583413 
L 683.63777 288.494858 
L 685.879859 288.406302 
L 688.869312 288.317746 
L 691.111401 288.229191 
L 706.058664 288.140635 
L 709.048117 287.993042 
L 717.642793 287.904486 
L 719.137519 287.874968 
L 728.105876 287.786412 
L 729.974284 287.727375 
L 741.932094 287.638819 
L 743.426821 287.609301 
L 747.163636 287.550264 
L 747.163636 287.550264 
" clip-path="url(#pcf5123ac3a)" style="fill: none; stroke: #ff7f0e; stroke-width: 1.5; stroke-linecap: square"/>
   </g>
   <g id="patch_3">
    <path d="M 108 320.4 
L 108 43.2 
" style="fill: none; stroke: #a9a9a9; stroke-width: 0.8; stroke-linejoin: miter; stroke-linecap: square"/>
   </g>
   <g id="patch_4">
    <path d="M 777.6 320.4 
L 777.6 43.2 
" style="fill: none"/>
   </g>
   <g id="patch_5">
    <path d="M 108 320.4 
L 777.6 320.4 
" style="fill: none; stroke: #a9a9a9; stroke-width: 0.8; stroke-linejoin: miter; stroke-linecap: square"/>
   </g>
   <g id="patch_6">
    <path d="M 108 43.2 
L 777.6 43.2 
" style="fill: none"/>
   </g>
   <g id="text_20">
    <!-- get_subscribe history -->
    <g style="fill: #a9a9a9" transform="translate(378.6075 37.2) scale(0.12 -0.12)">
     <defs>
      <path id="DejaVuSans-67" d="M 2906 1791 
Q 2906 2416 2648 2759 
Q 2391 3103 1925 3103 
Q 1463 3103 1205 2759 
Q 947 2416 947 1791 
Q 947 1169 1205 825 
Q 1463 481 1925 481 
Q 2391 481 2648 825 
Q 2906 1169 2906 1791 
z
M 3481 434 
Q 3481 -459 3084 -895 
Q 2688 -1331 1869 -1331 
Q 1566 -1331 1297 -1286 
Q 1028 -1241 775 -1147 
L 775 -588 
Q 1028 -725 1275 -790 
Q 1522 -856 1778 -856 
Q 2344 -856 2625 -561 
Q 2906 -266 2906 331 
L 2906 616 
Q 2728 306 2450 153 
Q 2172 0 1784 0 
Q 1141 0 747 490 
Q 353 981 353 1791 
Q 353 2603 747 3093 
Q 1141 3584 1784 3584 
Q 2172 3584 2450 3431 
Q 2728 3278 2906 2969 
L 2906 3500 
L 3481 3500 
L 3481 434 
z
" transform="scale(0.015625)"/>
      <path id="DejaVuSans-65" d="M 3597 1894 
L 3597 1613 
L 953 1613 
Q 991 1019 1311 708 
Q 1631 397 2203 397 
Q 2534 397 2845 478 
Q 3156 559 3463 722 
L 3463 178 
Q 3153 47 2828 -22 
Q 2503 -91 2169 -91 
Q 1331 -91 842 396 
Q 353 884 353 1716 
Q 353 2575 817 3079 
Q 1281 3584 2069 3584 
Q 2775 3584 3186 3129 
Q 3597 2675 3597 1894 
z
M 3022 2063 
Q 3016 2534 2758 2815 
Q 2500 3097 2075 3097 
Q 1594 3097 1305 2825 
Q 1016 2553 972 2059 
L 3022 2063 
z
" transform="scale(0.015625)"/>
      <path id="DejaVuSans-74" d="M 1172 4494 
L 1172 3500 
L 2356 3500 
L 2356 3053 
L 1172 3053 
L 1172 1153 
Q 1172 725 1289 603 
Q 1406 481 1766 481 
L 2356 481 
L 2356 0 
L 1766 0 
Q 1100 0 847 248 
Q 594 497 594 1153 
L 594 3053 
L 172 3053 
L 172 3500 
L 594 3500 
L 594 4494 
L 1172 4494 
z
" transform="scale(0.015625)"/>
      <path id="DejaVuSans-5f" d="M 3263 -1063 
L 3263 -1509 
L -63 -1509 
L -63 -1063 
L 3263 -1063 
z
" transform="scale(0.015625)"/>
      <path id="DejaVuSans-73" d="M 2834 3397 
L 2834 2853 
Q 2591 2978 2328 3040 
Q 2066 3103 1784 3103 
Q 1356 3103 1142 2972 
Q 928 2841 928 2578 
Q 928 2378 1081 2264 
Q 1234 2150 1697 2047 
L 1894 2003 
Q 2506 1872 2764 1633 
Q 3022 1394 3022 966 
Q 3022 478 2636 193 
Q 2250 -91 1575 -91 
Q 1294 -91 989 -36 
Q 684 19 347 128 
L 347 722 
Q 666 556 975 473 
Q 1284 391 1588 391 
Q 1994 391 2212 530 
Q 2431 669 2431 922 
Q 2431 1156 2273 1281 
Q 2116 1406 1581 1522 
L 1381 1569 
Q 847 1681 609 1914 
Q 372 2147 372 2553 
Q 372 3047 722 3315 
Q 1072 3584 1716 3584 
Q 2034 3584 2315 3537 
Q 2597 3491 2834 3397 
z
" transform="scale(0.015625)"/>
      <path id="DejaVuSans-75" d="M 544 1381 
L 544 3500 
L 1119 3500 
L 1119 1403 
Q 1119 906 1312 657 
Q 1506 409 1894 409 
Q 2359 409 2629 706 
Q 2900 1003 2900 1516 
L 2900 3500 
L 3475 3500 
L 3475 0 
L 2900 0 
L 2900 538 
Q 2691 219 2414 64 
Q 2138 -91 1772 -91 
Q 1169 -91 856 284 
Q 544 659 544 1381 
z
M 1991 3584 
L 1991 3584 
z
" transform="scale(0.015625)"/>
      <path id="DejaVuSans-62" d="M 3116 1747 
Q 3116 2381 2855 2742 
Q 2594 3103 2138 3103 
Q 1681 3103 1420 2742 
Q 1159 2381 1159 1747 
Q 1159 1113 1420 752 
Q 1681 391 2138 391 
Q 2594 391 2855 752 
Q 3116 1113 3116 1747 
z
M 1159 2969 
Q 1341 3281 1617 3432 
Q 1894 3584 2278 3584 
Q 2916 3584 3314 3078 
Q 3713 2572 3713 1747 
Q 3713 922 3314 415 
Q 2916 -91 2278 -91 
Q 1894 -91 1617 61 
Q 1341 213 1159 525 
L 1159 0 
L 581 0 
L 581 4863 
L 1159 4863 
L 1159 2969 
z
" transform="scale(0.015625)"/>
      <path id="DejaVuSans-63" d="M 3122 3366 
L 3122 2828 
Q 2878 2963 2633 3030 
Q 2388 3097 2138 3097 
Q 1578 3097 1268 2742 
Q 959 2388 959 1747 
Q 959 1106 1268 751 
Q 1578 397 2138 397 
Q 2388 397 2633 464 
Q 2878 531 3122 666 
L 3122 134 
Q 2881 22 2623 -34 
Q 2366 -91 2075 -91 
Q 1284 -91 818 406 
Q 353 903 353 1747 
Q 353 2603 823 3093 
Q 1294 3584 2113 3584 
Q 2378 3584 2631 3529 
Q 2884 3475 3122 3366 
z
" transform="scale(0.015625)"/>
      <path id="DejaVuSans-72" d="M 2631 2963 
Q 2534 3019 2420 3045 
Q 2306 3072 2169 3072 
Q 1681 3072 1420 2755 
Q 1159 2438 1159 1844 
L 1159 0 
L 581 0 
L 581 3500 
L 1159 3500 
L 1159 2956 
Q 1341 3275 1631 3429 
Q 1922 3584 2338 3584 
Q 2397 3584 2469 3576 
Q 2541 3569 2628 3553 
L 2631 2963 
z
" transform="scale(0.015625)"/>
      <path id="DejaVuSans-69" d="M 603 3500 
L 1178 3500 
L 1178 0 
L 603 0 
L 603 3500 
z
M 603 4863 
L 1178 4863 
L 1178 4134 
L 603 4134 
L 603 4863 
z
" transform="scale(0.015625)"/>
      <path id="DejaVuSans-20" transform="scale(0.015625)"/>
      <path id="DejaVuSans-68" d="M 3513 2113 
L 3513 0 
L 2938 0 
L 2938 2094 
Q 2938 2591 2744 2837 
Q 2550 3084 2163 3084 
Q 1697 3084 1428 2787 
Q 1159 2491 1159 1978 
L 1159 0 
L 581 0 
L 581 4863 
L 1159 4863 
L 1159 2956 
Q 1366 3272 1645 3428 
Q 1925 3584 2291 3584 
Q 2894 3584 3203 3211 
Q 3513 2838 3513 2113 
z
" transform="scale(0.015625)"/>
      <path id="DejaVuSans-6f" d="M 1959 3097 
Q 1497 3097 1228 2736 
Q 959 2375 959 1747 
Q 959 1119 1226 758 
Q 1494 397 1959 397 
Q 2419 397 2687 759 
Q 2956 1122 2956 1747 
Q 2956 2369 2687 2733 
Q 2419 3097 1959 3097 
z
M 1959 3584 
Q 2709 3584 3137 3096 
Q 3566 2609 3566 1747 
Q 3566 888 3137 398 
Q 2709 -91 1959 -91 
Q 1206 -91 779 398 
Q 353 888 353 1747 
Q 353 2609 779 3096 
Q 1206 3584 1959 3584 
z
" transform="scale(0.015625)"/>
      <path id="DejaVuSans-79" d="M 2059 -325 
Q 1816 -950 1584 -1140 
Q 1353 -1331 966 -1331 
L 506 -1331 
L 506 -850 
L 844 -850 
Q 1081 -850 1212 -737 
Q 1344 -625 1503 -206 
L 1606 56 
L 191 3500 
L 800 3500 
L 1894 763 
L 2988 3500 
L 3597 3500 
L 2059 -325 
z
" transform="scale(0.015625)"/>
     </defs>
     <use xlink:href="#DejaVuSans-67"/>
     <use xlink:href="#DejaVuSans-65" transform="translate(63.476562 0)"/>
     <use xlink:href="#DejaVuSans-74" transform="translate(125 0)"/>
     <use xlink:href="#DejaVuSans-5f" transform="translate(164.208984 0)"/>
     <use xlink:href="#DejaVuSans-73" transform="translate(214.208984 0)"/>
     <use xlink:href="#DejaVuSans-75" transform="translate(266.308594 0)"/>
     <use xlink:href="#DejaVuSans-62" transform="translate(329.6875 0)"/>
     <use xlink:href="#DejaVuSans-73" transform="translate(393.164062 0)"/>
     <use xlink:href="#DejaVuSans-63" transform="translate(445.263672 0)"/>
     <use xlink:href="#DejaVuSans-72" transform="translate(500.244141 0)"/>
     <use xlink:href="#DejaVuSans-69" transform="translate(541.357422 0)"/>
     <use xlink:href="#DejaVuSans-62" transform="translate(569.140625 0)"/>
     <use xlink:href="#DejaVuSans-65" transform="translate(632.617188 0)"/>
     <use xlink:href="#DejaVuSans-20" transform="translate(694.140625 0)"/>
     <use xlink:href="#DejaVuSans-68" transform="translate(725.927734 0)"/>
     <use xlink:href="#DejaVuSans-69" transform="translate(789.306641 0)"/>
     <use xlink:href="#DejaVuSans-73" transform="translate(817.089844 0)"/>
     <use xlink:href="#DejaVuSans-74" transform="translate(869.189453 0)"/>
     <use xlink:href="#DejaVuSans-6f" transform="translate(908.398438 0)"/>
     <use xlink:href="#DejaVuSans-72" transform="translate(969.580078 0)"/>
     <use xlink:href="#DejaVuSans-79" transform="translate(1010.693359 0)"/>
    </g>
   </g>
   <g id="legend_1">
    <g id="line2d_41">
     <path d="M 815.08 328.498438 
L 825.08 328.498438 
L 835.08 328.498438 
" style="fill: none; stroke: #1f77b4; stroke-width: 1.5; stroke-linecap: square"/>
    </g>
    <g id="text_21">
     <!-- star -->
     <g style="fill: #a9a9a9" transform="translate(843.08 331.998438) scale(0.1 -0.1)">
      <defs>
       <path id="DejaVuSans-61" d="M 2194 1759 
Q 1497 1759 1228 1600 
Q 959 1441 959 1056 
Q 959 750 1161 570 
Q 1363 391 1709 391 
Q 2188 391 2477 730 
Q 2766 1069 2766 1631 
L 2766 1759 
L 2194 1759 
z
M 3341 1997 
L 3341 0 
L 2766 0 
L 2766 531 
Q 2569 213 2275 61 
Q 1981 -91 1556 -91 
Q 1019 -91 701 211 
Q 384 513 384 1019 
Q 384 1609 779 1909 
Q 1175 2209 1959 2209 
L 2766 2209 
L 2766 2266 
Q 2766 2663 2505 2880 
Q 2244 3097 1772 3097 
Q 1472 3097 1187 3025 
Q 903 2953 641 2809 
L 641 3341 
Q 956 3463 1253 3523 
Q 1550 3584 1831 3584 
Q 2591 3584 2966 3190 
Q 3341 2797 3341 1997 
z
" transform="scale(0.015625)"/>
      </defs>
      <use xlink:href="#DejaVuSans-73"/>
      <use xlink:href="#DejaVuSans-74" transform="translate(52.099609 0)"/>
      <use xlink:href="#DejaVuSans-61" transform="translate(91.308594 0)"/>
      <use xlink:href="#DejaVuSans-72" transform="translate(152.587891 0)"/>
     </g>
    </g>
    <g id="line2d_42">
     <path d="M 815.08 343.176562 
L 825.08 343.176562 
L 835.08 343.176562 
" style="fill: none; stroke: #ff7f0e; stroke-width: 1.5; stroke-linecap: square"/>
    </g>
    <g id="text_22">
     <!-- fork -->
     <g style="fill: #a9a9a9" transform="translate(843.08 346.676562) scale(0.1 -0.1)">
      <defs>
       <path id="DejaVuSans-66" d="M 2375 4863 
L 2375 4384 
L 1825 4384 
Q 1516 4384 1395 4259 
Q 1275 4134 1275 3809 
L 1275 3500 
L 2222 3500 
L 2222 3053 
L 1275 3053 
L 1275 0 
L 697 0 
L 697 3053 
L 147 3053 
L 147 3500 
L 697 3500 
L 697 3744 
Q 697 4328 969 4595 
Q 1241 4863 1831 4863 
L 2375 4863 
z
" transform="scale(0.015625)"/>
       <path id="DejaVuSans-6b" d="M 581 4863 
L 1159 4863 
L 1159 1991 
L 2875 3500 
L 3609 3500 
L 1753 1863 
L 3688 0 
L 2938 0 
L 1159 1709 
L 1159 0 
L 581 0 
L 581 4863 
z
" transform="scale(0.015625)"/>
      </defs>
      <use xlink:href="#DejaVuSans-66"/>
      <use xlink:href="#DejaVuSans-6f" transform="translate(35.205078 0)"/>
      <use xlink:href="#DejaVuSans-72" transform="translate(96.386719 0)"/>
      <use xlink:href="#DejaVuSans-6b" transform="translate(137.5 0)"/>
     </g>
    </g>
   </g>
  </g>
 </g>
 <defs>
  <clipPath id="pcf5123ac3a">
   <rect x="108" y="43.2" width="669.6" height="277.2"/>
  </clipPath>
 </defs>
</svg>
