<?xml version="1.0" encoding="utf-8" standalone="no"?>
<!DOCTYPE svg PUBLIC "-//W3C//DTD SVG 1.1//EN"
  "http://www.w3.org/Graphics/SVG/1.1/DTD/svg11.dtd">
<svg xmlns:xlink="http://www.w3.org/1999/xlink" width="864pt" height="360pt" viewBox="0 0 864 360" xmlns="http://www.w3.org/2000/svg" version="1.1">
 <metadata>
  <rdf:RDF xmlns:dc="http://purl.org/dc/elements/1.1/" xmlns:cc="http://creativecommons.org/ns#" xmlns:rdf="http://www.w3.org/1999/02/22-rdf-syntax-ns#">
   <cc:Work>
    <dc:type rdf:resource="http://purl.org/dc/dcmitype/StillImage"/>
    <dc:date>2026-01-06T08:17:32.565269</dc:date>
    <dc:format>image/svg+xml</dc:format>
    <dc:creator>
     <cc:Agent>
      <dc:title>Matplotlib v3.10.8, https://matplotlib.org/</dc:title>
     </cc:Agent>
    </dc:creator>
   </cc:Work>
  </rdf:RDF>
 </metadata>
 <defs>
  <style type="text/css">*{stroke-linejoin: round; stroke-linecap: butt}</style>
 </defs>
 <g id="figure_1">
  <g id="patch_1">
   <path d="M 0 360 
L 864 360 
L 864 0 
L 0 0 
L 0 360 
z
" style="fill: none; opacity: 0"/>
  </g>
  <g id="axes_1">
   <g id="patch_2">
    <path d="M 108 320.4 
L 777.6 320.4 
L 777.6 43.2 
L 108 43.2 
L 108 320.4 
z
" style="fill: none; opacity: 0"/>
   </g>
   <g id="matplotlib.axis_1">
    <g id="xtick_1">
     <g id="line2d_1">
      <path d="M 129.831123 320.4 
L 129.831123 43.2 
" clip-path="url(#pc41427dd64)" style="fill: none; stroke-dasharray: 5.12,1.28,0.8,1.28; stroke-dashoffset: 0; stroke: #b0b0b0; stroke-width: 0.8"/>
     </g>
     <g id="line2d_2">
      <defs>
       <path id="mfb43aa2ab4" d="M 0 0 
L 0 3.5 
" style="stroke: #a9a9a9; stroke-width: 0.8"/>
      </defs>
      <g>
       <use xlink:href="#mfb43aa2ab4" x="129.831123" y="320.4" style="fill: #a9a9a9; stroke: #a9a9a9; stroke-width: 0.8"/>
      </g>
     </g>
     <g id="text_1">
      <!-- 2021-07 -->
      <g style="fill: #a9a9a9" transform="translate(108.939716 334.998438) scale(0.1 -0.1)">
       <defs>
        <path id="DejaVuSans-32" d="M 1228 531 
L 3431 531 
L 3431 0 
L 469 0 
L 469 531 
Q 828 903 1448 1529 
Q 2069 2156 2228 2338 
Q 2531 2678 2651 2914 
Q 2772 3150 2772 3378 
Q 2772 3750 2511 3984 
Q 2250 4219 1831 4219 
Q 1534 4219 1204 4116 
Q 875 4013 500 3803 
L 500 4441 
Q 881 4594 1212 4672 
Q 1544 4750 1819 4750 
Q 2544 4750 2975 4387 
Q 3406 4025 3406 3419 
Q 3406 3131 3298 2873 
Q 3191 2616 2906 2266 
Q 2828 2175 2409 1742 
Q 1991 1309 1228 531 
z
" transform="scale(0.015625)"/>
        <path id="DejaVuSans-30" d="M 2034 4250 
Q 1547 4250 1301 3770 
Q 1056 3291 1056 2328 
Q 1056 1369 1301 889 
Q 1547 409 2034 409 
Q 2525 409 2770 889 
Q 3016 1369 3016 2328 
Q 3016 3291 2770 3770 
Q 2525 4250 2034 4250 
z
M 2034 4750 
Q 2819 4750 3233 4129 
Q 3647 3509 3647 2328 
Q 3647 1150 3233 529 
Q 2819 -91 2034 -91 
Q 1250 -91 836 529 
Q 422 1150 422 2328 
Q 422 3509 836 4129 
Q 1250 4750 2034 4750 
z
" transform="scale(0.015625)"/>
        <path id="DejaVuSans-31" d="M 794 531 
L 1825 531 
L 1825 4091 
L 703 3866 
L 703 4441 
L 1819 4666 
L 2450 4666 
L 2450 531 
L 3481 531 
L 3481 0 
L 794 0 
L 794 531 
z
" transform="scale(0.015625)"/>
        <path id="DejaVuSans-2d" d="M 313 2009 
L 1997 2009 
L 1997 1497 
L 313 1497 
L 313 2009 
z
" transform="scale(0.015625)"/>
        <path id="DejaVuSans-37" d="M 525 4666 
L 3525 4666 
L 3525 4397 
L 1831 0 
L 1172 0 
L 2766 4134 
L 525 4134 
L 525 4666 
z
" transform="scale(0.015625)"/>
       </defs>
       <use xlink:href="#DejaVuSans-32"/>
       <use xlink:href="#DejaVuSans-30" transform="translate(63.623047 0)"/>
       <use xlink:href="#DejaVuSans-32" transform="translate(127.246094 0)"/>
       <use xlink:href="#DejaVuSans-31" transform="translate(190.869141 0)"/>
       <use xlink:href="#DejaVuSans-2d" transform="translate(254.492188 0)"/>
       <use xlink:href="#DejaVuSans-30" transform="translate(290.576172 0)"/>
       <use xlink:href="#DejaVuSans-37" transform="translate(354.199219 0)"/>
      </g>
     </g>
    </g>
    <g id="xtick_2">
     <g id="line2d_3">
      <path d="M 198.673051 320.4 
L 198.673051 43.2 
" clip-path="url(#pc41427dd64)" style="fill: none; stroke-dasharray: 5.12,1.28,0.8,1.28; stroke-dashoffset: 0; stroke: #b0b0b0; stroke-width: 0.8"/>
     </g>
     <g id="line2d_4">
      <g>
       <use xlink:href="#mfb43aa2ab4" x="198.673051" y="320.4" style="fill: #a9a9a9; stroke: #a9a9a9; stroke-width: 0.8"/>
      </g>
     </g>
     <g id="text_2">
      <!-- 2022-01 -->
      <g style="fill: #a9a9a9" transform="translate(177.781645 334.998438) scale(0.1 -0.1)">
       <use xlink:href="#DejaVuSans-32"/>
       <use xlink:href="#DejaVuSans-30" transform="translate(63.623047 0)"/>
       <use xlink:href="#DejaVuSans-32" transform="translate(127.246094 0)"/>
       <use xlink:href="#DejaVuSans-32" transform="translate(190.869141 0)"/>
       <use xlink:href="#DejaVuSans-2d" transform="translate(254.492188 0)"/>
       <use xlink:href="#DejaVuSans-30" transform="translate(290.576172 0)"/>
       <use xlink:href="#DejaVuSans-31" transform="translate(354.199219 0)"/>
      </g>
     </g>
    </g>
    <g id="xtick_3">
     <g id="line2d_5">
      <path d="M 266.392557 320.4 
L 266.392557 43.2 
" clip-path="url(#pc41427dd64)" style="fill: none; stroke-dasharray: 5.12,1.28,0.8,1.28; stroke-dashoffset: 0; stroke: #b0b0b0; stroke-width: 0.8"/>
     </g>
     <g id="line2d_6">
      <g>
       <use xlink:href="#mfb43aa2ab4" x="266.392557" y="320.4" style="fill: #a9a9a9; stroke: #a9a9a9; stroke-width: 0.8"/>
      </g>
     </g>
     <g id="text_3">
      <!-- 2022-07 -->
      <g style="fill: #a9a9a9" transform="translate(245.501151 334.998438) scale(0.1 -0.1)">
       <use xlink:href="#DejaVuSans-32"/>
       <use xlink:href="#DejaVuSans-30" transform="translate(63.623047 0)"/>
       <use xlink:href="#DejaVuSans-32" transform="translate(127.246094 0)"/>
       <use xlink:href="#DejaVuSans-32" transform="translate(190.869141 0)"/>
       <use xlink:href="#DejaVuSans-2d" transform="translate(254.492188 0)"/>
       <use xlink:href="#DejaVuSans-30" transform="translate(290.576172 0)"/>
       <use xlink:href="#DejaVuSans-37" transform="translate(354.199219 0)"/>
      </g>
     </g>
    </g>
    <g id="xtick_4">
     <g id="line2d_7">
      <path d="M 335.234486 320.4 
L 335.234486 43.2 
" clip-path="url(#pc41427dd64)" style="fill: none; stroke-dasharray: 5.12,1.28,0.8,1.28; stroke-dashoffset: 0; stroke: #b0b0b0; stroke-width: 0.8"/>
     </g>
     <g id="line2d_8">
      <g>
       <use xlink:href="#mfb43aa2ab4" x="335.234486" y="320.4" style="fill: #a9a9a9; stroke: #a9a9a9; stroke-width: 0.8"/>
      </g>
     </g>
     <g id="text_4">
      <!-- 2023-01 -->
      <g style="fill: #a9a9a9" transform="translate(314.34308 334.998438) scale(0.1 -0.1)">
       <defs>
        <path id="DejaVuSans-33" d="M 2597 2516 
Q 3050 2419 3304 2112 
Q 3559 1806 3559 1356 
Q 3559 666 3084 287 
Q 2609 -91 1734 -91 
Q 1441 -91 1130 -33 
Q 819 25 488 141 
L 488 750 
Q 750 597 1062 519 
Q 1375 441 1716 441 
Q 2309 441 2620 675 
Q 2931 909 2931 1356 
Q 2931 1769 2642 2001 
Q 2353 2234 1838 2234 
L 1294 2234 
L 1294 2753 
L 1863 2753 
Q 2328 2753 2575 2939 
Q 2822 3125 2822 3475 
Q 2822 3834 2567 4026 
Q 2313 4219 1838 4219 
Q 1578 4219 1281 4162 
Q 984 4106 628 3988 
L 628 4550 
Q 988 4650 1302 4700 
Q 1616 4750 1894 4750 
Q 2613 4750 3031 4423 
Q 3450 4097 3450 3541 
Q 3450 3153 3228 2886 
Q 3006 2619 2597 2516 
z
" transform="scale(0.015625)"/>
       </defs>
       <use xlink:href="#DejaVuSans-32"/>
       <use xlink:href="#DejaVuSans-30" transform="translate(63.623047 0)"/>
       <use xlink:href="#DejaVuSans-32" transform="translate(127.246094 0)"/>
       <use xlink:href="#DejaVuSans-33" transform="translate(190.869141 0)"/>
       <use xlink:href="#DejaVuSans-2d" transform="translate(254.492188 0)"/>
       <use xlink:href="#DejaVuSans-30" transform="translate(290.576172 0)"/>
       <use xlink:href="#DejaVuSans-31" transform="translate(354.199219 0)"/>
      </g>
     </g>
    </g>
    <g id="xtick_5">
     <g id="line2d_9">
      <path d="M 402.953992 320.4 
L 402.953992 43.2 
" clip-path="url(#pc41427dd64)" style="fill: none; stroke-dasharray: 5.12,1.28,0.8,1.28; stroke-dashoffset: 0; stroke: #b0b0b0; stroke-width: 0.8"/>
     </g>
     <g id="line2d_10">
      <g>
       <use xlink:href="#mfb43aa2ab4" x="402.953992" y="320.4" style="fill: #a9a9a9; stroke: #a9a9a9; stroke-width: 0.8"/>
      </g>
     </g>
     <g id="text_5">
      <!-- 2023-07 -->
      <g style="fill: #a9a9a9" transform="translate(382.062586 334.998438) scale(0.1 -0.1)">
       <use xlink:href="#DejaVuSans-32"/>
       <use xlink:href="#DejaVuSans-30" transform="translate(63.623047 0)"/>
       <use xlink:href="#DejaVuSans-32" transform="translate(127.246094 0)"/>
       <use xlink:href="#DejaVuSans-33" transform="translate(190.869141 0)"/>
       <use xlink:href="#DejaVuSans-2d" transform="translate(254.492188 0)"/>
       <use xlink:href="#DejaVuSans-30" transform="translate(290.576172 0)"/>
       <use xlink:href="#DejaVuSans-37" transform="translate(354.199219 0)"/>
      </g>
     </g>
    </g>
    <g id="xtick_6">
     <g id="line2d_11">
      <path d="M 471.795921 320.4 
L 471.795921 43.2 
" clip-path="url(#pc41427dd64)" style="fill: none; stroke-dasharray: 5.12,1.28,0.8,1.28; stroke-dashoffset: 0; stroke: #b0b0b0; stroke-width: 0.8"/>
     </g>
     <g id="line2d_12">
      <g>
       <use xlink:href="#mfb43aa2ab4" x="471.795921" y="320.4" style="fill: #a9a9a9; stroke: #a9a9a9; stroke-width: 0.8"/>
      </g>
     </g>
     <g id="text_6">
      <!-- 2024-01 -->
      <g style="fill: #a9a9a9" transform="translate(450.904515 334.998438) scale(0.1 -0.1)">
       <defs>
        <path id="DejaVuSans-34" d="M 2419 4116 
L 825 1625 
L 2419 1625 
L 2419 4116 
z
M 2253 4666 
L 3047 4666 
L 3047 1625 
L 3713 1625 
L 3713 1100 
L 3047 1100 
L 3047 0 
L 2419 0 
L 2419 1100 
L 313 1100 
L 313 1709 
L 2253 4666 
z
" transform="scale(0.015625)"/>
       </defs>
       <use xlink:href="#DejaVuSans-32"/>
       <use xlink:href="#DejaVuSans-30" transform="translate(63.623047 0)"/>
       <use xlink:href="#DejaVuSans-32" transform="translate(127.246094 0)"/>
       <use xlink:href="#DejaVuSans-34" transform="translate(190.869141 0)"/>
       <use xlink:href="#DejaVuSans-2d" transform="translate(254.492188 0)"/>
       <use xlink:href="#DejaVuSans-30" transform="translate(290.576172 0)"/>
       <use xlink:href="#DejaVuSans-31" transform="translate(354.199219 0)"/>
      </g>
     </g>
    </g>
    <g id="xtick_7">
     <g id="line2d_13">
      <path d="M 539.889568 320.4 
L 539.889568 43.2 
" clip-path="url(#pc41427dd64)" style="fill: none; stroke-dasharray: 5.12,1.28,0.8,1.28; stroke-dashoffset: 0; stroke: #b0b0b0; stroke-width: 0.8"/>
     </g>
     <g id="line2d_14">
      <g>
       <use xlink:href="#mfb43aa2ab4" x="539.889568" y="320.4" style="fill: #a9a9a9; stroke: #a9a9a9; stroke-width: 0.8"/>
      </g>
     </g>
     <g id="text_7">
      <!-- 2024-07 -->
      <g style="fill: #a9a9a9" transform="translate(518.998162 334.998438) scale(0.1 -0.1)">
       <use xlink:href="#DejaVuSans-32"/>
       <use xlink:href="#DejaVuSans-30" transform="translate(63.623047 0)"/>
       <use xlink:href="#DejaVuSans-32" transform="translate(127.246094 0)"/>
       <use xlink:href="#DejaVuSans-34" transform="translate(190.869141 0)"/>
       <use xlink:href="#DejaVuSans-2d" transform="translate(254.492188 0)"/>
       <use xlink:href="#DejaVuSans-30" transform="translate(290.576172 0)"/>
       <use xlink:href="#DejaVuSans-37" transform="translate(354.199219 0)"/>
      </g>
     </g>
    </g>
    <g id="xtick_8">
     <g id="line2d_15">
      <path d="M 608.731497 320.4 
L 608.731497 43.2 
" clip-path="url(#pc41427dd64)" style="fill: none; stroke-dasharray: 5.12,1.28,0.8,1.28; stroke-dashoffset: 0; stroke: #b0b0b0; stroke-width: 0.8"/>
     </g>
     <g id="line2d_16">
      <g>
       <use xlink:href="#mfb43aa2ab4" x="608.731497" y="320.4" style="fill: #a9a9a9; stroke: #a9a9a9; stroke-width: 0.8"/>
      </g>
     </g>
     <g id="text_8">
      <!-- 2025-01 -->
      <g style="fill: #a9a9a9" transform="translate(587.840091 334.998438) scale(0.1 -0.1)">
       <defs>
        <path id="DejaVuSans-35" d="M 691 4666 
L 3169 4666 
L 3169 4134 
L 1269 4134 
L 1269 2991 
Q 1406 3038 1543 3061 
Q 1681 3084 1819 3084 
Q 2600 3084 3056 2656 
Q 3513 2228 3513 1497 
Q 3513 744 3044 326 
Q 2575 -91 1722 -91 
Q 1428 -91 1123 -41 
Q 819 9 494 109 
L 494 744 
Q 775 591 1075 516 
Q 1375 441 1709 441 
Q 2250 441 2565 725 
Q 2881 1009 2881 1497 
Q 2881 1984 2565 2268 
Q 2250 2553 1709 2553 
Q 1456 2553 1204 2497 
Q 953 2441 691 2322 
L 691 4666 
z
" transform="scale(0.015625)"/>
       </defs>
       <use xlink:href="#DejaVuSans-32"/>
       <use xlink:href="#DejaVuSans-30" transform="translate(63.623047 0)"/>
       <use xlink:href="#DejaVuSans-32" transform="translate(127.246094 0)"/>
       <use xlink:href="#DejaVuSans-35" transform="translate(190.869141 0)"/>
       <use xlink:href="#DejaVuSans-2d" transform="translate(254.492188 0)"/>
       <use xlink:href="#DejaVuSans-30" transform="translate(290.576172 0)"/>
       <use xlink:href="#DejaVuSans-31" transform="translate(354.199219 0)"/>
      </g>
     </g>
    </g>
    <g id="xtick_9">
     <g id="line2d_17">
      <path d="M 676.451003 320.4 
L 676.451003 43.2 
" clip-path="url(#pc41427dd64)" style="fill: none; stroke-dasharray: 5.12,1.28,0.8,1.28; stroke-dashoffset: 0; stroke: #b0b0b0; stroke-width: 0.8"/>
     </g>
     <g id="line2d_18">
      <g>
       <use xlink:href="#mfb43aa2ab4" x="676.451003" y="320.4" style="fill: #a9a9a9; stroke: #a9a9a9; stroke-width: 0.8"/>
      </g>
     </g>
     <g id="text_9">
      <!-- 2025-07 -->
      <g style="fill: #a9a9a9" transform="translate(655.559597 334.998438) scale(0.1 -0.1)">
       <use xlink:href="#DejaVuSans-32"/>
       <use xlink:href="#DejaVuSans-30" transform="translate(63.623047 0)"/>
       <use xlink:href="#DejaVuSans-32" transform="translate(127.246094 0)"/>
       <use xlink:href="#DejaVuSans-35" transform="translate(190.869141 0)"/>
       <use xlink:href="#DejaVuSans-2d" transform="translate(254.492188 0)"/>
       <use xlink:href="#DejaVuSans-30" transform="translate(290.576172 0)"/>
       <use xlink:href="#DejaVuSans-37" transform="translate(354.199219 0)"/>
      </g>
     </g>
    </g>
    <g id="xtick_10">
     <g id="line2d_19">
      <path d="M 745.292932 320.4 
L 745.292932 43.2 
" clip-path="url(#pc41427dd64)" style="fill: none; stroke-dasharray: 5.12,1.28,0.8,1.28; stroke-dashoffset: 0; stroke: #b0b0b0; stroke-width: 0.8"/>
     </g>
     <g id="line2d_20">
      <g>
       <use xlink:href="#mfb43aa2ab4" x="745.292932" y="320.4" style="fill: #a9a9a9; stroke: #a9a9a9; stroke-width: 0.8"/>
      </g>
     </g>
     <g id="text_10">
      <!-- 2026-01 -->
      <g style="fill: #a9a9a9" transform="translate(724.401526 334.998438) scale(0.1 -0.1)">
       <defs>
        <path id="DejaVuSans-36" d="M 2113 2584 
Q 1688 2584 1439 2293 
Q 1191 2003 1191 1497 
Q 1191 994 1439 701 
Q 1688 409 2113 409 
Q 2538 409 2786 701 
Q 3034 994 3034 1497 
Q 3034 2003 2786 2293 
Q 2538 2584 2113 2584 
z
M 3366 4563 
L 3366 3988 
Q 3128 4100 2886 4159 
Q 2644 4219 2406 4219 
Q 1781 4219 1451 3797 
Q 1122 3375 1075 2522 
Q 1259 2794 1537 2939 
Q 1816 3084 2150 3084 
Q 2853 3084 3261 2657 
Q 3669 2231 3669 1497 
Q 3669 778 3244 343 
Q 2819 -91 2113 -91 
Q 1303 -91 875 529 
Q 447 1150 447 2328 
Q 447 3434 972 4092 
Q 1497 4750 2381 4750 
Q 2619 4750 2861 4703 
Q 3103 4656 3366 4563 
z
" transform="scale(0.015625)"/>
       </defs>
       <use xlink:href="#DejaVuSans-32"/>
       <use xlink:href="#DejaVuSans-30" transform="translate(63.623047 0)"/>
       <use xlink:href="#DejaVuSans-32" transform="translate(127.246094 0)"/>
       <use xlink:href="#DejaVuSans-36" transform="translate(190.869141 0)"/>
       <use xlink:href="#DejaVuSans-2d" transform="translate(254.492188 0)"/>
       <use xlink:href="#DejaVuSans-30" transform="translate(290.576172 0)"/>
       <use xlink:href="#DejaVuSans-31" transform="translate(354.199219 0)"/>
      </g>
     </g>
    </g>
   </g>
   <g id="matplotlib.axis_2">
    <g id="ytick_1">
     <g id="line2d_21">
      <path d="M 108 307.82956 
L 777.6 307.82956 
" clip-path="url(#pc41427dd64)" style="fill: none; stroke-dasharray: 5.12,1.28,0.8,1.28; stroke-dashoffset: 0; stroke: #b0b0b0; stroke-width: 0.8"/>
     </g>
     <g id="line2d_22">
      <defs>
       <path id="mf9e638796c" d="M 0 0 
L -3.5 0 
" style="stroke: #a9a9a9; stroke-width: 0.8"/>
      </defs>
      <g>
       <use xlink:href="#mf9e638796c" x="108" y="307.82956" style="fill: #a9a9a9; stroke: #a9a9a9; stroke-width: 0.8"/>
      </g>
     </g>
     <g id="text_11">
      <!-- 0 -->
      <g style="fill: #a9a9a9" transform="translate(94.6375 311.628779) scale(0.1 -0.1)">
       <use xlink:href="#DejaVuSans-30"/>
      </g>
     </g>
    </g>
    <g id="ytick_2">
     <g id="line2d_23">
      <path d="M 108 278.269443 
L 777.6 278.269443 
" clip-path="url(#pc41427dd64)" style="fill: none; stroke-dasharray: 5.12,1.28,0.8,1.28; stroke-dashoffset: 0; stroke: #b0b0b0; stroke-width: 0.8"/>
     </g>
     <g id="line2d_24">
      <g>
       <use xlink:href="#mf9e638796c" x="108" y="278.269443" style="fill: #a9a9a9; stroke: #a9a9a9; stroke-width: 0.8"/>
      </g>
     </g>
     <g id="text_12">
      <!-- 1000 -->
      <g style="fill: #a9a9a9" transform="translate(75.55 282.068662) scale(0.1 -0.1)">
       <use xlink:href="#DejaVuSans-31"/>
       <use xlink:href="#DejaVuSans-30" transform="translate(63.623047 0)"/>
       <use xlink:href="#DejaVuSans-30" transform="translate(127.246094 0)"/>
       <use xlink:href="#DejaVuSans-30" transform="translate(190.869141 0)"/>
      </g>
     </g>
    </g>
    <g id="ytick_3">
     <g id="line2d_25">
      <path d="M 108 248.709326 
L 777.6 248.709326 
" clip-path="url(#pc41427dd64)" style="fill: none; stroke-dasharray: 5.12,1.28,0.8,1.28; stroke-dashoffset: 0; stroke: #b0b0b0; stroke-width: 0.8"/>
     </g>
     <g id="line2d_26">
      <g>
       <use xlink:href="#mf9e638796c" x="108" y="248.709326" style="fill: #a9a9a9; stroke: #a9a9a9; stroke-width: 0.8"/>
      </g>
     </g>
     <g id="text_13">
      <!-- 2000 -->
      <g style="fill: #a9a9a9" transform="translate(75.55 252.508544) scale(0.1 -0.1)">
       <use xlink:href="#DejaVuSans-32"/>
       <use xlink:href="#DejaVuSans-30" transform="translate(63.623047 0)"/>
       <use xlink:href="#DejaVuSans-30" transform="translate(127.246094 0)"/>
       <use xlink:href="#DejaVuSans-30" transform="translate(190.869141 0)"/>
      </g>
     </g>
    </g>
    <g id="ytick_4">
     <g id="line2d_27">
      <path d="M 108 219.149208 
L 777.6 219.149208 
" clip-path="url(#pc41427dd64)" style="fill: none; stroke-dasharray: 5.12,1.28,0.8,1.28; stroke-dashoffset: 0; stroke: #b0b0b0; stroke-width: 0.8"/>
     </g>
     <g id="line2d_28">
      <g>
       <use xlink:href="#mf9e638796c" x="108" y="219.149208" style="fill: #a9a9a9; stroke: #a9a9a9; stroke-width: 0.8"/>
      </g>
     </g>
     <g id="text_14">
      <!-- 3000 -->
      <g style="fill: #a9a9a9" transform="translate(75.55 222.948427) scale(0.1 -0.1)">
       <use xlink:href="#DejaVuSans-33"/>
       <use xlink:href="#DejaVuSans-30" transform="translate(63.623047 0)"/>
       <use xlink:href="#DejaVuSans-30" transform="translate(127.246094 0)"/>
       <use xlink:href="#DejaVuSans-30" transform="translate(190.869141 0)"/>
      </g>
     </g>
    </g>
    <g id="ytick_5">
     <g id="line2d_29">
      <path d="M 108 189.589091 
L 777.6 189.589091 
" clip-path="url(#pc41427dd64)" style="fill: none; stroke-dasharray: 5.12,1.28,0.8,1.28; stroke-dashoffset: 0; stroke: #b0b0b0; stroke-width: 0.8"/>
     </g>
     <g id="line2d_30">
      <g>
       <use xlink:href="#mf9e638796c" x="108" y="189.589091" style="fill: #a9a9a9; stroke: #a9a9a9; stroke-width: 0.8"/>
      </g>
     </g>
     <g id="text_15">
      <!-- 4000 -->
      <g style="fill: #a9a9a9" transform="translate(75.55 193.38831) scale(0.1 -0.1)">
       <use xlink:href="#DejaVuSans-34"/>
       <use xlink:href="#DejaVuSans-30" transform="translate(63.623047 0)"/>
       <use xlink:href="#DejaVuSans-30" transform="translate(127.246094 0)"/>
       <use xlink:href="#DejaVuSans-30" transform="translate(190.869141 0)"/>
      </g>
     </g>
    </g>
    <g id="ytick_6">
     <g id="line2d_31">
      <path d="M 108 160.028974 
L 777.6 160.028974 
" clip-path="url(#pc41427dd64)" style="fill: none; stroke-dasharray: 5.12,1.28,0.8,1.28; stroke-dashoffset: 0; stroke: #b0b0b0; stroke-width: 0.8"/>
     </g>
     <g id="line2d_32">
      <g>
       <use xlink:href="#mf9e638796c" x="108" y="160.028974" style="fill: #a9a9a9; stroke: #a9a9a9; stroke-width: 0.8"/>
      </g>
     </g>
     <g id="text_16">
      <!-- 5000 -->
      <g style="fill: #a9a9a9" transform="translate(75.55 163.828192) scale(0.1 -0.1)">
       <use xlink:href="#DejaVuSans-35"/>
       <use xlink:href="#DejaVuSans-30" transform="translate(63.623047 0)"/>
       <use xlink:href="#DejaVuSans-30" transform="translate(127.246094 0)"/>
       <use xlink:href="#DejaVuSans-30" transform="translate(190.869141 0)"/>
      </g>
     </g>
    </g>
    <g id="ytick_7">
     <g id="line2d_33">
      <path d="M 108 130.468856 
L 777.6 130.468856 
" clip-path="url(#pc41427dd64)" style="fill: none; stroke-dasharray: 5.12,1.28,0.8,1.28; stroke-dashoffset: 0; stroke: #b0b0b0; stroke-width: 0.8"/>
     </g>
     <g id="line2d_34">
      <g>
       <use xlink:href="#mf9e638796c" x="108" y="130.468856" style="fill: #a9a9a9; stroke: #a9a9a9; stroke-width: 0.8"/>
      </g>
     </g>
     <g id="text_17">
      <!-- 6000 -->
      <g style="fill: #a9a9a9" transform="translate(75.55 134.268075) scale(0.1 -0.1)">
       <use xlink:href="#DejaVuSans-36"/>
       <use xlink:href="#DejaVuSans-30" transform="translate(63.623047 0)"/>
       <use xlink:href="#DejaVuSans-30" transform="translate(127.246094 0)"/>
       <use xlink:href="#DejaVuSans-30" transform="translate(190.869141 0)"/>
      </g>
     </g>
    </g>
    <g id="ytick_8">
     <g id="line2d_35">
      <path d="M 108 100.908739 
L 777.6 100.908739 
" clip-path="url(#pc41427dd64)" style="fill: none; stroke-dasharray: 5.12,1.28,0.8,1.28; stroke-dashoffset: 0; stroke: #b0b0b0; stroke-width: 0.8"/>
     </g>
     <g id="line2d_36">
      <g>
       <use xlink:href="#mf9e638796c" x="108" y="100.908739" style="fill: #a9a9a9; stroke: #a9a9a9; stroke-width: 0.8"/>
      </g>
     </g>
     <g id="text_18">
      <!-- 7000 -->
      <g style="fill: #a9a9a9" transform="translate(75.55 104.707958) scale(0.1 -0.1)">
       <use xlink:href="#DejaVuSans-37"/>
       <use xlink:href="#DejaVuSans-30" transform="translate(63.623047 0)"/>
       <use xlink:href="#DejaVuSans-30" transform="translate(127.246094 0)"/>
       <use xlink:href="#DejaVuSans-30" transform="translate(190.869141 0)"/>
      </g>
     </g>
    </g>
    <g id="ytick_9">
     <g id="line2d_37">
      <path d="M 108 71.348622 
L 777.6 71.348622 
" clip-path="url(#pc41427dd64)" style="fill: none; stroke-dasharray: 5.12,1.28,0.8,1.28; stroke-dashoffset: 0; stroke: #b0b0b0; stroke-width: 0.8"/>
     </g>
     <g id="line2d_38">
      <g>
       <use xlink:href="#mf9e638796c" x="108" y="71.348622" style="fill: #a9a9a9; stroke: #a9a9a9; stroke-width: 0.8"/>
      </g>
     </g>
     <g id="text_19">
      <!-- 8000 -->
      <g style="fill: #a9a9a9" transform="translate(75.55 75.14784) scale(0.1 -0.1)">
       <defs>
        <path id="DejaVuSans-38" d="M 2034 2216 
Q 1584 2216 1326 1975 
Q 1069 1734 1069 1313 
Q 1069 891 1326 650 
Q 1584 409 2034 409 
Q 2484 409 2743 651 
Q 3003 894 3003 1313 
Q 3003 1734 2745 1975 
Q 2488 2216 2034 2216 
z
M 1403 2484 
Q 997 2584 770 2862 
Q 544 3141 544 3541 
Q 544 4100 942 4425 
Q 1341 4750 2034 4750 
Q 2731 4750 3128 4425 
Q 3525 4100 3525 3541 
Q 3525 3141 3298 2862 
Q 3072 2584 2669 2484 
Q 3125 2378 3379 2068 
Q 3634 1759 3634 1313 
Q 3634 634 3220 271 
Q 2806 -91 2034 -91 
Q 1263 -91 848 271 
Q 434 634 434 1313 
Q 434 1759 690 2068 
Q 947 2378 1403 2484 
z
M 1172 3481 
Q 1172 3119 1398 2916 
Q 1625 2713 2034 2713 
Q 2441 2713 2670 2916 
Q 2900 3119 2900 3481 
Q 2900 3844 2670 4047 
Q 2441 4250 2034 4250 
Q 1625 4250 1398 4047 
Q 1172 3844 1172 3481 
z
" transform="scale(0.015625)"/>
       </defs>
       <use xlink:href="#DejaVuSans-38"/>
       <use xlink:href="#DejaVuSans-30" transform="translate(63.623047 0)"/>
       <use xlink:href="#DejaVuSans-30" transform="translate(127.246094 0)"/>
       <use xlink:href="#DejaVuSans-30" transform="translate(190.869141 0)"/>
      </g>
     </g>
    </g>
   </g>
   <g id="line2d_39">
    <path d="M 138.436364 307.74088 
L 140.681209 307.533959 
L 141.05535 307.356598 
L 142.551914 307.149677 
L 144.048477 306.824516 
L 144.796759 306.706276 
L 146.667464 306.528915 
L 147.415746 306.233314 
L 147.789887 305.701232 
L 148.164027 305.435191 
L 148.538168 304.548387 
L 148.912309 304.489267 
L 149.660591 304.016305 
L 150.408873 303.454663 
L 151.905437 302.331378 
L 152.279578 302.183578 
L 153.027859 301.710616 
L 154.150282 301.148974 
L 154.524423 300.498651 
L 155.272705 299.907449 
L 156.020987 299.670968 
L 157.14341 299.493607 
L 159.388255 299.138886 
L 159.762396 298.961525 
L 162.381382 298.725044 
L 163.877946 298.340762 
L 166.871073 297.897361 
L 167.245214 297.69044 
L 167.619355 297.63132 
L 168.367637 297.365279 
L 170.986623 296.892317 
L 171.734905 296.655836 
L 175.102174 296.064633 
L 175.850455 295.887273 
L 177.347019 295.680352 
L 178.095301 295.443871 
L 178.469442 294.882229 
L 179.591865 294.409267 
L 180.714287 294.084106 
L 181.088428 293.877185 
L 181.83671 293.729384 
L 183.333274 293.256422 
L 184.081556 293.197302 
L 184.829837 292.990381 
L 186.326401 292.57654 
L 186.700542 292.546979 
L 187.448824 292.162698 
L 187.822965 292.103578 
L 188.197106 291.896657 
L 192.312656 291.187214 
L 193.809219 290.714252 
L 194.18336 290.448211 
L 196.054065 289.797889 
L 196.802347 289.236246 
L 197.92477 288.999765 
L 202.788601 287.52176 
L 203.162742 287.462639 
L 204.659306 286.841877 
L 205.033447 286.782757 
L 205.781729 286.457595 
L 206.530011 286.428035 
L 207.652433 286.073314 
L 208.026574 286.073314 
L 208.400715 285.895953 
L 209.148997 285.807273 
L 209.523138 285.659472 
L 211.393843 285.570792 
L 211.767983 285.482111 
L 212.516265 285.06827 
L 213.638688 284.654428 
L 214.38697 284.240587 
L 215.509393 283.738065 
L 217.005956 282.969501 
L 217.380097 282.5261 
L 218.128379 281.284575 
L 218.50252 281.166334 
L 218.876661 281.166334 
L 220.373225 280.309091 
L 220.747365 280.220411 
L 221.121506 279.836129 
L 221.869788 279.510968 
L 222.61807 279.156246 
L 224.862916 276.466276 
L 225.237056 276.348035 
L 227.107761 275.04739 
L 227.856043 274.515308 
L 228.230184 273.953666 
L 228.604325 273.037302 
L 228.978466 272.4461 
L 229.352607 272.120938 
L 229.726747 271.943578 
L 234.216439 267.775601 
L 235.713002 266.829677 
L 236.461284 266.415836 
L 237.957848 265.558592 
L 239.828552 263.725865 
L 240.576834 263.400704 
L 241.325116 262.868622 
L 241.699257 262.632141 
L 242.073398 262.573021 
L 243.195821 261.893138 
L 243.569961 261.449736 
L 245.440666 260.356012 
L 245.814807 260.208211 
L 246.93723 259.380528 
L 252.549343 257.252199 
L 253.297625 256.513196 
L 254.420048 255.921994 
L 255.16833 255.419472 
L 255.916612 255.182991 
L 256.290753 254.91695 
L 256.664894 254.79871 
L 257.787316 254.000587 
L 259.658021 253.557185 
L 260.780444 252.847742 
L 261.902866 252.581701 
L 262.277007 252.493021 
L 263.39943 251.635777 
L 264.895994 251.192375 
L 265.270135 250.896774 
L 267.51498 250.069091 
L 268.263262 249.92129 
L 269.011544 249.596129 
L 271.63053 248.591085 
L 272.378812 248.502405 
L 273.501235 248.088563 
L 275.371939 247.113079 
L 277.616785 245.782874 
L 278.365067 245.575953 
L 279.48749 244.984751 
L 280.235771 244.83695 
L 280.984053 244.363988 
L 281.732335 244.157067 
L 282.854758 243.684106 
L 284.351321 243.477185 
L 285.099603 243.063343 
L 285.473744 242.708622 
L 285.847885 241.999179 
L 287.344449 241.555777 
L 288.841012 240.846334 
L 292.208281 239.279648 
L 292.956563 239.102287 
L 294.078985 238.511085 
L 294.453126 238.451965 
L 296.323831 237.476481 
L 297.072113 236.973959 
L 298.194535 236.737478 
L 300.813522 235.850674 
L 306.799776 232.983343 
L 307.173917 232.569501 
L 307.548058 232.333021 
L 307.922199 232.24434 
L 308.670481 231.594018 
L 309.044622 231.534897 
L 309.418763 230.884575 
L 309.792904 230.736774 
L 310.167045 230.411613 
L 310.541186 230.352493 
L 311.289468 229.849971 
L 312.037749 229.58393 
L 312.41189 229.288328 
L 313.160172 228.874487 
L 314.282595 228.165044 
L 315.405018 227.573842 
L 316.153299 227.366921 
L 316.901581 226.923519 
L 317.275722 226.243636 
L 318.024004 225.652434 
L 318.398145 225.563754 
L 320.64299 224.440469 
L 321.391272 224.115308 
L 322.139554 223.553666 
L 322.887836 222.755543 
L 324.758541 221.307097 
L 325.506822 220.686334 
L 325.880963 220.508974 
L 326.629245 219.71085 
L 327.751668 219.149208 
L 328.49995 218.705806 
L 328.874091 218.587566 
L 329.248232 218.291965 
L 329.622372 218.232845 
L 332.989641 216.459238 
L 333.737923 216.252317 
L 335.234486 215.720235 
L 335.608627 215.395073 
L 337.105191 214.774311 
L 337.479332 214.65607 
L 338.227614 214.153548 
L 338.975895 213.828387 
L 339.724177 213.266745 
L 340.472459 211.700059 
L 341.220741 210.813255 
L 342.343164 210.192493 
L 343.091445 209.867331 
L 343.465586 209.808211 
L 344.213868 209.45349 
L 345.710432 208.921408 
L 346.458714 208.478006 
L 347.206996 208.123284 
L 347.581137 208.005044 
L 349.825982 206.586158 
L 350.200123 206.142757 
L 351.322546 205.462874 
L 351.696687 205.315073 
L 352.444968 204.842111 
L 353.941532 203.984868 
L 354.315673 203.896188 
L 354.689814 203.571026 
L 357.3088 202.684223 
L 357.682941 202.418182 
L 358.431223 202.181701 
L 361.42435 200.703695 
L 362.172632 200.289853 
L 362.546773 200.112493 
L 363.295055 199.49173 
L 364.043337 199.284809 
L 364.417478 198.930088 
L 364.791619 198.870968 
L 365.539901 198.279765 
L 367.410605 197.126921 
L 368.158887 196.89044 
L 368.533028 196.653959 
L 368.907169 196.594839 
L 370.403732 195.855836 
L 371.526155 195.471554 
L 372.274437 195.353314 
L 373.771001 194.762111 
L 374.145142 194.732551 
L 376.015846 193.875308 
L 376.764128 193.343226 
L 377.51241 192.929384 
L 379.008974 192.190381 
L 380.131396 191.421818 
L 380.879678 191.244457 
L 382.002101 190.535015 
L 383.124524 190.121173 
L 383.872805 189.855132 
L 385.369369 189.32305 
L 386.117651 189.057009 
L 387.614215 188.731848 
L 388.362497 188.495367 
L 390.233201 187.845044 
L 391.355624 187.490323 
L 392.103906 187.312962 
L 394.348751 186.89912 
L 395.097033 186.75132 
L 396.219456 186.485279 
L 396.593597 186.307918 
L 397.341879 186.160117 
L 398.09016 185.953196 
L 398.838442 185.598475 
L 399.212583 185.450674 
L 399.586724 185.450674 
L 403.702274 184.120469 
L 404.076415 183.913548 
L 404.450556 183.913548 
L 405.198838 183.617947 
L 405.572979 183.204106 
L 407.817824 182.228622 
L 409.314388 181.69654 
L 409.688529 181.460059 
L 410.810952 181.105337 
L 411.559233 180.898416 
L 411.933374 180.632375 
L 412.307515 180.543695 
L 412.681656 180.218534 
L 413.804079 179.982053 
L 414.552361 179.627331 
L 414.926502 179.15437 
L 419.042052 178.208446 
L 419.416193 178.208446 
L 420.164474 177.971965 
L 423.531743 177.114721 
L 424.280025 176.937361 
L 428.021434 175.843636 
L 428.395575 175.754956 
L 428.769716 175.548035 
L 429.517997 175.341114 
L 430.266279 175.015953 
L 431.014561 174.720352 
L 431.388702 174.454311 
L 432.136984 174.21783 
L 435.130111 173.153666 
L 435.878393 173.094545 
L 437.374957 172.651144 
L 437.749098 172.414663 
L 438.497379 172.178182 
L 440.742225 171.232258 
L 445.231916 169.576891 
L 447.102621 168.926569 
L 447.850902 168.690088 
L 448.599184 168.483167 
L 450.095748 167.212082 
L 452.714734 166.059238 
L 455.333721 164.906393 
L 456.082003 164.699472 
L 459.449271 163.014545 
L 460.197553 162.571144 
L 463.564821 160.915777 
L 463.938962 160.620176 
L 468.428653 158.905689 
L 469.176935 158.787449 
L 469.551076 158.521408 
L 471.047639 158.225806 
L 471.795921 157.900645 
L 473.666626 156.984282 
L 478.530458 154.767273 
L 479.65288 154.382991 
L 480.027021 154.11695 
L 480.775303 154.02827 
L 481.149444 153.762229 
L 481.897726 153.643988 
L 486.761558 151.840821 
L 487.883981 151.57478 
L 489.380544 150.924457 
L 490.128826 150.510616 
L 491.62539 149.712493 
L 492.373672 149.535132 
L 492.747812 149.298651 
L 493.121953 149.209971 
L 494.992658 148.264047 
L 499.85649 146.40176 
L 500.230631 146.342639 
L 501.727195 145.603636 
L 502.475476 145.455836 
L 503.223758 145.012434 
L 504.720322 144.273431 
L 511.454858 141.642581 
L 512.951422 140.341935 
L 513.325563 140.223695 
L 513.699704 139.987214 
L 514.822127 139.662053 
L 515.196268 139.366452 
L 515.944549 139.100411 
L 517.066972 138.331848 
L 517.815254 138.124927 
L 518.563536 137.711085 
L 519.685959 137.445044 
L 525.672213 134.961994 
L 527.542918 134.193431 
L 529.413622 133.602229 
L 530.536045 132.863226 
L 530.910186 132.774545 
L 531.658468 132.390264 
L 532.40675 132.153783 
L 532.780891 131.799062 
L 533.903313 131.35566 
L 534.277454 131.29654 
L 535.774018 130.587097 
L 536.896441 130.232375 
L 538.018863 129.818534 
L 539.141286 129.493372 
L 539.515427 129.434252 
L 540.263709 129.020411 
L 540.63785 128.87261 
L 541.011991 128.577009 
L 542.134414 128.281408 
L 542.882695 127.985806 
L 543.630977 127.660645 
L 545.127541 127.039883 
L 547.746527 126.33044 
L 548.494809 126.034839 
L 549.991373 125.739238 
L 550.739655 125.591437 
L 551.862077 125.148035 
L 552.9845 124.911554 
L 555.229346 123.551789 
L 556.351768 122.871906 
L 558.596614 122.162463 
L 558.970755 121.866862 
L 561.963882 120.773138 
L 563.086305 120.418416 
L 563.834587 120.004575 
L 564.582869 119.797654 
L 564.95701 119.590733 
L 565.705291 119.442933 
L 567.201855 118.85173 
L 567.950137 118.349208 
L 569.07256 118.053607 
L 570.194982 117.285044 
L 570.569123 117.225924 
L 572.065687 116.605161 
L 573.562251 116.22088 
L 573.936392 116.16176 
L 574.310532 115.984399 
L 575.058814 115.836598 
L 578.426083 114.801994 
L 579.174364 114.210792 
L 580.670928 113.353548 
L 581.045069 113.264868 
L 581.41921 113.057947 
L 581.793351 112.998827 
L 585.160619 111.3139 
L 585.53476 110.988739 
L 587.405465 110.515777 
L 588.527887 110.013255 
L 589.276169 109.806334 
L 589.65031 109.628974 
L 590.024451 109.303812 
L 591.895156 108.62393 
L 596.758988 106.791202 
L 597.507269 106.643402 
L 599.377974 106.022639 
L 600.500397 105.520117 
L 603.119383 104.721994 
L 603.867665 104.278592 
L 616.588456 100.347097 
L 617.336738 100.140176 
L 618.459161 99.726334 
L 618.833302 99.726334 
L 619.955724 99.460293 
L 620.704006 99.312493 
L 621.452288 99.105572 
L 622.574711 98.484809 
L 623.697134 98.130088 
L 626.31612 97.243284 
L 627.812684 96.474721 
L 628.935106 96.20868 
L 629.683388 95.972199 
L 630.43167 95.587918 
L 630.805811 95.262757 
L 631.554093 95.026276 
L 631.928234 94.789795 
L 632.676516 94.701114 
L 635.295502 93.932551 
L 636.417925 93.69607 
L 637.540348 93.400469 
L 638.288629 93.223109 
L 639.411052 92.631906 
L 644.274884 90.769619 
L 645.023166 90.651378 
L 645.771448 90.503578 
L 646.145589 90.503578 
L 647.268011 90.148856 
L 648.390434 89.794135 
L 651.757702 88.818651 
L 652.131843 88.789091 
L 654.002548 88.168328 
L 654.75083 88.079648 
L 655.124971 87.872727 
L 655.499112 87.843167 
L 656.621534 87.311085 
L 657.743957 87.045044 
L 658.492239 86.719883 
L 660.737084 85.92176 
L 661.111225 85.862639 
L 661.859507 85.596598 
L 666.349198 84.443754 
L 668.594044 83.675191 
L 669.342326 83.61607 
L 671.587171 83.054428 
L 672.335453 82.729267 
L 672.709594 82.670147 
L 673.083735 82.492786 
L 673.832017 81.842463 
L 677.573426 80.453138 
L 679.818271 79.861935 
L 680.566553 79.448094 
L 680.940694 79.359413 
L 682.063117 78.738651 
L 682.437258 78.649971 
L 682.811399 78.35437 
L 683.933821 78.029208 
L 689.920076 75.309677 
L 690.294217 75.250557 
L 692.539062 74.097713 
L 692.913203 73.861232 
L 694.035626 73.53607 
L 695.53219 72.915308 
L 695.906331 72.885748 
L 697.777035 72.176305 
L 698.525317 72.028504 
L 699.273599 71.466862 
L 699.64774 71.466862 
L 701.144304 70.93478 
L 702.640867 70.639179 
L 704.137431 69.988856 
L 704.511572 69.988856 
L 705.633995 69.604575 
L 706.382276 69.486334 
L 707.504699 68.836012 
L 708.252981 68.45173 
L 710.123686 67.830968 
L 710.871967 67.505806 
L 712.742672 67.003284 
L 714.987517 66.382522 
L 719.477208 65.052317 
L 722.470336 64.283754 
L 723.966899 63.574311 
L 725.089322 63.219589 
L 727.708309 62.687507 
L 728.45659 62.569267 
L 729.579013 62.125865 
L 730.701436 61.712023 
L 731.449718 61.593783 
L 732.946281 61.091261 
L 733.320422 61.091261 
L 733.694563 60.79566 
L 734.442845 60.559179 
L 734.816986 60.559179 
L 738.184254 59.435894 
L 739.680818 58.785572 
L 740.054959 58.726452 
L 740.803241 58.37173 
L 741.551523 58.046569 
L 742.299804 57.721408 
L 743.048086 57.425806 
L 743.422227 57.189326 
L 743.796368 57.130205 
L 744.54465 56.745924 
L 745.292932 56.509443 
L 746.041214 56.095601 
L 746.789495 55.8 
L 747.163636 55.8 
L 747.163636 55.8 
" clip-path="url(#pc41427dd64)" style="fill: none; stroke: #1f77b4; stroke-width: 1.5; stroke-linecap: square"/>
   </g>
   <g id="line2d_40">
    <path d="M 138.810505 307.8 
L 142.177773 307.71132 
L 145.1709 307.563519 
L 146.667464 307.563519 
L 147.041605 307.445279 
L 148.912309 307.356598 
L 151.157155 307.090557 
L 153.402 307.001877 
L 154.150282 306.913196 
L 156.769269 306.794956 
L 159.388255 306.706276 
L 161.25896 306.647155 
L 166.122792 306.558475 
L 167.993496 306.499355 
L 171.360764 306.410674 
L 172.857328 306.381114 
L 176.598737 306.292434 
L 178.095301 306.144633 
L 179.591865 306.115073 
L 181.83671 306.026393 
L 183.333274 305.996833 
L 185.203978 305.937713 
L 186.700542 305.789912 
L 190.06781 305.701232 
L 190.816092 305.642111 
L 192.312656 305.553431 
L 194.557501 305.464751 
L 196.054065 305.37607 
L 202.788601 304.932669 
L 205.407588 304.843988 
L 206.530011 304.725748 
L 208.400715 304.637067 
L 212.142124 304.430147 
L 215.883534 304.371026 
L 217.380097 304.193666 
L 219.250802 304.104985 
L 222.992211 303.720704 
L 225.237056 303.425103 
L 226.73362 303.365982 
L 229.726747 302.952141 
L 231.971593 302.893021 
L 233.094016 302.77478 
L 234.216439 302.6861 
L 253.671766 301.237654 
L 256.290753 301.148974 
L 257.787316 300.971613 
L 259.658021 300.882933 
L 261.902866 300.794252 
L 263.773571 300.705572 
L 265.270135 300.676012 
L 267.140839 300.616891 
L 267.889121 300.528211 
L 273.127094 300.439531 
L 273.875376 300.35085 
L 278.365067 300.26217 
L 281.732335 300.084809 
L 284.351321 299.996129 
L 285.847885 299.818768 
L 288.466872 299.730088 
L 289.215153 299.611848 
L 291.085858 299.552727 
L 294.827267 299.493607 
L 296.323831 299.345806 
L 297.820394 299.316246 
L 298.942817 299.227566 
L 300.439381 299.079765 
L 304.18079 298.872845 
L 307.922199 298.784164 
L 311.289468 298.606804 
L 312.41189 298.577243 
L 313.160172 298.459003 
L 315.030877 298.370323 
L 315.779159 298.311202 
L 317.649863 298.222522 
L 319.146427 298.192962 
L 321.765413 298.104282 
L 331.493077 297.424399 
L 333.737923 297.335718 
L 335.608627 297.276598 
L 340.8466 297.187918 
L 341.594882 297.099238 
L 346.832855 297.010557 
L 350.574264 296.803636 
L 351.322546 296.774076 
L 352.070828 296.685396 
L 353.941532 296.596716 
L 355.812237 296.537595 
L 357.682941 296.448915 
L 359.553646 296.389795 
L 362.920914 296.301114 
L 365.16576 296.212434 
L 370.403732 296.123754 
L 374.519283 295.887273 
L 376.015846 295.828152 
L 377.138269 295.739472 
L 382.376242 295.650792 
L 384.621087 295.562111 
L 391.355624 295.473431 
L 392.852188 295.443871 
L 397.341879 295.384751 
L 398.09016 295.32563 
L 403.328133 295.23695 
L 404.824697 295.20739 
L 414.552361 295.11871 
L 416.797206 295.030029 
L 432.511125 294.941349 
L 434.381829 294.882229 
L 444.109493 294.823109 
L 444.857775 294.763988 
L 446.72848 294.704868 
L 447.850902 294.586628 
L 450.095748 294.497947 
L 452.714734 294.379707 
L 456.082003 294.291026 
L 457.952707 294.231906 
L 460.571694 294.143226 
L 463.564821 293.995425 
L 465.435526 293.906745 
L 466.932089 293.877185 
L 473.292485 293.788504 
L 475.53733 293.699824 
L 479.65288 293.611144 
L 482.271867 293.492903 
L 484.890853 293.433783 
L 485.639135 293.374663 
L 494.618517 293.285982 
L 498.359926 293.079062 
L 500.978913 292.990381 
L 505.094463 292.7539 
L 507.713449 292.66522 
L 509.210013 292.63566 
L 511.828999 292.546979 
L 513.699704 292.340059 
L 517.441113 292.251378 
L 518.189395 292.162698 
L 521.930804 292.074018 
L 523.801509 292.014897 
L 527.917059 291.985337 
L 528.665341 291.896657 
L 532.780891 291.807977 
L 533.529172 291.748856 
L 541.760273 291.660176 
L 544.005118 291.571496 
L 549.617232 291.482815 
L 551.113796 291.453255 
L 554.481064 291.394135 
L 555.229346 291.305455 
L 560.093178 291.216774 
L 561.963882 291.157654 
L 568.698419 291.068974 
L 569.820841 290.980293 
L 570.943264 290.891613 
L 572.065687 290.802933 
L 577.677801 290.714252 
L 579.922646 290.625572 
L 590.772733 290.536891 
L 594.140001 290.359531 
L 599.377974 290.27085 
L 600.874538 290.24129 
L 605.364229 290.15261 
L 607.234933 290.09349 
L 615.091892 290.004809 
L 617.710879 289.886569 
L 624.445415 289.797889 
L 625.941979 289.768328 
L 629.683388 289.679648 
L 632.302375 289.561408 
L 636.417925 289.472727 
L 639.036911 289.354487 
L 642.404179 289.295367 
L 643.152461 289.236246 
L 651.383561 289.147566 
L 653.628407 289.058886 
L 656.247393 288.970205 
L 658.118098 288.911085 
L 668.968185 288.822405 
L 671.21303 288.733724 
L 677.199285 288.645044 
L 679.44413 288.556364 
L 684.307962 288.467683 
L 686.552808 288.379003 
L 689.545935 288.290323 
L 691.790781 288.201642 
L 706.756417 288.112962 
L 709.749545 287.965161 
L 718.354786 287.876481 
L 719.851349 287.846921 
L 728.830731 287.75824 
L 730.701436 287.69912 
L 742.673945 287.61044 
L 744.170509 287.58088 
L 747.163636 287.52176 
L 747.163636 287.52176 
" clip-path="url(#pc41427dd64)" style="fill: none; stroke: #ff7f0e; stroke-width: 1.5; stroke-linecap: square"/>
   </g>
   <g id="patch_3">
    <path d="M 108 320.4 
L 108 43.2 
" style="fill: none; stroke: #a9a9a9; stroke-width: 0.8; stroke-linejoin: miter; stroke-linecap: square"/>
   </g>
   <g id="patch_4">
    <path d="M 777.6 320.4 
L 777.6 43.2 
" style="fill: none"/>
   </g>
   <g id="patch_5">
    <path d="M 108 320.4 
L 777.6 320.4 
" style="fill: none; stroke: #a9a9a9; stroke-width: 0.8; stroke-linejoin: miter; stroke-linecap: square"/>
   </g>
   <g id="patch_6">
    <path d="M 108 43.2 
L 777.6 43.2 
" style="fill: none"/>
   </g>
   <g id="text_20">
    <!-- get_subscribe history -->
    <g style="fill: #a9a9a9" transform="translate(378.6075 37.2) scale(0.12 -0.12)">
     <defs>
      <path id="DejaVuSans-67" d="M 2906 1791 
Q 2906 2416 2648 2759 
Q 2391 3103 1925 3103 
Q 1463 3103 1205 2759 
Q 947 2416 947 1791 
Q 947 1169 1205 825 
Q 1463 481 1925 481 
Q 2391 481 2648 825 
Q 2906 1169 2906 1791 
z
M 3481 434 
Q 3481 -459 3084 -895 
Q 2688 -1331 1869 -1331 
Q 1566 -1331 1297 -1286 
Q 1028 -1241 775 -1147 
L 775 -588 
Q 1028 -725 1275 -790 
Q 1522 -856 1778 -856 
Q 2344 -856 2625 -561 
Q 2906 -266 2906 331 
L 2906 616 
Q 2728 306 2450 153 
Q 2172 0 1784 0 
Q 1141 0 747 490 
Q 353 981 353 1791 
Q 353 2603 747 3093 
Q 1141 3584 1784 3584 
Q 2172 3584 2450 3431 
Q 2728 3278 2906 2969 
L 2906 3500 
L 3481 3500 
L 3481 434 
z
" transform="scale(0.015625)"/>
      <path id="DejaVuSans-65" d="M 3597 1894 
L 3597 1613 
L 953 1613 
Q 991 1019 1311 708 
Q 1631 397 2203 397 
Q 2534 397 2845 478 
Q 3156 559 3463 722 
L 3463 178 
Q 3153 47 2828 -22 
Q 2503 -91 2169 -91 
Q 1331 -91 842 396 
Q 353 884 353 1716 
Q 353 2575 817 3079 
Q 1281 3584 2069 3584 
Q 2775 3584 3186 3129 
Q 3597 2675 3597 1894 
z
M 3022 2063 
Q 3016 2534 2758 2815 
Q 2500 3097 2075 3097 
Q 1594 3097 1305 2825 
Q 1016 2553 972 2059 
L 3022 2063 
z
" transform="scale(0.015625)"/>
      <path id="DejaVuSans-74" d="M 1172 4494 
L 1172 3500 
L 2356 3500 
L 2356 3053 
L 1172 3053 
L 1172 1153 
Q 1172 725 1289 603 
Q 1406 481 1766 481 
L 2356 481 
L 2356 0 
L 1766 0 
Q 1100 0 847 248 
Q 594 497 594 1153 
L 594 3053 
L 172 3053 
L 172 3500 
L 594 3500 
L 594 4494 
L 1172 4494 
z
" transform="scale(0.015625)"/>
      <path id="DejaVuSans-5f" d="M 3263 -1063 
L 3263 -1509 
L -63 -1509 
L -63 -1063 
L 3263 -1063 
z
" transform="scale(0.015625)"/>
      <path id="DejaVuSans-73" d="M 2834 3397 
L 2834 2853 
Q 2591 2978 2328 3040 
Q 2066 3103 1784 3103 
Q 1356 3103 1142 2972 
Q 928 2841 928 2578 
Q 928 2378 1081 2264 
Q 1234 2150 1697 2047 
L 1894 2003 
Q 2506 1872 2764 1633 
Q 3022 1394 3022 966 
Q 3022 478 2636 193 
Q 2250 -91 1575 -91 
Q 1294 -91 989 -36 
Q 684 19 347 128 
L 347 722 
Q 666 556 975 473 
Q 1284 391 1588 391 
Q 1994 391 2212 530 
Q 2431 669 2431 922 
Q 2431 1156 2273 1281 
Q 2116 1406 1581 1522 
L 1381 1569 
Q 847 1681 609 1914 
Q 372 2147 372 2553 
Q 372 3047 722 3315 
Q 1072 3584 1716 3584 
Q 2034 3584 2315 3537 
Q 2597 3491 2834 3397 
z
" transform="scale(0.015625)"/>
      <path id="DejaVuSans-75" d="M 544 1381 
L 544 3500 
L 1119 3500 
L 1119 1403 
Q 1119 906 1312 657 
Q 1506 409 1894 409 
Q 2359 409 2629 706 
Q 2900 1003 2900 1516 
L 2900 3500 
L 3475 3500 
L 3475 0 
L 2900 0 
L 2900 538 
Q 2691 219 2414 64 
Q 2138 -91 1772 -91 
Q 1169 -91 856 284 
Q 544 659 544 1381 
z
M 1991 3584 
L 1991 3584 
z
" transform="scale(0.015625)"/>
      <path id="DejaVuSans-62" d="M 3116 1747 
Q 3116 2381 2855 2742 
Q 2594 3103 2138 3103 
Q 1681 3103 1420 2742 
Q 1159 2381 1159 1747 
Q 1159 1113 1420 752 
Q 1681 391 2138 391 
Q 2594 391 2855 752 
Q 3116 1113 3116 1747 
z
M 1159 2969 
Q 1341 3281 1617 3432 
Q 1894 3584 2278 3584 
Q 2916 3584 3314 3078 
Q 3713 2572 3713 1747 
Q 3713 922 3314 415 
Q 2916 -91 2278 -91 
Q 1894 -91 1617 61 
Q 1341 213 1159 525 
L 1159 0 
L 581 0 
L 581 4863 
L 1159 4863 
L 1159 2969 
z
" transform="scale(0.015625)"/>
      <path id="DejaVuSans-63" d="M 3122 3366 
L 3122 2828 
Q 2878 2963 2633 3030 
Q 2388 3097 2138 3097 
Q 1578 3097 1268 2742 
Q 959 2388 959 1747 
Q 959 1106 1268 751 
Q 1578 397 2138 397 
Q 2388 397 2633 464 
Q 2878 531 3122 666 
L 3122 134 
Q 2881 22 2623 -34 
Q 2366 -91 2075 -91 
Q 1284 -91 818 406 
Q 353 903 353 1747 
Q 353 2603 823 3093 
Q 1294 3584 2113 3584 
Q 2378 3584 2631 3529 
Q 2884 3475 3122 3366 
z
" transform="scale(0.015625)"/>
      <path id="DejaVuSans-72" d="M 2631 2963 
Q 2534 3019 2420 3045 
Q 2306 3072 2169 3072 
Q 1681 3072 1420 2755 
Q 1159 2438 1159 1844 
L 1159 0 
L 581 0 
L 581 3500 
L 1159 3500 
L 1159 2956 
Q 1341 3275 1631 3429 
Q 1922 3584 2338 3584 
Q 2397 3584 2469 3576 
Q 2541 3569 2628 3553 
L 2631 2963 
z
" transform="scale(0.015625)"/>
      <path id="DejaVuSans-69" d="M 603 3500 
L 1178 3500 
L 1178 0 
L 603 0 
L 603 3500 
z
M 603 4863 
L 1178 4863 
L 1178 4134 
L 603 4134 
L 603 4863 
z
" transform="scale(0.015625)"/>
      <path id="DejaVuSans-20" transform="scale(0.015625)"/>
      <path id="DejaVuSans-68" d="M 3513 2113 
L 3513 0 
L 2938 0 
L 2938 2094 
Q 2938 2591 2744 2837 
Q 2550 3084 2163 3084 
Q 1697 3084 1428 2787 
Q 1159 2491 1159 1978 
L 1159 0 
L 581 0 
L 581 4863 
L 1159 4863 
L 1159 2956 
Q 1366 3272 1645 3428 
Q 1925 3584 2291 3584 
Q 2894 3584 3203 3211 
Q 3513 2838 3513 2113 
z
" transform="scale(0.015625)"/>
      <path id="DejaVuSans-6f" d="M 1959 3097 
Q 1497 3097 1228 2736 
Q 959 2375 959 1747 
Q 959 1119 1226 758 
Q 1494 397 1959 397 
Q 2419 397 2687 759 
Q 2956 1122 2956 1747 
Q 2956 2369 2687 2733 
Q 2419 3097 1959 3097 
z
M 1959 3584 
Q 2709 3584 3137 3096 
Q 3566 2609 3566 1747 
Q 3566 888 3137 398 
Q 2709 -91 1959 -91 
Q 1206 -91 779 398 
Q 353 888 353 1747 
Q 353 2609 779 3096 
Q 1206 3584 1959 3584 
z
" transform="scale(0.015625)"/>
      <path id="DejaVuSans-79" d="M 2059 -325 
Q 1816 -950 1584 -1140 
Q 1353 -1331 966 -1331 
L 506 -1331 
L 506 -850 
L 844 -850 
Q 1081 -850 1212 -737 
Q 1344 -625 1503 -206 
L 1606 56 
L 191 3500 
L 800 3500 
L 1894 763 
L 2988 3500 
L 3597 3500 
L 2059 -325 
z
" transform="scale(0.015625)"/>
     </defs>
     <use xlink:href="#DejaVuSans-67"/>
     <use xlink:href="#DejaVuSans-65" transform="translate(63.476562 0)"/>
     <use xlink:href="#DejaVuSans-74" transform="translate(125 0)"/>
     <use xlink:href="#DejaVuSans-5f" transform="translate(164.208984 0)"/>
     <use xlink:href="#DejaVuSans-73" transform="translate(214.208984 0)"/>
     <use xlink:href="#DejaVuSans-75" transform="translate(266.308594 0)"/>
     <use xlink:href="#DejaVuSans-62" transform="translate(329.6875 0)"/>
     <use xlink:href="#DejaVuSans-73" transform="translate(393.164062 0)"/>
     <use xlink:href="#DejaVuSans-63" transform="translate(445.263672 0)"/>
     <use xlink:href="#DejaVuSans-72" transform="translate(500.244141 0)"/>
     <use xlink:href="#DejaVuSans-69" transform="translate(541.357422 0)"/>
     <use xlink:href="#DejaVuSans-62" transform="translate(569.140625 0)"/>
     <use xlink:href="#DejaVuSans-65" transform="translate(632.617188 0)"/>
     <use xlink:href="#DejaVuSans-20" transform="translate(694.140625 0)"/>
     <use xlink:href="#DejaVuSans-68" transform="translate(725.927734 0)"/>
     <use xlink:href="#DejaVuSans-69" transform="translate(789.306641 0)"/>
     <use xlink:href="#DejaVuSans-73" transform="translate(817.089844 0)"/>
     <use xlink:href="#DejaVuSans-74" transform="translate(869.189453 0)"/>
     <use xlink:href="#DejaVuSans-6f" transform="translate(908.398438 0)"/>
     <use xlink:href="#DejaVuSans-72" transform="translate(969.580078 0)"/>
     <use xlink:href="#DejaVuSans-79" transform="translate(1010.693359 0)"/>
    </g>
   </g>
   <g id="legend_1">
    <g id="line2d_41">
     <path d="M 815.08 328.498438 
L 825.08 328.498438 
L 835.08 328.498438 
" style="fill: none; stroke: #1f77b4; stroke-width: 1.5; stroke-linecap: square"/>
    </g>
    <g id="text_21">
     <!-- star -->
     <g style="fill: #a9a9a9" transform="translate(843.08 331.998438) scale(0.1 -0.1)">
      <defs>
       <path id="DejaVuSans-61" d="M 2194 1759 
Q 1497 1759 1228 1600 
Q 959 1441 959 1056 
Q 959 750 1161 570 
Q 1363 391 1709 391 
Q 2188 391 2477 730 
Q 2766 1069 2766 1631 
L 2766 1759 
L 2194 1759 
z
M 3341 1997 
L 3341 0 
L 2766 0 
L 2766 531 
Q 2569 213 2275 61 
Q 1981 -91 1556 -91 
Q 1019 -91 701 211 
Q 384 513 384 1019 
Q 384 1609 779 1909 
Q 1175 2209 1959 2209 
L 2766 2209 
L 2766 2266 
Q 2766 2663 2505 2880 
Q 2244 3097 1772 3097 
Q 1472 3097 1187 3025 
Q 903 2953 641 2809 
L 641 3341 
Q 956 3463 1253 3523 
Q 1550 3584 1831 3584 
Q 2591 3584 2966 3190 
Q 3341 2797 3341 1997 
z
" transform="scale(0.015625)"/>
      </defs>
      <use xlink:href="#DejaVuSans-73"/>
      <use xlink:href="#DejaVuSans-74" transform="translate(52.099609 0)"/>
      <use xlink:href="#DejaVuSans-61" transform="translate(91.308594 0)"/>
      <use xlink:href="#DejaVuSans-72" transform="translate(152.587891 0)"/>
     </g>
    </g>
    <g id="line2d_42">
     <path d="M 815.08 343.176562 
L 825.08 343.176562 
L 835.08 343.176562 
" style="fill: none; stroke: #ff7f0e; stroke-width: 1.5; stroke-linecap: square"/>
    </g>
    <g id="text_22">
     <!-- fork -->
     <g style="fill: #a9a9a9" transform="translate(843.08 346.676562) scale(0.1 -0.1)">
      <defs>
       <path id="DejaVuSans-66" d="M 2375 4863 
L 2375 4384 
L 1825 4384 
Q 1516 4384 1395 4259 
Q 1275 4134 1275 3809 
L 1275 3500 
L 2222 3500 
L 2222 3053 
L 1275 3053 
L 1275 0 
L 697 0 
L 697 3053 
L 147 3053 
L 147 3500 
L 697 3500 
L 697 3744 
Q 697 4328 969 4595 
Q 1241 4863 1831 4863 
L 2375 4863 
z
" transform="scale(0.015625)"/>
       <path id="DejaVuSans-6b" d="M 581 4863 
L 1159 4863 
L 1159 1991 
L 2875 3500 
L 3609 3500 
L 1753 1863 
L 3688 0 
L 2938 0 
L 1159 1709 
L 1159 0 
L 581 0 
L 581 4863 
z
" transform="scale(0.015625)"/>
      </defs>
      <use xlink:href="#DejaVuSans-66"/>
      <use xlink:href="#DejaVuSans-6f" transform="translate(35.205078 0)"/>
      <use xlink:href="#DejaVuSans-72" transform="translate(96.386719 0)"/>
      <use xlink:href="#DejaVuSans-6b" transform="translate(137.5 0)"/>
     </g>
    </g>
   </g>
  </g>
 </g>
 <defs>
  <clipPath id="pc41427dd64">
   <rect x="108" y="43.2" width="669.6" height="277.2"/>
  </clipPath>
 </defs>
</svg>
