<?xml version="1.0" encoding="utf-8" standalone="no"?>
<!DOCTYPE svg PUBLIC "-//W3C//DTD SVG 1.1//EN"
  "http://www.w3.org/Graphics/SVG/1.1/DTD/svg11.dtd">
<svg xmlns:xlink="http://www.w3.org/1999/xlink" width="864pt" height="360pt" viewBox="0 0 864 360" xmlns="http://www.w3.org/2000/svg" version="1.1">
 <metadata>
  <rdf:RDF xmlns:dc="http://purl.org/dc/elements/1.1/" xmlns:cc="http://creativecommons.org/ns#" xmlns:rdf="http://www.w3.org/1999/02/22-rdf-syntax-ns#">
   <cc:Work>
    <dc:type rdf:resource="http://purl.org/dc/dcmitype/StillImage"/>
    <dc:date>2026-01-09T20:08:53.864652</dc:date>
    <dc:format>image/svg+xml</dc:format>
    <dc:creator>
     <cc:Agent>
      <dc:title>Matplotlib v3.10.8, https://matplotlib.org/</dc:title>
     </cc:Agent>
    </dc:creator>
   </cc:Work>
  </rdf:RDF>
 </metadata>
 <defs>
  <style type="text/css">*{stroke-linejoin: round; stroke-linecap: butt}</style>
 </defs>
 <g id="figure_1">
  <g id="patch_1">
   <path d="M 0 360 
L 864 360 
L 864 0 
L 0 0 
L 0 360 
z
" style="fill: none; opacity: 0"/>
  </g>
  <g id="axes_1">
   <g id="patch_2">
    <path d="M 108 320.4 
L 777.6 320.4 
L 777.6 43.2 
L 108 43.2 
L 108 320.4 
z
" style="fill: none; opacity: 0"/>
   </g>
   <g id="matplotlib.axis_1">
    <g id="xtick_1">
     <g id="line2d_1">
      <path d="M 129.84696 320.4 
L 129.84696 43.2 
" clip-path="url(#pfc4cc2d16d)" style="fill: none; stroke-dasharray: 5.12,1.28,0.8,1.28; stroke-dashoffset: 0; stroke: #b0b0b0; stroke-width: 0.8"/>
     </g>
     <g id="line2d_2">
      <defs>
       <path id="m1956c01c12" d="M 0 0 
L 0 3.5 
" style="stroke: #a9a9a9; stroke-width: 0.8"/>
      </defs>
      <g>
       <use xlink:href="#m1956c01c12" x="129.84696" y="320.4" style="fill: #a9a9a9; stroke: #a9a9a9; stroke-width: 0.8"/>
      </g>
     </g>
     <g id="text_1">
      <!-- 2021-07 -->
      <g style="fill: #a9a9a9" transform="translate(108.955554 334.998438) scale(0.1 -0.1)">
       <defs>
        <path id="DejaVuSans-32" d="M 1228 531 
L 3431 531 
L 3431 0 
L 469 0 
L 469 531 
Q 828 903 1448 1529 
Q 2069 2156 2228 2338 
Q 2531 2678 2651 2914 
Q 2772 3150 2772 3378 
Q 2772 3750 2511 3984 
Q 2250 4219 1831 4219 
Q 1534 4219 1204 4116 
Q 875 4013 500 3803 
L 500 4441 
Q 881 4594 1212 4672 
Q 1544 4750 1819 4750 
Q 2544 4750 2975 4387 
Q 3406 4025 3406 3419 
Q 3406 3131 3298 2873 
Q 3191 2616 2906 2266 
Q 2828 2175 2409 1742 
Q 1991 1309 1228 531 
z
" transform="scale(0.015625)"/>
        <path id="DejaVuSans-30" d="M 2034 4250 
Q 1547 4250 1301 3770 
Q 1056 3291 1056 2328 
Q 1056 1369 1301 889 
Q 1547 409 2034 409 
Q 2525 409 2770 889 
Q 3016 1369 3016 2328 
Q 3016 3291 2770 3770 
Q 2525 4250 2034 4250 
z
M 2034 4750 
Q 2819 4750 3233 4129 
Q 3647 3509 3647 2328 
Q 3647 1150 3233 529 
Q 2819 -91 2034 -91 
Q 1250 -91 836 529 
Q 422 1150 422 2328 
Q 422 3509 836 4129 
Q 1250 4750 2034 4750 
z
" transform="scale(0.015625)"/>
        <path id="DejaVuSans-31" d="M 794 531 
L 1825 531 
L 1825 4091 
L 703 3866 
L 703 4441 
L 1819 4666 
L 2450 4666 
L 2450 531 
L 3481 531 
L 3481 0 
L 794 0 
L 794 531 
z
" transform="scale(0.015625)"/>
        <path id="DejaVuSans-2d" d="M 313 2009 
L 1997 2009 
L 1997 1497 
L 313 1497 
L 313 2009 
z
" transform="scale(0.015625)"/>
        <path id="DejaVuSans-37" d="M 525 4666 
L 3525 4666 
L 3525 4397 
L 1831 0 
L 1172 0 
L 2766 4134 
L 525 4134 
L 525 4666 
z
" transform="scale(0.015625)"/>
       </defs>
       <use xlink:href="#DejaVuSans-32"/>
       <use xlink:href="#DejaVuSans-30" transform="translate(63.623047 0)"/>
       <use xlink:href="#DejaVuSans-32" transform="translate(127.246094 0)"/>
       <use xlink:href="#DejaVuSans-31" transform="translate(190.869141 0)"/>
       <use xlink:href="#DejaVuSans-2d" transform="translate(254.492188 0)"/>
       <use xlink:href="#DejaVuSans-30" transform="translate(290.576172 0)"/>
       <use xlink:href="#DejaVuSans-37" transform="translate(354.199219 0)"/>
      </g>
     </g>
    </g>
    <g id="xtick_2">
     <g id="line2d_3">
      <path d="M 198.562186 320.4 
L 198.562186 43.2 
" clip-path="url(#pfc4cc2d16d)" style="fill: none; stroke-dasharray: 5.12,1.28,0.8,1.28; stroke-dashoffset: 0; stroke: #b0b0b0; stroke-width: 0.8"/>
     </g>
     <g id="line2d_4">
      <g>
       <use xlink:href="#m1956c01c12" x="198.562186" y="320.4" style="fill: #a9a9a9; stroke: #a9a9a9; stroke-width: 0.8"/>
      </g>
     </g>
     <g id="text_2">
      <!-- 2022-01 -->
      <g style="fill: #a9a9a9" transform="translate(177.67078 334.998438) scale(0.1 -0.1)">
       <use xlink:href="#DejaVuSans-32"/>
       <use xlink:href="#DejaVuSans-30" transform="translate(63.623047 0)"/>
       <use xlink:href="#DejaVuSans-32" transform="translate(127.246094 0)"/>
       <use xlink:href="#DejaVuSans-32" transform="translate(190.869141 0)"/>
       <use xlink:href="#DejaVuSans-2d" transform="translate(254.492188 0)"/>
       <use xlink:href="#DejaVuSans-30" transform="translate(290.576172 0)"/>
       <use xlink:href="#DejaVuSans-31" transform="translate(354.199219 0)"/>
      </g>
     </g>
    </g>
    <g id="xtick_3">
     <g id="line2d_5">
      <path d="M 266.157055 320.4 
L 266.157055 43.2 
" clip-path="url(#pfc4cc2d16d)" style="fill: none; stroke-dasharray: 5.12,1.28,0.8,1.28; stroke-dashoffset: 0; stroke: #b0b0b0; stroke-width: 0.8"/>
     </g>
     <g id="line2d_6">
      <g>
       <use xlink:href="#m1956c01c12" x="266.157055" y="320.4" style="fill: #a9a9a9; stroke: #a9a9a9; stroke-width: 0.8"/>
      </g>
     </g>
     <g id="text_3">
      <!-- 2022-07 -->
      <g style="fill: #a9a9a9" transform="translate(245.265649 334.998438) scale(0.1 -0.1)">
       <use xlink:href="#DejaVuSans-32"/>
       <use xlink:href="#DejaVuSans-30" transform="translate(63.623047 0)"/>
       <use xlink:href="#DejaVuSans-32" transform="translate(127.246094 0)"/>
       <use xlink:href="#DejaVuSans-32" transform="translate(190.869141 0)"/>
       <use xlink:href="#DejaVuSans-2d" transform="translate(254.492188 0)"/>
       <use xlink:href="#DejaVuSans-30" transform="translate(290.576172 0)"/>
       <use xlink:href="#DejaVuSans-37" transform="translate(354.199219 0)"/>
      </g>
     </g>
    </g>
    <g id="xtick_4">
     <g id="line2d_7">
      <path d="M 334.872281 320.4 
L 334.872281 43.2 
" clip-path="url(#pfc4cc2d16d)" style="fill: none; stroke-dasharray: 5.12,1.28,0.8,1.28; stroke-dashoffset: 0; stroke: #b0b0b0; stroke-width: 0.8"/>
     </g>
     <g id="line2d_8">
      <g>
       <use xlink:href="#m1956c01c12" x="334.872281" y="320.4" style="fill: #a9a9a9; stroke: #a9a9a9; stroke-width: 0.8"/>
      </g>
     </g>
     <g id="text_4">
      <!-- 2023-01 -->
      <g style="fill: #a9a9a9" transform="translate(313.980875 334.998438) scale(0.1 -0.1)">
       <defs>
        <path id="DejaVuSans-33" d="M 2597 2516 
Q 3050 2419 3304 2112 
Q 3559 1806 3559 1356 
Q 3559 666 3084 287 
Q 2609 -91 1734 -91 
Q 1441 -91 1130 -33 
Q 819 25 488 141 
L 488 750 
Q 750 597 1062 519 
Q 1375 441 1716 441 
Q 2309 441 2620 675 
Q 2931 909 2931 1356 
Q 2931 1769 2642 2001 
Q 2353 2234 1838 2234 
L 1294 2234 
L 1294 2753 
L 1863 2753 
Q 2328 2753 2575 2939 
Q 2822 3125 2822 3475 
Q 2822 3834 2567 4026 
Q 2313 4219 1838 4219 
Q 1578 4219 1281 4162 
Q 984 4106 628 3988 
L 628 4550 
Q 988 4650 1302 4700 
Q 1616 4750 1894 4750 
Q 2613 4750 3031 4423 
Q 3450 4097 3450 3541 
Q 3450 3153 3228 2886 
Q 3006 2619 2597 2516 
z
" transform="scale(0.015625)"/>
       </defs>
       <use xlink:href="#DejaVuSans-32"/>
       <use xlink:href="#DejaVuSans-30" transform="translate(63.623047 0)"/>
       <use xlink:href="#DejaVuSans-32" transform="translate(127.246094 0)"/>
       <use xlink:href="#DejaVuSans-33" transform="translate(190.869141 0)"/>
       <use xlink:href="#DejaVuSans-2d" transform="translate(254.492188 0)"/>
       <use xlink:href="#DejaVuSans-30" transform="translate(290.576172 0)"/>
       <use xlink:href="#DejaVuSans-31" transform="translate(354.199219 0)"/>
      </g>
     </g>
    </g>
    <g id="xtick_5">
     <g id="line2d_9">
      <path d="M 402.46715 320.4 
L 402.46715 43.2 
" clip-path="url(#pfc4cc2d16d)" style="fill: none; stroke-dasharray: 5.12,1.28,0.8,1.28; stroke-dashoffset: 0; stroke: #b0b0b0; stroke-width: 0.8"/>
     </g>
     <g id="line2d_10">
      <g>
       <use xlink:href="#m1956c01c12" x="402.46715" y="320.4" style="fill: #a9a9a9; stroke: #a9a9a9; stroke-width: 0.8"/>
      </g>
     </g>
     <g id="text_5">
      <!-- 2023-07 -->
      <g style="fill: #a9a9a9" transform="translate(381.575744 334.998438) scale(0.1 -0.1)">
       <use xlink:href="#DejaVuSans-32"/>
       <use xlink:href="#DejaVuSans-30" transform="translate(63.623047 0)"/>
       <use xlink:href="#DejaVuSans-32" transform="translate(127.246094 0)"/>
       <use xlink:href="#DejaVuSans-33" transform="translate(190.869141 0)"/>
       <use xlink:href="#DejaVuSans-2d" transform="translate(254.492188 0)"/>
       <use xlink:href="#DejaVuSans-30" transform="translate(290.576172 0)"/>
       <use xlink:href="#DejaVuSans-37" transform="translate(354.199219 0)"/>
      </g>
     </g>
    </g>
    <g id="xtick_6">
     <g id="line2d_11">
      <path d="M 471.182376 320.4 
L 471.182376 43.2 
" clip-path="url(#pfc4cc2d16d)" style="fill: none; stroke-dasharray: 5.12,1.28,0.8,1.28; stroke-dashoffset: 0; stroke: #b0b0b0; stroke-width: 0.8"/>
     </g>
     <g id="line2d_12">
      <g>
       <use xlink:href="#m1956c01c12" x="471.182376" y="320.4" style="fill: #a9a9a9; stroke: #a9a9a9; stroke-width: 0.8"/>
      </g>
     </g>
     <g id="text_6">
      <!-- 2024-01 -->
      <g style="fill: #a9a9a9" transform="translate(450.29097 334.998438) scale(0.1 -0.1)">
       <defs>
        <path id="DejaVuSans-34" d="M 2419 4116 
L 825 1625 
L 2419 1625 
L 2419 4116 
z
M 2253 4666 
L 3047 4666 
L 3047 1625 
L 3713 1625 
L 3713 1100 
L 3047 1100 
L 3047 0 
L 2419 0 
L 2419 1100 
L 313 1100 
L 313 1709 
L 2253 4666 
z
" transform="scale(0.015625)"/>
       </defs>
       <use xlink:href="#DejaVuSans-32"/>
       <use xlink:href="#DejaVuSans-30" transform="translate(63.623047 0)"/>
       <use xlink:href="#DejaVuSans-32" transform="translate(127.246094 0)"/>
       <use xlink:href="#DejaVuSans-34" transform="translate(190.869141 0)"/>
       <use xlink:href="#DejaVuSans-2d" transform="translate(254.492188 0)"/>
       <use xlink:href="#DejaVuSans-30" transform="translate(290.576172 0)"/>
       <use xlink:href="#DejaVuSans-31" transform="translate(354.199219 0)"/>
      </g>
     </g>
    </g>
    <g id="xtick_7">
     <g id="line2d_13">
      <path d="M 539.150697 320.4 
L 539.150697 43.2 
" clip-path="url(#pfc4cc2d16d)" style="fill: none; stroke-dasharray: 5.12,1.28,0.8,1.28; stroke-dashoffset: 0; stroke: #b0b0b0; stroke-width: 0.8"/>
     </g>
     <g id="line2d_14">
      <g>
       <use xlink:href="#m1956c01c12" x="539.150697" y="320.4" style="fill: #a9a9a9; stroke: #a9a9a9; stroke-width: 0.8"/>
      </g>
     </g>
     <g id="text_7">
      <!-- 2024-07 -->
      <g style="fill: #a9a9a9" transform="translate(518.259291 334.998438) scale(0.1 -0.1)">
       <use xlink:href="#DejaVuSans-32"/>
       <use xlink:href="#DejaVuSans-30" transform="translate(63.623047 0)"/>
       <use xlink:href="#DejaVuSans-32" transform="translate(127.246094 0)"/>
       <use xlink:href="#DejaVuSans-34" transform="translate(190.869141 0)"/>
       <use xlink:href="#DejaVuSans-2d" transform="translate(254.492188 0)"/>
       <use xlink:href="#DejaVuSans-30" transform="translate(290.576172 0)"/>
       <use xlink:href="#DejaVuSans-37" transform="translate(354.199219 0)"/>
      </g>
     </g>
    </g>
    <g id="xtick_8">
     <g id="line2d_15">
      <path d="M 607.865923 320.4 
L 607.865923 43.2 
" clip-path="url(#pfc4cc2d16d)" style="fill: none; stroke-dasharray: 5.12,1.28,0.8,1.28; stroke-dashoffset: 0; stroke: #b0b0b0; stroke-width: 0.8"/>
     </g>
     <g id="line2d_16">
      <g>
       <use xlink:href="#m1956c01c12" x="607.865923" y="320.4" style="fill: #a9a9a9; stroke: #a9a9a9; stroke-width: 0.8"/>
      </g>
     </g>
     <g id="text_8">
      <!-- 2025-01 -->
      <g style="fill: #a9a9a9" transform="translate(586.974517 334.998438) scale(0.1 -0.1)">
       <defs>
        <path id="DejaVuSans-35" d="M 691 4666 
L 3169 4666 
L 3169 4134 
L 1269 4134 
L 1269 2991 
Q 1406 3038 1543 3061 
Q 1681 3084 1819 3084 
Q 2600 3084 3056 2656 
Q 3513 2228 3513 1497 
Q 3513 744 3044 326 
Q 2575 -91 1722 -91 
Q 1428 -91 1123 -41 
Q 819 9 494 109 
L 494 744 
Q 775 591 1075 516 
Q 1375 441 1709 441 
Q 2250 441 2565 725 
Q 2881 1009 2881 1497 
Q 2881 1984 2565 2268 
Q 2250 2553 1709 2553 
Q 1456 2553 1204 2497 
Q 953 2441 691 2322 
L 691 4666 
z
" transform="scale(0.015625)"/>
       </defs>
       <use xlink:href="#DejaVuSans-32"/>
       <use xlink:href="#DejaVuSans-30" transform="translate(63.623047 0)"/>
       <use xlink:href="#DejaVuSans-32" transform="translate(127.246094 0)"/>
       <use xlink:href="#DejaVuSans-35" transform="translate(190.869141 0)"/>
       <use xlink:href="#DejaVuSans-2d" transform="translate(254.492188 0)"/>
       <use xlink:href="#DejaVuSans-30" transform="translate(290.576172 0)"/>
       <use xlink:href="#DejaVuSans-31" transform="translate(354.199219 0)"/>
      </g>
     </g>
    </g>
    <g id="xtick_9">
     <g id="line2d_17">
      <path d="M 675.460792 320.4 
L 675.460792 43.2 
" clip-path="url(#pfc4cc2d16d)" style="fill: none; stroke-dasharray: 5.12,1.28,0.8,1.28; stroke-dashoffset: 0; stroke: #b0b0b0; stroke-width: 0.8"/>
     </g>
     <g id="line2d_18">
      <g>
       <use xlink:href="#m1956c01c12" x="675.460792" y="320.4" style="fill: #a9a9a9; stroke: #a9a9a9; stroke-width: 0.8"/>
      </g>
     </g>
     <g id="text_9">
      <!-- 2025-07 -->
      <g style="fill: #a9a9a9" transform="translate(654.569386 334.998438) scale(0.1 -0.1)">
       <use xlink:href="#DejaVuSans-32"/>
       <use xlink:href="#DejaVuSans-30" transform="translate(63.623047 0)"/>
       <use xlink:href="#DejaVuSans-32" transform="translate(127.246094 0)"/>
       <use xlink:href="#DejaVuSans-35" transform="translate(190.869141 0)"/>
       <use xlink:href="#DejaVuSans-2d" transform="translate(254.492188 0)"/>
       <use xlink:href="#DejaVuSans-30" transform="translate(290.576172 0)"/>
       <use xlink:href="#DejaVuSans-37" transform="translate(354.199219 0)"/>
      </g>
     </g>
    </g>
    <g id="xtick_10">
     <g id="line2d_19">
      <path d="M 744.176018 320.4 
L 744.176018 43.2 
" clip-path="url(#pfc4cc2d16d)" style="fill: none; stroke-dasharray: 5.12,1.28,0.8,1.28; stroke-dashoffset: 0; stroke: #b0b0b0; stroke-width: 0.8"/>
     </g>
     <g id="line2d_20">
      <g>
       <use xlink:href="#m1956c01c12" x="744.176018" y="320.4" style="fill: #a9a9a9; stroke: #a9a9a9; stroke-width: 0.8"/>
      </g>
     </g>
     <g id="text_10">
      <!-- 2026-01 -->
      <g style="fill: #a9a9a9" transform="translate(723.284612 334.998438) scale(0.1 -0.1)">
       <defs>
        <path id="DejaVuSans-36" d="M 2113 2584 
Q 1688 2584 1439 2293 
Q 1191 2003 1191 1497 
Q 1191 994 1439 701 
Q 1688 409 2113 409 
Q 2538 409 2786 701 
Q 3034 994 3034 1497 
Q 3034 2003 2786 2293 
Q 2538 2584 2113 2584 
z
M 3366 4563 
L 3366 3988 
Q 3128 4100 2886 4159 
Q 2644 4219 2406 4219 
Q 1781 4219 1451 3797 
Q 1122 3375 1075 2522 
Q 1259 2794 1537 2939 
Q 1816 3084 2150 3084 
Q 2853 3084 3261 2657 
Q 3669 2231 3669 1497 
Q 3669 778 3244 343 
Q 2819 -91 2113 -91 
Q 1303 -91 875 529 
Q 447 1150 447 2328 
Q 447 3434 972 4092 
Q 1497 4750 2381 4750 
Q 2619 4750 2861 4703 
Q 3103 4656 3366 4563 
z
" transform="scale(0.015625)"/>
       </defs>
       <use xlink:href="#DejaVuSans-32"/>
       <use xlink:href="#DejaVuSans-30" transform="translate(63.623047 0)"/>
       <use xlink:href="#DejaVuSans-32" transform="translate(127.246094 0)"/>
       <use xlink:href="#DejaVuSans-36" transform="translate(190.869141 0)"/>
       <use xlink:href="#DejaVuSans-2d" transform="translate(254.492188 0)"/>
       <use xlink:href="#DejaVuSans-30" transform="translate(290.576172 0)"/>
       <use xlink:href="#DejaVuSans-31" transform="translate(354.199219 0)"/>
      </g>
     </g>
    </g>
   </g>
   <g id="matplotlib.axis_2">
    <g id="ytick_1">
     <g id="line2d_21">
      <path d="M 108 307.829494 
L 777.6 307.829494 
" clip-path="url(#pfc4cc2d16d)" style="fill: none; stroke-dasharray: 5.12,1.28,0.8,1.28; stroke-dashoffset: 0; stroke: #b0b0b0; stroke-width: 0.8"/>
     </g>
     <g id="line2d_22">
      <defs>
       <path id="me09f1018ce" d="M 0 0 
L -3.5 0 
" style="stroke: #a9a9a9; stroke-width: 0.8"/>
      </defs>
      <g>
       <use xlink:href="#me09f1018ce" x="108" y="307.829494" style="fill: #a9a9a9; stroke: #a9a9a9; stroke-width: 0.8"/>
      </g>
     </g>
     <g id="text_11">
      <!-- 0 -->
      <g style="fill: #a9a9a9" transform="translate(94.6375 311.628713) scale(0.1 -0.1)">
       <use xlink:href="#DejaVuSans-30"/>
      </g>
     </g>
    </g>
    <g id="ytick_2">
     <g id="line2d_23">
      <path d="M 108 278.335112 
L 777.6 278.335112 
" clip-path="url(#pfc4cc2d16d)" style="fill: none; stroke-dasharray: 5.12,1.28,0.8,1.28; stroke-dashoffset: 0; stroke: #b0b0b0; stroke-width: 0.8"/>
     </g>
     <g id="line2d_24">
      <g>
       <use xlink:href="#me09f1018ce" x="108" y="278.335112" style="fill: #a9a9a9; stroke: #a9a9a9; stroke-width: 0.8"/>
      </g>
     </g>
     <g id="text_12">
      <!-- 1000 -->
      <g style="fill: #a9a9a9" transform="translate(75.55 282.134331) scale(0.1 -0.1)">
       <use xlink:href="#DejaVuSans-31"/>
       <use xlink:href="#DejaVuSans-30" transform="translate(63.623047 0)"/>
       <use xlink:href="#DejaVuSans-30" transform="translate(127.246094 0)"/>
       <use xlink:href="#DejaVuSans-30" transform="translate(190.869141 0)"/>
      </g>
     </g>
    </g>
    <g id="ytick_3">
     <g id="line2d_25">
      <path d="M 108 248.84073 
L 777.6 248.84073 
" clip-path="url(#pfc4cc2d16d)" style="fill: none; stroke-dasharray: 5.12,1.28,0.8,1.28; stroke-dashoffset: 0; stroke: #b0b0b0; stroke-width: 0.8"/>
     </g>
     <g id="line2d_26">
      <g>
       <use xlink:href="#me09f1018ce" x="108" y="248.84073" style="fill: #a9a9a9; stroke: #a9a9a9; stroke-width: 0.8"/>
      </g>
     </g>
     <g id="text_13">
      <!-- 2000 -->
      <g style="fill: #a9a9a9" transform="translate(75.55 252.639949) scale(0.1 -0.1)">
       <use xlink:href="#DejaVuSans-32"/>
       <use xlink:href="#DejaVuSans-30" transform="translate(63.623047 0)"/>
       <use xlink:href="#DejaVuSans-30" transform="translate(127.246094 0)"/>
       <use xlink:href="#DejaVuSans-30" transform="translate(190.869141 0)"/>
      </g>
     </g>
    </g>
    <g id="ytick_4">
     <g id="line2d_27">
      <path d="M 108 219.346348 
L 777.6 219.346348 
" clip-path="url(#pfc4cc2d16d)" style="fill: none; stroke-dasharray: 5.12,1.28,0.8,1.28; stroke-dashoffset: 0; stroke: #b0b0b0; stroke-width: 0.8"/>
     </g>
     <g id="line2d_28">
      <g>
       <use xlink:href="#me09f1018ce" x="108" y="219.346348" style="fill: #a9a9a9; stroke: #a9a9a9; stroke-width: 0.8"/>
      </g>
     </g>
     <g id="text_14">
      <!-- 3000 -->
      <g style="fill: #a9a9a9" transform="translate(75.55 223.145567) scale(0.1 -0.1)">
       <use xlink:href="#DejaVuSans-33"/>
       <use xlink:href="#DejaVuSans-30" transform="translate(63.623047 0)"/>
       <use xlink:href="#DejaVuSans-30" transform="translate(127.246094 0)"/>
       <use xlink:href="#DejaVuSans-30" transform="translate(190.869141 0)"/>
      </g>
     </g>
    </g>
    <g id="ytick_5">
     <g id="line2d_29">
      <path d="M 108 189.851966 
L 777.6 189.851966 
" clip-path="url(#pfc4cc2d16d)" style="fill: none; stroke-dasharray: 5.12,1.28,0.8,1.28; stroke-dashoffset: 0; stroke: #b0b0b0; stroke-width: 0.8"/>
     </g>
     <g id="line2d_30">
      <g>
       <use xlink:href="#me09f1018ce" x="108" y="189.851966" style="fill: #a9a9a9; stroke: #a9a9a9; stroke-width: 0.8"/>
      </g>
     </g>
     <g id="text_15">
      <!-- 4000 -->
      <g style="fill: #a9a9a9" transform="translate(75.55 193.651185) scale(0.1 -0.1)">
       <use xlink:href="#DejaVuSans-34"/>
       <use xlink:href="#DejaVuSans-30" transform="translate(63.623047 0)"/>
       <use xlink:href="#DejaVuSans-30" transform="translate(127.246094 0)"/>
       <use xlink:href="#DejaVuSans-30" transform="translate(190.869141 0)"/>
      </g>
     </g>
    </g>
    <g id="ytick_6">
     <g id="line2d_31">
      <path d="M 108 160.357584 
L 777.6 160.357584 
" clip-path="url(#pfc4cc2d16d)" style="fill: none; stroke-dasharray: 5.12,1.28,0.8,1.28; stroke-dashoffset: 0; stroke: #b0b0b0; stroke-width: 0.8"/>
     </g>
     <g id="line2d_32">
      <g>
       <use xlink:href="#me09f1018ce" x="108" y="160.357584" style="fill: #a9a9a9; stroke: #a9a9a9; stroke-width: 0.8"/>
      </g>
     </g>
     <g id="text_16">
      <!-- 5000 -->
      <g style="fill: #a9a9a9" transform="translate(75.55 164.156803) scale(0.1 -0.1)">
       <use xlink:href="#DejaVuSans-35"/>
       <use xlink:href="#DejaVuSans-30" transform="translate(63.623047 0)"/>
       <use xlink:href="#DejaVuSans-30" transform="translate(127.246094 0)"/>
       <use xlink:href="#DejaVuSans-30" transform="translate(190.869141 0)"/>
      </g>
     </g>
    </g>
    <g id="ytick_7">
     <g id="line2d_33">
      <path d="M 108 130.863202 
L 777.6 130.863202 
" clip-path="url(#pfc4cc2d16d)" style="fill: none; stroke-dasharray: 5.12,1.28,0.8,1.28; stroke-dashoffset: 0; stroke: #b0b0b0; stroke-width: 0.8"/>
     </g>
     <g id="line2d_34">
      <g>
       <use xlink:href="#me09f1018ce" x="108" y="130.863202" style="fill: #a9a9a9; stroke: #a9a9a9; stroke-width: 0.8"/>
      </g>
     </g>
     <g id="text_17">
      <!-- 6000 -->
      <g style="fill: #a9a9a9" transform="translate(75.55 134.662421) scale(0.1 -0.1)">
       <use xlink:href="#DejaVuSans-36"/>
       <use xlink:href="#DejaVuSans-30" transform="translate(63.623047 0)"/>
       <use xlink:href="#DejaVuSans-30" transform="translate(127.246094 0)"/>
       <use xlink:href="#DejaVuSans-30" transform="translate(190.869141 0)"/>
      </g>
     </g>
    </g>
    <g id="ytick_8">
     <g id="line2d_35">
      <path d="M 108 101.36882 
L 777.6 101.36882 
" clip-path="url(#pfc4cc2d16d)" style="fill: none; stroke-dasharray: 5.12,1.28,0.8,1.28; stroke-dashoffset: 0; stroke: #b0b0b0; stroke-width: 0.8"/>
     </g>
     <g id="line2d_36">
      <g>
       <use xlink:href="#me09f1018ce" x="108" y="101.36882" style="fill: #a9a9a9; stroke: #a9a9a9; stroke-width: 0.8"/>
      </g>
     </g>
     <g id="text_18">
      <!-- 7000 -->
      <g style="fill: #a9a9a9" transform="translate(75.55 105.168039) scale(0.1 -0.1)">
       <use xlink:href="#DejaVuSans-37"/>
       <use xlink:href="#DejaVuSans-30" transform="translate(63.623047 0)"/>
       <use xlink:href="#DejaVuSans-30" transform="translate(127.246094 0)"/>
       <use xlink:href="#DejaVuSans-30" transform="translate(190.869141 0)"/>
      </g>
     </g>
    </g>
    <g id="ytick_9">
     <g id="line2d_37">
      <path d="M 108 71.874438 
L 777.6 71.874438 
" clip-path="url(#pfc4cc2d16d)" style="fill: none; stroke-dasharray: 5.12,1.28,0.8,1.28; stroke-dashoffset: 0; stroke: #b0b0b0; stroke-width: 0.8"/>
     </g>
     <g id="line2d_38">
      <g>
       <use xlink:href="#me09f1018ce" x="108" y="71.874438" style="fill: #a9a9a9; stroke: #a9a9a9; stroke-width: 0.8"/>
      </g>
     </g>
     <g id="text_19">
      <!-- 8000 -->
      <g style="fill: #a9a9a9" transform="translate(75.55 75.673657) scale(0.1 -0.1)">
       <defs>
        <path id="DejaVuSans-38" d="M 2034 2216 
Q 1584 2216 1326 1975 
Q 1069 1734 1069 1313 
Q 1069 891 1326 650 
Q 1584 409 2034 409 
Q 2484 409 2743 651 
Q 3003 894 3003 1313 
Q 3003 1734 2745 1975 
Q 2488 2216 2034 2216 
z
M 1403 2484 
Q 997 2584 770 2862 
Q 544 3141 544 3541 
Q 544 4100 942 4425 
Q 1341 4750 2034 4750 
Q 2731 4750 3128 4425 
Q 3525 4100 3525 3541 
Q 3525 3141 3298 2862 
Q 3072 2584 2669 2484 
Q 3125 2378 3379 2068 
Q 3634 1759 3634 1313 
Q 3634 634 3220 271 
Q 2806 -91 2034 -91 
Q 1263 -91 848 271 
Q 434 634 434 1313 
Q 434 1759 690 2068 
Q 947 2378 1403 2484 
z
M 1172 3481 
Q 1172 3119 1398 2916 
Q 1625 2713 2034 2713 
Q 2441 2713 2670 2916 
Q 2900 3119 2900 3481 
Q 2900 3844 2670 4047 
Q 2441 4250 2034 4250 
Q 1625 4250 1398 4047 
Q 1172 3844 1172 3481 
z
" transform="scale(0.015625)"/>
       </defs>
       <use xlink:href="#DejaVuSans-38"/>
       <use xlink:href="#DejaVuSans-30" transform="translate(63.623047 0)"/>
       <use xlink:href="#DejaVuSans-30" transform="translate(127.246094 0)"/>
       <use xlink:href="#DejaVuSans-30" transform="translate(190.869141 0)"/>
      </g>
     </g>
    </g>
   </g>
   <g id="line2d_39">
    <path d="M 138.436364 307.741011 
L 140.677078 307.534551 
L 141.05053 307.357584 
L 142.544339 307.151124 
L 144.038148 306.826685 
L 144.785053 306.708708 
L 146.652315 306.531742 
L 147.399219 306.236798 
L 147.772672 305.705899 
L 148.146124 305.440449 
L 148.519576 304.555618 
L 148.893028 304.496629 
L 149.639933 304.024719 
L 150.386838 303.464326 
L 151.880647 302.343539 
L 152.254099 302.196067 
L 153.001004 301.724157 
L 154.121361 301.163764 
L 154.494813 300.514888 
L 155.241718 299.925 
L 155.988622 299.689045 
L 157.108979 299.512079 
L 159.349693 299.158146 
L 159.723146 298.98118 
L 162.337312 298.745225 
L 163.831121 298.361798 
L 166.81874 297.919382 
L 167.192192 297.712921 
L 167.565644 297.653933 
L 168.312549 297.388483 
L 170.926715 296.916573 
L 171.67362 296.680618 
L 175.03469 296.09073 
L 175.781595 295.913764 
L 177.275404 295.707303 
L 178.022309 295.471348 
L 178.395761 294.910955 
L 179.516118 294.439045 
L 180.636475 294.114607 
L 181.009927 293.908146 
L 181.756832 293.760674 
L 183.250641 293.288764 
L 183.997546 293.229775 
L 184.744451 293.023315 
L 186.23826 292.610393 
L 186.611712 292.580899 
L 187.358617 292.197472 
L 187.732069 292.138483 
L 188.105521 291.932022 
L 192.213497 291.224157 
L 193.707306 290.752247 
L 194.080759 290.486798 
L 195.94802 289.837921 
L 196.694925 289.277528 
L 197.815282 289.041573 
L 202.670162 287.566854 
L 203.043614 287.507865 
L 204.537423 286.888483 
L 204.910876 286.829494 
L 205.65778 286.505056 
L 206.404685 286.475562 
L 207.525042 286.121629 
L 207.898494 286.121629 
L 208.271946 285.944663 
L 209.018851 285.85618 
L 209.392303 285.708708 
L 211.259565 285.620225 
L 211.633017 285.531742 
L 212.379922 285.11882 
L 213.500279 284.705899 
L 214.247183 284.292978 
L 215.36754 283.791573 
L 216.86135 283.024719 
L 217.234802 282.582303 
L 217.981707 281.343539 
L 218.355159 281.225562 
L 218.728611 281.225562 
L 220.222421 280.370225 
L 220.595873 280.281742 
L 220.969325 279.898315 
L 221.71623 279.573876 
L 222.463134 279.219944 
L 224.703848 276.535955 
L 225.077301 276.417978 
L 226.944562 275.120225 
L 227.691467 274.589326 
L 228.064919 274.028933 
L 228.438371 273.114607 
L 228.811824 272.524719 
L 229.185276 272.200281 
L 229.558728 272.023315 
L 234.040156 267.864607 
L 235.533965 266.920787 
L 236.28087 266.507865 
L 237.774679 265.652528 
L 239.641941 263.823876 
L 240.388846 263.499438 
L 241.13575 262.968539 
L 241.509202 262.732584 
L 241.882655 262.673596 
L 243.003012 261.995225 
L 243.376464 261.552809 
L 245.243726 260.461517 
L 245.617178 260.314045 
L 246.737535 259.488202 
L 252.33932 257.364607 
L 253.086224 256.627247 
L 254.206581 256.03736 
L 254.953486 255.535955 
L 255.70039 255.3 
L 256.073843 255.034551 
L 256.447295 254.916573 
L 257.567652 254.120225 
L 259.434914 253.677809 
L 260.55527 252.969944 
L 261.675627 252.704494 
L 262.04908 252.616011 
L 263.169437 251.790169 
L 264.663246 251.347753 
L 265.036698 251.052809 
L 267.277412 250.226966 
L 268.024317 250.079494 
L 268.771221 249.755056 
L 271.385388 248.752247 
L 272.132292 248.663764 
L 273.252649 248.250843 
L 275.119911 247.277528 
L 277.360625 245.950281 
L 278.107529 245.74382 
L 279.227886 245.153933 
L 279.974791 245.006461 
L 280.721695 244.534551 
L 281.4686 244.32809 
L 282.588957 243.85618 
L 284.082766 243.649719 
L 284.829671 243.236798 
L 285.203123 242.882865 
L 285.576576 242.175 
L 287.070385 241.732584 
L 288.564194 241.024719 
L 291.925265 239.461517 
L 292.67217 239.284551 
L 293.792526 238.694663 
L 294.165979 238.635674 
L 296.03324 237.66236 
L 296.780145 237.160955 
L 297.900502 236.925 
L 300.514668 236.040169 
L 306.489905 233.179213 
L 306.863358 232.766292 
L 307.23681 232.530337 
L 307.610262 232.441854 
L 308.357167 231.792978 
L 308.730619 231.733989 
L 309.104071 231.085112 
L 309.477524 230.93764 
L 309.850976 230.613202 
L 310.224428 230.554213 
L 310.971333 230.052809 
L 311.718238 229.78736 
L 312.09169 229.492416 
L 312.838595 229.079494 
L 313.958951 228.371629 
L 315.079308 227.781742 
L 315.826213 227.575281 
L 316.573118 227.132865 
L 316.94657 226.454494 
L 317.693475 225.864607 
L 318.066927 225.776124 
L 320.307641 224.655337 
L 321.054545 224.330899 
L 321.80145 223.770506 
L 322.548355 222.974157 
L 324.415616 221.528933 
L 325.162521 220.909551 
L 325.535973 220.732584 
L 326.282878 219.936236 
L 327.403235 219.375843 
L 328.150139 218.933427 
L 328.523592 218.815449 
L 328.897044 218.520506 
L 329.270496 218.461517 
L 332.631567 216.691854 
L 333.378472 216.485393 
L 334.872281 215.954494 
L 335.245733 215.630056 
L 336.739543 215.010674 
L 337.112995 214.892697 
L 337.8599 214.391292 
L 338.606804 214.066854 
L 339.353709 213.506461 
L 340.100613 211.943258 
L 340.847518 211.058427 
L 341.967875 210.439045 
L 342.71478 210.114607 
L 343.088232 210.055618 
L 343.835137 209.701685 
L 345.328946 209.170787 
L 346.075851 208.728371 
L 346.822755 208.374438 
L 347.196207 208.256461 
L 349.436921 206.84073 
L 349.810374 206.398315 
L 350.930731 205.719944 
L 351.304183 205.572472 
L 352.051088 205.100562 
L 353.544897 204.245225 
L 353.918349 204.156742 
L 354.291801 203.832303 
L 356.905968 202.947472 
L 357.27942 202.682022 
L 358.026325 202.446067 
L 361.013943 200.971348 
L 361.760848 200.558427 
L 362.1343 200.381461 
L 362.881205 199.762079 
L 363.628109 199.555618 
L 364.001562 199.201685 
L 364.375014 199.142697 
L 365.121919 198.552809 
L 366.98918 197.402528 
L 367.736085 197.166573 
L 368.109537 196.930618 
L 368.482989 196.871629 
L 369.976799 196.13427 
L 371.097156 195.750843 
L 371.84406 195.632865 
L 373.337869 195.042978 
L 373.711322 195.013483 
L 375.578583 194.158146 
L 376.325488 193.627247 
L 377.072393 193.214326 
L 378.566202 192.476966 
L 379.686559 191.710112 
L 380.433463 191.533146 
L 381.55382 190.825281 
L 382.674177 190.41236 
L 383.421082 190.14691 
L 384.914891 189.616011 
L 385.661796 189.350562 
L 387.155605 189.026124 
L 387.90251 188.790169 
L 389.769771 188.141292 
L 390.890128 187.78736 
L 391.637033 187.610393 
L 393.877747 187.197472 
L 394.624651 187.05 
L 395.745008 186.784551 
L 396.118461 186.607584 
L 396.865365 186.460112 
L 397.61227 186.253652 
L 398.359175 185.899719 
L 398.732627 185.752247 
L 399.106079 185.752247 
L 403.214055 184.425 
L 403.587507 184.218539 
L 403.960959 184.218539 
L 404.707864 183.923596 
L 405.081316 183.510674 
L 407.32203 182.53736 
L 408.815839 182.006461 
L 409.189292 181.770506 
L 410.309649 181.416573 
L 411.056553 181.210112 
L 411.430006 180.944663 
L 411.803458 180.85618 
L 412.17691 180.531742 
L 413.297267 180.295787 
L 414.044172 179.941854 
L 414.417624 179.469944 
L 418.5256 178.526124 
L 418.899052 178.526124 
L 419.645956 178.290169 
L 423.007027 177.434831 
L 423.753932 177.257865 
L 427.488455 176.166573 
L 427.861907 176.07809 
L 428.23536 175.871629 
L 428.982264 175.665169 
L 429.729169 175.34073 
L 430.476074 175.045787 
L 430.849526 174.780337 
L 431.596431 174.544382 
L 434.584049 173.482584 
L 435.330954 173.423596 
L 436.824763 172.98118 
L 437.198215 172.745225 
L 437.94512 172.50927 
L 438.692025 172.214326 
L 439.065477 171.919382 
L 439.438929 171.830899 
L 439.812381 171.624438 
L 440.559286 171.476966 
L 442.053095 170.82809 
L 442.8 170.621629 
L 443.920357 170.149719 
L 446.161071 169.530337 
L 446.907975 169.14691 
L 448.028332 168.881461 
L 449.522142 167.613202 
L 452.136308 166.462921 
L 454.750474 165.31264 
L 455.497379 165.10618 
L 458.85845 163.425 
L 459.605354 162.982584 
L 462.966425 161.330899 
L 463.339877 161.035955 
L 467.821305 159.325281 
L 468.56821 159.207303 
L 468.941662 158.941854 
L 470.435471 158.64691 
L 471.182376 158.322472 
L 473.049637 157.408146 
L 477.904518 155.196067 
L 479.024875 154.81264 
L 479.398327 154.547191 
L 480.145231 154.458708 
L 480.518684 154.193258 
L 481.265588 154.075281 
L 486.120468 152.276124 
L 487.240825 152.010674 
L 488.734635 151.361798 
L 489.481539 150.948876 
L 490.975349 150.152528 
L 491.722253 149.975562 
L 492.095706 149.739607 
L 492.469158 149.651124 
L 494.336419 148.707303 
L 499.191299 146.849157 
L 499.564752 146.790169 
L 501.058561 146.052809 
L 501.805466 145.905337 
L 502.55237 145.462921 
L 504.04618 144.725562 
L 510.768321 142.100562 
L 512.262131 140.802809 
L 512.635583 140.684831 
L 513.009035 140.448876 
L 514.129392 140.124438 
L 514.502844 139.829494 
L 515.249749 139.564045 
L 516.370106 138.797191 
L 517.117011 138.59073 
L 517.863915 138.177809 
L 518.984272 137.91236 
L 524.959509 135.434831 
L 526.826771 134.667978 
L 528.694032 134.07809 
L 529.814389 133.34073 
L 530.187842 133.252247 
L 530.934746 132.86882 
L 531.681651 132.632865 
L 532.055103 132.278933 
L 533.17546 131.836517 
L 533.548912 131.777528 
L 535.042722 131.069663 
L 536.163079 130.71573 
L 537.283436 130.302809 
L 538.403793 129.978371 
L 538.777245 129.919382 
L 539.524149 129.506461 
L 539.897602 129.358989 
L 540.271054 129.064045 
L 541.391411 128.769101 
L 542.138316 128.474157 
L 542.88522 128.149719 
L 544.37903 127.530337 
L 546.993196 126.822472 
L 547.7401 126.527528 
L 549.23391 126.232584 
L 549.980814 126.085112 
L 551.101171 125.642697 
L 552.221528 125.406742 
L 554.462242 124.05 
L 555.582599 123.371629 
L 557.823313 122.663764 
L 558.196765 122.36882 
L 561.184384 121.277528 
L 562.304741 120.923596 
L 563.051645 120.510674 
L 563.79855 120.304213 
L 564.172002 120.097753 
L 564.918907 119.950281 
L 566.412716 119.360393 
L 567.159621 118.858989 
L 568.279978 118.564045 
L 569.400335 117.797191 
L 569.773787 117.738202 
L 571.267596 117.11882 
L 572.761405 116.735393 
L 573.134858 116.676404 
L 573.50831 116.499438 
L 574.255215 116.351966 
L 577.616286 115.319663 
L 578.36319 114.729775 
L 579.856999 113.874438 
L 580.230452 113.785955 
L 580.603904 113.579494 
L 580.977356 113.520506 
L 584.338427 111.839326 
L 584.71188 111.514888 
L 586.579141 111.042978 
L 587.699498 110.541573 
L 588.446403 110.335112 
L 588.819855 110.158146 
L 589.193307 109.833708 
L 591.060569 109.155337 
L 595.915449 107.326685 
L 596.662354 107.179213 
L 598.529615 106.559831 
L 599.649972 106.058427 
L 602.264138 105.262079 
L 603.011043 104.819663 
L 615.708422 100.89691 
L 616.455326 100.690449 
L 617.575683 100.277528 
L 617.949136 100.277528 
L 619.069492 100.012079 
L 619.816397 99.864607 
L 620.563302 99.658146 
L 621.683659 99.038764 
L 622.804016 98.684831 
L 625.418182 97.8 
L 626.911991 97.033146 
L 628.032348 96.767697 
L 628.779253 96.531742 
L 629.526157 96.148315 
L 629.89961 95.823876 
L 630.646514 95.587921 
L 631.019967 95.351966 
L 631.766871 95.263483 
L 634.381037 94.496629 
L 635.501394 94.260674 
L 636.621751 93.96573 
L 637.368656 93.788764 
L 638.489013 93.198876 
L 643.343893 91.34073 
L 644.090798 91.222753 
L 644.837702 91.075281 
L 645.211154 91.075281 
L 646.331511 90.721348 
L 647.451868 90.367416 
L 650.439487 89.482584 
L 651.933296 89.158146 
L 652.306748 88.922191 
L 653.053653 88.774719 
L 653.800558 88.686236 
L 654.17401 88.479775 
L 654.547462 88.450281 
L 655.667819 87.919382 
L 656.788176 87.653933 
L 657.535081 87.329494 
L 659.775795 86.533146 
L 660.149247 86.474157 
L 660.896152 86.208708 
L 665.377579 85.058427 
L 667.618293 84.291573 
L 668.365198 84.232584 
L 670.605912 83.672191 
L 671.352817 83.347753 
L 671.726269 83.288764 
L 672.099721 83.111798 
L 672.846626 82.462921 
L 676.581149 81.076685 
L 678.821863 80.486798 
L 679.568767 80.073876 
L 679.94222 79.985393 
L 681.062577 79.366011 
L 681.436029 79.277528 
L 681.809481 78.982584 
L 682.929838 78.658146 
L 688.905075 75.944663 
L 689.278528 75.885674 
L 693.386503 74.027528 
L 694.133408 73.762079 
L 694.50686 73.585112 
L 694.880312 73.555618 
L 696.747574 72.847753 
L 697.494479 72.700281 
L 698.241383 72.139888 
L 698.614835 72.139888 
L 700.108645 71.608989 
L 701.602454 71.314045 
L 703.096263 70.665169 
L 703.469716 70.665169 
L 704.590073 70.281742 
L 705.336977 70.163764 
L 706.457334 69.514888 
L 707.204239 69.131461 
L 709.0715 68.512079 
L 709.818405 68.18764 
L 711.685666 67.686236 
L 713.92638 67.066854 
L 718.407808 65.739607 
L 721.395427 64.972753 
L 723.262688 64.14691 
L 726.623759 63.409551 
L 727.370664 63.291573 
L 728.491021 62.849157 
L 729.611378 62.436236 
L 730.358282 62.318258 
L 731.852091 61.816854 
L 732.225544 61.816854 
L 732.598996 61.52191 
L 733.345901 61.285955 
L 733.719353 61.285955 
L 737.080424 60.165169 
L 738.574233 59.516292 
L 738.947685 59.457303 
L 739.69459 59.103371 
L 740.441495 58.778933 
L 741.188399 58.454494 
L 741.935304 58.159551 
L 742.308756 57.923596 
L 742.682209 57.864607 
L 743.429113 57.48118 
L 744.176018 57.245225 
L 745.296375 56.655337 
L 746.043279 56.389888 
L 746.790184 55.888483 
L 747.163636 55.8 
L 747.163636 55.8 
" clip-path="url(#pfc4cc2d16d)" style="fill: none; stroke: #1f77b4; stroke-width: 1.5; stroke-linecap: square"/>
   </g>
   <g id="line2d_40">
    <path d="M 138.809816 307.8 
L 142.170887 307.711517 
L 145.158505 307.564045 
L 146.652315 307.564045 
L 147.025767 307.446067 
L 148.893028 307.357584 
L 151.133742 307.092135 
L 153.374456 307.003652 
L 154.121361 306.915169 
L 156.735527 306.797191 
L 159.349693 306.708708 
L 161.216955 306.649719 
L 166.071835 306.561236 
L 167.939096 306.502247 
L 171.300167 306.413764 
L 172.793977 306.38427 
L 176.5285 306.295787 
L 178.022309 306.148315 
L 179.516118 306.11882 
L 181.756832 306.030337 
L 183.250641 306.000843 
L 185.117903 305.941854 
L 186.611712 305.794382 
L 189.972783 305.705899 
L 190.719688 305.64691 
L 192.213497 305.558427 
L 194.454211 305.469944 
L 195.94802 305.381461 
L 202.670162 304.939045 
L 205.284328 304.850562 
L 206.404685 304.732584 
L 208.271946 304.644101 
L 212.00647 304.43764 
L 215.740993 304.378652 
L 217.234802 304.201685 
L 219.102064 304.113202 
L 222.836587 303.729775 
L 225.077301 303.434831 
L 226.57111 303.375843 
L 229.558728 302.962921 
L 231.799442 302.903933 
L 232.919799 302.785955 
L 234.040156 302.697472 
L 253.459677 301.252247 
L 256.073843 301.163764 
L 257.567652 300.986798 
L 259.434914 300.898315 
L 261.675627 300.809831 
L 263.542889 300.721348 
L 265.036698 300.691854 
L 266.90396 300.632865 
L 267.650864 300.544382 
L 272.879197 300.455899 
L 273.626102 300.367416 
L 278.107529 300.278933 
L 281.4686 300.101966 
L 284.082766 300.013483 
L 285.576576 299.836517 
L 288.190742 299.748034 
L 288.937646 299.630056 
L 290.804908 299.571067 
L 294.539431 299.512079 
L 296.03324 299.364607 
L 297.52705 299.335112 
L 298.647407 299.246629 
L 300.141216 299.099157 
L 303.875739 298.892697 
L 307.610262 298.804213 
L 310.971333 298.627247 
L 312.09169 298.597753 
L 312.838595 298.479775 
L 314.705856 298.391292 
L 315.452761 298.332303 
L 317.320022 298.24382 
L 318.813832 298.214326 
L 321.427998 298.125843 
L 331.137758 297.447472 
L 333.378472 297.358989 
L 335.245733 297.3 
L 340.474066 297.211517 
L 341.22097 297.123034 
L 346.449303 297.034551 
L 350.183826 296.82809 
L 350.930731 296.798596 
L 351.677635 296.710112 
L 353.544897 296.621629 
L 355.412158 296.56264 
L 357.27942 296.474157 
L 359.146682 296.415169 
L 362.507752 296.326685 
L 364.748466 296.238202 
L 369.976799 296.149719 
L 374.084774 295.913764 
L 375.578583 295.854775 
L 376.69894 295.766292 
L 381.927273 295.677809 
L 384.167987 295.589326 
L 390.890128 295.500843 
L 392.383938 295.471348 
L 396.865365 295.41236 
L 397.61227 295.353371 
L 402.840602 295.264888 
L 404.334412 295.235393 
L 414.044172 295.14691 
L 416.284886 295.058427 
L 431.969883 294.969944 
L 433.837144 294.910955 
L 443.546905 294.851966 
L 444.293809 294.792978 
L 446.161071 294.733989 
L 447.281428 294.616011 
L 449.522142 294.527528 
L 452.136308 294.409551 
L 455.497379 294.321067 
L 457.36464 294.262079 
L 459.978806 294.173596 
L 462.966425 294.026124 
L 464.833687 293.93764 
L 466.327496 293.908146 
L 472.676185 293.819663 
L 474.916899 293.73118 
L 479.024875 293.642697 
L 481.639041 293.524719 
L 484.253207 293.46573 
L 485.000112 293.406742 
L 493.962967 293.318258 
L 497.69749 293.111798 
L 500.311656 293.023315 
L 504.419632 292.78736 
L 507.033798 292.698876 
L 508.527607 292.669382 
L 511.141774 292.580899 
L 513.009035 292.374438 
L 516.743558 292.285955 
L 517.490463 292.197472 
L 521.224986 292.108989 
L 523.092248 292.05 
L 527.200223 292.020506 
L 527.947128 291.932022 
L 532.055103 291.843539 
L 532.802008 291.784551 
L 541.017959 291.696067 
L 543.258673 291.607584 
L 548.860457 291.519101 
L 550.354267 291.489607 
L 553.715337 291.430618 
L 554.462242 291.342135 
L 559.317122 291.253652 
L 561.184384 291.194663 
L 567.906525 291.10618 
L 569.026882 291.017697 
L 570.147239 290.929213 
L 571.267596 290.84073 
L 576.869381 290.752247 
L 579.110095 290.663764 
L 589.940212 290.575281 
L 593.301283 290.398315 
L 598.529615 290.309831 
L 600.023424 290.280337 
L 604.504852 290.191854 
L 606.372114 290.132865 
L 614.214612 290.044382 
L 616.828779 289.926404 
L 623.55092 289.837921 
L 625.04473 289.808427 
L 628.779253 289.719944 
L 631.393419 289.601966 
L 635.501394 289.513483 
L 638.115561 289.395506 
L 641.476631 289.336517 
L 642.223536 289.277528 
L 650.439487 289.189045 
L 652.680201 289.100562 
L 655.294367 289.012079 
L 657.161629 288.95309 
L 667.991746 288.864607 
L 670.23246 288.776124 
L 676.207697 288.68764 
L 678.44841 288.599157 
L 683.303291 288.510674 
L 685.544004 288.422191 
L 688.531623 288.333708 
L 690.772337 288.245225 
L 705.710429 288.156742 
L 708.698048 288.00927 
L 717.287451 287.920787 
L 718.78126 287.891292 
L 727.744116 287.802809 
L 729.611378 287.74382 
L 741.561852 287.655337 
L 743.055661 287.625843 
L 747.163636 287.566854 
L 747.163636 287.566854 
" clip-path="url(#pfc4cc2d16d)" style="fill: none; stroke: #ff7f0e; stroke-width: 1.5; stroke-linecap: square"/>
   </g>
   <g id="patch_3">
    <path d="M 108 320.4 
L 108 43.2 
" style="fill: none; stroke: #a9a9a9; stroke-width: 0.8; stroke-linejoin: miter; stroke-linecap: square"/>
   </g>
   <g id="patch_4">
    <path d="M 777.6 320.4 
L 777.6 43.2 
" style="fill: none"/>
   </g>
   <g id="patch_5">
    <path d="M 108 320.4 
L 777.6 320.4 
" style="fill: none; stroke: #a9a9a9; stroke-width: 0.8; stroke-linejoin: miter; stroke-linecap: square"/>
   </g>
   <g id="patch_6">
    <path d="M 108 43.2 
L 777.6 43.2 
" style="fill: none"/>
   </g>
   <g id="text_20">
    <!-- get_subscribe history -->
    <g style="fill: #a9a9a9" transform="translate(378.6075 37.2) scale(0.12 -0.12)">
     <defs>
      <path id="DejaVuSans-67" d="M 2906 1791 
Q 2906 2416 2648 2759 
Q 2391 3103 1925 3103 
Q 1463 3103 1205 2759 
Q 947 2416 947 1791 
Q 947 1169 1205 825 
Q 1463 481 1925 481 
Q 2391 481 2648 825 
Q 2906 1169 2906 1791 
z
M 3481 434 
Q 3481 -459 3084 -895 
Q 2688 -1331 1869 -1331 
Q 1566 -1331 1297 -1286 
Q 1028 -1241 775 -1147 
L 775 -588 
Q 1028 -725 1275 -790 
Q 1522 -856 1778 -856 
Q 2344 -856 2625 -561 
Q 2906 -266 2906 331 
L 2906 616 
Q 2728 306 2450 153 
Q 2172 0 1784 0 
Q 1141 0 747 490 
Q 353 981 353 1791 
Q 353 2603 747 3093 
Q 1141 3584 1784 3584 
Q 2172 3584 2450 3431 
Q 2728 3278 2906 2969 
L 2906 3500 
L 3481 3500 
L 3481 434 
z
" transform="scale(0.015625)"/>
      <path id="DejaVuSans-65" d="M 3597 1894 
L 3597 1613 
L 953 1613 
Q 991 1019 1311 708 
Q 1631 397 2203 397 
Q 2534 397 2845 478 
Q 3156 559 3463 722 
L 3463 178 
Q 3153 47 2828 -22 
Q 2503 -91 2169 -91 
Q 1331 -91 842 396 
Q 353 884 353 1716 
Q 353 2575 817 3079 
Q 1281 3584 2069 3584 
Q 2775 3584 3186 3129 
Q 3597 2675 3597 1894 
z
M 3022 2063 
Q 3016 2534 2758 2815 
Q 2500 3097 2075 3097 
Q 1594 3097 1305 2825 
Q 1016 2553 972 2059 
L 3022 2063 
z
" transform="scale(0.015625)"/>
      <path id="DejaVuSans-74" d="M 1172 4494 
L 1172 3500 
L 2356 3500 
L 2356 3053 
L 1172 3053 
L 1172 1153 
Q 1172 725 1289 603 
Q 1406 481 1766 481 
L 2356 481 
L 2356 0 
L 1766 0 
Q 1100 0 847 248 
Q 594 497 594 1153 
L 594 3053 
L 172 3053 
L 172 3500 
L 594 3500 
L 594 4494 
L 1172 4494 
z
" transform="scale(0.015625)"/>
      <path id="DejaVuSans-5f" d="M 3263 -1063 
L 3263 -1509 
L -63 -1509 
L -63 -1063 
L 3263 -1063 
z
" transform="scale(0.015625)"/>
      <path id="DejaVuSans-73" d="M 2834 3397 
L 2834 2853 
Q 2591 2978 2328 3040 
Q 2066 3103 1784 3103 
Q 1356 3103 1142 2972 
Q 928 2841 928 2578 
Q 928 2378 1081 2264 
Q 1234 2150 1697 2047 
L 1894 2003 
Q 2506 1872 2764 1633 
Q 3022 1394 3022 966 
Q 3022 478 2636 193 
Q 2250 -91 1575 -91 
Q 1294 -91 989 -36 
Q 684 19 347 128 
L 347 722 
Q 666 556 975 473 
Q 1284 391 1588 391 
Q 1994 391 2212 530 
Q 2431 669 2431 922 
Q 2431 1156 2273 1281 
Q 2116 1406 1581 1522 
L 1381 1569 
Q 847 1681 609 1914 
Q 372 2147 372 2553 
Q 372 3047 722 3315 
Q 1072 3584 1716 3584 
Q 2034 3584 2315 3537 
Q 2597 3491 2834 3397 
z
" transform="scale(0.015625)"/>
      <path id="DejaVuSans-75" d="M 544 1381 
L 544 3500 
L 1119 3500 
L 1119 1403 
Q 1119 906 1312 657 
Q 1506 409 1894 409 
Q 2359 409 2629 706 
Q 2900 1003 2900 1516 
L 2900 3500 
L 3475 3500 
L 3475 0 
L 2900 0 
L 2900 538 
Q 2691 219 2414 64 
Q 2138 -91 1772 -91 
Q 1169 -91 856 284 
Q 544 659 544 1381 
z
M 1991 3584 
L 1991 3584 
z
" transform="scale(0.015625)"/>
      <path id="DejaVuSans-62" d="M 3116 1747 
Q 3116 2381 2855 2742 
Q 2594 3103 2138 3103 
Q 1681 3103 1420 2742 
Q 1159 2381 1159 1747 
Q 1159 1113 1420 752 
Q 1681 391 2138 391 
Q 2594 391 2855 752 
Q 3116 1113 3116 1747 
z
M 1159 2969 
Q 1341 3281 1617 3432 
Q 1894 3584 2278 3584 
Q 2916 3584 3314 3078 
Q 3713 2572 3713 1747 
Q 3713 922 3314 415 
Q 2916 -91 2278 -91 
Q 1894 -91 1617 61 
Q 1341 213 1159 525 
L 1159 0 
L 581 0 
L 581 4863 
L 1159 4863 
L 1159 2969 
z
" transform="scale(0.015625)"/>
      <path id="DejaVuSans-63" d="M 3122 3366 
L 3122 2828 
Q 2878 2963 2633 3030 
Q 2388 3097 2138 3097 
Q 1578 3097 1268 2742 
Q 959 2388 959 1747 
Q 959 1106 1268 751 
Q 1578 397 2138 397 
Q 2388 397 2633 464 
Q 2878 531 3122 666 
L 3122 134 
Q 2881 22 2623 -34 
Q 2366 -91 2075 -91 
Q 1284 -91 818 406 
Q 353 903 353 1747 
Q 353 2603 823 3093 
Q 1294 3584 2113 3584 
Q 2378 3584 2631 3529 
Q 2884 3475 3122 3366 
z
" transform="scale(0.015625)"/>
      <path id="DejaVuSans-72" d="M 2631 2963 
Q 2534 3019 2420 3045 
Q 2306 3072 2169 3072 
Q 1681 3072 1420 2755 
Q 1159 2438 1159 1844 
L 1159 0 
L 581 0 
L 581 3500 
L 1159 3500 
L 1159 2956 
Q 1341 3275 1631 3429 
Q 1922 3584 2338 3584 
Q 2397 3584 2469 3576 
Q 2541 3569 2628 3553 
L 2631 2963 
z
" transform="scale(0.015625)"/>
      <path id="DejaVuSans-69" d="M 603 3500 
L 1178 3500 
L 1178 0 
L 603 0 
L 603 3500 
z
M 603 4863 
L 1178 4863 
L 1178 4134 
L 603 4134 
L 603 4863 
z
" transform="scale(0.015625)"/>
      <path id="DejaVuSans-20" transform="scale(0.015625)"/>
      <path id="DejaVuSans-68" d="M 3513 2113 
L 3513 0 
L 2938 0 
L 2938 2094 
Q 2938 2591 2744 2837 
Q 2550 3084 2163 3084 
Q 1697 3084 1428 2787 
Q 1159 2491 1159 1978 
L 1159 0 
L 581 0 
L 581 4863 
L 1159 4863 
L 1159 2956 
Q 1366 3272 1645 3428 
Q 1925 3584 2291 3584 
Q 2894 3584 3203 3211 
Q 3513 2838 3513 2113 
z
" transform="scale(0.015625)"/>
      <path id="DejaVuSans-6f" d="M 1959 3097 
Q 1497 3097 1228 2736 
Q 959 2375 959 1747 
Q 959 1119 1226 758 
Q 1494 397 1959 397 
Q 2419 397 2687 759 
Q 2956 1122 2956 1747 
Q 2956 2369 2687 2733 
Q 2419 3097 1959 3097 
z
M 1959 3584 
Q 2709 3584 3137 3096 
Q 3566 2609 3566 1747 
Q 3566 888 3137 398 
Q 2709 -91 1959 -91 
Q 1206 -91 779 398 
Q 353 888 353 1747 
Q 353 2609 779 3096 
Q 1206 3584 1959 3584 
z
" transform="scale(0.015625)"/>
      <path id="DejaVuSans-79" d="M 2059 -325 
Q 1816 -950 1584 -1140 
Q 1353 -1331 966 -1331 
L 506 -1331 
L 506 -850 
L 844 -850 
Q 1081 -850 1212 -737 
Q 1344 -625 1503 -206 
L 1606 56 
L 191 3500 
L 800 3500 
L 1894 763 
L 2988 3500 
L 3597 3500 
L 2059 -325 
z
" transform="scale(0.015625)"/>
     </defs>
     <use xlink:href="#DejaVuSans-67"/>
     <use xlink:href="#DejaVuSans-65" transform="translate(63.476562 0)"/>
     <use xlink:href="#DejaVuSans-74" transform="translate(125 0)"/>
     <use xlink:href="#DejaVuSans-5f" transform="translate(164.208984 0)"/>
     <use xlink:href="#DejaVuSans-73" transform="translate(214.208984 0)"/>
     <use xlink:href="#DejaVuSans-75" transform="translate(266.308594 0)"/>
     <use xlink:href="#DejaVuSans-62" transform="translate(329.6875 0)"/>
     <use xlink:href="#DejaVuSans-73" transform="translate(393.164062 0)"/>
     <use xlink:href="#DejaVuSans-63" transform="translate(445.263672 0)"/>
     <use xlink:href="#DejaVuSans-72" transform="translate(500.244141 0)"/>
     <use xlink:href="#DejaVuSans-69" transform="translate(541.357422 0)"/>
     <use xlink:href="#DejaVuSans-62" transform="translate(569.140625 0)"/>
     <use xlink:href="#DejaVuSans-65" transform="translate(632.617188 0)"/>
     <use xlink:href="#DejaVuSans-20" transform="translate(694.140625 0)"/>
     <use xlink:href="#DejaVuSans-68" transform="translate(725.927734 0)"/>
     <use xlink:href="#DejaVuSans-69" transform="translate(789.306641 0)"/>
     <use xlink:href="#DejaVuSans-73" transform="translate(817.089844 0)"/>
     <use xlink:href="#DejaVuSans-74" transform="translate(869.189453 0)"/>
     <use xlink:href="#DejaVuSans-6f" transform="translate(908.398438 0)"/>
     <use xlink:href="#DejaVuSans-72" transform="translate(969.580078 0)"/>
     <use xlink:href="#DejaVuSans-79" transform="translate(1010.693359 0)"/>
    </g>
   </g>
   <g id="legend_1">
    <g id="line2d_41">
     <path d="M 815.08 328.498438 
L 825.08 328.498438 
L 835.08 328.498438 
" style="fill: none; stroke: #1f77b4; stroke-width: 1.5; stroke-linecap: square"/>
    </g>
    <g id="text_21">
     <!-- star -->
     <g style="fill: #a9a9a9" transform="translate(843.08 331.998438) scale(0.1 -0.1)">
      <defs>
       <path id="DejaVuSans-61" d="M 2194 1759 
Q 1497 1759 1228 1600 
Q 959 1441 959 1056 
Q 959 750 1161 570 
Q 1363 391 1709 391 
Q 2188 391 2477 730 
Q 2766 1069 2766 1631 
L 2766 1759 
L 2194 1759 
z
M 3341 1997 
L 3341 0 
L 2766 0 
L 2766 531 
Q 2569 213 2275 61 
Q 1981 -91 1556 -91 
Q 1019 -91 701 211 
Q 384 513 384 1019 
Q 384 1609 779 1909 
Q 1175 2209 1959 2209 
L 2766 2209 
L 2766 2266 
Q 2766 2663 2505 2880 
Q 2244 3097 1772 3097 
Q 1472 3097 1187 3025 
Q 903 2953 641 2809 
L 641 3341 
Q 956 3463 1253 3523 
Q 1550 3584 1831 3584 
Q 2591 3584 2966 3190 
Q 3341 2797 3341 1997 
z
" transform="scale(0.015625)"/>
      </defs>
      <use xlink:href="#DejaVuSans-73"/>
      <use xlink:href="#DejaVuSans-74" transform="translate(52.099609 0)"/>
      <use xlink:href="#DejaVuSans-61" transform="translate(91.308594 0)"/>
      <use xlink:href="#DejaVuSans-72" transform="translate(152.587891 0)"/>
     </g>
    </g>
    <g id="line2d_42">
     <path d="M 815.08 343.176562 
L 825.08 343.176562 
L 835.08 343.176562 
" style="fill: none; stroke: #ff7f0e; stroke-width: 1.5; stroke-linecap: square"/>
    </g>
    <g id="text_22">
     <!-- fork -->
     <g style="fill: #a9a9a9" transform="translate(843.08 346.676562) scale(0.1 -0.1)">
      <defs>
       <path id="DejaVuSans-66" d="M 2375 4863 
L 2375 4384 
L 1825 4384 
Q 1516 4384 1395 4259 
Q 1275 4134 1275 3809 
L 1275 3500 
L 2222 3500 
L 2222 3053 
L 1275 3053 
L 1275 0 
L 697 0 
L 697 3053 
L 147 3053 
L 147 3500 
L 697 3500 
L 697 3744 
Q 697 4328 969 4595 
Q 1241 4863 1831 4863 
L 2375 4863 
z
" transform="scale(0.015625)"/>
       <path id="DejaVuSans-6b" d="M 581 4863 
L 1159 4863 
L 1159 1991 
L 2875 3500 
L 3609 3500 
L 1753 1863 
L 3688 0 
L 2938 0 
L 1159 1709 
L 1159 0 
L 581 0 
L 581 4863 
z
" transform="scale(0.015625)"/>
      </defs>
      <use xlink:href="#DejaVuSans-66"/>
      <use xlink:href="#DejaVuSans-6f" transform="translate(35.205078 0)"/>
      <use xlink:href="#DejaVuSans-72" transform="translate(96.386719 0)"/>
      <use xlink:href="#DejaVuSans-6b" transform="translate(137.5 0)"/>
     </g>
    </g>
   </g>
  </g>
 </g>
 <defs>
  <clipPath id="pfc4cc2d16d">
   <rect x="108" y="43.2" width="669.6" height="277.2"/>
  </clipPath>
 </defs>
</svg>
